M48
; DRILL file {KiCad (5.1.6-0-10_14)} date Wednesday, October 28, 2020 at 10:54:18 PM
; FORMAT={-:-/ absolute / inch / decimal}
; #@! TF.CreationDate,2020-10-28T22:54:18-04:00
; #@! TF.GenerationSoftware,Kicad,Pcbnew,(5.1.6-0-10_14)
; #@! TF.FileFunction,Plated,1,2,PTH
FMAT,2
INCH
T1C0.0157
T2C0.0236
T3C0.0295
T4C0.0315
T5C0.0394
%
G90
G05
T1
X0.3947Y-3.0079
X0.3957Y-3.1388
X0.5984Y-3.3012
X0.6152Y-3.4764
X0.7087Y-2.9793
X0.7185Y-3.3248
T2
X0.4764Y-2.6762
X0.4764Y-2.7352
X0.2756Y-2.6781
X0.2756Y-2.7372
T3
X0.69Y-2.6565
X0.7687Y-2.6565
T4
X0.0453Y-3.1053
X0.1437Y-3.1053
T5
X-0.0567Y-3.2648
X0.0433Y-3.2648
X-0.0561Y-3.4106
X-0.0561Y-3.5106
X-0.0561Y-3.6106
X-0.0561Y-3.7106
X0.124Y-3.4114
X0.124Y-3.5114
X0.124Y-3.6114
X0.124Y-3.7114
T0
M30
