%TF.GenerationSoftware,KiCad,Pcbnew,(5.1.6-0-10_14)*%
%TF.CreationDate,2020-10-13T22:09:45-04:00*%
%TF.ProjectId,weather_external,77656174-6865-4725-9f65-787465726e61,rev?*%
%TF.SameCoordinates,Original*%
%TF.FileFunction,Soldermask,Bot*%
%TF.FilePolarity,Negative*%
%FSLAX46Y46*%
G04 Gerber Fmt 4.6, Leading zero omitted, Abs format (unit mm)*
G04 Created by KiCad (PCBNEW (5.1.6-0-10_14)) date 2020-10-13 22:09:45*
%MOMM*%
%LPD*%
G01*
G04 APERTURE LIST*
%ADD10C,1.300000*%
%ADD11R,1.300000X1.300000*%
%ADD12O,1.700000X1.700000*%
%ADD13R,1.700000X1.700000*%
%ADD14C,1.540000*%
%ADD15O,1.800000X1.800000*%
%ADD16R,1.800000X1.800000*%
%ADD17C,1.700000*%
%ADD18C,2.100000*%
%ADD19R,2.100000X2.100000*%
G04 APERTURE END LIST*
D10*
%TO.C,C5*%
X19100000Y-60950000D03*
D11*
X17100000Y-60950000D03*
%TD*%
D12*
%TO.C,U3*%
X13045000Y-58425000D03*
X5425000Y-66045000D03*
X13045000Y-60965000D03*
X5425000Y-63505000D03*
X13045000Y-63505000D03*
X5425000Y-60965000D03*
X13045000Y-66045000D03*
D13*
X5425000Y-58425000D03*
%TD*%
D14*
%TO.C,RV1*%
X6000000Y-47025000D03*
X3460000Y-49565000D03*
X6000000Y-52105000D03*
%TD*%
D15*
%TO.C,JP1*%
X1850000Y-58535000D03*
D16*
X1850000Y-61075000D03*
%TD*%
D15*
%TO.C,J4*%
X24020000Y-65750000D03*
X21480000Y-65750000D03*
X18940000Y-65750000D03*
D16*
X16400000Y-65750000D03*
%TD*%
D12*
%TO.C,R5*%
X11525000Y-44755000D03*
D17*
X11525000Y-52375000D03*
%TD*%
D10*
%TO.C,C4*%
X15950000Y-40050000D03*
D11*
X15950000Y-42050000D03*
%TD*%
D18*
%TO.C,SW1*%
X20925000Y-44450000D03*
X20925000Y-39950000D03*
X27425000Y-44450000D03*
X27425000Y-39950000D03*
%TD*%
D12*
%TO.C,R4*%
X21200000Y-49130000D03*
D17*
X21200000Y-56750000D03*
%TD*%
D12*
%TO.C,R3*%
X25650000Y-49105000D03*
D17*
X25650000Y-56725000D03*
%TD*%
D12*
%TO.C,R1*%
X29775000Y-49105000D03*
D17*
X29775000Y-56725000D03*
%TD*%
D18*
%TO.C,Q1*%
X24200000Y-90230000D03*
X24200000Y-87690000D03*
D19*
X24200000Y-85150000D03*
%TD*%
D15*
%TO.C,J3*%
X27300000Y-31495000D03*
X27300000Y-34035000D03*
D16*
X27300000Y-36575000D03*
%TD*%
D15*
%TO.C,J2*%
X15950000Y-32515000D03*
D16*
X15950000Y-29975000D03*
%TD*%
D15*
%TO.C,J1*%
X30400000Y-77400000D03*
X30400000Y-79940000D03*
X30400000Y-82480000D03*
X30400000Y-85020000D03*
X30400000Y-87560000D03*
D16*
X30400000Y-90100000D03*
%TD*%
D10*
%TO.C,C3*%
X27475000Y-95050000D03*
D11*
X27475000Y-97050000D03*
%TD*%
D10*
%TO.C,C2*%
X31475000Y-39775000D03*
D11*
X31475000Y-41775000D03*
%TD*%
M02*
