%TF.GenerationSoftware,KiCad,Pcbnew,(5.1.6-0-10_14)*%
%TF.CreationDate,2020-10-28T22:54:17-04:00*%
%TF.ProjectId,weather_external,77656174-6865-4725-9f65-787465726e61,rev?*%
%TF.SameCoordinates,Original*%
%TF.FileFunction,Soldermask,Bot*%
%TF.FilePolarity,Negative*%
%FSLAX46Y46*%
G04 Gerber Fmt 4.6, Leading zero omitted, Abs format (unit mm)*
G04 Created by KiCad (PCBNEW (5.1.6-0-10_14)) date 2020-10-28 22:54:17*
%MOMM*%
%LPD*%
G01*
G04 APERTURE LIST*
%ADD10R,1.100000X1.600000*%
%ADD11R,1.600000X1.600000*%
%ADD12O,1.800000X1.800000*%
%ADD13R,1.800000X1.800000*%
%ADD14C,1.700000*%
%ADD15C,1.300000*%
%ADD16R,1.300000X1.300000*%
%ADD17O,1.300000X1.850000*%
G04 APERTURE END LIST*
D10*
%TO.C,JP1*%
X22225000Y-94850000D03*
X20925000Y-94850000D03*
%TD*%
D11*
%TO.C,SW1*%
X2350000Y-66625000D03*
X2350000Y-74425000D03*
%TD*%
D12*
%TO.C,FTDI1*%
X-1425000Y-86630000D03*
X-1425000Y-89170000D03*
X-1425000Y-91710000D03*
D13*
X-1425000Y-94250000D03*
%TD*%
%TO.C,R4*%
G36*
G01*
X13475000Y-75192544D02*
X13475000Y-76507456D01*
G75*
G02*
X13207456Y-76775000I-267544J0D01*
G01*
X12217544Y-76775000D01*
G75*
G02*
X11950000Y-76507456I0J267544D01*
G01*
X11950000Y-75192544D01*
G75*
G02*
X12217544Y-74925000I267544J0D01*
G01*
X13207456Y-74925000D01*
G75*
G02*
X13475000Y-75192544I0J-267544D01*
G01*
G37*
G36*
G01*
X16450000Y-75192544D02*
X16450000Y-76507456D01*
G75*
G02*
X16182456Y-76775000I-267544J0D01*
G01*
X15192544Y-76775000D01*
G75*
G02*
X14925000Y-76507456I0J267544D01*
G01*
X14925000Y-75192544D01*
G75*
G02*
X15192544Y-74925000I267544J0D01*
G01*
X16182456Y-74925000D01*
G75*
G02*
X16450000Y-75192544I0J-267544D01*
G01*
G37*
%TD*%
%TO.C,R3*%
G36*
G01*
X16517544Y-81925000D02*
X17832456Y-81925000D01*
G75*
G02*
X18100000Y-82192544I0J-267544D01*
G01*
X18100000Y-83182456D01*
G75*
G02*
X17832456Y-83450000I-267544J0D01*
G01*
X16517544Y-83450000D01*
G75*
G02*
X16250000Y-83182456I0J267544D01*
G01*
X16250000Y-82192544D01*
G75*
G02*
X16517544Y-81925000I267544J0D01*
G01*
G37*
G36*
G01*
X16517544Y-78950000D02*
X17832456Y-78950000D01*
G75*
G02*
X18100000Y-79217544I0J-267544D01*
G01*
X18100000Y-80207456D01*
G75*
G02*
X17832456Y-80475000I-267544J0D01*
G01*
X16517544Y-80475000D01*
G75*
G02*
X16250000Y-80207456I0J267544D01*
G01*
X16250000Y-79217544D01*
G75*
G02*
X16517544Y-78950000I267544J0D01*
G01*
G37*
%TD*%
%TO.C,R2*%
G36*
G01*
X12757456Y-80400000D02*
X11442544Y-80400000D01*
G75*
G02*
X11175000Y-80132456I0J267544D01*
G01*
X11175000Y-79142544D01*
G75*
G02*
X11442544Y-78875000I267544J0D01*
G01*
X12757456Y-78875000D01*
G75*
G02*
X13025000Y-79142544I0J-267544D01*
G01*
X13025000Y-80132456D01*
G75*
G02*
X12757456Y-80400000I-267544J0D01*
G01*
G37*
G36*
G01*
X12757456Y-83375000D02*
X11442544Y-83375000D01*
G75*
G02*
X11175000Y-83107456I0J267544D01*
G01*
X11175000Y-82117544D01*
G75*
G02*
X11442544Y-81850000I267544J0D01*
G01*
X12757456Y-81850000D01*
G75*
G02*
X13025000Y-82117544I0J-267544D01*
G01*
X13025000Y-83107456D01*
G75*
G02*
X12757456Y-83375000I-267544J0D01*
G01*
G37*
%TD*%
D14*
%TO.C,C3*%
X1150000Y-78875000D03*
X3650000Y-78875000D03*
%TD*%
D12*
%TO.C,I2C1*%
X3150000Y-94270000D03*
X3150000Y-91730000D03*
X3150000Y-89190000D03*
D13*
X3150000Y-86650000D03*
%TD*%
D12*
%TO.C,J1*%
X-1440000Y-82925000D03*
D13*
X1100000Y-82925000D03*
%TD*%
D15*
%TO.C,C2*%
X7000000Y-69525000D03*
D16*
X7000000Y-68025000D03*
%TD*%
D17*
%TO.C,J2*%
X19525000Y-67475000D03*
G36*
G01*
X16875000Y-68129168D02*
X16875000Y-66820832D01*
G75*
G02*
X17145832Y-66550000I270832J0D01*
G01*
X17904168Y-66550000D01*
G75*
G02*
X18175000Y-66820832I0J-270832D01*
G01*
X18175000Y-68129168D01*
G75*
G02*
X17904168Y-68400000I-270832J0D01*
G01*
X17145832Y-68400000D01*
G75*
G02*
X16875000Y-68129168I0J270832D01*
G01*
G37*
%TD*%
D15*
%TO.C,C1*%
X12100000Y-69475000D03*
D16*
X12100000Y-67975000D03*
%TD*%
M02*
