%TF.GenerationSoftware,KiCad,Pcbnew,(5.1.6-0-10_14)*%
%TF.CreationDate,2020-10-13T22:09:44-04:00*%
%TF.ProjectId,weather_external,77656174-6865-4725-9f65-787465726e61,rev?*%
%TF.SameCoordinates,Original*%
%TF.FileFunction,Legend,Top*%
%TF.FilePolarity,Positive*%
%FSLAX46Y46*%
G04 Gerber Fmt 4.6, Leading zero omitted, Abs format (unit mm)*
G04 Created by KiCad (PCBNEW (5.1.6-0-10_14)) date 2020-10-13 22:09:44*
%MOMM*%
%LPD*%
G01*
G04 APERTURE LIST*
%ADD10C,0.150000*%
%ADD11C,0.120000*%
%ADD12C,0.100000*%
G04 APERTURE END LIST*
D10*
X602380Y-43289285D02*
X1602380Y-43051190D01*
X888095Y-42860714D01*
X1602380Y-42670238D01*
X602380Y-42432142D01*
X1554761Y-41670238D02*
X1602380Y-41765476D01*
X1602380Y-41955952D01*
X1554761Y-42051190D01*
X1459523Y-42098809D01*
X1078571Y-42098809D01*
X983333Y-42051190D01*
X935714Y-41955952D01*
X935714Y-41765476D01*
X983333Y-41670238D01*
X1078571Y-41622619D01*
X1173809Y-41622619D01*
X1269047Y-42098809D01*
X1602380Y-40765476D02*
X1078571Y-40765476D01*
X983333Y-40813095D01*
X935714Y-40908333D01*
X935714Y-41098809D01*
X983333Y-41194047D01*
X1554761Y-40765476D02*
X1602380Y-40860714D01*
X1602380Y-41098809D01*
X1554761Y-41194047D01*
X1459523Y-41241666D01*
X1364285Y-41241666D01*
X1269047Y-41194047D01*
X1221428Y-41098809D01*
X1221428Y-40860714D01*
X1173809Y-40765476D01*
X935714Y-40432142D02*
X935714Y-40051190D01*
X602380Y-40289285D02*
X1459523Y-40289285D01*
X1554761Y-40241666D01*
X1602380Y-40146428D01*
X1602380Y-40051190D01*
X1602380Y-39717857D02*
X602380Y-39717857D01*
X1602380Y-39289285D02*
X1078571Y-39289285D01*
X983333Y-39336904D01*
X935714Y-39432142D01*
X935714Y-39575000D01*
X983333Y-39670238D01*
X1030952Y-39717857D01*
X1554761Y-38432142D02*
X1602380Y-38527380D01*
X1602380Y-38717857D01*
X1554761Y-38813095D01*
X1459523Y-38860714D01*
X1078571Y-38860714D01*
X983333Y-38813095D01*
X935714Y-38717857D01*
X935714Y-38527380D01*
X983333Y-38432142D01*
X1078571Y-38384523D01*
X1173809Y-38384523D01*
X1269047Y-38860714D01*
X1602380Y-37955952D02*
X935714Y-37955952D01*
X1126190Y-37955952D02*
X1030952Y-37908333D01*
X983333Y-37860714D01*
X935714Y-37765476D01*
X935714Y-37670238D01*
X1078571Y-36575000D02*
X1078571Y-36241666D01*
X1602380Y-36098809D02*
X1602380Y-36575000D01*
X602380Y-36575000D01*
X602380Y-36098809D01*
X1602380Y-35765476D02*
X935714Y-35241666D01*
X935714Y-35765476D02*
X1602380Y-35241666D01*
X935714Y-35003571D02*
X935714Y-34622619D01*
X602380Y-34860714D02*
X1459523Y-34860714D01*
X1554761Y-34813095D01*
X1602380Y-34717857D01*
X1602380Y-34622619D01*
X1554761Y-33908333D02*
X1602380Y-34003571D01*
X1602380Y-34194047D01*
X1554761Y-34289285D01*
X1459523Y-34336904D01*
X1078571Y-34336904D01*
X983333Y-34289285D01*
X935714Y-34194047D01*
X935714Y-34003571D01*
X983333Y-33908333D01*
X1078571Y-33860714D01*
X1173809Y-33860714D01*
X1269047Y-34336904D01*
X1602380Y-33432142D02*
X935714Y-33432142D01*
X1126190Y-33432142D02*
X1030952Y-33384523D01*
X983333Y-33336904D01*
X935714Y-33241666D01*
X935714Y-33146428D01*
X935714Y-32813095D02*
X1602380Y-32813095D01*
X1030952Y-32813095D02*
X983333Y-32765476D01*
X935714Y-32670238D01*
X935714Y-32527380D01*
X983333Y-32432142D01*
X1078571Y-32384523D01*
X1602380Y-32384523D01*
X1602380Y-31479761D02*
X1078571Y-31479761D01*
X983333Y-31527380D01*
X935714Y-31622619D01*
X935714Y-31813095D01*
X983333Y-31908333D01*
X1554761Y-31479761D02*
X1602380Y-31575000D01*
X1602380Y-31813095D01*
X1554761Y-31908333D01*
X1459523Y-31955952D01*
X1364285Y-31955952D01*
X1269047Y-31908333D01*
X1221428Y-31813095D01*
X1221428Y-31575000D01*
X1173809Y-31479761D01*
X1602380Y-30860714D02*
X1554761Y-30955952D01*
X1459523Y-31003571D01*
X602380Y-31003571D01*
X602380Y-29860714D02*
X1602380Y-29527380D01*
X602380Y-29194047D01*
X1602380Y-28336904D02*
X1602380Y-28908333D01*
X1602380Y-28622619D02*
X602380Y-28622619D01*
X745238Y-28717857D01*
X840476Y-28813095D01*
X888095Y-28908333D01*
X1507142Y-27908333D02*
X1554761Y-27860714D01*
X1602380Y-27908333D01*
X1554761Y-27955952D01*
X1507142Y-27908333D01*
X1602380Y-27908333D01*
X602380Y-27241666D02*
X602380Y-27146428D01*
X650000Y-27051190D01*
X697619Y-27003571D01*
X792857Y-26955952D01*
X983333Y-26908333D01*
X1221428Y-26908333D01*
X1411904Y-26955952D01*
X1507142Y-27003571D01*
X1554761Y-27051190D01*
X1602380Y-27146428D01*
X1602380Y-27241666D01*
X1554761Y-27336904D01*
X1507142Y-27384523D01*
X1411904Y-27432142D01*
X1221428Y-27479761D01*
X983333Y-27479761D01*
X792857Y-27432142D01*
X697619Y-27384523D01*
X650000Y-27336904D01*
X602380Y-27241666D01*
X29098809Y-36002380D02*
X29717857Y-36002380D01*
X29384523Y-36383333D01*
X29527380Y-36383333D01*
X29622619Y-36430952D01*
X29670238Y-36478571D01*
X29717857Y-36573809D01*
X29717857Y-36811904D01*
X29670238Y-36907142D01*
X29622619Y-36954761D01*
X29527380Y-37002380D01*
X29241666Y-37002380D01*
X29146428Y-36954761D01*
X29098809Y-36907142D01*
X30146428Y-36907142D02*
X30194047Y-36954761D01*
X30146428Y-37002380D01*
X30098809Y-36954761D01*
X30146428Y-36907142D01*
X30146428Y-37002380D01*
X30527380Y-36002380D02*
X31146428Y-36002380D01*
X30813095Y-36383333D01*
X30955952Y-36383333D01*
X31051190Y-36430952D01*
X31098809Y-36478571D01*
X31146428Y-36573809D01*
X31146428Y-36811904D01*
X31098809Y-36907142D01*
X31051190Y-36954761D01*
X30955952Y-37002380D01*
X30670238Y-37002380D01*
X30575000Y-36954761D01*
X30527380Y-36907142D01*
X31432142Y-36002380D02*
X31765476Y-37002380D01*
X32098809Y-36002380D01*
X30034523Y-30827380D02*
X29558333Y-30827380D01*
X29510714Y-31303571D01*
X29558333Y-31255952D01*
X29653571Y-31208333D01*
X29891666Y-31208333D01*
X29986904Y-31255952D01*
X30034523Y-31303571D01*
X30082142Y-31398809D01*
X30082142Y-31636904D01*
X30034523Y-31732142D01*
X29986904Y-31779761D01*
X29891666Y-31827380D01*
X29653571Y-31827380D01*
X29558333Y-31779761D01*
X29510714Y-31732142D01*
X30367857Y-30827380D02*
X30701190Y-31827380D01*
X31034523Y-30827380D01*
X13044047Y-32546428D02*
X13805952Y-32546428D01*
X12944047Y-29821428D02*
X13705952Y-29821428D01*
X13325000Y-30202380D02*
X13325000Y-29440476D01*
X5244047Y-58871428D02*
X6005952Y-58871428D01*
X5625000Y-59252380D02*
X5625000Y-58490476D01*
X5721428Y-68455952D02*
X5721428Y-67694047D01*
X31657142Y-77977380D02*
X31657142Y-76977380D01*
X31895238Y-76977380D01*
X32038095Y-77025000D01*
X32133333Y-77120238D01*
X32180952Y-77215476D01*
X32228571Y-77405952D01*
X32228571Y-77548809D01*
X32180952Y-77739285D01*
X32133333Y-77834523D01*
X32038095Y-77929761D01*
X31895238Y-77977380D01*
X31657142Y-77977380D01*
X32514285Y-76977380D02*
X33085714Y-76977380D01*
X32800000Y-77977380D02*
X32800000Y-76977380D01*
X33990476Y-77977380D02*
X33657142Y-77501190D01*
X33419047Y-77977380D02*
X33419047Y-76977380D01*
X33800000Y-76977380D01*
X33895238Y-77025000D01*
X33942857Y-77072619D01*
X33990476Y-77167857D01*
X33990476Y-77310714D01*
X33942857Y-77405952D01*
X33895238Y-77453571D01*
X33800000Y-77501190D01*
X33419047Y-77501190D01*
X32433333Y-80552380D02*
X32100000Y-80076190D01*
X31861904Y-80552380D02*
X31861904Y-79552380D01*
X32242857Y-79552380D01*
X32338095Y-79600000D01*
X32385714Y-79647619D01*
X32433333Y-79742857D01*
X32433333Y-79885714D01*
X32385714Y-79980952D01*
X32338095Y-80028571D01*
X32242857Y-80076190D01*
X31861904Y-80076190D01*
X32766666Y-79552380D02*
X33433333Y-80552380D01*
X33433333Y-79552380D02*
X32766666Y-80552380D01*
X31788095Y-82102380D02*
X32359523Y-82102380D01*
X32073809Y-83102380D02*
X32073809Y-82102380D01*
X32597619Y-82102380D02*
X33264285Y-83102380D01*
X33264285Y-82102380D02*
X32597619Y-83102380D01*
X31591666Y-84527380D02*
X31925000Y-85527380D01*
X32258333Y-84527380D01*
X33163095Y-85432142D02*
X33115476Y-85479761D01*
X32972619Y-85527380D01*
X32877380Y-85527380D01*
X32734523Y-85479761D01*
X32639285Y-85384523D01*
X32591666Y-85289285D01*
X32544047Y-85098809D01*
X32544047Y-84955952D01*
X32591666Y-84765476D01*
X32639285Y-84670238D01*
X32734523Y-84575000D01*
X32877380Y-84527380D01*
X32972619Y-84527380D01*
X33115476Y-84575000D01*
X33163095Y-84622619D01*
X34163095Y-85432142D02*
X34115476Y-85479761D01*
X33972619Y-85527380D01*
X33877380Y-85527380D01*
X33734523Y-85479761D01*
X33639285Y-85384523D01*
X33591666Y-85289285D01*
X33544047Y-85098809D01*
X33544047Y-84955952D01*
X33591666Y-84765476D01*
X33639285Y-84670238D01*
X33734523Y-84575000D01*
X33877380Y-84527380D01*
X33972619Y-84527380D01*
X34115476Y-84575000D01*
X34163095Y-84622619D01*
X32452380Y-88027380D02*
X32119047Y-87551190D01*
X31880952Y-88027380D02*
X31880952Y-87027380D01*
X32261904Y-87027380D01*
X32357142Y-87075000D01*
X32404761Y-87122619D01*
X32452380Y-87217857D01*
X32452380Y-87360714D01*
X32404761Y-87455952D01*
X32357142Y-87503571D01*
X32261904Y-87551190D01*
X31880952Y-87551190D01*
X32738095Y-87027380D02*
X33309523Y-87027380D01*
X33023809Y-88027380D02*
X33023809Y-87027380D01*
X33595238Y-87979761D02*
X33738095Y-88027380D01*
X33976190Y-88027380D01*
X34071428Y-87979761D01*
X34119047Y-87932142D01*
X34166666Y-87836904D01*
X34166666Y-87741666D01*
X34119047Y-87646428D01*
X34071428Y-87598809D01*
X33976190Y-87551190D01*
X33785714Y-87503571D01*
X33690476Y-87455952D01*
X33642857Y-87408333D01*
X33595238Y-87313095D01*
X33595238Y-87217857D01*
X33642857Y-87122619D01*
X33690476Y-87075000D01*
X33785714Y-87027380D01*
X34023809Y-87027380D01*
X34166666Y-87075000D01*
X32188095Y-89725000D02*
X32092857Y-89677380D01*
X31950000Y-89677380D01*
X31807142Y-89725000D01*
X31711904Y-89820238D01*
X31664285Y-89915476D01*
X31616666Y-90105952D01*
X31616666Y-90248809D01*
X31664285Y-90439285D01*
X31711904Y-90534523D01*
X31807142Y-90629761D01*
X31950000Y-90677380D01*
X32045238Y-90677380D01*
X32188095Y-90629761D01*
X32235714Y-90582142D01*
X32235714Y-90248809D01*
X32045238Y-90248809D01*
X32664285Y-90677380D02*
X32664285Y-89677380D01*
X33235714Y-90677380D01*
X33235714Y-89677380D01*
X33711904Y-90677380D02*
X33711904Y-89677380D01*
X33950000Y-89677380D01*
X34092857Y-89725000D01*
X34188095Y-89820238D01*
X34235714Y-89915476D01*
X34283333Y-90105952D01*
X34283333Y-90248809D01*
X34235714Y-90439285D01*
X34188095Y-90534523D01*
X34092857Y-90629761D01*
X33950000Y-90677380D01*
X33711904Y-90677380D01*
D11*
%TO.C,C5*%
X16030199Y-59555000D02*
X16030199Y-59955000D01*
X15830199Y-59755000D02*
X16230199Y-59755000D01*
X20181000Y-60580000D02*
X20181000Y-61320000D01*
X20141000Y-60413000D02*
X20141000Y-61487000D01*
X20101000Y-60286000D02*
X20101000Y-61614000D01*
X20061000Y-60182000D02*
X20061000Y-61718000D01*
X20021000Y-60091000D02*
X20021000Y-61809000D01*
X19981000Y-60010000D02*
X19981000Y-61890000D01*
X19941000Y-59937000D02*
X19941000Y-61963000D01*
X19901000Y-61790000D02*
X19901000Y-62030000D01*
X19901000Y-59870000D02*
X19901000Y-60110000D01*
X19861000Y-61790000D02*
X19861000Y-62092000D01*
X19861000Y-59808000D02*
X19861000Y-60110000D01*
X19821000Y-61790000D02*
X19821000Y-62150000D01*
X19821000Y-59750000D02*
X19821000Y-60110000D01*
X19781000Y-61790000D02*
X19781000Y-62204000D01*
X19781000Y-59696000D02*
X19781000Y-60110000D01*
X19741000Y-61790000D02*
X19741000Y-62254000D01*
X19741000Y-59646000D02*
X19741000Y-60110000D01*
X19701000Y-61790000D02*
X19701000Y-62301000D01*
X19701000Y-59599000D02*
X19701000Y-60110000D01*
X19661000Y-61790000D02*
X19661000Y-62346000D01*
X19661000Y-59554000D02*
X19661000Y-60110000D01*
X19621000Y-61790000D02*
X19621000Y-62388000D01*
X19621000Y-59512000D02*
X19621000Y-60110000D01*
X19581000Y-61790000D02*
X19581000Y-62428000D01*
X19581000Y-59472000D02*
X19581000Y-60110000D01*
X19541000Y-61790000D02*
X19541000Y-62466000D01*
X19541000Y-59434000D02*
X19541000Y-60110000D01*
X19501000Y-61790000D02*
X19501000Y-62502000D01*
X19501000Y-59398000D02*
X19501000Y-60110000D01*
X19461000Y-61790000D02*
X19461000Y-62537000D01*
X19461000Y-59363000D02*
X19461000Y-60110000D01*
X19421000Y-61790000D02*
X19421000Y-62569000D01*
X19421000Y-59331000D02*
X19421000Y-60110000D01*
X19381000Y-61790000D02*
X19381000Y-62600000D01*
X19381000Y-59300000D02*
X19381000Y-60110000D01*
X19341000Y-61790000D02*
X19341000Y-62630000D01*
X19341000Y-59270000D02*
X19341000Y-60110000D01*
X19301000Y-61790000D02*
X19301000Y-62658000D01*
X19301000Y-59242000D02*
X19301000Y-60110000D01*
X19261000Y-61790000D02*
X19261000Y-62685000D01*
X19261000Y-59215000D02*
X19261000Y-60110000D01*
X19221000Y-61790000D02*
X19221000Y-62710000D01*
X19221000Y-59190000D02*
X19221000Y-60110000D01*
X19181000Y-61790000D02*
X19181000Y-62735000D01*
X19181000Y-59165000D02*
X19181000Y-60110000D01*
X19141000Y-61790000D02*
X19141000Y-62758000D01*
X19141000Y-59142000D02*
X19141000Y-60110000D01*
X19101000Y-61790000D02*
X19101000Y-62780000D01*
X19101000Y-59120000D02*
X19101000Y-60110000D01*
X19061000Y-61790000D02*
X19061000Y-62801000D01*
X19061000Y-59099000D02*
X19061000Y-60110000D01*
X19021000Y-61790000D02*
X19021000Y-62820000D01*
X19021000Y-59080000D02*
X19021000Y-60110000D01*
X18981000Y-61790000D02*
X18981000Y-62839000D01*
X18981000Y-59061000D02*
X18981000Y-60110000D01*
X18941000Y-61790000D02*
X18941000Y-62857000D01*
X18941000Y-59043000D02*
X18941000Y-60110000D01*
X18901000Y-61790000D02*
X18901000Y-62874000D01*
X18901000Y-59026000D02*
X18901000Y-60110000D01*
X18861000Y-61790000D02*
X18861000Y-62890000D01*
X18861000Y-59010000D02*
X18861000Y-60110000D01*
X18821000Y-61790000D02*
X18821000Y-62904000D01*
X18821000Y-58996000D02*
X18821000Y-60110000D01*
X18780000Y-61790000D02*
X18780000Y-62918000D01*
X18780000Y-58982000D02*
X18780000Y-60110000D01*
X18740000Y-61790000D02*
X18740000Y-62932000D01*
X18740000Y-58968000D02*
X18740000Y-60110000D01*
X18700000Y-61790000D02*
X18700000Y-62944000D01*
X18700000Y-58956000D02*
X18700000Y-60110000D01*
X18660000Y-61790000D02*
X18660000Y-62955000D01*
X18660000Y-58945000D02*
X18660000Y-60110000D01*
X18620000Y-61790000D02*
X18620000Y-62966000D01*
X18620000Y-58934000D02*
X18620000Y-60110000D01*
X18580000Y-61790000D02*
X18580000Y-62975000D01*
X18580000Y-58925000D02*
X18580000Y-60110000D01*
X18540000Y-61790000D02*
X18540000Y-62984000D01*
X18540000Y-58916000D02*
X18540000Y-60110000D01*
X18500000Y-61790000D02*
X18500000Y-62992000D01*
X18500000Y-58908000D02*
X18500000Y-60110000D01*
X18460000Y-61790000D02*
X18460000Y-63000000D01*
X18460000Y-58900000D02*
X18460000Y-60110000D01*
X18420000Y-61790000D02*
X18420000Y-63006000D01*
X18420000Y-58894000D02*
X18420000Y-60110000D01*
X18380000Y-61790000D02*
X18380000Y-63012000D01*
X18380000Y-58888000D02*
X18380000Y-60110000D01*
X18340000Y-61790000D02*
X18340000Y-63017000D01*
X18340000Y-58883000D02*
X18340000Y-60110000D01*
X18300000Y-61790000D02*
X18300000Y-63021000D01*
X18300000Y-58879000D02*
X18300000Y-60110000D01*
X18260000Y-58876000D02*
X18260000Y-63024000D01*
X18220000Y-58873000D02*
X18220000Y-63027000D01*
X18180000Y-58871000D02*
X18180000Y-63029000D01*
X18140000Y-58870000D02*
X18140000Y-63030000D01*
X18100000Y-58870000D02*
X18100000Y-63030000D01*
X20220000Y-60950000D02*
G75*
G03*
X20220000Y-60950000I-2120000J0D01*
G01*
%TO.C,U3*%
X10235000Y-57095000D02*
G75*
G02*
X8235000Y-57095000I-1000000J0D01*
G01*
X8235000Y-57095000D02*
X6585000Y-57095000D01*
X6585000Y-57095000D02*
X6585000Y-67375000D01*
X6585000Y-67375000D02*
X11885000Y-67375000D01*
X11885000Y-67375000D02*
X11885000Y-57095000D01*
X11885000Y-57095000D02*
X10235000Y-57095000D01*
%TO.C,ESP8266-12E1*%
X3330000Y-78650000D02*
X2720000Y-78650000D01*
X3330000Y-78650000D02*
X3330000Y-71030000D01*
X3330000Y-95270000D02*
X3330000Y-94650000D01*
X5450000Y-95270000D02*
X3330000Y-95270000D01*
X19570000Y-95270000D02*
X17450000Y-95270000D01*
X19570000Y-94650000D02*
X19570000Y-95270000D01*
X19570000Y-71030000D02*
X19570000Y-78650000D01*
X3330000Y-71030000D02*
X19570000Y-71030000D01*
%TO.C,RV1*%
X9680000Y-52985000D02*
X6650000Y-52985000D01*
X5350000Y-52985000D02*
X2440000Y-52985000D01*
X9680000Y-46145000D02*
X6650000Y-46145000D01*
X5350000Y-46145000D02*
X2440000Y-46145000D01*
X9680000Y-52985000D02*
X9680000Y-46145000D01*
X2440000Y-52985000D02*
X2440000Y-46145000D01*
%TO.C,JP1*%
X3180000Y-62405000D02*
X1850000Y-62405000D01*
X3180000Y-61075000D02*
X3180000Y-62405000D01*
X3180000Y-59805000D02*
X520000Y-59805000D01*
X520000Y-59805000D02*
X520000Y-57205000D01*
X3180000Y-59805000D02*
X3180000Y-57205000D01*
X3180000Y-57205000D02*
X520000Y-57205000D01*
%TO.C,J4*%
X15070000Y-67080000D02*
X15070000Y-65750000D01*
X16400000Y-67080000D02*
X15070000Y-67080000D01*
X17670000Y-67080000D02*
X17670000Y-64420000D01*
X17670000Y-64420000D02*
X25350000Y-64420000D01*
X17670000Y-67080000D02*
X25350000Y-67080000D01*
X25350000Y-67080000D02*
X25350000Y-64420000D01*
%TO.C,R5*%
X10485000Y-51835000D02*
X10155000Y-51835000D01*
X10155000Y-51835000D02*
X10155000Y-45295000D01*
X10155000Y-45295000D02*
X10485000Y-45295000D01*
X12565000Y-51835000D02*
X12895000Y-51835000D01*
X12895000Y-51835000D02*
X12895000Y-45295000D01*
X12895000Y-45295000D02*
X12565000Y-45295000D01*
%TO.C,C4*%
X18070000Y-41050000D02*
G75*
G03*
X18070000Y-41050000I-2120000J0D01*
G01*
X13870000Y-41050000D02*
X18030000Y-41050000D01*
X13870000Y-41010000D02*
X18030000Y-41010000D01*
X13871000Y-40970000D02*
X18029000Y-40970000D01*
X13873000Y-40930000D02*
X18027000Y-40930000D01*
X13876000Y-40890000D02*
X18024000Y-40890000D01*
X13879000Y-40850000D02*
X15110000Y-40850000D01*
X16790000Y-40850000D02*
X18021000Y-40850000D01*
X13883000Y-40810000D02*
X15110000Y-40810000D01*
X16790000Y-40810000D02*
X18017000Y-40810000D01*
X13888000Y-40770000D02*
X15110000Y-40770000D01*
X16790000Y-40770000D02*
X18012000Y-40770000D01*
X13894000Y-40730000D02*
X15110000Y-40730000D01*
X16790000Y-40730000D02*
X18006000Y-40730000D01*
X13900000Y-40690000D02*
X15110000Y-40690000D01*
X16790000Y-40690000D02*
X18000000Y-40690000D01*
X13908000Y-40650000D02*
X15110000Y-40650000D01*
X16790000Y-40650000D02*
X17992000Y-40650000D01*
X13916000Y-40610000D02*
X15110000Y-40610000D01*
X16790000Y-40610000D02*
X17984000Y-40610000D01*
X13925000Y-40570000D02*
X15110000Y-40570000D01*
X16790000Y-40570000D02*
X17975000Y-40570000D01*
X13934000Y-40530000D02*
X15110000Y-40530000D01*
X16790000Y-40530000D02*
X17966000Y-40530000D01*
X13945000Y-40490000D02*
X15110000Y-40490000D01*
X16790000Y-40490000D02*
X17955000Y-40490000D01*
X13956000Y-40450000D02*
X15110000Y-40450000D01*
X16790000Y-40450000D02*
X17944000Y-40450000D01*
X13968000Y-40410000D02*
X15110000Y-40410000D01*
X16790000Y-40410000D02*
X17932000Y-40410000D01*
X13982000Y-40370000D02*
X15110000Y-40370000D01*
X16790000Y-40370000D02*
X17918000Y-40370000D01*
X13996000Y-40329000D02*
X15110000Y-40329000D01*
X16790000Y-40329000D02*
X17904000Y-40329000D01*
X14010000Y-40289000D02*
X15110000Y-40289000D01*
X16790000Y-40289000D02*
X17890000Y-40289000D01*
X14026000Y-40249000D02*
X15110000Y-40249000D01*
X16790000Y-40249000D02*
X17874000Y-40249000D01*
X14043000Y-40209000D02*
X15110000Y-40209000D01*
X16790000Y-40209000D02*
X17857000Y-40209000D01*
X14061000Y-40169000D02*
X15110000Y-40169000D01*
X16790000Y-40169000D02*
X17839000Y-40169000D01*
X14080000Y-40129000D02*
X15110000Y-40129000D01*
X16790000Y-40129000D02*
X17820000Y-40129000D01*
X14099000Y-40089000D02*
X15110000Y-40089000D01*
X16790000Y-40089000D02*
X17801000Y-40089000D01*
X14120000Y-40049000D02*
X15110000Y-40049000D01*
X16790000Y-40049000D02*
X17780000Y-40049000D01*
X14142000Y-40009000D02*
X15110000Y-40009000D01*
X16790000Y-40009000D02*
X17758000Y-40009000D01*
X14165000Y-39969000D02*
X15110000Y-39969000D01*
X16790000Y-39969000D02*
X17735000Y-39969000D01*
X14190000Y-39929000D02*
X15110000Y-39929000D01*
X16790000Y-39929000D02*
X17710000Y-39929000D01*
X14215000Y-39889000D02*
X15110000Y-39889000D01*
X16790000Y-39889000D02*
X17685000Y-39889000D01*
X14242000Y-39849000D02*
X15110000Y-39849000D01*
X16790000Y-39849000D02*
X17658000Y-39849000D01*
X14270000Y-39809000D02*
X15110000Y-39809000D01*
X16790000Y-39809000D02*
X17630000Y-39809000D01*
X14300000Y-39769000D02*
X15110000Y-39769000D01*
X16790000Y-39769000D02*
X17600000Y-39769000D01*
X14331000Y-39729000D02*
X15110000Y-39729000D01*
X16790000Y-39729000D02*
X17569000Y-39729000D01*
X14363000Y-39689000D02*
X15110000Y-39689000D01*
X16790000Y-39689000D02*
X17537000Y-39689000D01*
X14398000Y-39649000D02*
X15110000Y-39649000D01*
X16790000Y-39649000D02*
X17502000Y-39649000D01*
X14434000Y-39609000D02*
X15110000Y-39609000D01*
X16790000Y-39609000D02*
X17466000Y-39609000D01*
X14472000Y-39569000D02*
X15110000Y-39569000D01*
X16790000Y-39569000D02*
X17428000Y-39569000D01*
X14512000Y-39529000D02*
X15110000Y-39529000D01*
X16790000Y-39529000D02*
X17388000Y-39529000D01*
X14554000Y-39489000D02*
X15110000Y-39489000D01*
X16790000Y-39489000D02*
X17346000Y-39489000D01*
X14599000Y-39449000D02*
X15110000Y-39449000D01*
X16790000Y-39449000D02*
X17301000Y-39449000D01*
X14646000Y-39409000D02*
X15110000Y-39409000D01*
X16790000Y-39409000D02*
X17254000Y-39409000D01*
X14696000Y-39369000D02*
X15110000Y-39369000D01*
X16790000Y-39369000D02*
X17204000Y-39369000D01*
X14750000Y-39329000D02*
X15110000Y-39329000D01*
X16790000Y-39329000D02*
X17150000Y-39329000D01*
X14808000Y-39289000D02*
X15110000Y-39289000D01*
X16790000Y-39289000D02*
X17092000Y-39289000D01*
X14870000Y-39249000D02*
X15110000Y-39249000D01*
X16790000Y-39249000D02*
X17030000Y-39249000D01*
X14937000Y-39209000D02*
X16963000Y-39209000D01*
X15010000Y-39169000D02*
X16890000Y-39169000D01*
X15091000Y-39129000D02*
X16809000Y-39129000D01*
X15182000Y-39089000D02*
X16718000Y-39089000D01*
X15286000Y-39049000D02*
X16614000Y-39049000D01*
X15413000Y-39009000D02*
X16487000Y-39009000D01*
X15580000Y-38969000D02*
X16320000Y-38969000D01*
X14755000Y-43319801D02*
X14755000Y-42919801D01*
X14555000Y-43119801D02*
X14955000Y-43119801D01*
%TO.C,U1*%
X22585000Y-33005000D02*
X21125000Y-33005000D01*
X22585000Y-29845000D02*
X20425000Y-29845000D01*
X22585000Y-29845000D02*
X22585000Y-30775000D01*
X22585000Y-33005000D02*
X22585000Y-32075000D01*
%TO.C,SW1*%
X20675000Y-41450000D02*
X20675000Y-42950000D01*
X21925000Y-45450000D02*
X26425000Y-45450000D01*
X27675000Y-42950000D02*
X27675000Y-41450000D01*
X26425000Y-38950000D02*
X21925000Y-38950000D01*
%TO.C,R4*%
X22570000Y-49670000D02*
X22240000Y-49670000D01*
X22570000Y-56210000D02*
X22570000Y-49670000D01*
X22240000Y-56210000D02*
X22570000Y-56210000D01*
X19830000Y-49670000D02*
X20160000Y-49670000D01*
X19830000Y-56210000D02*
X19830000Y-49670000D01*
X20160000Y-56210000D02*
X19830000Y-56210000D01*
%TO.C,R3*%
X27020000Y-49645000D02*
X26690000Y-49645000D01*
X27020000Y-56185000D02*
X27020000Y-49645000D01*
X26690000Y-56185000D02*
X27020000Y-56185000D01*
X24280000Y-49645000D02*
X24610000Y-49645000D01*
X24280000Y-56185000D02*
X24280000Y-49645000D01*
X24610000Y-56185000D02*
X24280000Y-56185000D01*
%TO.C,R1*%
X31145000Y-49645000D02*
X30815000Y-49645000D01*
X31145000Y-56185000D02*
X31145000Y-49645000D01*
X30815000Y-56185000D02*
X31145000Y-56185000D01*
X28405000Y-49645000D02*
X28735000Y-49645000D01*
X28405000Y-56185000D02*
X28405000Y-49645000D01*
X28735000Y-56185000D02*
X28405000Y-56185000D01*
D12*
%TO.C,Q1*%
X26600000Y-92790000D02*
X26200000Y-92790000D01*
X26600000Y-92390000D02*
X26600000Y-92790000D01*
X26600000Y-82590000D02*
X26600000Y-82990000D01*
X26600000Y-82590000D02*
X26200000Y-82590000D01*
X21800000Y-82590000D02*
X21800000Y-82990000D01*
X21800000Y-82590000D02*
X26200000Y-82590000D01*
X21800000Y-92790000D02*
X21800000Y-92390000D01*
X21800000Y-92790000D02*
X22200000Y-92790000D01*
X25490000Y-82590000D02*
X25490000Y-92690000D01*
D11*
%TO.C,J3*%
X28630000Y-37905000D02*
X27300000Y-37905000D01*
X28630000Y-36575000D02*
X28630000Y-37905000D01*
X28630000Y-35305000D02*
X25970000Y-35305000D01*
X25970000Y-35305000D02*
X25970000Y-30165000D01*
X28630000Y-35305000D02*
X28630000Y-30165000D01*
X28630000Y-30165000D02*
X25970000Y-30165000D01*
%TO.C,J2*%
X14620000Y-28645000D02*
X15950000Y-28645000D01*
X14620000Y-29975000D02*
X14620000Y-28645000D01*
X14620000Y-31245000D02*
X17280000Y-31245000D01*
X17280000Y-31245000D02*
X17280000Y-33845000D01*
X14620000Y-31245000D02*
X14620000Y-33845000D01*
X14620000Y-33845000D02*
X17280000Y-33845000D01*
%TO.C,J1*%
X31730000Y-91430000D02*
X30400000Y-91430000D01*
X31730000Y-90100000D02*
X31730000Y-91430000D01*
X31730000Y-88830000D02*
X29070000Y-88830000D01*
X29070000Y-88830000D02*
X29070000Y-76070000D01*
X31730000Y-88830000D02*
X31730000Y-76070000D01*
X31730000Y-76070000D02*
X29070000Y-76070000D01*
%TO.C,C3*%
X26080000Y-98119801D02*
X26480000Y-98119801D01*
X26280000Y-98319801D02*
X26280000Y-97919801D01*
X27105000Y-93969000D02*
X27845000Y-93969000D01*
X26938000Y-94009000D02*
X28012000Y-94009000D01*
X26811000Y-94049000D02*
X28139000Y-94049000D01*
X26707000Y-94089000D02*
X28243000Y-94089000D01*
X26616000Y-94129000D02*
X28334000Y-94129000D01*
X26535000Y-94169000D02*
X28415000Y-94169000D01*
X26462000Y-94209000D02*
X28488000Y-94209000D01*
X28315000Y-94249000D02*
X28555000Y-94249000D01*
X26395000Y-94249000D02*
X26635000Y-94249000D01*
X28315000Y-94289000D02*
X28617000Y-94289000D01*
X26333000Y-94289000D02*
X26635000Y-94289000D01*
X28315000Y-94329000D02*
X28675000Y-94329000D01*
X26275000Y-94329000D02*
X26635000Y-94329000D01*
X28315000Y-94369000D02*
X28729000Y-94369000D01*
X26221000Y-94369000D02*
X26635000Y-94369000D01*
X28315000Y-94409000D02*
X28779000Y-94409000D01*
X26171000Y-94409000D02*
X26635000Y-94409000D01*
X28315000Y-94449000D02*
X28826000Y-94449000D01*
X26124000Y-94449000D02*
X26635000Y-94449000D01*
X28315000Y-94489000D02*
X28871000Y-94489000D01*
X26079000Y-94489000D02*
X26635000Y-94489000D01*
X28315000Y-94529000D02*
X28913000Y-94529000D01*
X26037000Y-94529000D02*
X26635000Y-94529000D01*
X28315000Y-94569000D02*
X28953000Y-94569000D01*
X25997000Y-94569000D02*
X26635000Y-94569000D01*
X28315000Y-94609000D02*
X28991000Y-94609000D01*
X25959000Y-94609000D02*
X26635000Y-94609000D01*
X28315000Y-94649000D02*
X29027000Y-94649000D01*
X25923000Y-94649000D02*
X26635000Y-94649000D01*
X28315000Y-94689000D02*
X29062000Y-94689000D01*
X25888000Y-94689000D02*
X26635000Y-94689000D01*
X28315000Y-94729000D02*
X29094000Y-94729000D01*
X25856000Y-94729000D02*
X26635000Y-94729000D01*
X28315000Y-94769000D02*
X29125000Y-94769000D01*
X25825000Y-94769000D02*
X26635000Y-94769000D01*
X28315000Y-94809000D02*
X29155000Y-94809000D01*
X25795000Y-94809000D02*
X26635000Y-94809000D01*
X28315000Y-94849000D02*
X29183000Y-94849000D01*
X25767000Y-94849000D02*
X26635000Y-94849000D01*
X28315000Y-94889000D02*
X29210000Y-94889000D01*
X25740000Y-94889000D02*
X26635000Y-94889000D01*
X28315000Y-94929000D02*
X29235000Y-94929000D01*
X25715000Y-94929000D02*
X26635000Y-94929000D01*
X28315000Y-94969000D02*
X29260000Y-94969000D01*
X25690000Y-94969000D02*
X26635000Y-94969000D01*
X28315000Y-95009000D02*
X29283000Y-95009000D01*
X25667000Y-95009000D02*
X26635000Y-95009000D01*
X28315000Y-95049000D02*
X29305000Y-95049000D01*
X25645000Y-95049000D02*
X26635000Y-95049000D01*
X28315000Y-95089000D02*
X29326000Y-95089000D01*
X25624000Y-95089000D02*
X26635000Y-95089000D01*
X28315000Y-95129000D02*
X29345000Y-95129000D01*
X25605000Y-95129000D02*
X26635000Y-95129000D01*
X28315000Y-95169000D02*
X29364000Y-95169000D01*
X25586000Y-95169000D02*
X26635000Y-95169000D01*
X28315000Y-95209000D02*
X29382000Y-95209000D01*
X25568000Y-95209000D02*
X26635000Y-95209000D01*
X28315000Y-95249000D02*
X29399000Y-95249000D01*
X25551000Y-95249000D02*
X26635000Y-95249000D01*
X28315000Y-95289000D02*
X29415000Y-95289000D01*
X25535000Y-95289000D02*
X26635000Y-95289000D01*
X28315000Y-95329000D02*
X29429000Y-95329000D01*
X25521000Y-95329000D02*
X26635000Y-95329000D01*
X28315000Y-95370000D02*
X29443000Y-95370000D01*
X25507000Y-95370000D02*
X26635000Y-95370000D01*
X28315000Y-95410000D02*
X29457000Y-95410000D01*
X25493000Y-95410000D02*
X26635000Y-95410000D01*
X28315000Y-95450000D02*
X29469000Y-95450000D01*
X25481000Y-95450000D02*
X26635000Y-95450000D01*
X28315000Y-95490000D02*
X29480000Y-95490000D01*
X25470000Y-95490000D02*
X26635000Y-95490000D01*
X28315000Y-95530000D02*
X29491000Y-95530000D01*
X25459000Y-95530000D02*
X26635000Y-95530000D01*
X28315000Y-95570000D02*
X29500000Y-95570000D01*
X25450000Y-95570000D02*
X26635000Y-95570000D01*
X28315000Y-95610000D02*
X29509000Y-95610000D01*
X25441000Y-95610000D02*
X26635000Y-95610000D01*
X28315000Y-95650000D02*
X29517000Y-95650000D01*
X25433000Y-95650000D02*
X26635000Y-95650000D01*
X28315000Y-95690000D02*
X29525000Y-95690000D01*
X25425000Y-95690000D02*
X26635000Y-95690000D01*
X28315000Y-95730000D02*
X29531000Y-95730000D01*
X25419000Y-95730000D02*
X26635000Y-95730000D01*
X28315000Y-95770000D02*
X29537000Y-95770000D01*
X25413000Y-95770000D02*
X26635000Y-95770000D01*
X28315000Y-95810000D02*
X29542000Y-95810000D01*
X25408000Y-95810000D02*
X26635000Y-95810000D01*
X28315000Y-95850000D02*
X29546000Y-95850000D01*
X25404000Y-95850000D02*
X26635000Y-95850000D01*
X25401000Y-95890000D02*
X29549000Y-95890000D01*
X25398000Y-95930000D02*
X29552000Y-95930000D01*
X25396000Y-95970000D02*
X29554000Y-95970000D01*
X25395000Y-96010000D02*
X29555000Y-96010000D01*
X25395000Y-96050000D02*
X29555000Y-96050000D01*
X29595000Y-96050000D02*
G75*
G03*
X29595000Y-96050000I-2120000J0D01*
G01*
%TO.C,C2*%
X30080000Y-42844801D02*
X30480000Y-42844801D01*
X30280000Y-43044801D02*
X30280000Y-42644801D01*
X31105000Y-38694000D02*
X31845000Y-38694000D01*
X30938000Y-38734000D02*
X32012000Y-38734000D01*
X30811000Y-38774000D02*
X32139000Y-38774000D01*
X30707000Y-38814000D02*
X32243000Y-38814000D01*
X30616000Y-38854000D02*
X32334000Y-38854000D01*
X30535000Y-38894000D02*
X32415000Y-38894000D01*
X30462000Y-38934000D02*
X32488000Y-38934000D01*
X32315000Y-38974000D02*
X32555000Y-38974000D01*
X30395000Y-38974000D02*
X30635000Y-38974000D01*
X32315000Y-39014000D02*
X32617000Y-39014000D01*
X30333000Y-39014000D02*
X30635000Y-39014000D01*
X32315000Y-39054000D02*
X32675000Y-39054000D01*
X30275000Y-39054000D02*
X30635000Y-39054000D01*
X32315000Y-39094000D02*
X32729000Y-39094000D01*
X30221000Y-39094000D02*
X30635000Y-39094000D01*
X32315000Y-39134000D02*
X32779000Y-39134000D01*
X30171000Y-39134000D02*
X30635000Y-39134000D01*
X32315000Y-39174000D02*
X32826000Y-39174000D01*
X30124000Y-39174000D02*
X30635000Y-39174000D01*
X32315000Y-39214000D02*
X32871000Y-39214000D01*
X30079000Y-39214000D02*
X30635000Y-39214000D01*
X32315000Y-39254000D02*
X32913000Y-39254000D01*
X30037000Y-39254000D02*
X30635000Y-39254000D01*
X32315000Y-39294000D02*
X32953000Y-39294000D01*
X29997000Y-39294000D02*
X30635000Y-39294000D01*
X32315000Y-39334000D02*
X32991000Y-39334000D01*
X29959000Y-39334000D02*
X30635000Y-39334000D01*
X32315000Y-39374000D02*
X33027000Y-39374000D01*
X29923000Y-39374000D02*
X30635000Y-39374000D01*
X32315000Y-39414000D02*
X33062000Y-39414000D01*
X29888000Y-39414000D02*
X30635000Y-39414000D01*
X32315000Y-39454000D02*
X33094000Y-39454000D01*
X29856000Y-39454000D02*
X30635000Y-39454000D01*
X32315000Y-39494000D02*
X33125000Y-39494000D01*
X29825000Y-39494000D02*
X30635000Y-39494000D01*
X32315000Y-39534000D02*
X33155000Y-39534000D01*
X29795000Y-39534000D02*
X30635000Y-39534000D01*
X32315000Y-39574000D02*
X33183000Y-39574000D01*
X29767000Y-39574000D02*
X30635000Y-39574000D01*
X32315000Y-39614000D02*
X33210000Y-39614000D01*
X29740000Y-39614000D02*
X30635000Y-39614000D01*
X32315000Y-39654000D02*
X33235000Y-39654000D01*
X29715000Y-39654000D02*
X30635000Y-39654000D01*
X32315000Y-39694000D02*
X33260000Y-39694000D01*
X29690000Y-39694000D02*
X30635000Y-39694000D01*
X32315000Y-39734000D02*
X33283000Y-39734000D01*
X29667000Y-39734000D02*
X30635000Y-39734000D01*
X32315000Y-39774000D02*
X33305000Y-39774000D01*
X29645000Y-39774000D02*
X30635000Y-39774000D01*
X32315000Y-39814000D02*
X33326000Y-39814000D01*
X29624000Y-39814000D02*
X30635000Y-39814000D01*
X32315000Y-39854000D02*
X33345000Y-39854000D01*
X29605000Y-39854000D02*
X30635000Y-39854000D01*
X32315000Y-39894000D02*
X33364000Y-39894000D01*
X29586000Y-39894000D02*
X30635000Y-39894000D01*
X32315000Y-39934000D02*
X33382000Y-39934000D01*
X29568000Y-39934000D02*
X30635000Y-39934000D01*
X32315000Y-39974000D02*
X33399000Y-39974000D01*
X29551000Y-39974000D02*
X30635000Y-39974000D01*
X32315000Y-40014000D02*
X33415000Y-40014000D01*
X29535000Y-40014000D02*
X30635000Y-40014000D01*
X32315000Y-40054000D02*
X33429000Y-40054000D01*
X29521000Y-40054000D02*
X30635000Y-40054000D01*
X32315000Y-40095000D02*
X33443000Y-40095000D01*
X29507000Y-40095000D02*
X30635000Y-40095000D01*
X32315000Y-40135000D02*
X33457000Y-40135000D01*
X29493000Y-40135000D02*
X30635000Y-40135000D01*
X32315000Y-40175000D02*
X33469000Y-40175000D01*
X29481000Y-40175000D02*
X30635000Y-40175000D01*
X32315000Y-40215000D02*
X33480000Y-40215000D01*
X29470000Y-40215000D02*
X30635000Y-40215000D01*
X32315000Y-40255000D02*
X33491000Y-40255000D01*
X29459000Y-40255000D02*
X30635000Y-40255000D01*
X32315000Y-40295000D02*
X33500000Y-40295000D01*
X29450000Y-40295000D02*
X30635000Y-40295000D01*
X32315000Y-40335000D02*
X33509000Y-40335000D01*
X29441000Y-40335000D02*
X30635000Y-40335000D01*
X32315000Y-40375000D02*
X33517000Y-40375000D01*
X29433000Y-40375000D02*
X30635000Y-40375000D01*
X32315000Y-40415000D02*
X33525000Y-40415000D01*
X29425000Y-40415000D02*
X30635000Y-40415000D01*
X32315000Y-40455000D02*
X33531000Y-40455000D01*
X29419000Y-40455000D02*
X30635000Y-40455000D01*
X32315000Y-40495000D02*
X33537000Y-40495000D01*
X29413000Y-40495000D02*
X30635000Y-40495000D01*
X32315000Y-40535000D02*
X33542000Y-40535000D01*
X29408000Y-40535000D02*
X30635000Y-40535000D01*
X32315000Y-40575000D02*
X33546000Y-40575000D01*
X29404000Y-40575000D02*
X30635000Y-40575000D01*
X29401000Y-40615000D02*
X33549000Y-40615000D01*
X29398000Y-40655000D02*
X33552000Y-40655000D01*
X29396000Y-40695000D02*
X33554000Y-40695000D01*
X29395000Y-40735000D02*
X33555000Y-40735000D01*
X29395000Y-40775000D02*
X33555000Y-40775000D01*
X33595000Y-40775000D02*
G75*
G03*
X33595000Y-40775000I-2120000J0D01*
G01*
%TO.C,C5*%
D10*
X17933333Y-58057142D02*
X17885714Y-58104761D01*
X17742857Y-58152380D01*
X17647619Y-58152380D01*
X17504761Y-58104761D01*
X17409523Y-58009523D01*
X17361904Y-57914285D01*
X17314285Y-57723809D01*
X17314285Y-57580952D01*
X17361904Y-57390476D01*
X17409523Y-57295238D01*
X17504761Y-57200000D01*
X17647619Y-57152380D01*
X17742857Y-57152380D01*
X17885714Y-57200000D01*
X17933333Y-57247619D01*
X18838095Y-57152380D02*
X18361904Y-57152380D01*
X18314285Y-57628571D01*
X18361904Y-57580952D01*
X18457142Y-57533333D01*
X18695238Y-57533333D01*
X18790476Y-57580952D01*
X18838095Y-57628571D01*
X18885714Y-57723809D01*
X18885714Y-57961904D01*
X18838095Y-58057142D01*
X18790476Y-58104761D01*
X18695238Y-58152380D01*
X18457142Y-58152380D01*
X18361904Y-58104761D01*
X18314285Y-58057142D01*
%TO.C,U3*%
X8473095Y-55547380D02*
X8473095Y-56356904D01*
X8520714Y-56452142D01*
X8568333Y-56499761D01*
X8663571Y-56547380D01*
X8854047Y-56547380D01*
X8949285Y-56499761D01*
X8996904Y-56452142D01*
X9044523Y-56356904D01*
X9044523Y-55547380D01*
X9425476Y-55547380D02*
X10044523Y-55547380D01*
X9711190Y-55928333D01*
X9854047Y-55928333D01*
X9949285Y-55975952D01*
X9996904Y-56023571D01*
X10044523Y-56118809D01*
X10044523Y-56356904D01*
X9996904Y-56452142D01*
X9949285Y-56499761D01*
X9854047Y-56547380D01*
X9568333Y-56547380D01*
X9473095Y-56499761D01*
X9425476Y-56452142D01*
%TO.C,ESP8266-12E1*%
X11353571Y-91695238D02*
X11353571Y-91361904D01*
X11877380Y-91219047D02*
X11877380Y-91695238D01*
X10877380Y-91695238D01*
X10877380Y-91219047D01*
X11829761Y-90838095D02*
X11877380Y-90695238D01*
X11877380Y-90457142D01*
X11829761Y-90361904D01*
X11782142Y-90314285D01*
X11686904Y-90266666D01*
X11591666Y-90266666D01*
X11496428Y-90314285D01*
X11448809Y-90361904D01*
X11401190Y-90457142D01*
X11353571Y-90647619D01*
X11305952Y-90742857D01*
X11258333Y-90790476D01*
X11163095Y-90838095D01*
X11067857Y-90838095D01*
X10972619Y-90790476D01*
X10925000Y-90742857D01*
X10877380Y-90647619D01*
X10877380Y-90409523D01*
X10925000Y-90266666D01*
X11877380Y-89838095D02*
X10877380Y-89838095D01*
X10877380Y-89457142D01*
X10925000Y-89361904D01*
X10972619Y-89314285D01*
X11067857Y-89266666D01*
X11210714Y-89266666D01*
X11305952Y-89314285D01*
X11353571Y-89361904D01*
X11401190Y-89457142D01*
X11401190Y-89838095D01*
X11305952Y-88695238D02*
X11258333Y-88790476D01*
X11210714Y-88838095D01*
X11115476Y-88885714D01*
X11067857Y-88885714D01*
X10972619Y-88838095D01*
X10925000Y-88790476D01*
X10877380Y-88695238D01*
X10877380Y-88504761D01*
X10925000Y-88409523D01*
X10972619Y-88361904D01*
X11067857Y-88314285D01*
X11115476Y-88314285D01*
X11210714Y-88361904D01*
X11258333Y-88409523D01*
X11305952Y-88504761D01*
X11305952Y-88695238D01*
X11353571Y-88790476D01*
X11401190Y-88838095D01*
X11496428Y-88885714D01*
X11686904Y-88885714D01*
X11782142Y-88838095D01*
X11829761Y-88790476D01*
X11877380Y-88695238D01*
X11877380Y-88504761D01*
X11829761Y-88409523D01*
X11782142Y-88361904D01*
X11686904Y-88314285D01*
X11496428Y-88314285D01*
X11401190Y-88361904D01*
X11353571Y-88409523D01*
X11305952Y-88504761D01*
X10972619Y-87933333D02*
X10925000Y-87885714D01*
X10877380Y-87790476D01*
X10877380Y-87552380D01*
X10925000Y-87457142D01*
X10972619Y-87409523D01*
X11067857Y-87361904D01*
X11163095Y-87361904D01*
X11305952Y-87409523D01*
X11877380Y-87980952D01*
X11877380Y-87361904D01*
X10877380Y-86504761D02*
X10877380Y-86695238D01*
X10925000Y-86790476D01*
X10972619Y-86838095D01*
X11115476Y-86933333D01*
X11305952Y-86980952D01*
X11686904Y-86980952D01*
X11782142Y-86933333D01*
X11829761Y-86885714D01*
X11877380Y-86790476D01*
X11877380Y-86600000D01*
X11829761Y-86504761D01*
X11782142Y-86457142D01*
X11686904Y-86409523D01*
X11448809Y-86409523D01*
X11353571Y-86457142D01*
X11305952Y-86504761D01*
X11258333Y-86600000D01*
X11258333Y-86790476D01*
X11305952Y-86885714D01*
X11353571Y-86933333D01*
X11448809Y-86980952D01*
X10877380Y-85552380D02*
X10877380Y-85742857D01*
X10925000Y-85838095D01*
X10972619Y-85885714D01*
X11115476Y-85980952D01*
X11305952Y-86028571D01*
X11686904Y-86028571D01*
X11782142Y-85980952D01*
X11829761Y-85933333D01*
X11877380Y-85838095D01*
X11877380Y-85647619D01*
X11829761Y-85552380D01*
X11782142Y-85504761D01*
X11686904Y-85457142D01*
X11448809Y-85457142D01*
X11353571Y-85504761D01*
X11305952Y-85552380D01*
X11258333Y-85647619D01*
X11258333Y-85838095D01*
X11305952Y-85933333D01*
X11353571Y-85980952D01*
X11448809Y-86028571D01*
X11496428Y-85028571D02*
X11496428Y-84266666D01*
X11877380Y-83266666D02*
X11877380Y-83838095D01*
X11877380Y-83552380D02*
X10877380Y-83552380D01*
X11020238Y-83647619D01*
X11115476Y-83742857D01*
X11163095Y-83838095D01*
X10972619Y-82885714D02*
X10925000Y-82838095D01*
X10877380Y-82742857D01*
X10877380Y-82504761D01*
X10925000Y-82409523D01*
X10972619Y-82361904D01*
X11067857Y-82314285D01*
X11163095Y-82314285D01*
X11305952Y-82361904D01*
X11877380Y-82933333D01*
X11877380Y-82314285D01*
X11353571Y-81885714D02*
X11353571Y-81552380D01*
X11877380Y-81409523D02*
X11877380Y-81885714D01*
X10877380Y-81885714D01*
X10877380Y-81409523D01*
X11877380Y-80457142D02*
X11877380Y-81028571D01*
X11877380Y-80742857D02*
X10877380Y-80742857D01*
X11020238Y-80838095D01*
X11115476Y-80933333D01*
X11163095Y-81028571D01*
%TO.C,RV1*%
X5464761Y-54567380D02*
X5131428Y-54091190D01*
X4893333Y-54567380D02*
X4893333Y-53567380D01*
X5274285Y-53567380D01*
X5369523Y-53615000D01*
X5417142Y-53662619D01*
X5464761Y-53757857D01*
X5464761Y-53900714D01*
X5417142Y-53995952D01*
X5369523Y-54043571D01*
X5274285Y-54091190D01*
X4893333Y-54091190D01*
X5750476Y-53567380D02*
X6083809Y-54567380D01*
X6417142Y-53567380D01*
X7274285Y-54567380D02*
X6702857Y-54567380D01*
X6988571Y-54567380D02*
X6988571Y-53567380D01*
X6893333Y-53710238D01*
X6798095Y-53805476D01*
X6702857Y-53853095D01*
%TO.C,JP1*%
X1016666Y-62857380D02*
X1016666Y-63571666D01*
X969047Y-63714523D01*
X873809Y-63809761D01*
X730952Y-63857380D01*
X635714Y-63857380D01*
X1492857Y-63857380D02*
X1492857Y-62857380D01*
X1873809Y-62857380D01*
X1969047Y-62905000D01*
X2016666Y-62952619D01*
X2064285Y-63047857D01*
X2064285Y-63190714D01*
X2016666Y-63285952D01*
X1969047Y-63333571D01*
X1873809Y-63381190D01*
X1492857Y-63381190D01*
X3016666Y-63857380D02*
X2445238Y-63857380D01*
X2730952Y-63857380D02*
X2730952Y-62857380D01*
X2635714Y-63000238D01*
X2540476Y-63095476D01*
X2445238Y-63143095D01*
%TO.C,J4*%
X13522380Y-66083333D02*
X14236666Y-66083333D01*
X14379523Y-66130952D01*
X14474761Y-66226190D01*
X14522380Y-66369047D01*
X14522380Y-66464285D01*
X13855714Y-65178571D02*
X14522380Y-65178571D01*
X13474761Y-65416666D02*
X14189047Y-65654761D01*
X14189047Y-65035714D01*
%TO.C,R5*%
X9607380Y-48731666D02*
X9131190Y-49065000D01*
X9607380Y-49303095D02*
X8607380Y-49303095D01*
X8607380Y-48922142D01*
X8655000Y-48826904D01*
X8702619Y-48779285D01*
X8797857Y-48731666D01*
X8940714Y-48731666D01*
X9035952Y-48779285D01*
X9083571Y-48826904D01*
X9131190Y-48922142D01*
X9131190Y-49303095D01*
X8607380Y-47826904D02*
X8607380Y-48303095D01*
X9083571Y-48350714D01*
X9035952Y-48303095D01*
X8988333Y-48207857D01*
X8988333Y-47969761D01*
X9035952Y-47874523D01*
X9083571Y-47826904D01*
X9178809Y-47779285D01*
X9416904Y-47779285D01*
X9512142Y-47826904D01*
X9559761Y-47874523D01*
X9607380Y-47969761D01*
X9607380Y-48207857D01*
X9559761Y-48303095D01*
X9512142Y-48350714D01*
%TO.C,C4*%
X13057142Y-41216666D02*
X13104761Y-41264285D01*
X13152380Y-41407142D01*
X13152380Y-41502380D01*
X13104761Y-41645238D01*
X13009523Y-41740476D01*
X12914285Y-41788095D01*
X12723809Y-41835714D01*
X12580952Y-41835714D01*
X12390476Y-41788095D01*
X12295238Y-41740476D01*
X12200000Y-41645238D01*
X12152380Y-41502380D01*
X12152380Y-41407142D01*
X12200000Y-41264285D01*
X12247619Y-41216666D01*
X12485714Y-40359523D02*
X13152380Y-40359523D01*
X12104761Y-40597619D02*
X12819047Y-40835714D01*
X12819047Y-40216666D01*
%TO.C,U1*%
X21063095Y-28377380D02*
X21063095Y-29186904D01*
X21110714Y-29282142D01*
X21158333Y-29329761D01*
X21253571Y-29377380D01*
X21444047Y-29377380D01*
X21539285Y-29329761D01*
X21586904Y-29282142D01*
X21634523Y-29186904D01*
X21634523Y-28377380D01*
X22634523Y-29377380D02*
X22063095Y-29377380D01*
X22348809Y-29377380D02*
X22348809Y-28377380D01*
X22253571Y-28520238D01*
X22158333Y-28615476D01*
X22063095Y-28663095D01*
%TO.C,SW1*%
X22841666Y-46854761D02*
X22984523Y-46902380D01*
X23222619Y-46902380D01*
X23317857Y-46854761D01*
X23365476Y-46807142D01*
X23413095Y-46711904D01*
X23413095Y-46616666D01*
X23365476Y-46521428D01*
X23317857Y-46473809D01*
X23222619Y-46426190D01*
X23032142Y-46378571D01*
X22936904Y-46330952D01*
X22889285Y-46283333D01*
X22841666Y-46188095D01*
X22841666Y-46092857D01*
X22889285Y-45997619D01*
X22936904Y-45950000D01*
X23032142Y-45902380D01*
X23270238Y-45902380D01*
X23413095Y-45950000D01*
X23746428Y-45902380D02*
X23984523Y-46902380D01*
X24175000Y-46188095D01*
X24365476Y-46902380D01*
X24603571Y-45902380D01*
X25508333Y-46902380D02*
X24936904Y-46902380D01*
X25222619Y-46902380D02*
X25222619Y-45902380D01*
X25127380Y-46045238D01*
X25032142Y-46140476D01*
X24936904Y-46188095D01*
%TO.C,R4*%
X19282380Y-53106666D02*
X18806190Y-53440000D01*
X19282380Y-53678095D02*
X18282380Y-53678095D01*
X18282380Y-53297142D01*
X18330000Y-53201904D01*
X18377619Y-53154285D01*
X18472857Y-53106666D01*
X18615714Y-53106666D01*
X18710952Y-53154285D01*
X18758571Y-53201904D01*
X18806190Y-53297142D01*
X18806190Y-53678095D01*
X18615714Y-52249523D02*
X19282380Y-52249523D01*
X18234761Y-52487619D02*
X18949047Y-52725714D01*
X18949047Y-52106666D01*
%TO.C,R3*%
X23732380Y-53081666D02*
X23256190Y-53415000D01*
X23732380Y-53653095D02*
X22732380Y-53653095D01*
X22732380Y-53272142D01*
X22780000Y-53176904D01*
X22827619Y-53129285D01*
X22922857Y-53081666D01*
X23065714Y-53081666D01*
X23160952Y-53129285D01*
X23208571Y-53176904D01*
X23256190Y-53272142D01*
X23256190Y-53653095D01*
X22732380Y-52748333D02*
X22732380Y-52129285D01*
X23113333Y-52462619D01*
X23113333Y-52319761D01*
X23160952Y-52224523D01*
X23208571Y-52176904D01*
X23303809Y-52129285D01*
X23541904Y-52129285D01*
X23637142Y-52176904D01*
X23684761Y-52224523D01*
X23732380Y-52319761D01*
X23732380Y-52605476D01*
X23684761Y-52700714D01*
X23637142Y-52748333D01*
%TO.C,R1*%
X27857380Y-53081666D02*
X27381190Y-53415000D01*
X27857380Y-53653095D02*
X26857380Y-53653095D01*
X26857380Y-53272142D01*
X26905000Y-53176904D01*
X26952619Y-53129285D01*
X27047857Y-53081666D01*
X27190714Y-53081666D01*
X27285952Y-53129285D01*
X27333571Y-53176904D01*
X27381190Y-53272142D01*
X27381190Y-53653095D01*
X27857380Y-52129285D02*
X27857380Y-52700714D01*
X27857380Y-52415000D02*
X26857380Y-52415000D01*
X27000238Y-52510238D01*
X27095476Y-52605476D01*
X27143095Y-52700714D01*
%TO.C,Q1*%
X27967619Y-87865238D02*
X27920000Y-87960476D01*
X27824761Y-88055714D01*
X27681904Y-88198571D01*
X27634285Y-88293809D01*
X27634285Y-88389047D01*
X27872380Y-88341428D02*
X27824761Y-88436666D01*
X27729523Y-88531904D01*
X27539047Y-88579523D01*
X27205714Y-88579523D01*
X27015238Y-88531904D01*
X26920000Y-88436666D01*
X26872380Y-88341428D01*
X26872380Y-88150952D01*
X26920000Y-88055714D01*
X27015238Y-87960476D01*
X27205714Y-87912857D01*
X27539047Y-87912857D01*
X27729523Y-87960476D01*
X27824761Y-88055714D01*
X27872380Y-88150952D01*
X27872380Y-88341428D01*
X27872380Y-86960476D02*
X27872380Y-87531904D01*
X27872380Y-87246190D02*
X26872380Y-87246190D01*
X27015238Y-87341428D01*
X27110476Y-87436666D01*
X27158095Y-87531904D01*
%TO.C,J3*%
X26966666Y-38357380D02*
X26966666Y-39071666D01*
X26919047Y-39214523D01*
X26823809Y-39309761D01*
X26680952Y-39357380D01*
X26585714Y-39357380D01*
X27347619Y-38357380D02*
X27966666Y-38357380D01*
X27633333Y-38738333D01*
X27776190Y-38738333D01*
X27871428Y-38785952D01*
X27919047Y-38833571D01*
X27966666Y-38928809D01*
X27966666Y-39166904D01*
X27919047Y-39262142D01*
X27871428Y-39309761D01*
X27776190Y-39357380D01*
X27490476Y-39357380D01*
X27395238Y-39309761D01*
X27347619Y-39262142D01*
%TO.C,J2*%
X15616666Y-27097380D02*
X15616666Y-27811666D01*
X15569047Y-27954523D01*
X15473809Y-28049761D01*
X15330952Y-28097380D01*
X15235714Y-28097380D01*
X16045238Y-27192619D02*
X16092857Y-27145000D01*
X16188095Y-27097380D01*
X16426190Y-27097380D01*
X16521428Y-27145000D01*
X16569047Y-27192619D01*
X16616666Y-27287857D01*
X16616666Y-27383095D01*
X16569047Y-27525952D01*
X15997619Y-28097380D01*
X16616666Y-28097380D01*
%TO.C,J1*%
X30066666Y-91882380D02*
X30066666Y-92596666D01*
X30019047Y-92739523D01*
X29923809Y-92834761D01*
X29780952Y-92882380D01*
X29685714Y-92882380D01*
X31066666Y-92882380D02*
X30495238Y-92882380D01*
X30780952Y-92882380D02*
X30780952Y-91882380D01*
X30685714Y-92025238D01*
X30590476Y-92120476D01*
X30495238Y-92168095D01*
%TO.C,C3*%
X24582142Y-96216666D02*
X24629761Y-96264285D01*
X24677380Y-96407142D01*
X24677380Y-96502380D01*
X24629761Y-96645238D01*
X24534523Y-96740476D01*
X24439285Y-96788095D01*
X24248809Y-96835714D01*
X24105952Y-96835714D01*
X23915476Y-96788095D01*
X23820238Y-96740476D01*
X23725000Y-96645238D01*
X23677380Y-96502380D01*
X23677380Y-96407142D01*
X23725000Y-96264285D01*
X23772619Y-96216666D01*
X23677380Y-95883333D02*
X23677380Y-95264285D01*
X24058333Y-95597619D01*
X24058333Y-95454761D01*
X24105952Y-95359523D01*
X24153571Y-95311904D01*
X24248809Y-95264285D01*
X24486904Y-95264285D01*
X24582142Y-95311904D01*
X24629761Y-95359523D01*
X24677380Y-95454761D01*
X24677380Y-95740476D01*
X24629761Y-95835714D01*
X24582142Y-95883333D01*
%TO.C,C2*%
X28082142Y-41441666D02*
X28129761Y-41489285D01*
X28177380Y-41632142D01*
X28177380Y-41727380D01*
X28129761Y-41870238D01*
X28034523Y-41965476D01*
X27939285Y-42013095D01*
X27748809Y-42060714D01*
X27605952Y-42060714D01*
X27415476Y-42013095D01*
X27320238Y-41965476D01*
X27225000Y-41870238D01*
X27177380Y-41727380D01*
X27177380Y-41632142D01*
X27225000Y-41489285D01*
X27272619Y-41441666D01*
X27272619Y-41060714D02*
X27225000Y-41013095D01*
X27177380Y-40917857D01*
X27177380Y-40679761D01*
X27225000Y-40584523D01*
X27272619Y-40536904D01*
X27367857Y-40489285D01*
X27463095Y-40489285D01*
X27605952Y-40536904D01*
X28177380Y-41108333D01*
X28177380Y-40489285D01*
%TD*%
M02*
