%TF.GenerationSoftware,KiCad,Pcbnew,(5.1.6-0-10_14)*%
%TF.CreationDate,2020-10-13T22:09:44-04:00*%
%TF.ProjectId,weather_external,77656174-6865-4725-9f65-787465726e61,rev?*%
%TF.SameCoordinates,Original*%
%TF.FileFunction,Copper,L2,Bot*%
%TF.FilePolarity,Positive*%
%FSLAX46Y46*%
G04 Gerber Fmt 4.6, Leading zero omitted, Abs format (unit mm)*
G04 Created by KiCad (PCBNEW (5.1.6-0-10_14)) date 2020-10-13 22:09:44*
%MOMM*%
%LPD*%
G01*
G04 APERTURE LIST*
%TA.AperFunction,ComponentPad*%
%ADD10C,1.200000*%
%TD*%
%TA.AperFunction,ComponentPad*%
%ADD11R,1.200000X1.200000*%
%TD*%
%TA.AperFunction,ComponentPad*%
%ADD12O,1.600000X1.600000*%
%TD*%
%TA.AperFunction,ComponentPad*%
%ADD13R,1.600000X1.600000*%
%TD*%
%TA.AperFunction,ComponentPad*%
%ADD14C,1.440000*%
%TD*%
%TA.AperFunction,ComponentPad*%
%ADD15O,1.700000X1.700000*%
%TD*%
%TA.AperFunction,ComponentPad*%
%ADD16R,1.700000X1.700000*%
%TD*%
%TA.AperFunction,ComponentPad*%
%ADD17C,1.600000*%
%TD*%
%TA.AperFunction,ComponentPad*%
%ADD18C,2.000000*%
%TD*%
%TA.AperFunction,ComponentPad*%
%ADD19R,2.000000X2.000000*%
%TD*%
%TA.AperFunction,ViaPad*%
%ADD20C,0.800000*%
%TD*%
%TA.AperFunction,Conductor*%
%ADD21C,0.250000*%
%TD*%
%TA.AperFunction,Conductor*%
%ADD22C,0.254000*%
%TD*%
G04 APERTURE END LIST*
D10*
%TO.P,C5,2*%
%TO.N,GND*%
X19100000Y-60950000D03*
D11*
%TO.P,C5,1*%
%TO.N,Net-(C3-Pad1)*%
X17100000Y-60950000D03*
%TD*%
D12*
%TO.P,U3,8*%
%TO.N,Net-(JP1-Pad1)*%
X13045000Y-58425000D03*
%TO.P,U3,4*%
X5425000Y-66045000D03*
%TO.P,U3,7*%
%TO.N,Net-(R5-Pad1)*%
X13045000Y-60965000D03*
%TO.P,U3,3*%
%TO.N,Net-(C2-Pad1)*%
X5425000Y-63505000D03*
%TO.P,U3,6*%
%TO.N,Net-(C4-Pad1)*%
X13045000Y-63505000D03*
%TO.P,U3,2*%
X5425000Y-60965000D03*
%TO.P,U3,5*%
%TO.N,N/C*%
X13045000Y-66045000D03*
D13*
%TO.P,U3,1*%
%TO.N,GND*%
X5425000Y-58425000D03*
%TD*%
D14*
%TO.P,RV1,1*%
%TO.N,N/C*%
X6000000Y-47025000D03*
%TO.P,RV1,2*%
%TO.N,VCC*%
X3460000Y-49565000D03*
%TO.P,RV1,3*%
%TO.N,Net-(R5-Pad1)*%
X6000000Y-52105000D03*
%TD*%
D15*
%TO.P,JP1,2*%
%TO.N,VCC*%
X1850000Y-58535000D03*
D16*
%TO.P,JP1,1*%
%TO.N,Net-(JP1-Pad1)*%
X1850000Y-61075000D03*
%TD*%
D15*
%TO.P,J4,4*%
%TO.N,Net-(ESP8266-12E1-Pad19)*%
X24020000Y-65750000D03*
%TO.P,J4,3*%
%TO.N,Net-(ESP8266-12E1-Pad20)*%
X21480000Y-65750000D03*
%TO.P,J4,2*%
%TO.N,GND*%
X18940000Y-65750000D03*
D16*
%TO.P,J4,1*%
%TO.N,Net-(C3-Pad1)*%
X16400000Y-65750000D03*
%TD*%
D12*
%TO.P,R5,2*%
%TO.N,Net-(C4-Pad1)*%
X11525000Y-44755000D03*
D17*
%TO.P,R5,1*%
%TO.N,Net-(R5-Pad1)*%
X11525000Y-52375000D03*
%TD*%
D10*
%TO.P,C4,2*%
%TO.N,GND*%
X15950000Y-40050000D03*
D11*
%TO.P,C4,1*%
%TO.N,Net-(C4-Pad1)*%
X15950000Y-42050000D03*
%TD*%
D18*
%TO.P,SW1,1*%
%TO.N,Net-(C2-Pad1)*%
X20925000Y-44450000D03*
%TO.P,SW1,2*%
%TO.N,GND*%
X20925000Y-39950000D03*
%TO.P,SW1,1*%
%TO.N,Net-(C2-Pad1)*%
X27425000Y-44450000D03*
%TO.P,SW1,2*%
%TO.N,GND*%
X27425000Y-39950000D03*
%TD*%
D12*
%TO.P,R4,2*%
%TO.N,Net-(C3-Pad1)*%
X21200000Y-49130000D03*
D17*
%TO.P,R4,1*%
%TO.N,Net-(C2-Pad1)*%
X21200000Y-56750000D03*
%TD*%
D12*
%TO.P,R3,2*%
%TO.N,Net-(C3-Pad1)*%
X25650000Y-49105000D03*
D17*
%TO.P,R3,1*%
%TO.N,Net-(ESP8266-12E1-Pad3)*%
X25650000Y-56725000D03*
%TD*%
D12*
%TO.P,R1,2*%
%TO.N,Net-(C3-Pad1)*%
X29775000Y-49105000D03*
D17*
%TO.P,R1,1*%
%TO.N,Net-(ESP8266-12E1-Pad17)*%
X29775000Y-56725000D03*
%TD*%
D18*
%TO.P,Q1,3*%
%TO.N,Net-(J1-Pad6)*%
X24200000Y-90230000D03*
%TO.P,Q1,2*%
%TO.N,Net-(ESP8266-12E1-Pad18)*%
X24200000Y-87690000D03*
D19*
%TO.P,Q1,1*%
%TO.N,Net-(C2-Pad1)*%
X24200000Y-85150000D03*
%TD*%
D15*
%TO.P,J3,3*%
%TO.N,Net-(J3-Pad3)*%
X27300000Y-31495000D03*
%TO.P,J3,2*%
%TO.N,VCC*%
X27300000Y-34035000D03*
D16*
%TO.P,J3,1*%
%TO.N,Net-(C3-Pad1)*%
X27300000Y-36575000D03*
%TD*%
D15*
%TO.P,J2,2*%
%TO.N,GND*%
X15950000Y-32515000D03*
D16*
%TO.P,J2,1*%
%TO.N,VCC*%
X15950000Y-29975000D03*
%TD*%
D15*
%TO.P,J1,6*%
%TO.N,Net-(J1-Pad6)*%
X30400000Y-77400000D03*
%TO.P,J1,5*%
%TO.N,Net-(ESP8266-12E1-Pad22)*%
X30400000Y-79940000D03*
%TO.P,J1,4*%
%TO.N,Net-(ESP8266-12E1-Pad21)*%
X30400000Y-82480000D03*
%TO.P,J1,3*%
%TO.N,Net-(C3-Pad1)*%
X30400000Y-85020000D03*
%TO.P,J1,2*%
%TO.N,Net-(C2-Pad1)*%
X30400000Y-87560000D03*
D16*
%TO.P,J1,1*%
%TO.N,GND*%
X30400000Y-90100000D03*
%TD*%
D10*
%TO.P,C3,2*%
%TO.N,GND*%
X27475000Y-95050000D03*
D11*
%TO.P,C3,1*%
%TO.N,Net-(C3-Pad1)*%
X27475000Y-97050000D03*
%TD*%
D10*
%TO.P,C2,2*%
%TO.N,GND*%
X31475000Y-39775000D03*
D11*
%TO.P,C2,1*%
%TO.N,Net-(C2-Pad1)*%
X31475000Y-41775000D03*
%TD*%
D20*
%TO.N,Net-(C3-Pad1)*%
X17002347Y-69202347D03*
%TO.N,Net-(JP1-Pad1)*%
X9025000Y-61075000D03*
%TO.N,Net-(ESP8266-12E1-Pad20)*%
X9200000Y-78925000D03*
%TO.N,Net-(ESP8266-12E1-Pad19)*%
X8525000Y-81275000D03*
%TO.N,Net-(ESP8266-12E1-Pad17)*%
X21450000Y-89800000D03*
%TO.N,Net-(ESP8266-12E1-Pad3)*%
X7525000Y-83625000D03*
%TD*%
D21*
%TO.N,Net-(C2-Pad1)*%
X19925001Y-55475001D02*
X21200000Y-56750000D01*
X19925001Y-45449999D02*
X19925001Y-55475001D01*
X20925000Y-44450000D02*
X19925001Y-45449999D01*
%TO.N,Net-(C3-Pad1)*%
X29224999Y-95300001D02*
X27475000Y-97050000D01*
X29224999Y-86195001D02*
X29224999Y-95300001D01*
X30400000Y-85020000D02*
X29224999Y-86195001D01*
X17002347Y-66352347D02*
X16400000Y-65750000D01*
X17002347Y-69202347D02*
X17002347Y-66352347D01*
%TO.N,Net-(J1-Pad6)*%
X29224999Y-85205001D02*
X24200000Y-90230000D01*
X29224999Y-78575001D02*
X29224999Y-85205001D01*
X30400000Y-77400000D02*
X29224999Y-78575001D01*
%TO.N,Net-(R5-Pad1)*%
X13045000Y-60090002D02*
X13045000Y-60965000D01*
X11525000Y-58570002D02*
X13045000Y-60090002D01*
X11525000Y-52375000D02*
X11525000Y-58570002D01*
%TO.N,Net-(JP1-Pad1)*%
X5425000Y-65955000D02*
X5425000Y-66045000D01*
X9025000Y-62445000D02*
X5425000Y-66045000D01*
X9025000Y-61075000D02*
X9025000Y-62445000D01*
%TO.N,Net-(ESP8266-12E1-Pad20)*%
X9200000Y-78030000D02*
X9200000Y-78925000D01*
X21480000Y-65750000D02*
X9200000Y-78030000D01*
%TO.N,Net-(ESP8266-12E1-Pad19)*%
X8525000Y-81245000D02*
X8525000Y-81275000D01*
X24020000Y-65750000D02*
X8525000Y-81245000D01*
%TO.N,Net-(ESP8266-12E1-Pad17)*%
X21450000Y-84610998D02*
X21450000Y-89800000D01*
X29775000Y-76285998D02*
X21450000Y-84610998D01*
X29775000Y-56725000D02*
X29775000Y-76285998D01*
%TO.N,Net-(ESP8266-12E1-Pad3)*%
X25650000Y-65859002D02*
X7884002Y-83625000D01*
X7884002Y-83625000D02*
X7525000Y-83625000D01*
X25650000Y-56725000D02*
X25650000Y-65859002D01*
%TD*%
D22*
%TO.N,GND*%
G36*
X34340000Y-100340000D02*
G01*
X-340000Y-100340000D01*
X-340000Y-94200236D01*
X26804841Y-94200236D01*
X27475000Y-94870395D01*
X28145159Y-94200236D01*
X28097852Y-93976652D01*
X27876484Y-93875763D01*
X27639687Y-93820000D01*
X27396562Y-93811505D01*
X27156451Y-93850605D01*
X26928582Y-93935798D01*
X26852148Y-93976652D01*
X26804841Y-94200236D01*
X-340000Y-94200236D01*
X-340000Y-89698061D01*
X20415000Y-89698061D01*
X20415000Y-89901939D01*
X20454774Y-90101898D01*
X20532795Y-90290256D01*
X20646063Y-90459774D01*
X20790226Y-90603937D01*
X20959744Y-90717205D01*
X21148102Y-90795226D01*
X21348061Y-90835000D01*
X21551939Y-90835000D01*
X21751898Y-90795226D01*
X21940256Y-90717205D01*
X22109774Y-90603937D01*
X22253937Y-90459774D01*
X22367205Y-90290256D01*
X22445226Y-90101898D01*
X22485000Y-89901939D01*
X22485000Y-89698061D01*
X22445226Y-89498102D01*
X22367205Y-89309744D01*
X22253937Y-89140226D01*
X22210000Y-89096289D01*
X22210000Y-84925799D01*
X22561928Y-84573871D01*
X22561928Y-86150000D01*
X22574188Y-86274482D01*
X22610498Y-86394180D01*
X22669463Y-86504494D01*
X22748815Y-86601185D01*
X22845506Y-86680537D01*
X22891630Y-86705191D01*
X22751082Y-86915537D01*
X22627832Y-87213088D01*
X22565000Y-87528967D01*
X22565000Y-87851033D01*
X22627832Y-88166912D01*
X22751082Y-88464463D01*
X22930013Y-88732252D01*
X23157748Y-88959987D01*
X23157767Y-88960000D01*
X23157748Y-88960013D01*
X22930013Y-89187748D01*
X22751082Y-89455537D01*
X22627832Y-89753088D01*
X22565000Y-90068967D01*
X22565000Y-90391033D01*
X22627832Y-90706912D01*
X22751082Y-91004463D01*
X22930013Y-91272252D01*
X23157748Y-91499987D01*
X23425537Y-91678918D01*
X23723088Y-91802168D01*
X24038967Y-91865000D01*
X24361033Y-91865000D01*
X24676912Y-91802168D01*
X24974463Y-91678918D01*
X25242252Y-91499987D01*
X25469987Y-91272252D01*
X25648918Y-91004463D01*
X25772168Y-90706912D01*
X25835000Y-90391033D01*
X25835000Y-90068967D01*
X25772168Y-89753088D01*
X25766177Y-89738624D01*
X28464999Y-87039803D01*
X28465000Y-94409513D01*
X28324764Y-94379841D01*
X27654605Y-95050000D01*
X27668748Y-95064143D01*
X27489143Y-95243748D01*
X27475000Y-95229605D01*
X27460858Y-95243748D01*
X27281253Y-95064143D01*
X27295395Y-95050000D01*
X26625236Y-94379841D01*
X26401652Y-94427148D01*
X26300763Y-94648516D01*
X26245000Y-94885313D01*
X26236505Y-95128438D01*
X26275605Y-95368549D01*
X26360798Y-95596418D01*
X26401652Y-95672852D01*
X26625234Y-95720158D01*
X26508128Y-95837264D01*
X26566006Y-95895142D01*
X26520506Y-95919463D01*
X26423815Y-95998815D01*
X26344463Y-96095506D01*
X26285498Y-96205820D01*
X26249188Y-96325518D01*
X26236928Y-96450000D01*
X26236928Y-97650000D01*
X26249188Y-97774482D01*
X26285498Y-97894180D01*
X26344463Y-98004494D01*
X26423815Y-98101185D01*
X26520506Y-98180537D01*
X26630820Y-98239502D01*
X26750518Y-98275812D01*
X26875000Y-98288072D01*
X28075000Y-98288072D01*
X28199482Y-98275812D01*
X28319180Y-98239502D01*
X28429494Y-98180537D01*
X28526185Y-98101185D01*
X28605537Y-98004494D01*
X28664502Y-97894180D01*
X28700812Y-97774482D01*
X28713072Y-97650000D01*
X28713072Y-96886729D01*
X29736002Y-95863800D01*
X29765000Y-95840002D01*
X29859973Y-95724277D01*
X29930545Y-95592248D01*
X29974002Y-95448987D01*
X29984999Y-95337334D01*
X29984999Y-95337325D01*
X29988675Y-95300002D01*
X29984999Y-95262679D01*
X29984999Y-91585704D01*
X30114250Y-91585000D01*
X30273000Y-91426250D01*
X30273000Y-90227000D01*
X30527000Y-90227000D01*
X30527000Y-91426250D01*
X30685750Y-91585000D01*
X31250000Y-91588072D01*
X31374482Y-91575812D01*
X31494180Y-91539502D01*
X31604494Y-91480537D01*
X31701185Y-91401185D01*
X31780537Y-91304494D01*
X31839502Y-91194180D01*
X31875812Y-91074482D01*
X31888072Y-90950000D01*
X31885000Y-90385750D01*
X31726250Y-90227000D01*
X30527000Y-90227000D01*
X30273000Y-90227000D01*
X30253000Y-90227000D01*
X30253000Y-89973000D01*
X30273000Y-89973000D01*
X30273000Y-89953000D01*
X30527000Y-89953000D01*
X30527000Y-89973000D01*
X31726250Y-89973000D01*
X31885000Y-89814250D01*
X31888072Y-89250000D01*
X31875812Y-89125518D01*
X31839502Y-89005820D01*
X31780537Y-88895506D01*
X31701185Y-88798815D01*
X31604494Y-88719463D01*
X31494180Y-88660498D01*
X31421620Y-88638487D01*
X31553475Y-88506632D01*
X31715990Y-88263411D01*
X31827932Y-87993158D01*
X31885000Y-87706260D01*
X31885000Y-87413740D01*
X31827932Y-87126842D01*
X31715990Y-86856589D01*
X31553475Y-86613368D01*
X31346632Y-86406525D01*
X31172240Y-86290000D01*
X31346632Y-86173475D01*
X31553475Y-85966632D01*
X31715990Y-85723411D01*
X31827932Y-85453158D01*
X31885000Y-85166260D01*
X31885000Y-84873740D01*
X31827932Y-84586842D01*
X31715990Y-84316589D01*
X31553475Y-84073368D01*
X31346632Y-83866525D01*
X31172240Y-83750000D01*
X31346632Y-83633475D01*
X31553475Y-83426632D01*
X31715990Y-83183411D01*
X31827932Y-82913158D01*
X31885000Y-82626260D01*
X31885000Y-82333740D01*
X31827932Y-82046842D01*
X31715990Y-81776589D01*
X31553475Y-81533368D01*
X31346632Y-81326525D01*
X31172240Y-81210000D01*
X31346632Y-81093475D01*
X31553475Y-80886632D01*
X31715990Y-80643411D01*
X31827932Y-80373158D01*
X31885000Y-80086260D01*
X31885000Y-79793740D01*
X31827932Y-79506842D01*
X31715990Y-79236589D01*
X31553475Y-78993368D01*
X31346632Y-78786525D01*
X31172240Y-78670000D01*
X31346632Y-78553475D01*
X31553475Y-78346632D01*
X31715990Y-78103411D01*
X31827932Y-77833158D01*
X31885000Y-77546260D01*
X31885000Y-77253740D01*
X31827932Y-76966842D01*
X31715990Y-76696589D01*
X31553475Y-76453368D01*
X31346632Y-76246525D01*
X31103411Y-76084010D01*
X30833158Y-75972068D01*
X30546260Y-75915000D01*
X30535000Y-75915000D01*
X30535000Y-57943043D01*
X30689759Y-57839637D01*
X30889637Y-57639759D01*
X31046680Y-57404727D01*
X31154853Y-57143574D01*
X31210000Y-56866335D01*
X31210000Y-56583665D01*
X31154853Y-56306426D01*
X31046680Y-56045273D01*
X30889637Y-55810241D01*
X30689759Y-55610363D01*
X30454727Y-55453320D01*
X30193574Y-55345147D01*
X29916335Y-55290000D01*
X29633665Y-55290000D01*
X29356426Y-55345147D01*
X29095273Y-55453320D01*
X28860241Y-55610363D01*
X28660363Y-55810241D01*
X28503320Y-56045273D01*
X28395147Y-56306426D01*
X28340000Y-56583665D01*
X28340000Y-56866335D01*
X28395147Y-57143574D01*
X28503320Y-57404727D01*
X28660363Y-57639759D01*
X28860241Y-57839637D01*
X29015000Y-57943043D01*
X29015001Y-75971195D01*
X20939003Y-84047194D01*
X20909999Y-84070997D01*
X20873677Y-84115256D01*
X20815026Y-84186722D01*
X20813916Y-84188799D01*
X20744454Y-84318752D01*
X20700997Y-84462013D01*
X20690000Y-84573666D01*
X20690000Y-84573676D01*
X20686324Y-84610998D01*
X20690000Y-84648321D01*
X20690001Y-89096288D01*
X20646063Y-89140226D01*
X20532795Y-89309744D01*
X20454774Y-89498102D01*
X20415000Y-89698061D01*
X-340000Y-89698061D01*
X-340000Y-83523061D01*
X6490000Y-83523061D01*
X6490000Y-83726939D01*
X6529774Y-83926898D01*
X6607795Y-84115256D01*
X6721063Y-84284774D01*
X6865226Y-84428937D01*
X7034744Y-84542205D01*
X7223102Y-84620226D01*
X7423061Y-84660000D01*
X7626939Y-84660000D01*
X7826898Y-84620226D01*
X8015256Y-84542205D01*
X8184774Y-84428937D01*
X8328937Y-84284774D01*
X8390710Y-84192324D01*
X8424003Y-84165001D01*
X8447806Y-84135997D01*
X26161003Y-66422801D01*
X26190001Y-66399003D01*
X26284974Y-66283278D01*
X26355546Y-66151249D01*
X26399003Y-66007988D01*
X26410000Y-65896335D01*
X26410000Y-65896326D01*
X26413676Y-65859003D01*
X26410000Y-65821680D01*
X26410000Y-57943043D01*
X26564759Y-57839637D01*
X26764637Y-57639759D01*
X26921680Y-57404727D01*
X27029853Y-57143574D01*
X27085000Y-56866335D01*
X27085000Y-56583665D01*
X27029853Y-56306426D01*
X26921680Y-56045273D01*
X26764637Y-55810241D01*
X26564759Y-55610363D01*
X26329727Y-55453320D01*
X26068574Y-55345147D01*
X25791335Y-55290000D01*
X25508665Y-55290000D01*
X25231426Y-55345147D01*
X24970273Y-55453320D01*
X24735241Y-55610363D01*
X24535363Y-55810241D01*
X24378320Y-56045273D01*
X24270147Y-56306426D01*
X24215000Y-56583665D01*
X24215000Y-56866335D01*
X24270147Y-57143574D01*
X24378320Y-57404727D01*
X24535363Y-57639759D01*
X24735241Y-57839637D01*
X24890000Y-57943044D01*
X24890001Y-64545322D01*
X24723411Y-64434010D01*
X24453158Y-64322068D01*
X24166260Y-64265000D01*
X23873740Y-64265000D01*
X23586842Y-64322068D01*
X23316589Y-64434010D01*
X23073368Y-64596525D01*
X22866525Y-64803368D01*
X22750000Y-64977760D01*
X22633475Y-64803368D01*
X22426632Y-64596525D01*
X22183411Y-64434010D01*
X21913158Y-64322068D01*
X21626260Y-64265000D01*
X21333740Y-64265000D01*
X21046842Y-64322068D01*
X20776589Y-64434010D01*
X20533368Y-64596525D01*
X20326525Y-64803368D01*
X20204805Y-64985534D01*
X20135178Y-64868645D01*
X19940269Y-64652412D01*
X19706920Y-64478359D01*
X19444099Y-64353175D01*
X19296890Y-64308524D01*
X19067000Y-64429845D01*
X19067000Y-65623000D01*
X19087000Y-65623000D01*
X19087000Y-65877000D01*
X19067000Y-65877000D01*
X19067000Y-65897000D01*
X18813000Y-65897000D01*
X18813000Y-65877000D01*
X18793000Y-65877000D01*
X18793000Y-65623000D01*
X18813000Y-65623000D01*
X18813000Y-64429845D01*
X18583110Y-64308524D01*
X18435901Y-64353175D01*
X18173080Y-64478359D01*
X17939731Y-64652412D01*
X17863966Y-64736466D01*
X17839502Y-64655820D01*
X17780537Y-64545506D01*
X17701185Y-64448815D01*
X17604494Y-64369463D01*
X17494180Y-64310498D01*
X17374482Y-64274188D01*
X17250000Y-64261928D01*
X15550000Y-64261928D01*
X15425518Y-64274188D01*
X15305820Y-64310498D01*
X15195506Y-64369463D01*
X15098815Y-64448815D01*
X15019463Y-64545506D01*
X14960498Y-64655820D01*
X14924188Y-64775518D01*
X14911928Y-64900000D01*
X14911928Y-66600000D01*
X14924188Y-66724482D01*
X14960498Y-66844180D01*
X15019463Y-66954494D01*
X15098815Y-67051185D01*
X15195506Y-67130537D01*
X15305820Y-67189502D01*
X15425518Y-67225812D01*
X15550000Y-67238072D01*
X16242348Y-67238072D01*
X16242347Y-68498636D01*
X16198410Y-68542573D01*
X16085142Y-68712091D01*
X16007121Y-68900449D01*
X15967347Y-69100408D01*
X15967347Y-69304286D01*
X16007121Y-69504245D01*
X16085142Y-69692603D01*
X16198410Y-69862121D01*
X16245744Y-69909455D01*
X8689003Y-77466196D01*
X8659999Y-77489999D01*
X8613827Y-77546260D01*
X8565026Y-77605724D01*
X8518778Y-77692247D01*
X8494454Y-77737754D01*
X8450997Y-77881015D01*
X8440000Y-77992668D01*
X8440000Y-77992678D01*
X8436324Y-78030000D01*
X8440000Y-78067322D01*
X8440000Y-78221289D01*
X8396063Y-78265226D01*
X8282795Y-78434744D01*
X8204774Y-78623102D01*
X8165000Y-78823061D01*
X8165000Y-79026939D01*
X8204774Y-79226898D01*
X8282795Y-79415256D01*
X8396063Y-79584774D01*
X8540226Y-79728937D01*
X8709744Y-79842205D01*
X8811037Y-79884162D01*
X8455199Y-80240000D01*
X8423061Y-80240000D01*
X8223102Y-80279774D01*
X8034744Y-80357795D01*
X7865226Y-80471063D01*
X7721063Y-80615226D01*
X7607795Y-80784744D01*
X7529774Y-80973102D01*
X7490000Y-81173061D01*
X7490000Y-81376939D01*
X7529774Y-81576898D01*
X7607795Y-81765256D01*
X7721063Y-81934774D01*
X7865226Y-82078937D01*
X8034744Y-82192205D01*
X8181293Y-82252908D01*
X7808155Y-82626046D01*
X7626939Y-82590000D01*
X7423061Y-82590000D01*
X7223102Y-82629774D01*
X7034744Y-82707795D01*
X6865226Y-82821063D01*
X6721063Y-82965226D01*
X6607795Y-83134744D01*
X6529774Y-83323102D01*
X6490000Y-83523061D01*
X-340000Y-83523061D01*
X-340000Y-60225000D01*
X361928Y-60225000D01*
X361928Y-61925000D01*
X374188Y-62049482D01*
X410498Y-62169180D01*
X469463Y-62279494D01*
X548815Y-62376185D01*
X645506Y-62455537D01*
X755820Y-62514502D01*
X875518Y-62550812D01*
X1000000Y-62563072D01*
X2700000Y-62563072D01*
X2824482Y-62550812D01*
X2944180Y-62514502D01*
X3054494Y-62455537D01*
X3151185Y-62376185D01*
X3230537Y-62279494D01*
X3289502Y-62169180D01*
X3325812Y-62049482D01*
X3338072Y-61925000D01*
X3338072Y-60225000D01*
X3325812Y-60100518D01*
X3289502Y-59980820D01*
X3230537Y-59870506D01*
X3151185Y-59773815D01*
X3054494Y-59694463D01*
X2944180Y-59635498D01*
X2871620Y-59613487D01*
X3003475Y-59481632D01*
X3165990Y-59238411D01*
X3171544Y-59225000D01*
X3986928Y-59225000D01*
X3999188Y-59349482D01*
X4035498Y-59469180D01*
X4094463Y-59579494D01*
X4173815Y-59676185D01*
X4270506Y-59755537D01*
X4380820Y-59814502D01*
X4500518Y-59850812D01*
X4508961Y-59851643D01*
X4310363Y-60050241D01*
X4153320Y-60285273D01*
X4045147Y-60546426D01*
X3990000Y-60823665D01*
X3990000Y-61106335D01*
X4045147Y-61383574D01*
X4153320Y-61644727D01*
X4310363Y-61879759D01*
X4510241Y-62079637D01*
X4742759Y-62235000D01*
X4510241Y-62390363D01*
X4310363Y-62590241D01*
X4153320Y-62825273D01*
X4045147Y-63086426D01*
X3990000Y-63363665D01*
X3990000Y-63646335D01*
X4045147Y-63923574D01*
X4153320Y-64184727D01*
X4310363Y-64419759D01*
X4510241Y-64619637D01*
X4742759Y-64775000D01*
X4510241Y-64930363D01*
X4310363Y-65130241D01*
X4153320Y-65365273D01*
X4045147Y-65626426D01*
X3990000Y-65903665D01*
X3990000Y-66186335D01*
X4045147Y-66463574D01*
X4153320Y-66724727D01*
X4310363Y-66959759D01*
X4510241Y-67159637D01*
X4745273Y-67316680D01*
X5006426Y-67424853D01*
X5283665Y-67480000D01*
X5566335Y-67480000D01*
X5843574Y-67424853D01*
X6104727Y-67316680D01*
X6339759Y-67159637D01*
X6539637Y-66959759D01*
X6696680Y-66724727D01*
X6804853Y-66463574D01*
X6860000Y-66186335D01*
X6860000Y-65903665D01*
X6823688Y-65721113D01*
X9536003Y-63008799D01*
X9565001Y-62985001D01*
X9659974Y-62869276D01*
X9730546Y-62737247D01*
X9774003Y-62593986D01*
X9785000Y-62482333D01*
X9785000Y-62482323D01*
X9788676Y-62445000D01*
X9785000Y-62407677D01*
X9785000Y-61778711D01*
X9828937Y-61734774D01*
X9942205Y-61565256D01*
X10020226Y-61376898D01*
X10060000Y-61176939D01*
X10060000Y-60973061D01*
X10020226Y-60773102D01*
X9942205Y-60584744D01*
X9828937Y-60415226D01*
X9684774Y-60271063D01*
X9515256Y-60157795D01*
X9326898Y-60079774D01*
X9126939Y-60040000D01*
X8923061Y-60040000D01*
X8723102Y-60079774D01*
X8534744Y-60157795D01*
X8365226Y-60271063D01*
X8221063Y-60415226D01*
X8107795Y-60584744D01*
X8029774Y-60773102D01*
X7990000Y-60973061D01*
X7990000Y-61176939D01*
X8029774Y-61376898D01*
X8107795Y-61565256D01*
X8221063Y-61734774D01*
X8265001Y-61778712D01*
X8265001Y-62130197D01*
X6860000Y-63535198D01*
X6860000Y-63363665D01*
X6804853Y-63086426D01*
X6696680Y-62825273D01*
X6539637Y-62590241D01*
X6339759Y-62390363D01*
X6107241Y-62235000D01*
X6339759Y-62079637D01*
X6539637Y-61879759D01*
X6696680Y-61644727D01*
X6804853Y-61383574D01*
X6860000Y-61106335D01*
X6860000Y-60823665D01*
X6804853Y-60546426D01*
X6696680Y-60285273D01*
X6539637Y-60050241D01*
X6341039Y-59851643D01*
X6349482Y-59850812D01*
X6469180Y-59814502D01*
X6579494Y-59755537D01*
X6676185Y-59676185D01*
X6755537Y-59579494D01*
X6814502Y-59469180D01*
X6850812Y-59349482D01*
X6863072Y-59225000D01*
X6860000Y-58710750D01*
X6701250Y-58552000D01*
X5552000Y-58552000D01*
X5552000Y-58572000D01*
X5298000Y-58572000D01*
X5298000Y-58552000D01*
X4148750Y-58552000D01*
X3990000Y-58710750D01*
X3986928Y-59225000D01*
X3171544Y-59225000D01*
X3277932Y-58968158D01*
X3335000Y-58681260D01*
X3335000Y-58388740D01*
X3277932Y-58101842D01*
X3165990Y-57831589D01*
X3027952Y-57625000D01*
X3986928Y-57625000D01*
X3990000Y-58139250D01*
X4148750Y-58298000D01*
X5298000Y-58298000D01*
X5298000Y-57148750D01*
X5552000Y-57148750D01*
X5552000Y-58298000D01*
X6701250Y-58298000D01*
X6860000Y-58139250D01*
X6863072Y-57625000D01*
X6850812Y-57500518D01*
X6814502Y-57380820D01*
X6755537Y-57270506D01*
X6676185Y-57173815D01*
X6579494Y-57094463D01*
X6469180Y-57035498D01*
X6349482Y-56999188D01*
X6225000Y-56986928D01*
X5710750Y-56990000D01*
X5552000Y-57148750D01*
X5298000Y-57148750D01*
X5139250Y-56990000D01*
X4625000Y-56986928D01*
X4500518Y-56999188D01*
X4380820Y-57035498D01*
X4270506Y-57094463D01*
X4173815Y-57173815D01*
X4094463Y-57270506D01*
X4035498Y-57380820D01*
X3999188Y-57500518D01*
X3986928Y-57625000D01*
X3027952Y-57625000D01*
X3003475Y-57588368D01*
X2796632Y-57381525D01*
X2553411Y-57219010D01*
X2283158Y-57107068D01*
X1996260Y-57050000D01*
X1703740Y-57050000D01*
X1416842Y-57107068D01*
X1146589Y-57219010D01*
X903368Y-57381525D01*
X696525Y-57588368D01*
X534010Y-57831589D01*
X422068Y-58101842D01*
X365000Y-58388740D01*
X365000Y-58681260D01*
X422068Y-58968158D01*
X534010Y-59238411D01*
X696525Y-59481632D01*
X828380Y-59613487D01*
X755820Y-59635498D01*
X645506Y-59694463D01*
X548815Y-59773815D01*
X469463Y-59870506D01*
X410498Y-59980820D01*
X374188Y-60100518D01*
X361928Y-60225000D01*
X-340000Y-60225000D01*
X-340000Y-51971544D01*
X4645000Y-51971544D01*
X4645000Y-52238456D01*
X4697072Y-52500239D01*
X4799215Y-52746833D01*
X4947503Y-52968762D01*
X5136238Y-53157497D01*
X5358167Y-53305785D01*
X5604761Y-53407928D01*
X5866544Y-53460000D01*
X6133456Y-53460000D01*
X6395239Y-53407928D01*
X6641833Y-53305785D01*
X6863762Y-53157497D01*
X7052497Y-52968762D01*
X7200785Y-52746833D01*
X7302928Y-52500239D01*
X7355000Y-52238456D01*
X7355000Y-52233665D01*
X10090000Y-52233665D01*
X10090000Y-52516335D01*
X10145147Y-52793574D01*
X10253320Y-53054727D01*
X10410363Y-53289759D01*
X10610241Y-53489637D01*
X10765000Y-53593044D01*
X10765001Y-58532670D01*
X10761324Y-58570002D01*
X10775998Y-58718987D01*
X10819454Y-58862248D01*
X10890026Y-58994278D01*
X10961201Y-59081004D01*
X10985000Y-59110003D01*
X11013998Y-59133801D01*
X11930400Y-60050204D01*
X11930363Y-60050241D01*
X11773320Y-60285273D01*
X11665147Y-60546426D01*
X11610000Y-60823665D01*
X11610000Y-61106335D01*
X11665147Y-61383574D01*
X11773320Y-61644727D01*
X11930363Y-61879759D01*
X12130241Y-62079637D01*
X12362759Y-62235000D01*
X12130241Y-62390363D01*
X11930363Y-62590241D01*
X11773320Y-62825273D01*
X11665147Y-63086426D01*
X11610000Y-63363665D01*
X11610000Y-63646335D01*
X11665147Y-63923574D01*
X11773320Y-64184727D01*
X11930363Y-64419759D01*
X12130241Y-64619637D01*
X12362759Y-64775000D01*
X12130241Y-64930363D01*
X11930363Y-65130241D01*
X11773320Y-65365273D01*
X11665147Y-65626426D01*
X11610000Y-65903665D01*
X11610000Y-66186335D01*
X11665147Y-66463574D01*
X11773320Y-66724727D01*
X11930363Y-66959759D01*
X12130241Y-67159637D01*
X12365273Y-67316680D01*
X12626426Y-67424853D01*
X12903665Y-67480000D01*
X13186335Y-67480000D01*
X13463574Y-67424853D01*
X13724727Y-67316680D01*
X13959759Y-67159637D01*
X14159637Y-66959759D01*
X14316680Y-66724727D01*
X14424853Y-66463574D01*
X14480000Y-66186335D01*
X14480000Y-65903665D01*
X14424853Y-65626426D01*
X14316680Y-65365273D01*
X14159637Y-65130241D01*
X13959759Y-64930363D01*
X13727241Y-64775000D01*
X13959759Y-64619637D01*
X14159637Y-64419759D01*
X14316680Y-64184727D01*
X14424853Y-63923574D01*
X14480000Y-63646335D01*
X14480000Y-63363665D01*
X14424853Y-63086426D01*
X14316680Y-62825273D01*
X14159637Y-62590241D01*
X13959759Y-62390363D01*
X13727241Y-62235000D01*
X13959759Y-62079637D01*
X14159637Y-61879759D01*
X14316680Y-61644727D01*
X14424853Y-61383574D01*
X14480000Y-61106335D01*
X14480000Y-60823665D01*
X14424853Y-60546426D01*
X14343491Y-60350000D01*
X15861928Y-60350000D01*
X15861928Y-61550000D01*
X15874188Y-61674482D01*
X15910498Y-61794180D01*
X15969463Y-61904494D01*
X16048815Y-62001185D01*
X16145506Y-62080537D01*
X16255820Y-62139502D01*
X16375518Y-62175812D01*
X16500000Y-62188072D01*
X17700000Y-62188072D01*
X17824482Y-62175812D01*
X17944180Y-62139502D01*
X18054494Y-62080537D01*
X18151185Y-62001185D01*
X18230537Y-61904494D01*
X18254858Y-61858994D01*
X18312736Y-61916872D01*
X18429842Y-61799766D01*
X18477148Y-62023348D01*
X18698516Y-62124237D01*
X18935313Y-62180000D01*
X19178438Y-62188495D01*
X19418549Y-62149395D01*
X19646418Y-62064202D01*
X19722852Y-62023348D01*
X19770159Y-61799764D01*
X19100000Y-61129605D01*
X19085858Y-61143748D01*
X18906253Y-60964143D01*
X18920395Y-60950000D01*
X19279605Y-60950000D01*
X19949764Y-61620159D01*
X20173348Y-61572852D01*
X20274237Y-61351484D01*
X20330000Y-61114687D01*
X20338495Y-60871562D01*
X20299395Y-60631451D01*
X20214202Y-60403582D01*
X20173348Y-60327148D01*
X19949764Y-60279841D01*
X19279605Y-60950000D01*
X18920395Y-60950000D01*
X18906253Y-60935858D01*
X19085858Y-60756253D01*
X19100000Y-60770395D01*
X19770159Y-60100236D01*
X19722852Y-59876652D01*
X19501484Y-59775763D01*
X19264687Y-59720000D01*
X19021562Y-59711505D01*
X18781451Y-59750605D01*
X18553582Y-59835798D01*
X18477148Y-59876652D01*
X18429842Y-60100234D01*
X18312736Y-59983128D01*
X18254858Y-60041006D01*
X18230537Y-59995506D01*
X18151185Y-59898815D01*
X18054494Y-59819463D01*
X17944180Y-59760498D01*
X17824482Y-59724188D01*
X17700000Y-59711928D01*
X16500000Y-59711928D01*
X16375518Y-59724188D01*
X16255820Y-59760498D01*
X16145506Y-59819463D01*
X16048815Y-59898815D01*
X15969463Y-59995506D01*
X15910498Y-60105820D01*
X15874188Y-60225518D01*
X15861928Y-60350000D01*
X14343491Y-60350000D01*
X14316680Y-60285273D01*
X14159637Y-60050241D01*
X13959759Y-59850363D01*
X13727241Y-59695000D01*
X13959759Y-59539637D01*
X14159637Y-59339759D01*
X14316680Y-59104727D01*
X14424853Y-58843574D01*
X14480000Y-58566335D01*
X14480000Y-58283665D01*
X14424853Y-58006426D01*
X14316680Y-57745273D01*
X14159637Y-57510241D01*
X13959759Y-57310363D01*
X13724727Y-57153320D01*
X13463574Y-57045147D01*
X13186335Y-56990000D01*
X12903665Y-56990000D01*
X12626426Y-57045147D01*
X12365273Y-57153320D01*
X12285000Y-57206957D01*
X12285000Y-53593043D01*
X12439759Y-53489637D01*
X12639637Y-53289759D01*
X12796680Y-53054727D01*
X12904853Y-52793574D01*
X12960000Y-52516335D01*
X12960000Y-52233665D01*
X12904853Y-51956426D01*
X12796680Y-51695273D01*
X12639637Y-51460241D01*
X12439759Y-51260363D01*
X12204727Y-51103320D01*
X11943574Y-50995147D01*
X11666335Y-50940000D01*
X11383665Y-50940000D01*
X11106426Y-50995147D01*
X10845273Y-51103320D01*
X10610241Y-51260363D01*
X10410363Y-51460241D01*
X10253320Y-51695273D01*
X10145147Y-51956426D01*
X10090000Y-52233665D01*
X7355000Y-52233665D01*
X7355000Y-51971544D01*
X7302928Y-51709761D01*
X7200785Y-51463167D01*
X7052497Y-51241238D01*
X6863762Y-51052503D01*
X6641833Y-50904215D01*
X6395239Y-50802072D01*
X6133456Y-50750000D01*
X5866544Y-50750000D01*
X5604761Y-50802072D01*
X5358167Y-50904215D01*
X5136238Y-51052503D01*
X4947503Y-51241238D01*
X4799215Y-51463167D01*
X4697072Y-51709761D01*
X4645000Y-51971544D01*
X-340000Y-51971544D01*
X-340000Y-49431544D01*
X2105000Y-49431544D01*
X2105000Y-49698456D01*
X2157072Y-49960239D01*
X2259215Y-50206833D01*
X2407503Y-50428762D01*
X2596238Y-50617497D01*
X2818167Y-50765785D01*
X3064761Y-50867928D01*
X3326544Y-50920000D01*
X3593456Y-50920000D01*
X3855239Y-50867928D01*
X4101833Y-50765785D01*
X4323762Y-50617497D01*
X4512497Y-50428762D01*
X4660785Y-50206833D01*
X4762928Y-49960239D01*
X4815000Y-49698456D01*
X4815000Y-49431544D01*
X4762928Y-49169761D01*
X4660785Y-48923167D01*
X4512497Y-48701238D01*
X4323762Y-48512503D01*
X4101833Y-48364215D01*
X3855239Y-48262072D01*
X3593456Y-48210000D01*
X3326544Y-48210000D01*
X3064761Y-48262072D01*
X2818167Y-48364215D01*
X2596238Y-48512503D01*
X2407503Y-48701238D01*
X2259215Y-48923167D01*
X2157072Y-49169761D01*
X2105000Y-49431544D01*
X-340000Y-49431544D01*
X-340000Y-46891544D01*
X4645000Y-46891544D01*
X4645000Y-47158456D01*
X4697072Y-47420239D01*
X4799215Y-47666833D01*
X4947503Y-47888762D01*
X5136238Y-48077497D01*
X5358167Y-48225785D01*
X5604761Y-48327928D01*
X5866544Y-48380000D01*
X6133456Y-48380000D01*
X6395239Y-48327928D01*
X6641833Y-48225785D01*
X6863762Y-48077497D01*
X7052497Y-47888762D01*
X7200785Y-47666833D01*
X7302928Y-47420239D01*
X7355000Y-47158456D01*
X7355000Y-46891544D01*
X7302928Y-46629761D01*
X7200785Y-46383167D01*
X7052497Y-46161238D01*
X6863762Y-45972503D01*
X6641833Y-45824215D01*
X6395239Y-45722072D01*
X6133456Y-45670000D01*
X5866544Y-45670000D01*
X5604761Y-45722072D01*
X5358167Y-45824215D01*
X5136238Y-45972503D01*
X4947503Y-46161238D01*
X4799215Y-46383167D01*
X4697072Y-46629761D01*
X4645000Y-46891544D01*
X-340000Y-46891544D01*
X-340000Y-44613665D01*
X10090000Y-44613665D01*
X10090000Y-44896335D01*
X10145147Y-45173574D01*
X10253320Y-45434727D01*
X10410363Y-45669759D01*
X10610241Y-45869637D01*
X10845273Y-46026680D01*
X11106426Y-46134853D01*
X11383665Y-46190000D01*
X11666335Y-46190000D01*
X11943574Y-46134853D01*
X12204727Y-46026680D01*
X12439759Y-45869637D01*
X12639637Y-45669759D01*
X12786475Y-45449999D01*
X19161325Y-45449999D01*
X19165001Y-45487321D01*
X19165002Y-55437669D01*
X19161325Y-55475001D01*
X19175999Y-55623986D01*
X19219455Y-55767247D01*
X19290027Y-55899277D01*
X19352990Y-55975997D01*
X19385001Y-56015002D01*
X19413999Y-56038800D01*
X19801312Y-56426114D01*
X19765000Y-56608665D01*
X19765000Y-56891335D01*
X19820147Y-57168574D01*
X19928320Y-57429727D01*
X20085363Y-57664759D01*
X20285241Y-57864637D01*
X20520273Y-58021680D01*
X20781426Y-58129853D01*
X21058665Y-58185000D01*
X21341335Y-58185000D01*
X21618574Y-58129853D01*
X21879727Y-58021680D01*
X22114759Y-57864637D01*
X22314637Y-57664759D01*
X22471680Y-57429727D01*
X22579853Y-57168574D01*
X22635000Y-56891335D01*
X22635000Y-56608665D01*
X22579853Y-56331426D01*
X22471680Y-56070273D01*
X22314637Y-55835241D01*
X22114759Y-55635363D01*
X21879727Y-55478320D01*
X21618574Y-55370147D01*
X21341335Y-55315000D01*
X21058665Y-55315000D01*
X20876114Y-55351312D01*
X20685001Y-55160200D01*
X20685001Y-50469912D01*
X20781426Y-50509853D01*
X21058665Y-50565000D01*
X21341335Y-50565000D01*
X21618574Y-50509853D01*
X21879727Y-50401680D01*
X22114759Y-50244637D01*
X22314637Y-50044759D01*
X22471680Y-49809727D01*
X22579853Y-49548574D01*
X22635000Y-49271335D01*
X22635000Y-48988665D01*
X22630028Y-48963665D01*
X24215000Y-48963665D01*
X24215000Y-49246335D01*
X24270147Y-49523574D01*
X24378320Y-49784727D01*
X24535363Y-50019759D01*
X24735241Y-50219637D01*
X24970273Y-50376680D01*
X25231426Y-50484853D01*
X25508665Y-50540000D01*
X25791335Y-50540000D01*
X26068574Y-50484853D01*
X26329727Y-50376680D01*
X26564759Y-50219637D01*
X26764637Y-50019759D01*
X26921680Y-49784727D01*
X27029853Y-49523574D01*
X27085000Y-49246335D01*
X27085000Y-48963665D01*
X28340000Y-48963665D01*
X28340000Y-49246335D01*
X28395147Y-49523574D01*
X28503320Y-49784727D01*
X28660363Y-50019759D01*
X28860241Y-50219637D01*
X29095273Y-50376680D01*
X29356426Y-50484853D01*
X29633665Y-50540000D01*
X29916335Y-50540000D01*
X30193574Y-50484853D01*
X30454727Y-50376680D01*
X30689759Y-50219637D01*
X30889637Y-50019759D01*
X31046680Y-49784727D01*
X31154853Y-49523574D01*
X31210000Y-49246335D01*
X31210000Y-48963665D01*
X31154853Y-48686426D01*
X31046680Y-48425273D01*
X30889637Y-48190241D01*
X30689759Y-47990363D01*
X30454727Y-47833320D01*
X30193574Y-47725147D01*
X29916335Y-47670000D01*
X29633665Y-47670000D01*
X29356426Y-47725147D01*
X29095273Y-47833320D01*
X28860241Y-47990363D01*
X28660363Y-48190241D01*
X28503320Y-48425273D01*
X28395147Y-48686426D01*
X28340000Y-48963665D01*
X27085000Y-48963665D01*
X27029853Y-48686426D01*
X26921680Y-48425273D01*
X26764637Y-48190241D01*
X26564759Y-47990363D01*
X26329727Y-47833320D01*
X26068574Y-47725147D01*
X25791335Y-47670000D01*
X25508665Y-47670000D01*
X25231426Y-47725147D01*
X24970273Y-47833320D01*
X24735241Y-47990363D01*
X24535363Y-48190241D01*
X24378320Y-48425273D01*
X24270147Y-48686426D01*
X24215000Y-48963665D01*
X22630028Y-48963665D01*
X22579853Y-48711426D01*
X22471680Y-48450273D01*
X22314637Y-48215241D01*
X22114759Y-48015363D01*
X21879727Y-47858320D01*
X21618574Y-47750147D01*
X21341335Y-47695000D01*
X21058665Y-47695000D01*
X20781426Y-47750147D01*
X20685001Y-47790088D01*
X20685001Y-46069293D01*
X20763967Y-46085000D01*
X21086033Y-46085000D01*
X21401912Y-46022168D01*
X21699463Y-45898918D01*
X21967252Y-45719987D01*
X22194987Y-45492252D01*
X22373918Y-45224463D01*
X22497168Y-44926912D01*
X22560000Y-44611033D01*
X22560000Y-44288967D01*
X25790000Y-44288967D01*
X25790000Y-44611033D01*
X25852832Y-44926912D01*
X25976082Y-45224463D01*
X26155013Y-45492252D01*
X26382748Y-45719987D01*
X26650537Y-45898918D01*
X26948088Y-46022168D01*
X27263967Y-46085000D01*
X27586033Y-46085000D01*
X27901912Y-46022168D01*
X28199463Y-45898918D01*
X28467252Y-45719987D01*
X28694987Y-45492252D01*
X28873918Y-45224463D01*
X28997168Y-44926912D01*
X29060000Y-44611033D01*
X29060000Y-44288967D01*
X28997168Y-43973088D01*
X28873918Y-43675537D01*
X28694987Y-43407748D01*
X28467252Y-43180013D01*
X28199463Y-43001082D01*
X27901912Y-42877832D01*
X27586033Y-42815000D01*
X27263967Y-42815000D01*
X26948088Y-42877832D01*
X26650537Y-43001082D01*
X26382748Y-43180013D01*
X26155013Y-43407748D01*
X25976082Y-43675537D01*
X25852832Y-43973088D01*
X25790000Y-44288967D01*
X22560000Y-44288967D01*
X22497168Y-43973088D01*
X22373918Y-43675537D01*
X22194987Y-43407748D01*
X21967252Y-43180013D01*
X21699463Y-43001082D01*
X21401912Y-42877832D01*
X21086033Y-42815000D01*
X20763967Y-42815000D01*
X20448088Y-42877832D01*
X20150537Y-43001082D01*
X19882748Y-43180013D01*
X19655013Y-43407748D01*
X19476082Y-43675537D01*
X19352832Y-43973088D01*
X19290000Y-44288967D01*
X19290000Y-44611033D01*
X19352832Y-44926912D01*
X19358966Y-44941721D01*
X19343142Y-44961003D01*
X19290027Y-45025723D01*
X19219456Y-45157752D01*
X19219455Y-45157753D01*
X19175998Y-45301014D01*
X19165001Y-45412667D01*
X19165001Y-45412677D01*
X19161325Y-45449999D01*
X12786475Y-45449999D01*
X12796680Y-45434727D01*
X12904853Y-45173574D01*
X12960000Y-44896335D01*
X12960000Y-44613665D01*
X12904853Y-44336426D01*
X12796680Y-44075273D01*
X12639637Y-43840241D01*
X12439759Y-43640363D01*
X12204727Y-43483320D01*
X11943574Y-43375147D01*
X11666335Y-43320000D01*
X11383665Y-43320000D01*
X11106426Y-43375147D01*
X10845273Y-43483320D01*
X10610241Y-43640363D01*
X10410363Y-43840241D01*
X10253320Y-44075273D01*
X10145147Y-44336426D01*
X10090000Y-44613665D01*
X-340000Y-44613665D01*
X-340000Y-40128438D01*
X14711505Y-40128438D01*
X14750605Y-40368549D01*
X14835798Y-40596418D01*
X14876652Y-40672852D01*
X15100234Y-40720158D01*
X14983128Y-40837264D01*
X15041006Y-40895142D01*
X14995506Y-40919463D01*
X14898815Y-40998815D01*
X14819463Y-41095506D01*
X14760498Y-41205820D01*
X14724188Y-41325518D01*
X14711928Y-41450000D01*
X14711928Y-42650000D01*
X14724188Y-42774482D01*
X14760498Y-42894180D01*
X14819463Y-43004494D01*
X14898815Y-43101185D01*
X14995506Y-43180537D01*
X15105820Y-43239502D01*
X15225518Y-43275812D01*
X15350000Y-43288072D01*
X16550000Y-43288072D01*
X16674482Y-43275812D01*
X16794180Y-43239502D01*
X16904494Y-43180537D01*
X17001185Y-43101185D01*
X17080537Y-43004494D01*
X17139502Y-42894180D01*
X17175812Y-42774482D01*
X17188072Y-42650000D01*
X17188072Y-41450000D01*
X17175812Y-41325518D01*
X17139502Y-41205820D01*
X17080537Y-41095506D01*
X17072254Y-41085413D01*
X19969192Y-41085413D01*
X20064956Y-41349814D01*
X20354571Y-41490704D01*
X20666108Y-41572384D01*
X20987595Y-41591718D01*
X21306675Y-41547961D01*
X21611088Y-41442795D01*
X21785044Y-41349814D01*
X21880808Y-41085413D01*
X26469192Y-41085413D01*
X26564956Y-41349814D01*
X26854571Y-41490704D01*
X27166108Y-41572384D01*
X27487595Y-41591718D01*
X27806675Y-41547961D01*
X28111088Y-41442795D01*
X28285044Y-41349814D01*
X28380808Y-41085413D01*
X27425000Y-40129605D01*
X26469192Y-41085413D01*
X21880808Y-41085413D01*
X20925000Y-40129605D01*
X19969192Y-41085413D01*
X17072254Y-41085413D01*
X17001185Y-40998815D01*
X16904494Y-40919463D01*
X16858994Y-40895142D01*
X16916872Y-40837264D01*
X16799766Y-40720158D01*
X17023348Y-40672852D01*
X17124237Y-40451484D01*
X17180000Y-40214687D01*
X17187061Y-40012595D01*
X19283282Y-40012595D01*
X19327039Y-40331675D01*
X19432205Y-40636088D01*
X19525186Y-40810044D01*
X19789587Y-40905808D01*
X20745395Y-39950000D01*
X21104605Y-39950000D01*
X22060413Y-40905808D01*
X22324814Y-40810044D01*
X22465704Y-40520429D01*
X22547384Y-40208892D01*
X22559189Y-40012595D01*
X25783282Y-40012595D01*
X25827039Y-40331675D01*
X25932205Y-40636088D01*
X26025186Y-40810044D01*
X26289587Y-40905808D01*
X27245395Y-39950000D01*
X27604605Y-39950000D01*
X28560413Y-40905808D01*
X28824814Y-40810044D01*
X28965704Y-40520429D01*
X29047384Y-40208892D01*
X29066718Y-39887405D01*
X29062060Y-39853438D01*
X30236505Y-39853438D01*
X30275605Y-40093549D01*
X30360798Y-40321418D01*
X30401652Y-40397852D01*
X30625234Y-40445158D01*
X30508128Y-40562264D01*
X30566006Y-40620142D01*
X30520506Y-40644463D01*
X30423815Y-40723815D01*
X30344463Y-40820506D01*
X30285498Y-40930820D01*
X30249188Y-41050518D01*
X30236928Y-41175000D01*
X30236928Y-42375000D01*
X30249188Y-42499482D01*
X30285498Y-42619180D01*
X30344463Y-42729494D01*
X30423815Y-42826185D01*
X30520506Y-42905537D01*
X30630820Y-42964502D01*
X30750518Y-43000812D01*
X30875000Y-43013072D01*
X32075000Y-43013072D01*
X32199482Y-43000812D01*
X32319180Y-42964502D01*
X32429494Y-42905537D01*
X32526185Y-42826185D01*
X32605537Y-42729494D01*
X32664502Y-42619180D01*
X32700812Y-42499482D01*
X32713072Y-42375000D01*
X32713072Y-41175000D01*
X32700812Y-41050518D01*
X32664502Y-40930820D01*
X32605537Y-40820506D01*
X32526185Y-40723815D01*
X32429494Y-40644463D01*
X32383994Y-40620142D01*
X32441872Y-40562264D01*
X32324766Y-40445158D01*
X32548348Y-40397852D01*
X32649237Y-40176484D01*
X32705000Y-39939687D01*
X32713495Y-39696562D01*
X32674395Y-39456451D01*
X32589202Y-39228582D01*
X32548348Y-39152148D01*
X32324764Y-39104841D01*
X31654605Y-39775000D01*
X31668748Y-39789143D01*
X31489143Y-39968748D01*
X31475000Y-39954605D01*
X31460858Y-39968748D01*
X31281253Y-39789143D01*
X31295395Y-39775000D01*
X30625236Y-39104841D01*
X30401652Y-39152148D01*
X30300763Y-39373516D01*
X30245000Y-39610313D01*
X30236505Y-39853438D01*
X29062060Y-39853438D01*
X29022961Y-39568325D01*
X28917795Y-39263912D01*
X28824814Y-39089956D01*
X28560413Y-38994192D01*
X27604605Y-39950000D01*
X27245395Y-39950000D01*
X26289587Y-38994192D01*
X26025186Y-39089956D01*
X25884296Y-39379571D01*
X25802616Y-39691108D01*
X25783282Y-40012595D01*
X22559189Y-40012595D01*
X22566718Y-39887405D01*
X22522961Y-39568325D01*
X22417795Y-39263912D01*
X22324814Y-39089956D01*
X22060413Y-38994192D01*
X21104605Y-39950000D01*
X20745395Y-39950000D01*
X19789587Y-38994192D01*
X19525186Y-39089956D01*
X19384296Y-39379571D01*
X19302616Y-39691108D01*
X19283282Y-40012595D01*
X17187061Y-40012595D01*
X17188495Y-39971562D01*
X17149395Y-39731451D01*
X17064202Y-39503582D01*
X17023348Y-39427148D01*
X16799764Y-39379841D01*
X16129605Y-40050000D01*
X16143748Y-40064143D01*
X15964143Y-40243748D01*
X15950000Y-40229605D01*
X15935858Y-40243748D01*
X15756253Y-40064143D01*
X15770395Y-40050000D01*
X15100236Y-39379841D01*
X14876652Y-39427148D01*
X14775763Y-39648516D01*
X14720000Y-39885313D01*
X14711505Y-40128438D01*
X-340000Y-40128438D01*
X-340000Y-39200236D01*
X15279841Y-39200236D01*
X15950000Y-39870395D01*
X16620159Y-39200236D01*
X16572852Y-38976652D01*
X16351484Y-38875763D01*
X16114687Y-38820000D01*
X15959769Y-38814587D01*
X19969192Y-38814587D01*
X20925000Y-39770395D01*
X21880808Y-38814587D01*
X26469192Y-38814587D01*
X27425000Y-39770395D01*
X28270159Y-38925236D01*
X30804841Y-38925236D01*
X31475000Y-39595395D01*
X32145159Y-38925236D01*
X32097852Y-38701652D01*
X31876484Y-38600763D01*
X31639687Y-38545000D01*
X31396562Y-38536505D01*
X31156451Y-38575605D01*
X30928582Y-38660798D01*
X30852148Y-38701652D01*
X30804841Y-38925236D01*
X28270159Y-38925236D01*
X28380808Y-38814587D01*
X28285044Y-38550186D01*
X27995429Y-38409296D01*
X27683892Y-38327616D01*
X27362405Y-38308282D01*
X27043325Y-38352039D01*
X26738912Y-38457205D01*
X26564956Y-38550186D01*
X26469192Y-38814587D01*
X21880808Y-38814587D01*
X21785044Y-38550186D01*
X21495429Y-38409296D01*
X21183892Y-38327616D01*
X20862405Y-38308282D01*
X20543325Y-38352039D01*
X20238912Y-38457205D01*
X20064956Y-38550186D01*
X19969192Y-38814587D01*
X15959769Y-38814587D01*
X15871562Y-38811505D01*
X15631451Y-38850605D01*
X15403582Y-38935798D01*
X15327148Y-38976652D01*
X15279841Y-39200236D01*
X-340000Y-39200236D01*
X-340000Y-35725000D01*
X25811928Y-35725000D01*
X25811928Y-37425000D01*
X25824188Y-37549482D01*
X25860498Y-37669180D01*
X25919463Y-37779494D01*
X25998815Y-37876185D01*
X26095506Y-37955537D01*
X26205820Y-38014502D01*
X26325518Y-38050812D01*
X26450000Y-38063072D01*
X28150000Y-38063072D01*
X28274482Y-38050812D01*
X28394180Y-38014502D01*
X28504494Y-37955537D01*
X28601185Y-37876185D01*
X28680537Y-37779494D01*
X28739502Y-37669180D01*
X28775812Y-37549482D01*
X28788072Y-37425000D01*
X28788072Y-35725000D01*
X28775812Y-35600518D01*
X28739502Y-35480820D01*
X28680537Y-35370506D01*
X28601185Y-35273815D01*
X28504494Y-35194463D01*
X28394180Y-35135498D01*
X28321620Y-35113487D01*
X28453475Y-34981632D01*
X28615990Y-34738411D01*
X28727932Y-34468158D01*
X28785000Y-34181260D01*
X28785000Y-33888740D01*
X28727932Y-33601842D01*
X28615990Y-33331589D01*
X28453475Y-33088368D01*
X28246632Y-32881525D01*
X28072240Y-32765000D01*
X28246632Y-32648475D01*
X28453475Y-32441632D01*
X28615990Y-32198411D01*
X28727932Y-31928158D01*
X28785000Y-31641260D01*
X28785000Y-31348740D01*
X28727932Y-31061842D01*
X28615990Y-30791589D01*
X28453475Y-30548368D01*
X28246632Y-30341525D01*
X28003411Y-30179010D01*
X27733158Y-30067068D01*
X27446260Y-30010000D01*
X27153740Y-30010000D01*
X26866842Y-30067068D01*
X26596589Y-30179010D01*
X26353368Y-30341525D01*
X26146525Y-30548368D01*
X25984010Y-30791589D01*
X25872068Y-31061842D01*
X25815000Y-31348740D01*
X25815000Y-31641260D01*
X25872068Y-31928158D01*
X25984010Y-32198411D01*
X26146525Y-32441632D01*
X26353368Y-32648475D01*
X26527760Y-32765000D01*
X26353368Y-32881525D01*
X26146525Y-33088368D01*
X25984010Y-33331589D01*
X25872068Y-33601842D01*
X25815000Y-33888740D01*
X25815000Y-34181260D01*
X25872068Y-34468158D01*
X25984010Y-34738411D01*
X26146525Y-34981632D01*
X26278380Y-35113487D01*
X26205820Y-35135498D01*
X26095506Y-35194463D01*
X25998815Y-35273815D01*
X25919463Y-35370506D01*
X25860498Y-35480820D01*
X25824188Y-35600518D01*
X25811928Y-35725000D01*
X-340000Y-35725000D01*
X-340000Y-32871890D01*
X14508524Y-32871890D01*
X14553175Y-33019099D01*
X14678359Y-33281920D01*
X14852412Y-33515269D01*
X15068645Y-33710178D01*
X15318748Y-33859157D01*
X15593109Y-33956481D01*
X15823000Y-33835814D01*
X15823000Y-32642000D01*
X16077000Y-32642000D01*
X16077000Y-33835814D01*
X16306891Y-33956481D01*
X16581252Y-33859157D01*
X16831355Y-33710178D01*
X17047588Y-33515269D01*
X17221641Y-33281920D01*
X17346825Y-33019099D01*
X17391476Y-32871890D01*
X17270155Y-32642000D01*
X16077000Y-32642000D01*
X15823000Y-32642000D01*
X14629845Y-32642000D01*
X14508524Y-32871890D01*
X-340000Y-32871890D01*
X-340000Y-29125000D01*
X14461928Y-29125000D01*
X14461928Y-30825000D01*
X14474188Y-30949482D01*
X14510498Y-31069180D01*
X14569463Y-31179494D01*
X14648815Y-31276185D01*
X14745506Y-31355537D01*
X14855820Y-31414502D01*
X14936466Y-31438966D01*
X14852412Y-31514731D01*
X14678359Y-31748080D01*
X14553175Y-32010901D01*
X14508524Y-32158110D01*
X14629845Y-32388000D01*
X15823000Y-32388000D01*
X15823000Y-32368000D01*
X16077000Y-32368000D01*
X16077000Y-32388000D01*
X17270155Y-32388000D01*
X17391476Y-32158110D01*
X17346825Y-32010901D01*
X17221641Y-31748080D01*
X17047588Y-31514731D01*
X16963534Y-31438966D01*
X17044180Y-31414502D01*
X17154494Y-31355537D01*
X17251185Y-31276185D01*
X17330537Y-31179494D01*
X17389502Y-31069180D01*
X17425812Y-30949482D01*
X17438072Y-30825000D01*
X17438072Y-29125000D01*
X17425812Y-29000518D01*
X17389502Y-28880820D01*
X17330537Y-28770506D01*
X17251185Y-28673815D01*
X17154494Y-28594463D01*
X17044180Y-28535498D01*
X16924482Y-28499188D01*
X16800000Y-28486928D01*
X15100000Y-28486928D01*
X14975518Y-28499188D01*
X14855820Y-28535498D01*
X14745506Y-28594463D01*
X14648815Y-28673815D01*
X14569463Y-28770506D01*
X14510498Y-28880820D01*
X14474188Y-29000518D01*
X14461928Y-29125000D01*
X-340000Y-29125000D01*
X-340000Y-25660000D01*
X34340001Y-25660000D01*
X34340000Y-100340000D01*
G37*
X34340000Y-100340000D02*
X-340000Y-100340000D01*
X-340000Y-94200236D01*
X26804841Y-94200236D01*
X27475000Y-94870395D01*
X28145159Y-94200236D01*
X28097852Y-93976652D01*
X27876484Y-93875763D01*
X27639687Y-93820000D01*
X27396562Y-93811505D01*
X27156451Y-93850605D01*
X26928582Y-93935798D01*
X26852148Y-93976652D01*
X26804841Y-94200236D01*
X-340000Y-94200236D01*
X-340000Y-89698061D01*
X20415000Y-89698061D01*
X20415000Y-89901939D01*
X20454774Y-90101898D01*
X20532795Y-90290256D01*
X20646063Y-90459774D01*
X20790226Y-90603937D01*
X20959744Y-90717205D01*
X21148102Y-90795226D01*
X21348061Y-90835000D01*
X21551939Y-90835000D01*
X21751898Y-90795226D01*
X21940256Y-90717205D01*
X22109774Y-90603937D01*
X22253937Y-90459774D01*
X22367205Y-90290256D01*
X22445226Y-90101898D01*
X22485000Y-89901939D01*
X22485000Y-89698061D01*
X22445226Y-89498102D01*
X22367205Y-89309744D01*
X22253937Y-89140226D01*
X22210000Y-89096289D01*
X22210000Y-84925799D01*
X22561928Y-84573871D01*
X22561928Y-86150000D01*
X22574188Y-86274482D01*
X22610498Y-86394180D01*
X22669463Y-86504494D01*
X22748815Y-86601185D01*
X22845506Y-86680537D01*
X22891630Y-86705191D01*
X22751082Y-86915537D01*
X22627832Y-87213088D01*
X22565000Y-87528967D01*
X22565000Y-87851033D01*
X22627832Y-88166912D01*
X22751082Y-88464463D01*
X22930013Y-88732252D01*
X23157748Y-88959987D01*
X23157767Y-88960000D01*
X23157748Y-88960013D01*
X22930013Y-89187748D01*
X22751082Y-89455537D01*
X22627832Y-89753088D01*
X22565000Y-90068967D01*
X22565000Y-90391033D01*
X22627832Y-90706912D01*
X22751082Y-91004463D01*
X22930013Y-91272252D01*
X23157748Y-91499987D01*
X23425537Y-91678918D01*
X23723088Y-91802168D01*
X24038967Y-91865000D01*
X24361033Y-91865000D01*
X24676912Y-91802168D01*
X24974463Y-91678918D01*
X25242252Y-91499987D01*
X25469987Y-91272252D01*
X25648918Y-91004463D01*
X25772168Y-90706912D01*
X25835000Y-90391033D01*
X25835000Y-90068967D01*
X25772168Y-89753088D01*
X25766177Y-89738624D01*
X28464999Y-87039803D01*
X28465000Y-94409513D01*
X28324764Y-94379841D01*
X27654605Y-95050000D01*
X27668748Y-95064143D01*
X27489143Y-95243748D01*
X27475000Y-95229605D01*
X27460858Y-95243748D01*
X27281253Y-95064143D01*
X27295395Y-95050000D01*
X26625236Y-94379841D01*
X26401652Y-94427148D01*
X26300763Y-94648516D01*
X26245000Y-94885313D01*
X26236505Y-95128438D01*
X26275605Y-95368549D01*
X26360798Y-95596418D01*
X26401652Y-95672852D01*
X26625234Y-95720158D01*
X26508128Y-95837264D01*
X26566006Y-95895142D01*
X26520506Y-95919463D01*
X26423815Y-95998815D01*
X26344463Y-96095506D01*
X26285498Y-96205820D01*
X26249188Y-96325518D01*
X26236928Y-96450000D01*
X26236928Y-97650000D01*
X26249188Y-97774482D01*
X26285498Y-97894180D01*
X26344463Y-98004494D01*
X26423815Y-98101185D01*
X26520506Y-98180537D01*
X26630820Y-98239502D01*
X26750518Y-98275812D01*
X26875000Y-98288072D01*
X28075000Y-98288072D01*
X28199482Y-98275812D01*
X28319180Y-98239502D01*
X28429494Y-98180537D01*
X28526185Y-98101185D01*
X28605537Y-98004494D01*
X28664502Y-97894180D01*
X28700812Y-97774482D01*
X28713072Y-97650000D01*
X28713072Y-96886729D01*
X29736002Y-95863800D01*
X29765000Y-95840002D01*
X29859973Y-95724277D01*
X29930545Y-95592248D01*
X29974002Y-95448987D01*
X29984999Y-95337334D01*
X29984999Y-95337325D01*
X29988675Y-95300002D01*
X29984999Y-95262679D01*
X29984999Y-91585704D01*
X30114250Y-91585000D01*
X30273000Y-91426250D01*
X30273000Y-90227000D01*
X30527000Y-90227000D01*
X30527000Y-91426250D01*
X30685750Y-91585000D01*
X31250000Y-91588072D01*
X31374482Y-91575812D01*
X31494180Y-91539502D01*
X31604494Y-91480537D01*
X31701185Y-91401185D01*
X31780537Y-91304494D01*
X31839502Y-91194180D01*
X31875812Y-91074482D01*
X31888072Y-90950000D01*
X31885000Y-90385750D01*
X31726250Y-90227000D01*
X30527000Y-90227000D01*
X30273000Y-90227000D01*
X30253000Y-90227000D01*
X30253000Y-89973000D01*
X30273000Y-89973000D01*
X30273000Y-89953000D01*
X30527000Y-89953000D01*
X30527000Y-89973000D01*
X31726250Y-89973000D01*
X31885000Y-89814250D01*
X31888072Y-89250000D01*
X31875812Y-89125518D01*
X31839502Y-89005820D01*
X31780537Y-88895506D01*
X31701185Y-88798815D01*
X31604494Y-88719463D01*
X31494180Y-88660498D01*
X31421620Y-88638487D01*
X31553475Y-88506632D01*
X31715990Y-88263411D01*
X31827932Y-87993158D01*
X31885000Y-87706260D01*
X31885000Y-87413740D01*
X31827932Y-87126842D01*
X31715990Y-86856589D01*
X31553475Y-86613368D01*
X31346632Y-86406525D01*
X31172240Y-86290000D01*
X31346632Y-86173475D01*
X31553475Y-85966632D01*
X31715990Y-85723411D01*
X31827932Y-85453158D01*
X31885000Y-85166260D01*
X31885000Y-84873740D01*
X31827932Y-84586842D01*
X31715990Y-84316589D01*
X31553475Y-84073368D01*
X31346632Y-83866525D01*
X31172240Y-83750000D01*
X31346632Y-83633475D01*
X31553475Y-83426632D01*
X31715990Y-83183411D01*
X31827932Y-82913158D01*
X31885000Y-82626260D01*
X31885000Y-82333740D01*
X31827932Y-82046842D01*
X31715990Y-81776589D01*
X31553475Y-81533368D01*
X31346632Y-81326525D01*
X31172240Y-81210000D01*
X31346632Y-81093475D01*
X31553475Y-80886632D01*
X31715990Y-80643411D01*
X31827932Y-80373158D01*
X31885000Y-80086260D01*
X31885000Y-79793740D01*
X31827932Y-79506842D01*
X31715990Y-79236589D01*
X31553475Y-78993368D01*
X31346632Y-78786525D01*
X31172240Y-78670000D01*
X31346632Y-78553475D01*
X31553475Y-78346632D01*
X31715990Y-78103411D01*
X31827932Y-77833158D01*
X31885000Y-77546260D01*
X31885000Y-77253740D01*
X31827932Y-76966842D01*
X31715990Y-76696589D01*
X31553475Y-76453368D01*
X31346632Y-76246525D01*
X31103411Y-76084010D01*
X30833158Y-75972068D01*
X30546260Y-75915000D01*
X30535000Y-75915000D01*
X30535000Y-57943043D01*
X30689759Y-57839637D01*
X30889637Y-57639759D01*
X31046680Y-57404727D01*
X31154853Y-57143574D01*
X31210000Y-56866335D01*
X31210000Y-56583665D01*
X31154853Y-56306426D01*
X31046680Y-56045273D01*
X30889637Y-55810241D01*
X30689759Y-55610363D01*
X30454727Y-55453320D01*
X30193574Y-55345147D01*
X29916335Y-55290000D01*
X29633665Y-55290000D01*
X29356426Y-55345147D01*
X29095273Y-55453320D01*
X28860241Y-55610363D01*
X28660363Y-55810241D01*
X28503320Y-56045273D01*
X28395147Y-56306426D01*
X28340000Y-56583665D01*
X28340000Y-56866335D01*
X28395147Y-57143574D01*
X28503320Y-57404727D01*
X28660363Y-57639759D01*
X28860241Y-57839637D01*
X29015000Y-57943043D01*
X29015001Y-75971195D01*
X20939003Y-84047194D01*
X20909999Y-84070997D01*
X20873677Y-84115256D01*
X20815026Y-84186722D01*
X20813916Y-84188799D01*
X20744454Y-84318752D01*
X20700997Y-84462013D01*
X20690000Y-84573666D01*
X20690000Y-84573676D01*
X20686324Y-84610998D01*
X20690000Y-84648321D01*
X20690001Y-89096288D01*
X20646063Y-89140226D01*
X20532795Y-89309744D01*
X20454774Y-89498102D01*
X20415000Y-89698061D01*
X-340000Y-89698061D01*
X-340000Y-83523061D01*
X6490000Y-83523061D01*
X6490000Y-83726939D01*
X6529774Y-83926898D01*
X6607795Y-84115256D01*
X6721063Y-84284774D01*
X6865226Y-84428937D01*
X7034744Y-84542205D01*
X7223102Y-84620226D01*
X7423061Y-84660000D01*
X7626939Y-84660000D01*
X7826898Y-84620226D01*
X8015256Y-84542205D01*
X8184774Y-84428937D01*
X8328937Y-84284774D01*
X8390710Y-84192324D01*
X8424003Y-84165001D01*
X8447806Y-84135997D01*
X26161003Y-66422801D01*
X26190001Y-66399003D01*
X26284974Y-66283278D01*
X26355546Y-66151249D01*
X26399003Y-66007988D01*
X26410000Y-65896335D01*
X26410000Y-65896326D01*
X26413676Y-65859003D01*
X26410000Y-65821680D01*
X26410000Y-57943043D01*
X26564759Y-57839637D01*
X26764637Y-57639759D01*
X26921680Y-57404727D01*
X27029853Y-57143574D01*
X27085000Y-56866335D01*
X27085000Y-56583665D01*
X27029853Y-56306426D01*
X26921680Y-56045273D01*
X26764637Y-55810241D01*
X26564759Y-55610363D01*
X26329727Y-55453320D01*
X26068574Y-55345147D01*
X25791335Y-55290000D01*
X25508665Y-55290000D01*
X25231426Y-55345147D01*
X24970273Y-55453320D01*
X24735241Y-55610363D01*
X24535363Y-55810241D01*
X24378320Y-56045273D01*
X24270147Y-56306426D01*
X24215000Y-56583665D01*
X24215000Y-56866335D01*
X24270147Y-57143574D01*
X24378320Y-57404727D01*
X24535363Y-57639759D01*
X24735241Y-57839637D01*
X24890000Y-57943044D01*
X24890001Y-64545322D01*
X24723411Y-64434010D01*
X24453158Y-64322068D01*
X24166260Y-64265000D01*
X23873740Y-64265000D01*
X23586842Y-64322068D01*
X23316589Y-64434010D01*
X23073368Y-64596525D01*
X22866525Y-64803368D01*
X22750000Y-64977760D01*
X22633475Y-64803368D01*
X22426632Y-64596525D01*
X22183411Y-64434010D01*
X21913158Y-64322068D01*
X21626260Y-64265000D01*
X21333740Y-64265000D01*
X21046842Y-64322068D01*
X20776589Y-64434010D01*
X20533368Y-64596525D01*
X20326525Y-64803368D01*
X20204805Y-64985534D01*
X20135178Y-64868645D01*
X19940269Y-64652412D01*
X19706920Y-64478359D01*
X19444099Y-64353175D01*
X19296890Y-64308524D01*
X19067000Y-64429845D01*
X19067000Y-65623000D01*
X19087000Y-65623000D01*
X19087000Y-65877000D01*
X19067000Y-65877000D01*
X19067000Y-65897000D01*
X18813000Y-65897000D01*
X18813000Y-65877000D01*
X18793000Y-65877000D01*
X18793000Y-65623000D01*
X18813000Y-65623000D01*
X18813000Y-64429845D01*
X18583110Y-64308524D01*
X18435901Y-64353175D01*
X18173080Y-64478359D01*
X17939731Y-64652412D01*
X17863966Y-64736466D01*
X17839502Y-64655820D01*
X17780537Y-64545506D01*
X17701185Y-64448815D01*
X17604494Y-64369463D01*
X17494180Y-64310498D01*
X17374482Y-64274188D01*
X17250000Y-64261928D01*
X15550000Y-64261928D01*
X15425518Y-64274188D01*
X15305820Y-64310498D01*
X15195506Y-64369463D01*
X15098815Y-64448815D01*
X15019463Y-64545506D01*
X14960498Y-64655820D01*
X14924188Y-64775518D01*
X14911928Y-64900000D01*
X14911928Y-66600000D01*
X14924188Y-66724482D01*
X14960498Y-66844180D01*
X15019463Y-66954494D01*
X15098815Y-67051185D01*
X15195506Y-67130537D01*
X15305820Y-67189502D01*
X15425518Y-67225812D01*
X15550000Y-67238072D01*
X16242348Y-67238072D01*
X16242347Y-68498636D01*
X16198410Y-68542573D01*
X16085142Y-68712091D01*
X16007121Y-68900449D01*
X15967347Y-69100408D01*
X15967347Y-69304286D01*
X16007121Y-69504245D01*
X16085142Y-69692603D01*
X16198410Y-69862121D01*
X16245744Y-69909455D01*
X8689003Y-77466196D01*
X8659999Y-77489999D01*
X8613827Y-77546260D01*
X8565026Y-77605724D01*
X8518778Y-77692247D01*
X8494454Y-77737754D01*
X8450997Y-77881015D01*
X8440000Y-77992668D01*
X8440000Y-77992678D01*
X8436324Y-78030000D01*
X8440000Y-78067322D01*
X8440000Y-78221289D01*
X8396063Y-78265226D01*
X8282795Y-78434744D01*
X8204774Y-78623102D01*
X8165000Y-78823061D01*
X8165000Y-79026939D01*
X8204774Y-79226898D01*
X8282795Y-79415256D01*
X8396063Y-79584774D01*
X8540226Y-79728937D01*
X8709744Y-79842205D01*
X8811037Y-79884162D01*
X8455199Y-80240000D01*
X8423061Y-80240000D01*
X8223102Y-80279774D01*
X8034744Y-80357795D01*
X7865226Y-80471063D01*
X7721063Y-80615226D01*
X7607795Y-80784744D01*
X7529774Y-80973102D01*
X7490000Y-81173061D01*
X7490000Y-81376939D01*
X7529774Y-81576898D01*
X7607795Y-81765256D01*
X7721063Y-81934774D01*
X7865226Y-82078937D01*
X8034744Y-82192205D01*
X8181293Y-82252908D01*
X7808155Y-82626046D01*
X7626939Y-82590000D01*
X7423061Y-82590000D01*
X7223102Y-82629774D01*
X7034744Y-82707795D01*
X6865226Y-82821063D01*
X6721063Y-82965226D01*
X6607795Y-83134744D01*
X6529774Y-83323102D01*
X6490000Y-83523061D01*
X-340000Y-83523061D01*
X-340000Y-60225000D01*
X361928Y-60225000D01*
X361928Y-61925000D01*
X374188Y-62049482D01*
X410498Y-62169180D01*
X469463Y-62279494D01*
X548815Y-62376185D01*
X645506Y-62455537D01*
X755820Y-62514502D01*
X875518Y-62550812D01*
X1000000Y-62563072D01*
X2700000Y-62563072D01*
X2824482Y-62550812D01*
X2944180Y-62514502D01*
X3054494Y-62455537D01*
X3151185Y-62376185D01*
X3230537Y-62279494D01*
X3289502Y-62169180D01*
X3325812Y-62049482D01*
X3338072Y-61925000D01*
X3338072Y-60225000D01*
X3325812Y-60100518D01*
X3289502Y-59980820D01*
X3230537Y-59870506D01*
X3151185Y-59773815D01*
X3054494Y-59694463D01*
X2944180Y-59635498D01*
X2871620Y-59613487D01*
X3003475Y-59481632D01*
X3165990Y-59238411D01*
X3171544Y-59225000D01*
X3986928Y-59225000D01*
X3999188Y-59349482D01*
X4035498Y-59469180D01*
X4094463Y-59579494D01*
X4173815Y-59676185D01*
X4270506Y-59755537D01*
X4380820Y-59814502D01*
X4500518Y-59850812D01*
X4508961Y-59851643D01*
X4310363Y-60050241D01*
X4153320Y-60285273D01*
X4045147Y-60546426D01*
X3990000Y-60823665D01*
X3990000Y-61106335D01*
X4045147Y-61383574D01*
X4153320Y-61644727D01*
X4310363Y-61879759D01*
X4510241Y-62079637D01*
X4742759Y-62235000D01*
X4510241Y-62390363D01*
X4310363Y-62590241D01*
X4153320Y-62825273D01*
X4045147Y-63086426D01*
X3990000Y-63363665D01*
X3990000Y-63646335D01*
X4045147Y-63923574D01*
X4153320Y-64184727D01*
X4310363Y-64419759D01*
X4510241Y-64619637D01*
X4742759Y-64775000D01*
X4510241Y-64930363D01*
X4310363Y-65130241D01*
X4153320Y-65365273D01*
X4045147Y-65626426D01*
X3990000Y-65903665D01*
X3990000Y-66186335D01*
X4045147Y-66463574D01*
X4153320Y-66724727D01*
X4310363Y-66959759D01*
X4510241Y-67159637D01*
X4745273Y-67316680D01*
X5006426Y-67424853D01*
X5283665Y-67480000D01*
X5566335Y-67480000D01*
X5843574Y-67424853D01*
X6104727Y-67316680D01*
X6339759Y-67159637D01*
X6539637Y-66959759D01*
X6696680Y-66724727D01*
X6804853Y-66463574D01*
X6860000Y-66186335D01*
X6860000Y-65903665D01*
X6823688Y-65721113D01*
X9536003Y-63008799D01*
X9565001Y-62985001D01*
X9659974Y-62869276D01*
X9730546Y-62737247D01*
X9774003Y-62593986D01*
X9785000Y-62482333D01*
X9785000Y-62482323D01*
X9788676Y-62445000D01*
X9785000Y-62407677D01*
X9785000Y-61778711D01*
X9828937Y-61734774D01*
X9942205Y-61565256D01*
X10020226Y-61376898D01*
X10060000Y-61176939D01*
X10060000Y-60973061D01*
X10020226Y-60773102D01*
X9942205Y-60584744D01*
X9828937Y-60415226D01*
X9684774Y-60271063D01*
X9515256Y-60157795D01*
X9326898Y-60079774D01*
X9126939Y-60040000D01*
X8923061Y-60040000D01*
X8723102Y-60079774D01*
X8534744Y-60157795D01*
X8365226Y-60271063D01*
X8221063Y-60415226D01*
X8107795Y-60584744D01*
X8029774Y-60773102D01*
X7990000Y-60973061D01*
X7990000Y-61176939D01*
X8029774Y-61376898D01*
X8107795Y-61565256D01*
X8221063Y-61734774D01*
X8265001Y-61778712D01*
X8265001Y-62130197D01*
X6860000Y-63535198D01*
X6860000Y-63363665D01*
X6804853Y-63086426D01*
X6696680Y-62825273D01*
X6539637Y-62590241D01*
X6339759Y-62390363D01*
X6107241Y-62235000D01*
X6339759Y-62079637D01*
X6539637Y-61879759D01*
X6696680Y-61644727D01*
X6804853Y-61383574D01*
X6860000Y-61106335D01*
X6860000Y-60823665D01*
X6804853Y-60546426D01*
X6696680Y-60285273D01*
X6539637Y-60050241D01*
X6341039Y-59851643D01*
X6349482Y-59850812D01*
X6469180Y-59814502D01*
X6579494Y-59755537D01*
X6676185Y-59676185D01*
X6755537Y-59579494D01*
X6814502Y-59469180D01*
X6850812Y-59349482D01*
X6863072Y-59225000D01*
X6860000Y-58710750D01*
X6701250Y-58552000D01*
X5552000Y-58552000D01*
X5552000Y-58572000D01*
X5298000Y-58572000D01*
X5298000Y-58552000D01*
X4148750Y-58552000D01*
X3990000Y-58710750D01*
X3986928Y-59225000D01*
X3171544Y-59225000D01*
X3277932Y-58968158D01*
X3335000Y-58681260D01*
X3335000Y-58388740D01*
X3277932Y-58101842D01*
X3165990Y-57831589D01*
X3027952Y-57625000D01*
X3986928Y-57625000D01*
X3990000Y-58139250D01*
X4148750Y-58298000D01*
X5298000Y-58298000D01*
X5298000Y-57148750D01*
X5552000Y-57148750D01*
X5552000Y-58298000D01*
X6701250Y-58298000D01*
X6860000Y-58139250D01*
X6863072Y-57625000D01*
X6850812Y-57500518D01*
X6814502Y-57380820D01*
X6755537Y-57270506D01*
X6676185Y-57173815D01*
X6579494Y-57094463D01*
X6469180Y-57035498D01*
X6349482Y-56999188D01*
X6225000Y-56986928D01*
X5710750Y-56990000D01*
X5552000Y-57148750D01*
X5298000Y-57148750D01*
X5139250Y-56990000D01*
X4625000Y-56986928D01*
X4500518Y-56999188D01*
X4380820Y-57035498D01*
X4270506Y-57094463D01*
X4173815Y-57173815D01*
X4094463Y-57270506D01*
X4035498Y-57380820D01*
X3999188Y-57500518D01*
X3986928Y-57625000D01*
X3027952Y-57625000D01*
X3003475Y-57588368D01*
X2796632Y-57381525D01*
X2553411Y-57219010D01*
X2283158Y-57107068D01*
X1996260Y-57050000D01*
X1703740Y-57050000D01*
X1416842Y-57107068D01*
X1146589Y-57219010D01*
X903368Y-57381525D01*
X696525Y-57588368D01*
X534010Y-57831589D01*
X422068Y-58101842D01*
X365000Y-58388740D01*
X365000Y-58681260D01*
X422068Y-58968158D01*
X534010Y-59238411D01*
X696525Y-59481632D01*
X828380Y-59613487D01*
X755820Y-59635498D01*
X645506Y-59694463D01*
X548815Y-59773815D01*
X469463Y-59870506D01*
X410498Y-59980820D01*
X374188Y-60100518D01*
X361928Y-60225000D01*
X-340000Y-60225000D01*
X-340000Y-51971544D01*
X4645000Y-51971544D01*
X4645000Y-52238456D01*
X4697072Y-52500239D01*
X4799215Y-52746833D01*
X4947503Y-52968762D01*
X5136238Y-53157497D01*
X5358167Y-53305785D01*
X5604761Y-53407928D01*
X5866544Y-53460000D01*
X6133456Y-53460000D01*
X6395239Y-53407928D01*
X6641833Y-53305785D01*
X6863762Y-53157497D01*
X7052497Y-52968762D01*
X7200785Y-52746833D01*
X7302928Y-52500239D01*
X7355000Y-52238456D01*
X7355000Y-52233665D01*
X10090000Y-52233665D01*
X10090000Y-52516335D01*
X10145147Y-52793574D01*
X10253320Y-53054727D01*
X10410363Y-53289759D01*
X10610241Y-53489637D01*
X10765000Y-53593044D01*
X10765001Y-58532670D01*
X10761324Y-58570002D01*
X10775998Y-58718987D01*
X10819454Y-58862248D01*
X10890026Y-58994278D01*
X10961201Y-59081004D01*
X10985000Y-59110003D01*
X11013998Y-59133801D01*
X11930400Y-60050204D01*
X11930363Y-60050241D01*
X11773320Y-60285273D01*
X11665147Y-60546426D01*
X11610000Y-60823665D01*
X11610000Y-61106335D01*
X11665147Y-61383574D01*
X11773320Y-61644727D01*
X11930363Y-61879759D01*
X12130241Y-62079637D01*
X12362759Y-62235000D01*
X12130241Y-62390363D01*
X11930363Y-62590241D01*
X11773320Y-62825273D01*
X11665147Y-63086426D01*
X11610000Y-63363665D01*
X11610000Y-63646335D01*
X11665147Y-63923574D01*
X11773320Y-64184727D01*
X11930363Y-64419759D01*
X12130241Y-64619637D01*
X12362759Y-64775000D01*
X12130241Y-64930363D01*
X11930363Y-65130241D01*
X11773320Y-65365273D01*
X11665147Y-65626426D01*
X11610000Y-65903665D01*
X11610000Y-66186335D01*
X11665147Y-66463574D01*
X11773320Y-66724727D01*
X11930363Y-66959759D01*
X12130241Y-67159637D01*
X12365273Y-67316680D01*
X12626426Y-67424853D01*
X12903665Y-67480000D01*
X13186335Y-67480000D01*
X13463574Y-67424853D01*
X13724727Y-67316680D01*
X13959759Y-67159637D01*
X14159637Y-66959759D01*
X14316680Y-66724727D01*
X14424853Y-66463574D01*
X14480000Y-66186335D01*
X14480000Y-65903665D01*
X14424853Y-65626426D01*
X14316680Y-65365273D01*
X14159637Y-65130241D01*
X13959759Y-64930363D01*
X13727241Y-64775000D01*
X13959759Y-64619637D01*
X14159637Y-64419759D01*
X14316680Y-64184727D01*
X14424853Y-63923574D01*
X14480000Y-63646335D01*
X14480000Y-63363665D01*
X14424853Y-63086426D01*
X14316680Y-62825273D01*
X14159637Y-62590241D01*
X13959759Y-62390363D01*
X13727241Y-62235000D01*
X13959759Y-62079637D01*
X14159637Y-61879759D01*
X14316680Y-61644727D01*
X14424853Y-61383574D01*
X14480000Y-61106335D01*
X14480000Y-60823665D01*
X14424853Y-60546426D01*
X14343491Y-60350000D01*
X15861928Y-60350000D01*
X15861928Y-61550000D01*
X15874188Y-61674482D01*
X15910498Y-61794180D01*
X15969463Y-61904494D01*
X16048815Y-62001185D01*
X16145506Y-62080537D01*
X16255820Y-62139502D01*
X16375518Y-62175812D01*
X16500000Y-62188072D01*
X17700000Y-62188072D01*
X17824482Y-62175812D01*
X17944180Y-62139502D01*
X18054494Y-62080537D01*
X18151185Y-62001185D01*
X18230537Y-61904494D01*
X18254858Y-61858994D01*
X18312736Y-61916872D01*
X18429842Y-61799766D01*
X18477148Y-62023348D01*
X18698516Y-62124237D01*
X18935313Y-62180000D01*
X19178438Y-62188495D01*
X19418549Y-62149395D01*
X19646418Y-62064202D01*
X19722852Y-62023348D01*
X19770159Y-61799764D01*
X19100000Y-61129605D01*
X19085858Y-61143748D01*
X18906253Y-60964143D01*
X18920395Y-60950000D01*
X19279605Y-60950000D01*
X19949764Y-61620159D01*
X20173348Y-61572852D01*
X20274237Y-61351484D01*
X20330000Y-61114687D01*
X20338495Y-60871562D01*
X20299395Y-60631451D01*
X20214202Y-60403582D01*
X20173348Y-60327148D01*
X19949764Y-60279841D01*
X19279605Y-60950000D01*
X18920395Y-60950000D01*
X18906253Y-60935858D01*
X19085858Y-60756253D01*
X19100000Y-60770395D01*
X19770159Y-60100236D01*
X19722852Y-59876652D01*
X19501484Y-59775763D01*
X19264687Y-59720000D01*
X19021562Y-59711505D01*
X18781451Y-59750605D01*
X18553582Y-59835798D01*
X18477148Y-59876652D01*
X18429842Y-60100234D01*
X18312736Y-59983128D01*
X18254858Y-60041006D01*
X18230537Y-59995506D01*
X18151185Y-59898815D01*
X18054494Y-59819463D01*
X17944180Y-59760498D01*
X17824482Y-59724188D01*
X17700000Y-59711928D01*
X16500000Y-59711928D01*
X16375518Y-59724188D01*
X16255820Y-59760498D01*
X16145506Y-59819463D01*
X16048815Y-59898815D01*
X15969463Y-59995506D01*
X15910498Y-60105820D01*
X15874188Y-60225518D01*
X15861928Y-60350000D01*
X14343491Y-60350000D01*
X14316680Y-60285273D01*
X14159637Y-60050241D01*
X13959759Y-59850363D01*
X13727241Y-59695000D01*
X13959759Y-59539637D01*
X14159637Y-59339759D01*
X14316680Y-59104727D01*
X14424853Y-58843574D01*
X14480000Y-58566335D01*
X14480000Y-58283665D01*
X14424853Y-58006426D01*
X14316680Y-57745273D01*
X14159637Y-57510241D01*
X13959759Y-57310363D01*
X13724727Y-57153320D01*
X13463574Y-57045147D01*
X13186335Y-56990000D01*
X12903665Y-56990000D01*
X12626426Y-57045147D01*
X12365273Y-57153320D01*
X12285000Y-57206957D01*
X12285000Y-53593043D01*
X12439759Y-53489637D01*
X12639637Y-53289759D01*
X12796680Y-53054727D01*
X12904853Y-52793574D01*
X12960000Y-52516335D01*
X12960000Y-52233665D01*
X12904853Y-51956426D01*
X12796680Y-51695273D01*
X12639637Y-51460241D01*
X12439759Y-51260363D01*
X12204727Y-51103320D01*
X11943574Y-50995147D01*
X11666335Y-50940000D01*
X11383665Y-50940000D01*
X11106426Y-50995147D01*
X10845273Y-51103320D01*
X10610241Y-51260363D01*
X10410363Y-51460241D01*
X10253320Y-51695273D01*
X10145147Y-51956426D01*
X10090000Y-52233665D01*
X7355000Y-52233665D01*
X7355000Y-51971544D01*
X7302928Y-51709761D01*
X7200785Y-51463167D01*
X7052497Y-51241238D01*
X6863762Y-51052503D01*
X6641833Y-50904215D01*
X6395239Y-50802072D01*
X6133456Y-50750000D01*
X5866544Y-50750000D01*
X5604761Y-50802072D01*
X5358167Y-50904215D01*
X5136238Y-51052503D01*
X4947503Y-51241238D01*
X4799215Y-51463167D01*
X4697072Y-51709761D01*
X4645000Y-51971544D01*
X-340000Y-51971544D01*
X-340000Y-49431544D01*
X2105000Y-49431544D01*
X2105000Y-49698456D01*
X2157072Y-49960239D01*
X2259215Y-50206833D01*
X2407503Y-50428762D01*
X2596238Y-50617497D01*
X2818167Y-50765785D01*
X3064761Y-50867928D01*
X3326544Y-50920000D01*
X3593456Y-50920000D01*
X3855239Y-50867928D01*
X4101833Y-50765785D01*
X4323762Y-50617497D01*
X4512497Y-50428762D01*
X4660785Y-50206833D01*
X4762928Y-49960239D01*
X4815000Y-49698456D01*
X4815000Y-49431544D01*
X4762928Y-49169761D01*
X4660785Y-48923167D01*
X4512497Y-48701238D01*
X4323762Y-48512503D01*
X4101833Y-48364215D01*
X3855239Y-48262072D01*
X3593456Y-48210000D01*
X3326544Y-48210000D01*
X3064761Y-48262072D01*
X2818167Y-48364215D01*
X2596238Y-48512503D01*
X2407503Y-48701238D01*
X2259215Y-48923167D01*
X2157072Y-49169761D01*
X2105000Y-49431544D01*
X-340000Y-49431544D01*
X-340000Y-46891544D01*
X4645000Y-46891544D01*
X4645000Y-47158456D01*
X4697072Y-47420239D01*
X4799215Y-47666833D01*
X4947503Y-47888762D01*
X5136238Y-48077497D01*
X5358167Y-48225785D01*
X5604761Y-48327928D01*
X5866544Y-48380000D01*
X6133456Y-48380000D01*
X6395239Y-48327928D01*
X6641833Y-48225785D01*
X6863762Y-48077497D01*
X7052497Y-47888762D01*
X7200785Y-47666833D01*
X7302928Y-47420239D01*
X7355000Y-47158456D01*
X7355000Y-46891544D01*
X7302928Y-46629761D01*
X7200785Y-46383167D01*
X7052497Y-46161238D01*
X6863762Y-45972503D01*
X6641833Y-45824215D01*
X6395239Y-45722072D01*
X6133456Y-45670000D01*
X5866544Y-45670000D01*
X5604761Y-45722072D01*
X5358167Y-45824215D01*
X5136238Y-45972503D01*
X4947503Y-46161238D01*
X4799215Y-46383167D01*
X4697072Y-46629761D01*
X4645000Y-46891544D01*
X-340000Y-46891544D01*
X-340000Y-44613665D01*
X10090000Y-44613665D01*
X10090000Y-44896335D01*
X10145147Y-45173574D01*
X10253320Y-45434727D01*
X10410363Y-45669759D01*
X10610241Y-45869637D01*
X10845273Y-46026680D01*
X11106426Y-46134853D01*
X11383665Y-46190000D01*
X11666335Y-46190000D01*
X11943574Y-46134853D01*
X12204727Y-46026680D01*
X12439759Y-45869637D01*
X12639637Y-45669759D01*
X12786475Y-45449999D01*
X19161325Y-45449999D01*
X19165001Y-45487321D01*
X19165002Y-55437669D01*
X19161325Y-55475001D01*
X19175999Y-55623986D01*
X19219455Y-55767247D01*
X19290027Y-55899277D01*
X19352990Y-55975997D01*
X19385001Y-56015002D01*
X19413999Y-56038800D01*
X19801312Y-56426114D01*
X19765000Y-56608665D01*
X19765000Y-56891335D01*
X19820147Y-57168574D01*
X19928320Y-57429727D01*
X20085363Y-57664759D01*
X20285241Y-57864637D01*
X20520273Y-58021680D01*
X20781426Y-58129853D01*
X21058665Y-58185000D01*
X21341335Y-58185000D01*
X21618574Y-58129853D01*
X21879727Y-58021680D01*
X22114759Y-57864637D01*
X22314637Y-57664759D01*
X22471680Y-57429727D01*
X22579853Y-57168574D01*
X22635000Y-56891335D01*
X22635000Y-56608665D01*
X22579853Y-56331426D01*
X22471680Y-56070273D01*
X22314637Y-55835241D01*
X22114759Y-55635363D01*
X21879727Y-55478320D01*
X21618574Y-55370147D01*
X21341335Y-55315000D01*
X21058665Y-55315000D01*
X20876114Y-55351312D01*
X20685001Y-55160200D01*
X20685001Y-50469912D01*
X20781426Y-50509853D01*
X21058665Y-50565000D01*
X21341335Y-50565000D01*
X21618574Y-50509853D01*
X21879727Y-50401680D01*
X22114759Y-50244637D01*
X22314637Y-50044759D01*
X22471680Y-49809727D01*
X22579853Y-49548574D01*
X22635000Y-49271335D01*
X22635000Y-48988665D01*
X22630028Y-48963665D01*
X24215000Y-48963665D01*
X24215000Y-49246335D01*
X24270147Y-49523574D01*
X24378320Y-49784727D01*
X24535363Y-50019759D01*
X24735241Y-50219637D01*
X24970273Y-50376680D01*
X25231426Y-50484853D01*
X25508665Y-50540000D01*
X25791335Y-50540000D01*
X26068574Y-50484853D01*
X26329727Y-50376680D01*
X26564759Y-50219637D01*
X26764637Y-50019759D01*
X26921680Y-49784727D01*
X27029853Y-49523574D01*
X27085000Y-49246335D01*
X27085000Y-48963665D01*
X28340000Y-48963665D01*
X28340000Y-49246335D01*
X28395147Y-49523574D01*
X28503320Y-49784727D01*
X28660363Y-50019759D01*
X28860241Y-50219637D01*
X29095273Y-50376680D01*
X29356426Y-50484853D01*
X29633665Y-50540000D01*
X29916335Y-50540000D01*
X30193574Y-50484853D01*
X30454727Y-50376680D01*
X30689759Y-50219637D01*
X30889637Y-50019759D01*
X31046680Y-49784727D01*
X31154853Y-49523574D01*
X31210000Y-49246335D01*
X31210000Y-48963665D01*
X31154853Y-48686426D01*
X31046680Y-48425273D01*
X30889637Y-48190241D01*
X30689759Y-47990363D01*
X30454727Y-47833320D01*
X30193574Y-47725147D01*
X29916335Y-47670000D01*
X29633665Y-47670000D01*
X29356426Y-47725147D01*
X29095273Y-47833320D01*
X28860241Y-47990363D01*
X28660363Y-48190241D01*
X28503320Y-48425273D01*
X28395147Y-48686426D01*
X28340000Y-48963665D01*
X27085000Y-48963665D01*
X27029853Y-48686426D01*
X26921680Y-48425273D01*
X26764637Y-48190241D01*
X26564759Y-47990363D01*
X26329727Y-47833320D01*
X26068574Y-47725147D01*
X25791335Y-47670000D01*
X25508665Y-47670000D01*
X25231426Y-47725147D01*
X24970273Y-47833320D01*
X24735241Y-47990363D01*
X24535363Y-48190241D01*
X24378320Y-48425273D01*
X24270147Y-48686426D01*
X24215000Y-48963665D01*
X22630028Y-48963665D01*
X22579853Y-48711426D01*
X22471680Y-48450273D01*
X22314637Y-48215241D01*
X22114759Y-48015363D01*
X21879727Y-47858320D01*
X21618574Y-47750147D01*
X21341335Y-47695000D01*
X21058665Y-47695000D01*
X20781426Y-47750147D01*
X20685001Y-47790088D01*
X20685001Y-46069293D01*
X20763967Y-46085000D01*
X21086033Y-46085000D01*
X21401912Y-46022168D01*
X21699463Y-45898918D01*
X21967252Y-45719987D01*
X22194987Y-45492252D01*
X22373918Y-45224463D01*
X22497168Y-44926912D01*
X22560000Y-44611033D01*
X22560000Y-44288967D01*
X25790000Y-44288967D01*
X25790000Y-44611033D01*
X25852832Y-44926912D01*
X25976082Y-45224463D01*
X26155013Y-45492252D01*
X26382748Y-45719987D01*
X26650537Y-45898918D01*
X26948088Y-46022168D01*
X27263967Y-46085000D01*
X27586033Y-46085000D01*
X27901912Y-46022168D01*
X28199463Y-45898918D01*
X28467252Y-45719987D01*
X28694987Y-45492252D01*
X28873918Y-45224463D01*
X28997168Y-44926912D01*
X29060000Y-44611033D01*
X29060000Y-44288967D01*
X28997168Y-43973088D01*
X28873918Y-43675537D01*
X28694987Y-43407748D01*
X28467252Y-43180013D01*
X28199463Y-43001082D01*
X27901912Y-42877832D01*
X27586033Y-42815000D01*
X27263967Y-42815000D01*
X26948088Y-42877832D01*
X26650537Y-43001082D01*
X26382748Y-43180013D01*
X26155013Y-43407748D01*
X25976082Y-43675537D01*
X25852832Y-43973088D01*
X25790000Y-44288967D01*
X22560000Y-44288967D01*
X22497168Y-43973088D01*
X22373918Y-43675537D01*
X22194987Y-43407748D01*
X21967252Y-43180013D01*
X21699463Y-43001082D01*
X21401912Y-42877832D01*
X21086033Y-42815000D01*
X20763967Y-42815000D01*
X20448088Y-42877832D01*
X20150537Y-43001082D01*
X19882748Y-43180013D01*
X19655013Y-43407748D01*
X19476082Y-43675537D01*
X19352832Y-43973088D01*
X19290000Y-44288967D01*
X19290000Y-44611033D01*
X19352832Y-44926912D01*
X19358966Y-44941721D01*
X19343142Y-44961003D01*
X19290027Y-45025723D01*
X19219456Y-45157752D01*
X19219455Y-45157753D01*
X19175998Y-45301014D01*
X19165001Y-45412667D01*
X19165001Y-45412677D01*
X19161325Y-45449999D01*
X12786475Y-45449999D01*
X12796680Y-45434727D01*
X12904853Y-45173574D01*
X12960000Y-44896335D01*
X12960000Y-44613665D01*
X12904853Y-44336426D01*
X12796680Y-44075273D01*
X12639637Y-43840241D01*
X12439759Y-43640363D01*
X12204727Y-43483320D01*
X11943574Y-43375147D01*
X11666335Y-43320000D01*
X11383665Y-43320000D01*
X11106426Y-43375147D01*
X10845273Y-43483320D01*
X10610241Y-43640363D01*
X10410363Y-43840241D01*
X10253320Y-44075273D01*
X10145147Y-44336426D01*
X10090000Y-44613665D01*
X-340000Y-44613665D01*
X-340000Y-40128438D01*
X14711505Y-40128438D01*
X14750605Y-40368549D01*
X14835798Y-40596418D01*
X14876652Y-40672852D01*
X15100234Y-40720158D01*
X14983128Y-40837264D01*
X15041006Y-40895142D01*
X14995506Y-40919463D01*
X14898815Y-40998815D01*
X14819463Y-41095506D01*
X14760498Y-41205820D01*
X14724188Y-41325518D01*
X14711928Y-41450000D01*
X14711928Y-42650000D01*
X14724188Y-42774482D01*
X14760498Y-42894180D01*
X14819463Y-43004494D01*
X14898815Y-43101185D01*
X14995506Y-43180537D01*
X15105820Y-43239502D01*
X15225518Y-43275812D01*
X15350000Y-43288072D01*
X16550000Y-43288072D01*
X16674482Y-43275812D01*
X16794180Y-43239502D01*
X16904494Y-43180537D01*
X17001185Y-43101185D01*
X17080537Y-43004494D01*
X17139502Y-42894180D01*
X17175812Y-42774482D01*
X17188072Y-42650000D01*
X17188072Y-41450000D01*
X17175812Y-41325518D01*
X17139502Y-41205820D01*
X17080537Y-41095506D01*
X17072254Y-41085413D01*
X19969192Y-41085413D01*
X20064956Y-41349814D01*
X20354571Y-41490704D01*
X20666108Y-41572384D01*
X20987595Y-41591718D01*
X21306675Y-41547961D01*
X21611088Y-41442795D01*
X21785044Y-41349814D01*
X21880808Y-41085413D01*
X26469192Y-41085413D01*
X26564956Y-41349814D01*
X26854571Y-41490704D01*
X27166108Y-41572384D01*
X27487595Y-41591718D01*
X27806675Y-41547961D01*
X28111088Y-41442795D01*
X28285044Y-41349814D01*
X28380808Y-41085413D01*
X27425000Y-40129605D01*
X26469192Y-41085413D01*
X21880808Y-41085413D01*
X20925000Y-40129605D01*
X19969192Y-41085413D01*
X17072254Y-41085413D01*
X17001185Y-40998815D01*
X16904494Y-40919463D01*
X16858994Y-40895142D01*
X16916872Y-40837264D01*
X16799766Y-40720158D01*
X17023348Y-40672852D01*
X17124237Y-40451484D01*
X17180000Y-40214687D01*
X17187061Y-40012595D01*
X19283282Y-40012595D01*
X19327039Y-40331675D01*
X19432205Y-40636088D01*
X19525186Y-40810044D01*
X19789587Y-40905808D01*
X20745395Y-39950000D01*
X21104605Y-39950000D01*
X22060413Y-40905808D01*
X22324814Y-40810044D01*
X22465704Y-40520429D01*
X22547384Y-40208892D01*
X22559189Y-40012595D01*
X25783282Y-40012595D01*
X25827039Y-40331675D01*
X25932205Y-40636088D01*
X26025186Y-40810044D01*
X26289587Y-40905808D01*
X27245395Y-39950000D01*
X27604605Y-39950000D01*
X28560413Y-40905808D01*
X28824814Y-40810044D01*
X28965704Y-40520429D01*
X29047384Y-40208892D01*
X29066718Y-39887405D01*
X29062060Y-39853438D01*
X30236505Y-39853438D01*
X30275605Y-40093549D01*
X30360798Y-40321418D01*
X30401652Y-40397852D01*
X30625234Y-40445158D01*
X30508128Y-40562264D01*
X30566006Y-40620142D01*
X30520506Y-40644463D01*
X30423815Y-40723815D01*
X30344463Y-40820506D01*
X30285498Y-40930820D01*
X30249188Y-41050518D01*
X30236928Y-41175000D01*
X30236928Y-42375000D01*
X30249188Y-42499482D01*
X30285498Y-42619180D01*
X30344463Y-42729494D01*
X30423815Y-42826185D01*
X30520506Y-42905537D01*
X30630820Y-42964502D01*
X30750518Y-43000812D01*
X30875000Y-43013072D01*
X32075000Y-43013072D01*
X32199482Y-43000812D01*
X32319180Y-42964502D01*
X32429494Y-42905537D01*
X32526185Y-42826185D01*
X32605537Y-42729494D01*
X32664502Y-42619180D01*
X32700812Y-42499482D01*
X32713072Y-42375000D01*
X32713072Y-41175000D01*
X32700812Y-41050518D01*
X32664502Y-40930820D01*
X32605537Y-40820506D01*
X32526185Y-40723815D01*
X32429494Y-40644463D01*
X32383994Y-40620142D01*
X32441872Y-40562264D01*
X32324766Y-40445158D01*
X32548348Y-40397852D01*
X32649237Y-40176484D01*
X32705000Y-39939687D01*
X32713495Y-39696562D01*
X32674395Y-39456451D01*
X32589202Y-39228582D01*
X32548348Y-39152148D01*
X32324764Y-39104841D01*
X31654605Y-39775000D01*
X31668748Y-39789143D01*
X31489143Y-39968748D01*
X31475000Y-39954605D01*
X31460858Y-39968748D01*
X31281253Y-39789143D01*
X31295395Y-39775000D01*
X30625236Y-39104841D01*
X30401652Y-39152148D01*
X30300763Y-39373516D01*
X30245000Y-39610313D01*
X30236505Y-39853438D01*
X29062060Y-39853438D01*
X29022961Y-39568325D01*
X28917795Y-39263912D01*
X28824814Y-39089956D01*
X28560413Y-38994192D01*
X27604605Y-39950000D01*
X27245395Y-39950000D01*
X26289587Y-38994192D01*
X26025186Y-39089956D01*
X25884296Y-39379571D01*
X25802616Y-39691108D01*
X25783282Y-40012595D01*
X22559189Y-40012595D01*
X22566718Y-39887405D01*
X22522961Y-39568325D01*
X22417795Y-39263912D01*
X22324814Y-39089956D01*
X22060413Y-38994192D01*
X21104605Y-39950000D01*
X20745395Y-39950000D01*
X19789587Y-38994192D01*
X19525186Y-39089956D01*
X19384296Y-39379571D01*
X19302616Y-39691108D01*
X19283282Y-40012595D01*
X17187061Y-40012595D01*
X17188495Y-39971562D01*
X17149395Y-39731451D01*
X17064202Y-39503582D01*
X17023348Y-39427148D01*
X16799764Y-39379841D01*
X16129605Y-40050000D01*
X16143748Y-40064143D01*
X15964143Y-40243748D01*
X15950000Y-40229605D01*
X15935858Y-40243748D01*
X15756253Y-40064143D01*
X15770395Y-40050000D01*
X15100236Y-39379841D01*
X14876652Y-39427148D01*
X14775763Y-39648516D01*
X14720000Y-39885313D01*
X14711505Y-40128438D01*
X-340000Y-40128438D01*
X-340000Y-39200236D01*
X15279841Y-39200236D01*
X15950000Y-39870395D01*
X16620159Y-39200236D01*
X16572852Y-38976652D01*
X16351484Y-38875763D01*
X16114687Y-38820000D01*
X15959769Y-38814587D01*
X19969192Y-38814587D01*
X20925000Y-39770395D01*
X21880808Y-38814587D01*
X26469192Y-38814587D01*
X27425000Y-39770395D01*
X28270159Y-38925236D01*
X30804841Y-38925236D01*
X31475000Y-39595395D01*
X32145159Y-38925236D01*
X32097852Y-38701652D01*
X31876484Y-38600763D01*
X31639687Y-38545000D01*
X31396562Y-38536505D01*
X31156451Y-38575605D01*
X30928582Y-38660798D01*
X30852148Y-38701652D01*
X30804841Y-38925236D01*
X28270159Y-38925236D01*
X28380808Y-38814587D01*
X28285044Y-38550186D01*
X27995429Y-38409296D01*
X27683892Y-38327616D01*
X27362405Y-38308282D01*
X27043325Y-38352039D01*
X26738912Y-38457205D01*
X26564956Y-38550186D01*
X26469192Y-38814587D01*
X21880808Y-38814587D01*
X21785044Y-38550186D01*
X21495429Y-38409296D01*
X21183892Y-38327616D01*
X20862405Y-38308282D01*
X20543325Y-38352039D01*
X20238912Y-38457205D01*
X20064956Y-38550186D01*
X19969192Y-38814587D01*
X15959769Y-38814587D01*
X15871562Y-38811505D01*
X15631451Y-38850605D01*
X15403582Y-38935798D01*
X15327148Y-38976652D01*
X15279841Y-39200236D01*
X-340000Y-39200236D01*
X-340000Y-35725000D01*
X25811928Y-35725000D01*
X25811928Y-37425000D01*
X25824188Y-37549482D01*
X25860498Y-37669180D01*
X25919463Y-37779494D01*
X25998815Y-37876185D01*
X26095506Y-37955537D01*
X26205820Y-38014502D01*
X26325518Y-38050812D01*
X26450000Y-38063072D01*
X28150000Y-38063072D01*
X28274482Y-38050812D01*
X28394180Y-38014502D01*
X28504494Y-37955537D01*
X28601185Y-37876185D01*
X28680537Y-37779494D01*
X28739502Y-37669180D01*
X28775812Y-37549482D01*
X28788072Y-37425000D01*
X28788072Y-35725000D01*
X28775812Y-35600518D01*
X28739502Y-35480820D01*
X28680537Y-35370506D01*
X28601185Y-35273815D01*
X28504494Y-35194463D01*
X28394180Y-35135498D01*
X28321620Y-35113487D01*
X28453475Y-34981632D01*
X28615990Y-34738411D01*
X28727932Y-34468158D01*
X28785000Y-34181260D01*
X28785000Y-33888740D01*
X28727932Y-33601842D01*
X28615990Y-33331589D01*
X28453475Y-33088368D01*
X28246632Y-32881525D01*
X28072240Y-32765000D01*
X28246632Y-32648475D01*
X28453475Y-32441632D01*
X28615990Y-32198411D01*
X28727932Y-31928158D01*
X28785000Y-31641260D01*
X28785000Y-31348740D01*
X28727932Y-31061842D01*
X28615990Y-30791589D01*
X28453475Y-30548368D01*
X28246632Y-30341525D01*
X28003411Y-30179010D01*
X27733158Y-30067068D01*
X27446260Y-30010000D01*
X27153740Y-30010000D01*
X26866842Y-30067068D01*
X26596589Y-30179010D01*
X26353368Y-30341525D01*
X26146525Y-30548368D01*
X25984010Y-30791589D01*
X25872068Y-31061842D01*
X25815000Y-31348740D01*
X25815000Y-31641260D01*
X25872068Y-31928158D01*
X25984010Y-32198411D01*
X26146525Y-32441632D01*
X26353368Y-32648475D01*
X26527760Y-32765000D01*
X26353368Y-32881525D01*
X26146525Y-33088368D01*
X25984010Y-33331589D01*
X25872068Y-33601842D01*
X25815000Y-33888740D01*
X25815000Y-34181260D01*
X25872068Y-34468158D01*
X25984010Y-34738411D01*
X26146525Y-34981632D01*
X26278380Y-35113487D01*
X26205820Y-35135498D01*
X26095506Y-35194463D01*
X25998815Y-35273815D01*
X25919463Y-35370506D01*
X25860498Y-35480820D01*
X25824188Y-35600518D01*
X25811928Y-35725000D01*
X-340000Y-35725000D01*
X-340000Y-32871890D01*
X14508524Y-32871890D01*
X14553175Y-33019099D01*
X14678359Y-33281920D01*
X14852412Y-33515269D01*
X15068645Y-33710178D01*
X15318748Y-33859157D01*
X15593109Y-33956481D01*
X15823000Y-33835814D01*
X15823000Y-32642000D01*
X16077000Y-32642000D01*
X16077000Y-33835814D01*
X16306891Y-33956481D01*
X16581252Y-33859157D01*
X16831355Y-33710178D01*
X17047588Y-33515269D01*
X17221641Y-33281920D01*
X17346825Y-33019099D01*
X17391476Y-32871890D01*
X17270155Y-32642000D01*
X16077000Y-32642000D01*
X15823000Y-32642000D01*
X14629845Y-32642000D01*
X14508524Y-32871890D01*
X-340000Y-32871890D01*
X-340000Y-29125000D01*
X14461928Y-29125000D01*
X14461928Y-30825000D01*
X14474188Y-30949482D01*
X14510498Y-31069180D01*
X14569463Y-31179494D01*
X14648815Y-31276185D01*
X14745506Y-31355537D01*
X14855820Y-31414502D01*
X14936466Y-31438966D01*
X14852412Y-31514731D01*
X14678359Y-31748080D01*
X14553175Y-32010901D01*
X14508524Y-32158110D01*
X14629845Y-32388000D01*
X15823000Y-32388000D01*
X15823000Y-32368000D01*
X16077000Y-32368000D01*
X16077000Y-32388000D01*
X17270155Y-32388000D01*
X17391476Y-32158110D01*
X17346825Y-32010901D01*
X17221641Y-31748080D01*
X17047588Y-31514731D01*
X16963534Y-31438966D01*
X17044180Y-31414502D01*
X17154494Y-31355537D01*
X17251185Y-31276185D01*
X17330537Y-31179494D01*
X17389502Y-31069180D01*
X17425812Y-30949482D01*
X17438072Y-30825000D01*
X17438072Y-29125000D01*
X17425812Y-29000518D01*
X17389502Y-28880820D01*
X17330537Y-28770506D01*
X17251185Y-28673815D01*
X17154494Y-28594463D01*
X17044180Y-28535498D01*
X16924482Y-28499188D01*
X16800000Y-28486928D01*
X15100000Y-28486928D01*
X14975518Y-28499188D01*
X14855820Y-28535498D01*
X14745506Y-28594463D01*
X14648815Y-28673815D01*
X14569463Y-28770506D01*
X14510498Y-28880820D01*
X14474188Y-29000518D01*
X14461928Y-29125000D01*
X-340000Y-29125000D01*
X-340000Y-25660000D01*
X34340001Y-25660000D01*
X34340000Y-100340000D01*
%TD*%
M02*
