M48
; DRILL file {KiCad (5.1.6-0-10_14)} date Tuesday, October 13, 2020 at 10:09:46 PM
; FORMAT={-:-/ absolute / inch / decimal}
; #@! TF.CreationDate,2020-10-13T22:09:46-04:00
; #@! TF.GenerationSoftware,Kicad,Pcbnew,(5.1.6-0-10_14)
; #@! TF.FileFunction,Plated,1,2,PTH
FMAT,2
INCH
T1C0.0157
T2C0.0236
T3C0.0315
T4C0.0394
T5C0.0433
%
G90
G05
T1
X0.2963Y-3.2923
X0.3356Y-3.1998
X0.3553Y-2.4045
X0.3622Y-3.1073
X0.6694Y-2.7245
X0.8445Y-3.5354
T2
X1.0817Y-3.7421
X1.0817Y-3.8209
X1.2392Y-1.5659
X1.2392Y-1.6447
X0.6732Y-2.3996
X0.752Y-2.3996
X0.628Y-1.5768
X0.628Y-1.6555
T3
X1.1722Y-1.9333
X1.1722Y-2.2333
X0.4537Y-1.762
X0.4537Y-2.062
X0.2136Y-2.3002
X0.2136Y-2.4002
X0.2136Y-2.5002
X0.2136Y-2.6002
X0.5136Y-2.3002
X0.5136Y-2.4002
X0.5136Y-2.5002
X0.5136Y-2.6002
X0.8346Y-1.9343
X0.8346Y-2.2343
X0.1362Y-1.9514
X0.2362Y-1.8514
X0.2362Y-2.0514
X1.0098Y-1.9333
X1.0098Y-2.2333
T4
X1.0748Y-1.24
X1.0748Y-1.34
X1.0748Y-1.44
X0.0728Y-2.3045
X0.0728Y-2.4045
X1.1969Y-3.0472
X1.1969Y-3.1472
X1.1969Y-3.2472
X1.1969Y-3.3472
X1.1969Y-3.4472
X1.1969Y-3.5472
X0.6457Y-2.5886
X0.7457Y-2.5886
X0.8457Y-2.5886
X0.9457Y-2.5886
X0.9528Y-3.3524
X0.9528Y-3.4524
X0.9528Y-3.5524
X0.628Y-1.1801
X0.628Y-1.2801
T5
X0.8238Y-1.5728
X0.8238Y-1.75
X1.0797Y-1.5728
X1.0797Y-1.75
T0
M30
