%TF.GenerationSoftware,KiCad,Pcbnew,(5.1.6-0-10_14)*%
%TF.CreationDate,2020-10-28T22:54:17-04:00*%
%TF.ProjectId,weather_external,77656174-6865-4725-9f65-787465726e61,rev?*%
%TF.SameCoordinates,Original*%
%TF.FileFunction,Soldermask,Top*%
%TF.FilePolarity,Negative*%
%FSLAX46Y46*%
G04 Gerber Fmt 4.6, Leading zero omitted, Abs format (unit mm)*
G04 Created by KiCad (PCBNEW (5.1.6-0-10_14)) date 2020-10-28 22:54:17*
%MOMM*%
%LPD*%
G01*
G04 APERTURE LIST*
%ADD10O,1.800000X1.800000*%
%ADD11R,1.800000X1.800000*%
%ADD12C,1.700000*%
%ADD13R,2.600000X1.100000*%
%ADD14R,1.100000X1.900000*%
%ADD15C,1.300000*%
%ADD16R,1.300000X1.300000*%
%ADD17O,1.300000X1.850000*%
G04 APERTURE END LIST*
D10*
%TO.C,FTDI1*%
X-1425000Y-86630000D03*
X-1425000Y-89170000D03*
X-1425000Y-91710000D03*
D11*
X-1425000Y-94250000D03*
%TD*%
D12*
%TO.C,C3*%
X1150000Y-78875000D03*
X3650000Y-78875000D03*
%TD*%
D10*
%TO.C,I2C1*%
X3150000Y-94270000D03*
X3150000Y-91730000D03*
X3150000Y-89190000D03*
D11*
X3150000Y-86650000D03*
%TD*%
D10*
%TO.C,J1*%
X-1440000Y-82925000D03*
D11*
X1100000Y-82925000D03*
%TD*%
D13*
%TO.C,ESP8266-12E1*%
X6650000Y-87925000D03*
X6650000Y-85925000D03*
X6650000Y-83925000D03*
X6650000Y-81925000D03*
X6650000Y-79925000D03*
X6650000Y-77925000D03*
X6650000Y-75925000D03*
X6650000Y-73925000D03*
D14*
X9250000Y-72425000D03*
X11250000Y-72425000D03*
X13250000Y-72425000D03*
X15250000Y-72425000D03*
X17250000Y-72425000D03*
X19250000Y-72425000D03*
D13*
X21850000Y-73925000D03*
X21850000Y-75925000D03*
X21850000Y-77925000D03*
X21850000Y-79925000D03*
X21850000Y-81925000D03*
X21850000Y-83925000D03*
X21850000Y-85925000D03*
X21850000Y-87925000D03*
%TD*%
D15*
%TO.C,C2*%
X7000000Y-69525000D03*
D16*
X7000000Y-68025000D03*
%TD*%
D17*
%TO.C,J2*%
X19525000Y-67475000D03*
G36*
G01*
X16875000Y-68129168D02*
X16875000Y-66820832D01*
G75*
G02*
X17145832Y-66550000I270832J0D01*
G01*
X17904168Y-66550000D01*
G75*
G02*
X18175000Y-66820832I0J-270832D01*
G01*
X18175000Y-68129168D01*
G75*
G02*
X17904168Y-68400000I-270832J0D01*
G01*
X17145832Y-68400000D01*
G75*
G02*
X16875000Y-68129168I0J270832D01*
G01*
G37*
%TD*%
D15*
%TO.C,C1*%
X12100000Y-69475000D03*
D16*
X12100000Y-67975000D03*
%TD*%
M02*
