%TF.GenerationSoftware,KiCad,Pcbnew,(5.1.6-0-10_14)*%
%TF.CreationDate,2020-10-13T22:09:44-04:00*%
%TF.ProjectId,weather_external,77656174-6865-4725-9f65-787465726e61,rev?*%
%TF.SameCoordinates,Original*%
%TF.FileFunction,Legend,Bot*%
%TF.FilePolarity,Positive*%
%FSLAX46Y46*%
G04 Gerber Fmt 4.6, Leading zero omitted, Abs format (unit mm)*
G04 Created by KiCad (PCBNEW (5.1.6-0-10_14)) date 2020-10-13 22:09:44*
%MOMM*%
%LPD*%
G01*
G04 APERTURE LIST*
%ADD10C,0.150000*%
G04 APERTURE END LIST*
D10*
X3877380Y-56677380D02*
X3877380Y-56201190D01*
X4353571Y-56153571D01*
X4305952Y-56201190D01*
X4258333Y-56296428D01*
X4258333Y-56534523D01*
X4305952Y-56629761D01*
X4353571Y-56677380D01*
X4448809Y-56725000D01*
X4686904Y-56725000D01*
X4782142Y-56677380D01*
X4829761Y-56629761D01*
X4877380Y-56534523D01*
X4877380Y-56296428D01*
X4829761Y-56201190D01*
X4782142Y-56153571D01*
X3877380Y-57629761D02*
X3877380Y-57153571D01*
X4353571Y-57105952D01*
X4305952Y-57153571D01*
X4258333Y-57248809D01*
X4258333Y-57486904D01*
X4305952Y-57582142D01*
X4353571Y-57629761D01*
X4448809Y-57677380D01*
X4686904Y-57677380D01*
X4782142Y-57629761D01*
X4829761Y-57582142D01*
X4877380Y-57486904D01*
X4877380Y-57248809D01*
X4829761Y-57153571D01*
X4782142Y-57105952D01*
X3877380Y-58582142D02*
X3877380Y-58105952D01*
X4353571Y-58058333D01*
X4305952Y-58105952D01*
X4258333Y-58201190D01*
X4258333Y-58439285D01*
X4305952Y-58534523D01*
X4353571Y-58582142D01*
X4448809Y-58629761D01*
X4686904Y-58629761D01*
X4782142Y-58582142D01*
X4829761Y-58534523D01*
X4877380Y-58439285D01*
X4877380Y-58201190D01*
X4829761Y-58105952D01*
X4782142Y-58058333D01*
X4877380Y-59963095D02*
X4829761Y-59867857D01*
X4782142Y-59820238D01*
X4686904Y-59772619D01*
X4401190Y-59772619D01*
X4305952Y-59820238D01*
X4258333Y-59867857D01*
X4210714Y-59963095D01*
X4210714Y-60105952D01*
X4258333Y-60201190D01*
X4305952Y-60248809D01*
X4401190Y-60296428D01*
X4686904Y-60296428D01*
X4782142Y-60248809D01*
X4829761Y-60201190D01*
X4877380Y-60105952D01*
X4877380Y-59963095D01*
X4210714Y-60725000D02*
X4877380Y-60725000D01*
X4305952Y-60725000D02*
X4258333Y-60772619D01*
X4210714Y-60867857D01*
X4210714Y-61010714D01*
X4258333Y-61105952D01*
X4353571Y-61153571D01*
X4877380Y-61153571D01*
X3829761Y-62344047D02*
X5115476Y-61486904D01*
X4877380Y-62820238D02*
X4829761Y-62725000D01*
X4782142Y-62677380D01*
X4686904Y-62629761D01*
X4401190Y-62629761D01*
X4305952Y-62677380D01*
X4258333Y-62725000D01*
X4210714Y-62820238D01*
X4210714Y-62963095D01*
X4258333Y-63058333D01*
X4305952Y-63105952D01*
X4401190Y-63153571D01*
X4686904Y-63153571D01*
X4782142Y-63105952D01*
X4829761Y-63058333D01*
X4877380Y-62963095D01*
X4877380Y-62820238D01*
X4210714Y-63439285D02*
X4210714Y-63820238D01*
X4877380Y-63582142D02*
X4020238Y-63582142D01*
X3925000Y-63629761D01*
X3877380Y-63725000D01*
X3877380Y-63820238D01*
X4210714Y-64010714D02*
X4210714Y-64391666D01*
X4877380Y-64153571D02*
X4020238Y-64153571D01*
X3925000Y-64201190D01*
X3877380Y-64296428D01*
X3877380Y-64391666D01*
X32728571Y-83173809D02*
X32728571Y-82840476D01*
X33252380Y-82840476D02*
X32252380Y-82840476D01*
X32252380Y-83316666D01*
X32252380Y-83554761D02*
X32252380Y-84126190D01*
X33252380Y-83840476D02*
X32252380Y-83840476D01*
X33252380Y-84459523D02*
X32252380Y-84459523D01*
X32252380Y-84697619D01*
X32300000Y-84840476D01*
X32395238Y-84935714D01*
X32490476Y-84983333D01*
X32680952Y-85030952D01*
X32823809Y-85030952D01*
X33014285Y-84983333D01*
X33109523Y-84935714D01*
X33204761Y-84840476D01*
X33252380Y-84697619D01*
X33252380Y-84459523D01*
X33252380Y-85459523D02*
X32252380Y-85459523D01*
M02*
