%TF.GenerationSoftware,KiCad,Pcbnew,(5.1.6-0-10_14)*%
%TF.CreationDate,2020-10-28T22:54:17-04:00*%
%TF.ProjectId,weather_external,77656174-6865-4725-9f65-787465726e61,rev?*%
%TF.SameCoordinates,Original*%
%TF.FileFunction,Legend,Bot*%
%TF.FilePolarity,Positive*%
%FSLAX46Y46*%
G04 Gerber Fmt 4.6, Leading zero omitted, Abs format (unit mm)*
G04 Created by KiCad (PCBNEW (5.1.6-0-10_14)) date 2020-10-28 22:54:17*
%MOMM*%
%LPD*%
G01*
G04 APERTURE LIST*
%ADD10C,0.150000*%
%ADD11C,0.120000*%
G04 APERTURE END LIST*
D10*
X5629761Y-93235714D02*
X5677380Y-93378571D01*
X5677380Y-93616666D01*
X5629761Y-93711904D01*
X5582142Y-93759523D01*
X5486904Y-93807142D01*
X5391666Y-93807142D01*
X5296428Y-93759523D01*
X5248809Y-93711904D01*
X5201190Y-93616666D01*
X5153571Y-93426190D01*
X5105952Y-93330952D01*
X5058333Y-93283333D01*
X4963095Y-93235714D01*
X4867857Y-93235714D01*
X4772619Y-93283333D01*
X4725000Y-93330952D01*
X4677380Y-93426190D01*
X4677380Y-93664285D01*
X4725000Y-93807142D01*
X5677380Y-94235714D02*
X4677380Y-94235714D01*
X4677380Y-94473809D01*
X4725000Y-94616666D01*
X4820238Y-94711904D01*
X4915476Y-94759523D01*
X5105952Y-94807142D01*
X5248809Y-94807142D01*
X5439285Y-94759523D01*
X5534523Y-94711904D01*
X5629761Y-94616666D01*
X5677380Y-94473809D01*
X5677380Y-94235714D01*
X5391666Y-95188095D02*
X5391666Y-95664285D01*
X5677380Y-95092857D02*
X4677380Y-95426190D01*
X5677380Y-95759523D01*
X5629761Y-90609523D02*
X5677380Y-90752380D01*
X5677380Y-90990476D01*
X5629761Y-91085714D01*
X5582142Y-91133333D01*
X5486904Y-91180952D01*
X5391666Y-91180952D01*
X5296428Y-91133333D01*
X5248809Y-91085714D01*
X5201190Y-90990476D01*
X5153571Y-90800000D01*
X5105952Y-90704761D01*
X5058333Y-90657142D01*
X4963095Y-90609523D01*
X4867857Y-90609523D01*
X4772619Y-90657142D01*
X4725000Y-90704761D01*
X4677380Y-90800000D01*
X4677380Y-91038095D01*
X4725000Y-91180952D01*
X5582142Y-92180952D02*
X5629761Y-92133333D01*
X5677380Y-91990476D01*
X5677380Y-91895238D01*
X5629761Y-91752380D01*
X5534523Y-91657142D01*
X5439285Y-91609523D01*
X5248809Y-91561904D01*
X5105952Y-91561904D01*
X4915476Y-91609523D01*
X4820238Y-91657142D01*
X4725000Y-91752380D01*
X4677380Y-91895238D01*
X4677380Y-91990476D01*
X4725000Y-92133333D01*
X4772619Y-92180952D01*
X5677380Y-93085714D02*
X5677380Y-92609523D01*
X4677380Y-92609523D01*
X5121428Y-88719047D02*
X5121428Y-89480952D01*
X5430952Y-86596428D02*
X4669047Y-86596428D01*
X5050000Y-86977380D02*
X5050000Y-86215476D01*
X22251190Y-90778571D02*
X21917857Y-90778571D01*
X21775000Y-91302380D02*
X22251190Y-91302380D01*
X22251190Y-90302380D01*
X21775000Y-90302380D01*
X21346428Y-91302380D02*
X21346428Y-90302380D01*
X20775000Y-91302380D01*
X20775000Y-90302380D01*
X19584523Y-90254761D02*
X20441666Y-91540476D01*
X19251190Y-91302380D02*
X19251190Y-90302380D01*
X19013095Y-90302380D01*
X18870238Y-90350000D01*
X18775000Y-90445238D01*
X18727380Y-90540476D01*
X18679761Y-90730952D01*
X18679761Y-90873809D01*
X18727380Y-91064285D01*
X18775000Y-91159523D01*
X18870238Y-91254761D01*
X19013095Y-91302380D01*
X19251190Y-91302380D01*
X18251190Y-91302380D02*
X18251190Y-90302380D01*
X17822619Y-91254761D02*
X17679761Y-91302380D01*
X17441666Y-91302380D01*
X17346428Y-91254761D01*
X17298809Y-91207142D01*
X17251190Y-91111904D01*
X17251190Y-91016666D01*
X17298809Y-90921428D01*
X17346428Y-90873809D01*
X17441666Y-90826190D01*
X17632142Y-90778571D01*
X17727380Y-90730952D01*
X17775000Y-90683333D01*
X17822619Y-90588095D01*
X17822619Y-90492857D01*
X17775000Y-90397619D01*
X17727380Y-90350000D01*
X17632142Y-90302380D01*
X17394047Y-90302380D01*
X17251190Y-90350000D01*
X22846428Y-92952380D02*
X22846428Y-91952380D01*
X22846428Y-92904761D02*
X22941666Y-92952380D01*
X23132142Y-92952380D01*
X23227380Y-92904761D01*
X23275000Y-92857142D01*
X23322619Y-92761904D01*
X23322619Y-92476190D01*
X23275000Y-92380952D01*
X23227380Y-92333333D01*
X23132142Y-92285714D01*
X22941666Y-92285714D01*
X22846428Y-92333333D01*
X21989285Y-92904761D02*
X22084523Y-92952380D01*
X22275000Y-92952380D01*
X22370238Y-92904761D01*
X22417857Y-92809523D01*
X22417857Y-92428571D01*
X22370238Y-92333333D01*
X22275000Y-92285714D01*
X22084523Y-92285714D01*
X21989285Y-92333333D01*
X21941666Y-92428571D01*
X21941666Y-92523809D01*
X22417857Y-92619047D01*
X21132142Y-92904761D02*
X21227380Y-92952380D01*
X21417857Y-92952380D01*
X21513095Y-92904761D01*
X21560714Y-92809523D01*
X21560714Y-92428571D01*
X21513095Y-92333333D01*
X21417857Y-92285714D01*
X21227380Y-92285714D01*
X21132142Y-92333333D01*
X21084523Y-92428571D01*
X21084523Y-92523809D01*
X21560714Y-92619047D01*
X20655952Y-92285714D02*
X20655952Y-93285714D01*
X20655952Y-92333333D02*
X20560714Y-92285714D01*
X20370238Y-92285714D01*
X20275000Y-92333333D01*
X20227380Y-92380952D01*
X20179761Y-92476190D01*
X20179761Y-92761904D01*
X20227380Y-92857142D01*
X20275000Y-92904761D01*
X20370238Y-92952380D01*
X20560714Y-92952380D01*
X20655952Y-92904761D01*
X19798809Y-92904761D02*
X19703571Y-92952380D01*
X19513095Y-92952380D01*
X19417857Y-92904761D01*
X19370238Y-92809523D01*
X19370238Y-92761904D01*
X19417857Y-92666666D01*
X19513095Y-92619047D01*
X19655952Y-92619047D01*
X19751190Y-92571428D01*
X19798809Y-92476190D01*
X19798809Y-92428571D01*
X19751190Y-92333333D01*
X19655952Y-92285714D01*
X19513095Y-92285714D01*
X19417857Y-92333333D01*
X18798809Y-92952380D02*
X18894047Y-92904761D01*
X18941666Y-92809523D01*
X18941666Y-91952380D01*
X18036904Y-92904761D02*
X18132142Y-92952380D01*
X18322619Y-92952380D01*
X18417857Y-92904761D01*
X18465476Y-92809523D01*
X18465476Y-92428571D01*
X18417857Y-92333333D01*
X18322619Y-92285714D01*
X18132142Y-92285714D01*
X18036904Y-92333333D01*
X17989285Y-92428571D01*
X17989285Y-92523809D01*
X18465476Y-92619047D01*
X17179761Y-92904761D02*
X17275000Y-92952380D01*
X17465476Y-92952380D01*
X17560714Y-92904761D01*
X17608333Y-92809523D01*
X17608333Y-92428571D01*
X17560714Y-92333333D01*
X17465476Y-92285714D01*
X17275000Y-92285714D01*
X17179761Y-92333333D01*
X17132142Y-92428571D01*
X17132142Y-92523809D01*
X17608333Y-92619047D01*
X16703571Y-92285714D02*
X16703571Y-93285714D01*
X16703571Y-92333333D02*
X16608333Y-92285714D01*
X16417857Y-92285714D01*
X16322619Y-92333333D01*
X16275000Y-92380952D01*
X16227380Y-92476190D01*
X16227380Y-92761904D01*
X16275000Y-92857142D01*
X16322619Y-92904761D01*
X16417857Y-92952380D01*
X16608333Y-92952380D01*
X16703571Y-92904761D01*
X1302380Y-86252380D02*
X826190Y-85919047D01*
X1302380Y-85680952D02*
X302380Y-85680952D01*
X302380Y-86061904D01*
X350000Y-86157142D01*
X397619Y-86204761D01*
X492857Y-86252380D01*
X635714Y-86252380D01*
X730952Y-86204761D01*
X778571Y-86157142D01*
X826190Y-86061904D01*
X826190Y-85680952D01*
X1254761Y-86633333D02*
X1302380Y-86776190D01*
X1302380Y-87014285D01*
X1254761Y-87109523D01*
X1207142Y-87157142D01*
X1111904Y-87204761D01*
X1016666Y-87204761D01*
X921428Y-87157142D01*
X873809Y-87109523D01*
X826190Y-87014285D01*
X778571Y-86823809D01*
X730952Y-86728571D01*
X683333Y-86680952D01*
X588095Y-86633333D01*
X492857Y-86633333D01*
X397619Y-86680952D01*
X350000Y-86728571D01*
X302380Y-86823809D01*
X302380Y-87061904D01*
X350000Y-87204761D01*
X302380Y-87490476D02*
X302380Y-88061904D01*
X1302380Y-87776190D02*
X302380Y-87776190D01*
X1277380Y-93150000D02*
X277380Y-93150000D01*
X277380Y-93816666D02*
X277380Y-94007142D01*
X325000Y-94102380D01*
X420238Y-94197619D01*
X610714Y-94245238D01*
X944047Y-94245238D01*
X1134523Y-94197619D01*
X1229761Y-94102380D01*
X1277380Y-94007142D01*
X1277380Y-93816666D01*
X1229761Y-93721428D01*
X1134523Y-93626190D01*
X944047Y-93578571D01*
X610714Y-93578571D01*
X420238Y-93626190D01*
X325000Y-93721428D01*
X277380Y-93816666D01*
X277380Y-94864285D02*
X277380Y-94959523D01*
X324999Y-95054761D01*
X372619Y-95102380D01*
X467857Y-95150000D01*
X658333Y-95197619D01*
X896428Y-95197619D01*
X1086904Y-95150000D01*
X1182142Y-95102380D01*
X1229761Y-95054761D01*
X1277380Y-94959523D01*
X1277380Y-94864285D01*
X1229761Y-94769047D01*
X1182142Y-94721428D01*
X1086904Y-94673809D01*
X896428Y-94626190D01*
X658333Y-94626190D01*
X467857Y-94673809D01*
X372619Y-94721428D01*
X324999Y-94769047D01*
X277380Y-94864285D01*
X302380Y-90838095D02*
X302380Y-91409523D01*
X1302380Y-91123809D02*
X302380Y-91123809D01*
X302380Y-91647619D02*
X1302380Y-92314285D01*
X302380Y-92314285D02*
X1302380Y-91647619D01*
X1302380Y-88983333D02*
X826190Y-88650000D01*
X1302380Y-88411904D02*
X302380Y-88411904D01*
X302380Y-88792857D01*
X350000Y-88888095D01*
X397619Y-88935714D01*
X492857Y-88983333D01*
X635714Y-88983333D01*
X730952Y-88935714D01*
X778571Y-88888095D01*
X826190Y-88792857D01*
X826190Y-88411904D01*
X302380Y-89316666D02*
X1302380Y-89983333D01*
X302380Y-89983333D02*
X1302380Y-89316666D01*
X17841666Y-96027380D02*
X17603571Y-97027380D01*
X17413095Y-96313095D01*
X17222619Y-97027380D01*
X16984523Y-96027380D01*
X16222619Y-96979761D02*
X16317857Y-97027380D01*
X16508333Y-97027380D01*
X16603571Y-96979761D01*
X16651190Y-96884523D01*
X16651190Y-96503571D01*
X16603571Y-96408333D01*
X16508333Y-96360714D01*
X16317857Y-96360714D01*
X16222619Y-96408333D01*
X16175000Y-96503571D01*
X16175000Y-96598809D01*
X16651190Y-96694047D01*
X15317857Y-97027380D02*
X15317857Y-96503571D01*
X15365476Y-96408333D01*
X15460714Y-96360714D01*
X15651190Y-96360714D01*
X15746428Y-96408333D01*
X15317857Y-96979761D02*
X15413095Y-97027380D01*
X15651190Y-97027380D01*
X15746428Y-96979761D01*
X15794047Y-96884523D01*
X15794047Y-96789285D01*
X15746428Y-96694047D01*
X15651190Y-96646428D01*
X15413095Y-96646428D01*
X15317857Y-96598809D01*
X14984523Y-96360714D02*
X14603571Y-96360714D01*
X14841666Y-96027380D02*
X14841666Y-96884523D01*
X14794047Y-96979761D01*
X14698809Y-97027380D01*
X14603571Y-97027380D01*
X14270238Y-97027380D02*
X14270238Y-96027380D01*
X13841666Y-97027380D02*
X13841666Y-96503571D01*
X13889285Y-96408333D01*
X13984523Y-96360714D01*
X14127380Y-96360714D01*
X14222619Y-96408333D01*
X14270238Y-96455952D01*
X12984523Y-96979761D02*
X13079761Y-97027380D01*
X13270238Y-97027380D01*
X13365476Y-96979761D01*
X13413095Y-96884523D01*
X13413095Y-96503571D01*
X13365476Y-96408333D01*
X13270238Y-96360714D01*
X13079761Y-96360714D01*
X12984523Y-96408333D01*
X12936904Y-96503571D01*
X12936904Y-96598809D01*
X13413095Y-96694047D01*
X12508333Y-97027380D02*
X12508333Y-96360714D01*
X12508333Y-96551190D02*
X12460714Y-96455952D01*
X12413095Y-96408333D01*
X12317857Y-96360714D01*
X12222619Y-96360714D01*
X11127380Y-96503571D02*
X10794047Y-96503571D01*
X10651190Y-97027380D02*
X11127380Y-97027380D01*
X11127380Y-96027380D01*
X10651190Y-96027380D01*
X10317857Y-97027380D02*
X9794047Y-96360714D01*
X10317857Y-96360714D02*
X9794047Y-97027380D01*
X9555952Y-96360714D02*
X9175000Y-96360714D01*
X9413095Y-96027380D02*
X9413095Y-96884523D01*
X9365476Y-96979761D01*
X9270238Y-97027380D01*
X9175000Y-97027380D01*
X8460714Y-96979761D02*
X8555952Y-97027380D01*
X8746428Y-97027380D01*
X8841666Y-96979761D01*
X8889285Y-96884523D01*
X8889285Y-96503571D01*
X8841666Y-96408333D01*
X8746428Y-96360714D01*
X8555952Y-96360714D01*
X8460714Y-96408333D01*
X8413095Y-96503571D01*
X8413095Y-96598809D01*
X8889285Y-96694047D01*
X7984523Y-97027380D02*
X7984523Y-96360714D01*
X7984523Y-96551190D02*
X7936904Y-96455952D01*
X7889285Y-96408333D01*
X7794047Y-96360714D01*
X7698809Y-96360714D01*
X7365476Y-96360714D02*
X7365476Y-97027380D01*
X7365476Y-96455952D02*
X7317857Y-96408333D01*
X7222619Y-96360714D01*
X7079761Y-96360714D01*
X6984523Y-96408333D01*
X6936904Y-96503571D01*
X6936904Y-97027380D01*
X6032142Y-97027380D02*
X6032142Y-96503571D01*
X6079761Y-96408333D01*
X6175000Y-96360714D01*
X6365476Y-96360714D01*
X6460714Y-96408333D01*
X6032142Y-96979761D02*
X6127380Y-97027380D01*
X6365476Y-97027380D01*
X6460714Y-96979761D01*
X6508333Y-96884523D01*
X6508333Y-96789285D01*
X6460714Y-96694047D01*
X6365476Y-96646428D01*
X6127380Y-96646428D01*
X6032142Y-96598809D01*
X5413095Y-97027380D02*
X5508333Y-96979761D01*
X5555952Y-96884523D01*
X5555952Y-96027380D01*
X4365476Y-96360714D02*
X4127380Y-97027380D01*
X3889285Y-96360714D01*
X2984523Y-97027380D02*
X3555952Y-97027380D01*
X3270238Y-97027380D02*
X3270238Y-96027380D01*
X3365476Y-96170238D01*
X3460714Y-96265476D01*
X3555952Y-96313095D01*
X2555952Y-96932142D02*
X2508333Y-96979761D01*
X2555952Y-97027380D01*
X2603571Y-96979761D01*
X2555952Y-96932142D01*
X2555952Y-97027380D01*
X2175000Y-96027380D02*
X1555952Y-96027380D01*
X1889285Y-96408333D01*
X1746428Y-96408333D01*
X1651190Y-96455952D01*
X1603571Y-96503571D01*
X1555952Y-96598809D01*
X1555952Y-96836904D01*
X1603571Y-96932142D01*
X1651190Y-96979761D01*
X1746428Y-97027380D01*
X2032142Y-97027380D01*
X2127380Y-96979761D01*
X2175000Y-96932142D01*
D11*
%TO.C,JP1*%
X22975000Y-95850000D02*
X22975000Y-93850000D01*
X20175000Y-95850000D02*
X22975000Y-95850000D01*
X20175000Y-93850000D02*
X20175000Y-95850000D01*
X22975000Y-93850000D02*
X20175000Y-93850000D01*
%TO.C,SW1*%
X500000Y-73585000D02*
X4200000Y-73585000D01*
X500000Y-67465000D02*
X500000Y-73585000D01*
X4200000Y-67465000D02*
X500000Y-67465000D01*
X4200000Y-73585000D02*
X4200000Y-67465000D01*
%TO.C,R4*%
X14802064Y-76760000D02*
X13597936Y-76760000D01*
X14802064Y-74940000D02*
X13597936Y-74940000D01*
%TO.C,R3*%
X18085000Y-80597936D02*
X18085000Y-81802064D01*
X16265000Y-80597936D02*
X16265000Y-81802064D01*
%TO.C,R2*%
X11190000Y-81727064D02*
X11190000Y-80522936D01*
X13010000Y-81727064D02*
X13010000Y-80522936D01*
%TO.C,JP1*%
D10*
X19483333Y-94402380D02*
X19483333Y-95116666D01*
X19530952Y-95259523D01*
X19626190Y-95354761D01*
X19769047Y-95402380D01*
X19864285Y-95402380D01*
X19007142Y-95402380D02*
X19007142Y-94402380D01*
X18626190Y-94402380D01*
X18530952Y-94450000D01*
X18483333Y-94497619D01*
X18435714Y-94592857D01*
X18435714Y-94735714D01*
X18483333Y-94830952D01*
X18530952Y-94878571D01*
X18626190Y-94926190D01*
X19007142Y-94926190D01*
X17483333Y-95402380D02*
X18054761Y-95402380D01*
X17769047Y-95402380D02*
X17769047Y-94402380D01*
X17864285Y-94545238D01*
X17959523Y-94640476D01*
X18054761Y-94688095D01*
%TO.C,SW1*%
X2854761Y-69116666D02*
X2902380Y-69259523D01*
X2902380Y-69497619D01*
X2854761Y-69592857D01*
X2807142Y-69640476D01*
X2711904Y-69688095D01*
X2616666Y-69688095D01*
X2521428Y-69640476D01*
X2473809Y-69592857D01*
X2426190Y-69497619D01*
X2378571Y-69307142D01*
X2330952Y-69211904D01*
X2283333Y-69164285D01*
X2188095Y-69116666D01*
X2092857Y-69116666D01*
X1997619Y-69164285D01*
X1950000Y-69211904D01*
X1902380Y-69307142D01*
X1902380Y-69545238D01*
X1950000Y-69688095D01*
X1902380Y-70021428D02*
X2902380Y-70259523D01*
X2188095Y-70450000D01*
X2902380Y-70640476D01*
X1902380Y-70878571D01*
X2902380Y-71783333D02*
X2902380Y-71211904D01*
X2902380Y-71497619D02*
X1902380Y-71497619D01*
X2045238Y-71402380D01*
X2140476Y-71307142D01*
X2188095Y-71211904D01*
%TO.C,R4*%
X14366666Y-74482380D02*
X14700000Y-74006190D01*
X14938095Y-74482380D02*
X14938095Y-73482380D01*
X14557142Y-73482380D01*
X14461904Y-73530000D01*
X14414285Y-73577619D01*
X14366666Y-73672857D01*
X14366666Y-73815714D01*
X14414285Y-73910952D01*
X14461904Y-73958571D01*
X14557142Y-74006190D01*
X14938095Y-74006190D01*
X13509523Y-73815714D02*
X13509523Y-74482380D01*
X13747619Y-73434761D02*
X13985714Y-74149047D01*
X13366666Y-74149047D01*
%TO.C,R3*%
X15807380Y-81033333D02*
X15331190Y-80700000D01*
X15807380Y-80461904D02*
X14807380Y-80461904D01*
X14807380Y-80842857D01*
X14855000Y-80938095D01*
X14902619Y-80985714D01*
X14997857Y-81033333D01*
X15140714Y-81033333D01*
X15235952Y-80985714D01*
X15283571Y-80938095D01*
X15331190Y-80842857D01*
X15331190Y-80461904D01*
X14807380Y-81366666D02*
X14807380Y-81985714D01*
X15188333Y-81652380D01*
X15188333Y-81795238D01*
X15235952Y-81890476D01*
X15283571Y-81938095D01*
X15378809Y-81985714D01*
X15616904Y-81985714D01*
X15712142Y-81938095D01*
X15759761Y-81890476D01*
X15807380Y-81795238D01*
X15807380Y-81509523D01*
X15759761Y-81414285D01*
X15712142Y-81366666D01*
%TO.C,R2*%
X14372380Y-80958333D02*
X13896190Y-80625000D01*
X14372380Y-80386904D02*
X13372380Y-80386904D01*
X13372380Y-80767857D01*
X13420000Y-80863095D01*
X13467619Y-80910714D01*
X13562857Y-80958333D01*
X13705714Y-80958333D01*
X13800952Y-80910714D01*
X13848571Y-80863095D01*
X13896190Y-80767857D01*
X13896190Y-80386904D01*
X13467619Y-81339285D02*
X13420000Y-81386904D01*
X13372380Y-81482142D01*
X13372380Y-81720238D01*
X13420000Y-81815476D01*
X13467619Y-81863095D01*
X13562857Y-81910714D01*
X13658095Y-81910714D01*
X13800952Y-81863095D01*
X14372380Y-81291666D01*
X14372380Y-81910714D01*
%TD*%
M02*
