%TF.GenerationSoftware,KiCad,Pcbnew,(5.1.6-0-10_14)*%
%TF.CreationDate,2020-10-13T22:09:44-04:00*%
%TF.ProjectId,weather_external,77656174-6865-4725-9f65-787465726e61,rev?*%
%TF.SameCoordinates,Original*%
%TF.FileFunction,Copper,L1,Top*%
%TF.FilePolarity,Positive*%
%FSLAX46Y46*%
G04 Gerber Fmt 4.6, Leading zero omitted, Abs format (unit mm)*
G04 Created by KiCad (PCBNEW (5.1.6-0-10_14)) date 2020-10-13 22:09:44*
%MOMM*%
%LPD*%
G01*
G04 APERTURE LIST*
%TA.AperFunction,ComponentPad*%
%ADD10C,1.200000*%
%TD*%
%TA.AperFunction,ComponentPad*%
%ADD11R,1.200000X1.200000*%
%TD*%
%TA.AperFunction,ComponentPad*%
%ADD12O,1.600000X1.600000*%
%TD*%
%TA.AperFunction,ComponentPad*%
%ADD13R,1.600000X1.600000*%
%TD*%
%TA.AperFunction,SMDPad,CuDef*%
%ADD14R,2.500000X1.000000*%
%TD*%
%TA.AperFunction,SMDPad,CuDef*%
%ADD15R,1.000000X1.800000*%
%TD*%
%TA.AperFunction,ComponentPad*%
%ADD16C,1.440000*%
%TD*%
%TA.AperFunction,ComponentPad*%
%ADD17O,1.700000X1.700000*%
%TD*%
%TA.AperFunction,ComponentPad*%
%ADD18R,1.700000X1.700000*%
%TD*%
%TA.AperFunction,ComponentPad*%
%ADD19C,1.600000*%
%TD*%
%TA.AperFunction,SMDPad,CuDef*%
%ADD20R,0.900000X0.800000*%
%TD*%
%TA.AperFunction,ComponentPad*%
%ADD21C,2.000000*%
%TD*%
%TA.AperFunction,ComponentPad*%
%ADD22R,2.000000X2.000000*%
%TD*%
%TA.AperFunction,ViaPad*%
%ADD23C,0.800000*%
%TD*%
%TA.AperFunction,Conductor*%
%ADD24C,0.762000*%
%TD*%
%TA.AperFunction,Conductor*%
%ADD25C,0.381000*%
%TD*%
%TA.AperFunction,Conductor*%
%ADD26C,0.250000*%
%TD*%
%TA.AperFunction,Conductor*%
%ADD27C,0.254000*%
%TD*%
G04 APERTURE END LIST*
D10*
%TO.P,C5,2*%
%TO.N,GND*%
X19100000Y-60950000D03*
D11*
%TO.P,C5,1*%
%TO.N,Net-(C3-Pad1)*%
X17100000Y-60950000D03*
%TD*%
D12*
%TO.P,U3,8*%
%TO.N,Net-(JP1-Pad1)*%
X13045000Y-58425000D03*
%TO.P,U3,4*%
X5425000Y-66045000D03*
%TO.P,U3,7*%
%TO.N,Net-(R5-Pad1)*%
X13045000Y-60965000D03*
%TO.P,U3,3*%
%TO.N,Net-(C2-Pad1)*%
X5425000Y-63505000D03*
%TO.P,U3,6*%
%TO.N,Net-(C4-Pad1)*%
X13045000Y-63505000D03*
%TO.P,U3,2*%
X5425000Y-60965000D03*
%TO.P,U3,5*%
%TO.N,N/C*%
X13045000Y-66045000D03*
D13*
%TO.P,U3,1*%
%TO.N,GND*%
X5425000Y-58425000D03*
%TD*%
D14*
%TO.P,ESP8266-12E1,22*%
%TO.N,Net-(ESP8266-12E1-Pad22)*%
X19050000Y-79650000D03*
%TO.P,ESP8266-12E1,21*%
%TO.N,Net-(ESP8266-12E1-Pad21)*%
X19050000Y-81650000D03*
%TO.P,ESP8266-12E1,20*%
%TO.N,Net-(ESP8266-12E1-Pad20)*%
X19050000Y-83650000D03*
%TO.P,ESP8266-12E1,19*%
%TO.N,Net-(ESP8266-12E1-Pad19)*%
X19050000Y-85650000D03*
%TO.P,ESP8266-12E1,18*%
%TO.N,Net-(ESP8266-12E1-Pad18)*%
X19050000Y-87650000D03*
%TO.P,ESP8266-12E1,17*%
%TO.N,Net-(ESP8266-12E1-Pad17)*%
X19050000Y-89650000D03*
%TO.P,ESP8266-12E1,16*%
%TO.N,GND*%
X19050000Y-91650000D03*
%TO.P,ESP8266-12E1,15*%
X19050000Y-93650000D03*
D15*
%TO.P,ESP8266-12E1,14*%
%TO.N,N/C*%
X16450000Y-95150000D03*
%TO.P,ESP8266-12E1,13*%
X14450000Y-95150000D03*
%TO.P,ESP8266-12E1,12*%
X12450000Y-95150000D03*
%TO.P,ESP8266-12E1,11*%
X10450000Y-95150000D03*
%TO.P,ESP8266-12E1,10*%
X8450000Y-95150000D03*
%TO.P,ESP8266-12E1,9*%
X6450000Y-95150000D03*
D14*
%TO.P,ESP8266-12E1,8*%
%TO.N,Net-(C3-Pad1)*%
X3850000Y-93650000D03*
%TO.P,ESP8266-12E1,7*%
%TO.N,N/C*%
X3850000Y-91650000D03*
%TO.P,ESP8266-12E1,6*%
X3850000Y-89650000D03*
%TO.P,ESP8266-12E1,5*%
X3850000Y-87650000D03*
%TO.P,ESP8266-12E1,4*%
X3850000Y-85650000D03*
%TO.P,ESP8266-12E1,3*%
%TO.N,Net-(ESP8266-12E1-Pad3)*%
X3850000Y-83650000D03*
%TO.P,ESP8266-12E1,2*%
%TO.N,N/C*%
X3850000Y-81650000D03*
%TO.P,ESP8266-12E1,1*%
%TO.N,Net-(C2-Pad1)*%
X3850000Y-79650000D03*
%TD*%
D16*
%TO.P,RV1,1*%
%TO.N,N/C*%
X6000000Y-47025000D03*
%TO.P,RV1,2*%
%TO.N,VCC*%
X3460000Y-49565000D03*
%TO.P,RV1,3*%
%TO.N,Net-(R5-Pad1)*%
X6000000Y-52105000D03*
%TD*%
D17*
%TO.P,JP1,2*%
%TO.N,VCC*%
X1850000Y-58535000D03*
D18*
%TO.P,JP1,1*%
%TO.N,Net-(JP1-Pad1)*%
X1850000Y-61075000D03*
%TD*%
D17*
%TO.P,J4,4*%
%TO.N,Net-(ESP8266-12E1-Pad19)*%
X24020000Y-65750000D03*
%TO.P,J4,3*%
%TO.N,Net-(ESP8266-12E1-Pad20)*%
X21480000Y-65750000D03*
%TO.P,J4,2*%
%TO.N,GND*%
X18940000Y-65750000D03*
D18*
%TO.P,J4,1*%
%TO.N,Net-(C3-Pad1)*%
X16400000Y-65750000D03*
%TD*%
D12*
%TO.P,R5,2*%
%TO.N,Net-(C4-Pad1)*%
X11525000Y-44755000D03*
D19*
%TO.P,R5,1*%
%TO.N,Net-(R5-Pad1)*%
X11525000Y-52375000D03*
%TD*%
D10*
%TO.P,C4,2*%
%TO.N,GND*%
X15950000Y-40050000D03*
D11*
%TO.P,C4,1*%
%TO.N,Net-(C4-Pad1)*%
X15950000Y-42050000D03*
%TD*%
D20*
%TO.P,U1,3*%
%TO.N,Net-(J3-Pad3)*%
X22825000Y-31425000D03*
%TO.P,U1,2*%
%TO.N,Net-(C3-Pad1)*%
X20825000Y-32375000D03*
%TO.P,U1,1*%
%TO.N,GND*%
X20825000Y-30475000D03*
%TD*%
D21*
%TO.P,SW1,1*%
%TO.N,Net-(C2-Pad1)*%
X20925000Y-44450000D03*
%TO.P,SW1,2*%
%TO.N,GND*%
X20925000Y-39950000D03*
%TO.P,SW1,1*%
%TO.N,Net-(C2-Pad1)*%
X27425000Y-44450000D03*
%TO.P,SW1,2*%
%TO.N,GND*%
X27425000Y-39950000D03*
%TD*%
D12*
%TO.P,R4,2*%
%TO.N,Net-(C3-Pad1)*%
X21200000Y-49130000D03*
D19*
%TO.P,R4,1*%
%TO.N,Net-(C2-Pad1)*%
X21200000Y-56750000D03*
%TD*%
D12*
%TO.P,R3,2*%
%TO.N,Net-(C3-Pad1)*%
X25650000Y-49105000D03*
D19*
%TO.P,R3,1*%
%TO.N,Net-(ESP8266-12E1-Pad3)*%
X25650000Y-56725000D03*
%TD*%
D12*
%TO.P,R1,2*%
%TO.N,Net-(C3-Pad1)*%
X29775000Y-49105000D03*
D19*
%TO.P,R1,1*%
%TO.N,Net-(ESP8266-12E1-Pad17)*%
X29775000Y-56725000D03*
%TD*%
D21*
%TO.P,Q1,3*%
%TO.N,Net-(J1-Pad6)*%
X24200000Y-90230000D03*
%TO.P,Q1,2*%
%TO.N,Net-(ESP8266-12E1-Pad18)*%
X24200000Y-87690000D03*
D22*
%TO.P,Q1,1*%
%TO.N,Net-(C2-Pad1)*%
X24200000Y-85150000D03*
%TD*%
D17*
%TO.P,J3,3*%
%TO.N,Net-(J3-Pad3)*%
X27300000Y-31495000D03*
%TO.P,J3,2*%
%TO.N,VCC*%
X27300000Y-34035000D03*
D18*
%TO.P,J3,1*%
%TO.N,Net-(C3-Pad1)*%
X27300000Y-36575000D03*
%TD*%
D17*
%TO.P,J2,2*%
%TO.N,GND*%
X15950000Y-32515000D03*
D18*
%TO.P,J2,1*%
%TO.N,VCC*%
X15950000Y-29975000D03*
%TD*%
D17*
%TO.P,J1,6*%
%TO.N,Net-(J1-Pad6)*%
X30400000Y-77400000D03*
%TO.P,J1,5*%
%TO.N,Net-(ESP8266-12E1-Pad22)*%
X30400000Y-79940000D03*
%TO.P,J1,4*%
%TO.N,Net-(ESP8266-12E1-Pad21)*%
X30400000Y-82480000D03*
%TO.P,J1,3*%
%TO.N,Net-(C3-Pad1)*%
X30400000Y-85020000D03*
%TO.P,J1,2*%
%TO.N,Net-(C2-Pad1)*%
X30400000Y-87560000D03*
D18*
%TO.P,J1,1*%
%TO.N,GND*%
X30400000Y-90100000D03*
%TD*%
D10*
%TO.P,C3,2*%
%TO.N,GND*%
X27475000Y-95050000D03*
D11*
%TO.P,C3,1*%
%TO.N,Net-(C3-Pad1)*%
X27475000Y-97050000D03*
%TD*%
D10*
%TO.P,C2,2*%
%TO.N,GND*%
X31475000Y-39775000D03*
D11*
%TO.P,C2,1*%
%TO.N,Net-(C2-Pad1)*%
X31475000Y-41775000D03*
%TD*%
D23*
%TO.N,Net-(C3-Pad1)*%
X17002347Y-69202347D03*
%TO.N,Net-(JP1-Pad1)*%
X9025000Y-61075000D03*
%TO.N,Net-(ESP8266-12E1-Pad20)*%
X9200000Y-78925000D03*
%TO.N,Net-(ESP8266-12E1-Pad19)*%
X8525000Y-81275000D03*
%TO.N,Net-(ESP8266-12E1-Pad17)*%
X21450000Y-89800000D03*
%TO.N,Net-(ESP8266-12E1-Pad3)*%
X7525000Y-83625000D03*
%TD*%
D24*
%TO.N,VCC*%
X15950000Y-29975000D02*
X15950000Y-29825000D01*
X1875000Y-58510000D02*
X1850000Y-58535000D01*
D25*
X15950000Y-29975000D02*
X14325000Y-29975000D01*
X3460000Y-40840000D02*
X3460000Y-49565000D01*
X14325000Y-29975000D02*
X3460000Y-40840000D01*
X15950000Y-29975000D02*
X16825000Y-29100000D01*
X16825000Y-29100000D02*
X27900000Y-29100000D01*
X28540501Y-32794499D02*
X27300000Y-34035000D01*
X28540501Y-29740501D02*
X28540501Y-32794499D01*
X27900000Y-29100000D02*
X28540501Y-29740501D01*
X3460000Y-56925000D02*
X1850000Y-58535000D01*
X3460000Y-49565000D02*
X3460000Y-56925000D01*
D24*
%TO.N,Net-(C2-Pad1)*%
X31475000Y-41775000D02*
X31475000Y-42000000D01*
D26*
X30100000Y-41775000D02*
X27425000Y-44450000D01*
X31475000Y-41775000D02*
X30100000Y-41775000D01*
X27425000Y-44450000D02*
X20925000Y-44450000D01*
X3850000Y-79650000D02*
X8185000Y-75315000D01*
X26610000Y-87560000D02*
X24200000Y-85150000D01*
X30400000Y-87560000D02*
X26610000Y-87560000D01*
X24200000Y-85150000D02*
X23525001Y-84475001D01*
X15345001Y-82475001D02*
X8185000Y-75315000D01*
X21525001Y-82475001D02*
X15345001Y-82475001D01*
X24200000Y-85150000D02*
X21525001Y-82475001D01*
X8185000Y-75060000D02*
X8185000Y-75315000D01*
X5425000Y-63505000D02*
X8185000Y-66265000D01*
X17615510Y-66819492D02*
X15425002Y-69010000D01*
X21200000Y-60219002D02*
X17615510Y-63803492D01*
X15425002Y-69010000D02*
X8185000Y-69010000D01*
X17615510Y-63803492D02*
X17615510Y-66819492D01*
X21200000Y-56750000D02*
X21200000Y-60219002D01*
X8185000Y-69010000D02*
X8185000Y-75060000D01*
X8185000Y-66265000D02*
X8185000Y-69010000D01*
D24*
%TO.N,Net-(C3-Pad1)*%
X16400000Y-65750000D02*
X16400000Y-65600000D01*
X15900000Y-65750000D02*
X16400000Y-65750000D01*
X17100000Y-60950000D02*
X17100000Y-61075000D01*
X17075000Y-60925000D02*
X17100000Y-60950000D01*
D25*
X23100000Y-32375000D02*
X27300000Y-36575000D01*
X20825000Y-32375000D02*
X23100000Y-32375000D01*
X19534499Y-47464499D02*
X21200000Y-49130000D01*
X19534499Y-39282559D02*
X19534499Y-47464499D01*
X22242058Y-36575000D02*
X19534499Y-39282559D01*
X27300000Y-36575000D02*
X22242058Y-36575000D01*
X25625000Y-49130000D02*
X25650000Y-49105000D01*
X21200000Y-49130000D02*
X25625000Y-49130000D01*
X25650000Y-49105000D02*
X29775000Y-49105000D01*
X17100000Y-53230000D02*
X17100000Y-60950000D01*
X21200000Y-49130000D02*
X17100000Y-53230000D01*
X17100000Y-65050000D02*
X16400000Y-65750000D01*
X17100000Y-60950000D02*
X17100000Y-65050000D01*
X3850000Y-94652902D02*
X3850000Y-93650000D01*
X6247098Y-97050000D02*
X3850000Y-94652902D01*
X27475000Y-97050000D02*
X6247098Y-97050000D01*
D26*
X31575001Y-83844999D02*
X31575001Y-76835999D01*
X30400000Y-85020000D02*
X31575001Y-83844999D01*
X23941349Y-69202347D02*
X17002347Y-69202347D01*
X31575001Y-76835999D02*
X23941349Y-69202347D01*
D25*
%TO.N,Net-(J3-Pad3)*%
X27230000Y-31425000D02*
X27300000Y-31495000D01*
X22825000Y-31425000D02*
X27230000Y-31425000D01*
D26*
%TO.N,Net-(C4-Pad1)*%
X13245000Y-44755000D02*
X15950000Y-42050000D01*
X11525000Y-44755000D02*
X13245000Y-44755000D01*
X7965000Y-63505000D02*
X5425000Y-60965000D01*
X13045000Y-63505000D02*
X7965000Y-63505000D01*
X4299999Y-51980001D02*
X11525000Y-44755000D01*
X4299999Y-59839999D02*
X4299999Y-51980001D01*
X5425000Y-60965000D02*
X4299999Y-59839999D01*
%TO.N,Net-(R5-Pad1)*%
X6270000Y-52375000D02*
X6000000Y-52105000D01*
X11525000Y-52375000D02*
X6270000Y-52375000D01*
%TO.N,Net-(JP1-Pad1)*%
X1850000Y-62470000D02*
X1850000Y-61075000D01*
X5425000Y-66045000D02*
X1850000Y-62470000D01*
X11675000Y-58425000D02*
X9025000Y-61075000D01*
X13045000Y-58425000D02*
X11675000Y-58425000D01*
%TO.N,Net-(ESP8266-12E1-Pad22)*%
X19340000Y-79940000D02*
X19050000Y-79650000D01*
X30400000Y-79940000D02*
X19340000Y-79940000D01*
%TO.N,Net-(ESP8266-12E1-Pad21)*%
X29570000Y-81650000D02*
X19050000Y-81650000D01*
X30400000Y-82480000D02*
X29570000Y-81650000D01*
%TO.N,Net-(ESP8266-12E1-Pad20)*%
X13925000Y-83650000D02*
X19050000Y-83650000D01*
X9200000Y-78925000D02*
X13925000Y-83650000D01*
D24*
%TO.N,Net-(ESP8266-12E1-Pad19)*%
X24020000Y-65750000D02*
X23975000Y-65795000D01*
D26*
X12900000Y-85650000D02*
X19050000Y-85650000D01*
X8525000Y-81275000D02*
X12900000Y-85650000D01*
%TO.N,Net-(ESP8266-12E1-Pad18)*%
X19090000Y-87690000D02*
X19050000Y-87650000D01*
X24200000Y-87690000D02*
X19090000Y-87690000D01*
%TO.N,Net-(ESP8266-12E1-Pad17)*%
X19200000Y-89800000D02*
X19050000Y-89650000D01*
X21450000Y-89800000D02*
X19200000Y-89800000D01*
D24*
%TO.N,Net-(ESP8266-12E1-Pad3)*%
X25525000Y-56850000D02*
X25650000Y-56725000D01*
D26*
X3875000Y-83625000D02*
X3850000Y-83650000D01*
X7525000Y-83625000D02*
X3875000Y-83625000D01*
%TD*%
D27*
%TO.N,GND*%
G36*
X34340000Y-100340000D02*
G01*
X-340000Y-100340000D01*
X-340000Y-60225000D01*
X361928Y-60225000D01*
X361928Y-61925000D01*
X374188Y-62049482D01*
X410498Y-62169180D01*
X469463Y-62279494D01*
X548815Y-62376185D01*
X645506Y-62455537D01*
X755820Y-62514502D01*
X875518Y-62550812D01*
X1000000Y-62563072D01*
X1095490Y-62563072D01*
X1100997Y-62618985D01*
X1139223Y-62745000D01*
X1144454Y-62762246D01*
X1215026Y-62894276D01*
X1253537Y-62941201D01*
X1309999Y-63010001D01*
X1339003Y-63033804D01*
X4026312Y-65721115D01*
X3990000Y-65903665D01*
X3990000Y-66186335D01*
X4045147Y-66463574D01*
X4153320Y-66724727D01*
X4310363Y-66959759D01*
X4510241Y-67159637D01*
X4745273Y-67316680D01*
X5006426Y-67424853D01*
X5283665Y-67480000D01*
X5566335Y-67480000D01*
X5843574Y-67424853D01*
X6104727Y-67316680D01*
X6339759Y-67159637D01*
X6539637Y-66959759D01*
X6696680Y-66724727D01*
X6804853Y-66463574D01*
X6860000Y-66186335D01*
X6860000Y-66014802D01*
X7425000Y-66579803D01*
X7425001Y-68972657D01*
X7421323Y-69010000D01*
X7425000Y-69047333D01*
X7425001Y-75000197D01*
X3913271Y-78511928D01*
X2600000Y-78511928D01*
X2475518Y-78524188D01*
X2355820Y-78560498D01*
X2245506Y-78619463D01*
X2148815Y-78698815D01*
X2069463Y-78795506D01*
X2010498Y-78905820D01*
X1974188Y-79025518D01*
X1961928Y-79150000D01*
X1961928Y-80150000D01*
X1974188Y-80274482D01*
X2010498Y-80394180D01*
X2069463Y-80504494D01*
X2148815Y-80601185D01*
X2208296Y-80650000D01*
X2148815Y-80698815D01*
X2069463Y-80795506D01*
X2010498Y-80905820D01*
X1974188Y-81025518D01*
X1961928Y-81150000D01*
X1961928Y-82150000D01*
X1974188Y-82274482D01*
X2010498Y-82394180D01*
X2069463Y-82504494D01*
X2148815Y-82601185D01*
X2208296Y-82650000D01*
X2148815Y-82698815D01*
X2069463Y-82795506D01*
X2010498Y-82905820D01*
X1974188Y-83025518D01*
X1961928Y-83150000D01*
X1961928Y-84150000D01*
X1974188Y-84274482D01*
X2010498Y-84394180D01*
X2069463Y-84504494D01*
X2148815Y-84601185D01*
X2208296Y-84650000D01*
X2148815Y-84698815D01*
X2069463Y-84795506D01*
X2010498Y-84905820D01*
X1974188Y-85025518D01*
X1961928Y-85150000D01*
X1961928Y-86150000D01*
X1974188Y-86274482D01*
X2010498Y-86394180D01*
X2069463Y-86504494D01*
X2148815Y-86601185D01*
X2208296Y-86650000D01*
X2148815Y-86698815D01*
X2069463Y-86795506D01*
X2010498Y-86905820D01*
X1974188Y-87025518D01*
X1961928Y-87150000D01*
X1961928Y-88150000D01*
X1974188Y-88274482D01*
X2010498Y-88394180D01*
X2069463Y-88504494D01*
X2148815Y-88601185D01*
X2208296Y-88650000D01*
X2148815Y-88698815D01*
X2069463Y-88795506D01*
X2010498Y-88905820D01*
X1974188Y-89025518D01*
X1961928Y-89150000D01*
X1961928Y-90150000D01*
X1974188Y-90274482D01*
X2010498Y-90394180D01*
X2069463Y-90504494D01*
X2148815Y-90601185D01*
X2208296Y-90650000D01*
X2148815Y-90698815D01*
X2069463Y-90795506D01*
X2010498Y-90905820D01*
X1974188Y-91025518D01*
X1961928Y-91150000D01*
X1961928Y-92150000D01*
X1974188Y-92274482D01*
X2010498Y-92394180D01*
X2069463Y-92504494D01*
X2148815Y-92601185D01*
X2208296Y-92650000D01*
X2148815Y-92698815D01*
X2069463Y-92795506D01*
X2010498Y-92905820D01*
X1974188Y-93025518D01*
X1961928Y-93150000D01*
X1961928Y-94150000D01*
X1974188Y-94274482D01*
X2010498Y-94394180D01*
X2069463Y-94504494D01*
X2148815Y-94601185D01*
X2245506Y-94680537D01*
X2355820Y-94739502D01*
X2475518Y-94775812D01*
X2600000Y-94788072D01*
X3033819Y-94788072D01*
X3036444Y-94814727D01*
X3053331Y-94870395D01*
X3083647Y-94970335D01*
X3160301Y-95113744D01*
X3194214Y-95155067D01*
X3263459Y-95239443D01*
X3294966Y-95265300D01*
X5634704Y-97605039D01*
X5660557Y-97636541D01*
X5692057Y-97662392D01*
X5786255Y-97739699D01*
X5929664Y-97816353D01*
X6085272Y-97863556D01*
X6206545Y-97875500D01*
X6206548Y-97875500D01*
X6247098Y-97879494D01*
X6287648Y-97875500D01*
X26279831Y-97875500D01*
X26285498Y-97894180D01*
X26344463Y-98004494D01*
X26423815Y-98101185D01*
X26520506Y-98180537D01*
X26630820Y-98239502D01*
X26750518Y-98275812D01*
X26875000Y-98288072D01*
X28075000Y-98288072D01*
X28199482Y-98275812D01*
X28319180Y-98239502D01*
X28429494Y-98180537D01*
X28526185Y-98101185D01*
X28605537Y-98004494D01*
X28664502Y-97894180D01*
X28700812Y-97774482D01*
X28713072Y-97650000D01*
X28713072Y-96450000D01*
X28700812Y-96325518D01*
X28664502Y-96205820D01*
X28605537Y-96095506D01*
X28526185Y-95998815D01*
X28429494Y-95919463D01*
X28383994Y-95895142D01*
X28441872Y-95837264D01*
X28324766Y-95720158D01*
X28548348Y-95672852D01*
X28649237Y-95451484D01*
X28705000Y-95214687D01*
X28713495Y-94971562D01*
X28674395Y-94731451D01*
X28589202Y-94503582D01*
X28548348Y-94427148D01*
X28324764Y-94379841D01*
X27654605Y-95050000D01*
X27668748Y-95064143D01*
X27489143Y-95243748D01*
X27475000Y-95229605D01*
X27460858Y-95243748D01*
X27281253Y-95064143D01*
X27295395Y-95050000D01*
X26625236Y-94379841D01*
X26401652Y-94427148D01*
X26300763Y-94648516D01*
X26245000Y-94885313D01*
X26236505Y-95128438D01*
X26275605Y-95368549D01*
X26360798Y-95596418D01*
X26401652Y-95672852D01*
X26625234Y-95720158D01*
X26508128Y-95837264D01*
X26566006Y-95895142D01*
X26520506Y-95919463D01*
X26423815Y-95998815D01*
X26344463Y-96095506D01*
X26285498Y-96205820D01*
X26279831Y-96224500D01*
X17560639Y-96224500D01*
X17575812Y-96174482D01*
X17588072Y-96050000D01*
X17588072Y-94749286D01*
X17675518Y-94775812D01*
X17800000Y-94788072D01*
X18764250Y-94785000D01*
X18923000Y-94626250D01*
X18923000Y-93777000D01*
X19177000Y-93777000D01*
X19177000Y-94626250D01*
X19335750Y-94785000D01*
X20300000Y-94788072D01*
X20424482Y-94775812D01*
X20544180Y-94739502D01*
X20654494Y-94680537D01*
X20751185Y-94601185D01*
X20830537Y-94504494D01*
X20889502Y-94394180D01*
X20925812Y-94274482D01*
X20933124Y-94200236D01*
X26804841Y-94200236D01*
X27475000Y-94870395D01*
X28145159Y-94200236D01*
X28097852Y-93976652D01*
X27876484Y-93875763D01*
X27639687Y-93820000D01*
X27396562Y-93811505D01*
X27156451Y-93850605D01*
X26928582Y-93935798D01*
X26852148Y-93976652D01*
X26804841Y-94200236D01*
X20933124Y-94200236D01*
X20938072Y-94150000D01*
X20935000Y-93935750D01*
X20776250Y-93777000D01*
X19177000Y-93777000D01*
X18923000Y-93777000D01*
X17374603Y-93777000D01*
X17304494Y-93719463D01*
X17194180Y-93660498D01*
X17074482Y-93624188D01*
X16950000Y-93611928D01*
X15950000Y-93611928D01*
X15825518Y-93624188D01*
X15705820Y-93660498D01*
X15595506Y-93719463D01*
X15498815Y-93798815D01*
X15450000Y-93858296D01*
X15401185Y-93798815D01*
X15304494Y-93719463D01*
X15194180Y-93660498D01*
X15074482Y-93624188D01*
X14950000Y-93611928D01*
X13950000Y-93611928D01*
X13825518Y-93624188D01*
X13705820Y-93660498D01*
X13595506Y-93719463D01*
X13498815Y-93798815D01*
X13450000Y-93858296D01*
X13401185Y-93798815D01*
X13304494Y-93719463D01*
X13194180Y-93660498D01*
X13074482Y-93624188D01*
X12950000Y-93611928D01*
X11950000Y-93611928D01*
X11825518Y-93624188D01*
X11705820Y-93660498D01*
X11595506Y-93719463D01*
X11498815Y-93798815D01*
X11450000Y-93858296D01*
X11401185Y-93798815D01*
X11304494Y-93719463D01*
X11194180Y-93660498D01*
X11074482Y-93624188D01*
X10950000Y-93611928D01*
X9950000Y-93611928D01*
X9825518Y-93624188D01*
X9705820Y-93660498D01*
X9595506Y-93719463D01*
X9498815Y-93798815D01*
X9450000Y-93858296D01*
X9401185Y-93798815D01*
X9304494Y-93719463D01*
X9194180Y-93660498D01*
X9074482Y-93624188D01*
X8950000Y-93611928D01*
X7950000Y-93611928D01*
X7825518Y-93624188D01*
X7705820Y-93660498D01*
X7595506Y-93719463D01*
X7498815Y-93798815D01*
X7450000Y-93858296D01*
X7401185Y-93798815D01*
X7304494Y-93719463D01*
X7194180Y-93660498D01*
X7074482Y-93624188D01*
X6950000Y-93611928D01*
X5950000Y-93611928D01*
X5825518Y-93624188D01*
X5738072Y-93650714D01*
X5738072Y-93150000D01*
X5725812Y-93025518D01*
X5689502Y-92905820D01*
X5630537Y-92795506D01*
X5551185Y-92698815D01*
X5491704Y-92650000D01*
X5551185Y-92601185D01*
X5630537Y-92504494D01*
X5689502Y-92394180D01*
X5725812Y-92274482D01*
X5738072Y-92150000D01*
X17161928Y-92150000D01*
X17174188Y-92274482D01*
X17210498Y-92394180D01*
X17269463Y-92504494D01*
X17348815Y-92601185D01*
X17408296Y-92650000D01*
X17348815Y-92698815D01*
X17269463Y-92795506D01*
X17210498Y-92905820D01*
X17174188Y-93025518D01*
X17161928Y-93150000D01*
X17165000Y-93364250D01*
X17323750Y-93523000D01*
X18923000Y-93523000D01*
X18923000Y-92673750D01*
X18899250Y-92650000D01*
X18923000Y-92626250D01*
X18923000Y-91777000D01*
X19177000Y-91777000D01*
X19177000Y-92626250D01*
X19200750Y-92650000D01*
X19177000Y-92673750D01*
X19177000Y-93523000D01*
X20776250Y-93523000D01*
X20935000Y-93364250D01*
X20938072Y-93150000D01*
X20925812Y-93025518D01*
X20889502Y-92905820D01*
X20830537Y-92795506D01*
X20751185Y-92698815D01*
X20691704Y-92650000D01*
X20751185Y-92601185D01*
X20830537Y-92504494D01*
X20889502Y-92394180D01*
X20925812Y-92274482D01*
X20938072Y-92150000D01*
X20935000Y-91935750D01*
X20776250Y-91777000D01*
X19177000Y-91777000D01*
X18923000Y-91777000D01*
X17323750Y-91777000D01*
X17165000Y-91935750D01*
X17161928Y-92150000D01*
X5738072Y-92150000D01*
X5738072Y-91150000D01*
X5725812Y-91025518D01*
X5689502Y-90905820D01*
X5630537Y-90795506D01*
X5551185Y-90698815D01*
X5491704Y-90650000D01*
X5551185Y-90601185D01*
X5630537Y-90504494D01*
X5689502Y-90394180D01*
X5725812Y-90274482D01*
X5738072Y-90150000D01*
X5738072Y-89150000D01*
X5725812Y-89025518D01*
X5689502Y-88905820D01*
X5630537Y-88795506D01*
X5551185Y-88698815D01*
X5491704Y-88650000D01*
X5551185Y-88601185D01*
X5630537Y-88504494D01*
X5689502Y-88394180D01*
X5725812Y-88274482D01*
X5738072Y-88150000D01*
X5738072Y-87150000D01*
X5725812Y-87025518D01*
X5689502Y-86905820D01*
X5630537Y-86795506D01*
X5551185Y-86698815D01*
X5491704Y-86650000D01*
X5551185Y-86601185D01*
X5630537Y-86504494D01*
X5689502Y-86394180D01*
X5725812Y-86274482D01*
X5738072Y-86150000D01*
X5738072Y-85150000D01*
X5725812Y-85025518D01*
X5689502Y-84905820D01*
X5630537Y-84795506D01*
X5551185Y-84698815D01*
X5491704Y-84650000D01*
X5551185Y-84601185D01*
X5630537Y-84504494D01*
X5689502Y-84394180D01*
X5692287Y-84385000D01*
X6821289Y-84385000D01*
X6865226Y-84428937D01*
X7034744Y-84542205D01*
X7223102Y-84620226D01*
X7423061Y-84660000D01*
X7626939Y-84660000D01*
X7826898Y-84620226D01*
X8015256Y-84542205D01*
X8184774Y-84428937D01*
X8328937Y-84284774D01*
X8442205Y-84115256D01*
X8520226Y-83926898D01*
X8560000Y-83726939D01*
X8560000Y-83523061D01*
X8520226Y-83323102D01*
X8442205Y-83134744D01*
X8328937Y-82965226D01*
X8184774Y-82821063D01*
X8015256Y-82707795D01*
X7826898Y-82629774D01*
X7626939Y-82590000D01*
X7423061Y-82590000D01*
X7223102Y-82629774D01*
X7034744Y-82707795D01*
X6865226Y-82821063D01*
X6821289Y-82865000D01*
X5667683Y-82865000D01*
X5630537Y-82795506D01*
X5551185Y-82698815D01*
X5491704Y-82650000D01*
X5551185Y-82601185D01*
X5630537Y-82504494D01*
X5689502Y-82394180D01*
X5725812Y-82274482D01*
X5738072Y-82150000D01*
X5738072Y-81150000D01*
X5725812Y-81025518D01*
X5689502Y-80905820D01*
X5630537Y-80795506D01*
X5551185Y-80698815D01*
X5491704Y-80650000D01*
X5551185Y-80601185D01*
X5630537Y-80504494D01*
X5689502Y-80394180D01*
X5725812Y-80274482D01*
X5738072Y-80150000D01*
X5738072Y-79150000D01*
X5725812Y-79025518D01*
X5689502Y-78905820D01*
X5682354Y-78892447D01*
X8185000Y-76389801D01*
X14685198Y-82890000D01*
X14239802Y-82890000D01*
X10235000Y-78885199D01*
X10235000Y-78823061D01*
X10195226Y-78623102D01*
X10117205Y-78434744D01*
X10003937Y-78265226D01*
X9859774Y-78121063D01*
X9690256Y-78007795D01*
X9501898Y-77929774D01*
X9301939Y-77890000D01*
X9098061Y-77890000D01*
X8898102Y-77929774D01*
X8709744Y-78007795D01*
X8540226Y-78121063D01*
X8396063Y-78265226D01*
X8282795Y-78434744D01*
X8204774Y-78623102D01*
X8165000Y-78823061D01*
X8165000Y-79026939D01*
X8204774Y-79226898D01*
X8282795Y-79415256D01*
X8396063Y-79584774D01*
X8540226Y-79728937D01*
X8709744Y-79842205D01*
X8898102Y-79920226D01*
X9098061Y-79960000D01*
X9160199Y-79960000D01*
X13361201Y-84161003D01*
X13384999Y-84190001D01*
X13413997Y-84213799D01*
X13500723Y-84284974D01*
X13577507Y-84326016D01*
X13632753Y-84355546D01*
X13776014Y-84399003D01*
X13887667Y-84410000D01*
X13887676Y-84410000D01*
X13924999Y-84413676D01*
X13962322Y-84410000D01*
X17218954Y-84410000D01*
X17269463Y-84504494D01*
X17348815Y-84601185D01*
X17408296Y-84650000D01*
X17348815Y-84698815D01*
X17269463Y-84795506D01*
X17218954Y-84890000D01*
X13214802Y-84890000D01*
X9560000Y-81235199D01*
X9560000Y-81173061D01*
X9520226Y-80973102D01*
X9442205Y-80784744D01*
X9328937Y-80615226D01*
X9184774Y-80471063D01*
X9015256Y-80357795D01*
X8826898Y-80279774D01*
X8626939Y-80240000D01*
X8423061Y-80240000D01*
X8223102Y-80279774D01*
X8034744Y-80357795D01*
X7865226Y-80471063D01*
X7721063Y-80615226D01*
X7607795Y-80784744D01*
X7529774Y-80973102D01*
X7490000Y-81173061D01*
X7490000Y-81376939D01*
X7529774Y-81576898D01*
X7607795Y-81765256D01*
X7721063Y-81934774D01*
X7865226Y-82078937D01*
X8034744Y-82192205D01*
X8223102Y-82270226D01*
X8423061Y-82310000D01*
X8485199Y-82310000D01*
X12336201Y-86161003D01*
X12359999Y-86190001D01*
X12475724Y-86284974D01*
X12607753Y-86355546D01*
X12751014Y-86399003D01*
X12862667Y-86410000D01*
X12862676Y-86410000D01*
X12899999Y-86413676D01*
X12937322Y-86410000D01*
X17218954Y-86410000D01*
X17269463Y-86504494D01*
X17348815Y-86601185D01*
X17408296Y-86650000D01*
X17348815Y-86698815D01*
X17269463Y-86795506D01*
X17210498Y-86905820D01*
X17174188Y-87025518D01*
X17161928Y-87150000D01*
X17161928Y-88150000D01*
X17174188Y-88274482D01*
X17210498Y-88394180D01*
X17269463Y-88504494D01*
X17348815Y-88601185D01*
X17408296Y-88650000D01*
X17348815Y-88698815D01*
X17269463Y-88795506D01*
X17210498Y-88905820D01*
X17174188Y-89025518D01*
X17161928Y-89150000D01*
X17161928Y-90150000D01*
X17174188Y-90274482D01*
X17210498Y-90394180D01*
X17269463Y-90504494D01*
X17348815Y-90601185D01*
X17408296Y-90650000D01*
X17348815Y-90698815D01*
X17269463Y-90795506D01*
X17210498Y-90905820D01*
X17174188Y-91025518D01*
X17161928Y-91150000D01*
X17165000Y-91364250D01*
X17323750Y-91523000D01*
X18923000Y-91523000D01*
X18923000Y-91503000D01*
X19177000Y-91503000D01*
X19177000Y-91523000D01*
X20776250Y-91523000D01*
X20935000Y-91364250D01*
X20938072Y-91150000D01*
X20925812Y-91025518D01*
X20889502Y-90905820D01*
X20830537Y-90795506D01*
X20751185Y-90698815D01*
X20691704Y-90650000D01*
X20751185Y-90601185D01*
X20767542Y-90581253D01*
X20790226Y-90603937D01*
X20959744Y-90717205D01*
X21148102Y-90795226D01*
X21348061Y-90835000D01*
X21551939Y-90835000D01*
X21751898Y-90795226D01*
X21940256Y-90717205D01*
X22109774Y-90603937D01*
X22253937Y-90459774D01*
X22367205Y-90290256D01*
X22445226Y-90101898D01*
X22485000Y-89901939D01*
X22485000Y-89698061D01*
X22445226Y-89498102D01*
X22367205Y-89309744D01*
X22253937Y-89140226D01*
X22109774Y-88996063D01*
X21940256Y-88882795D01*
X21751898Y-88804774D01*
X21551939Y-88765000D01*
X21348061Y-88765000D01*
X21148102Y-88804774D01*
X20959744Y-88882795D01*
X20895532Y-88925700D01*
X20889502Y-88905820D01*
X20830537Y-88795506D01*
X20751185Y-88698815D01*
X20691704Y-88650000D01*
X20751185Y-88601185D01*
X20830537Y-88504494D01*
X20859665Y-88450000D01*
X22745091Y-88450000D01*
X22751082Y-88464463D01*
X22930013Y-88732252D01*
X23157748Y-88959987D01*
X23157767Y-88960000D01*
X23157748Y-88960013D01*
X22930013Y-89187748D01*
X22751082Y-89455537D01*
X22627832Y-89753088D01*
X22565000Y-90068967D01*
X22565000Y-90391033D01*
X22627832Y-90706912D01*
X22751082Y-91004463D01*
X22930013Y-91272252D01*
X23157748Y-91499987D01*
X23425537Y-91678918D01*
X23723088Y-91802168D01*
X24038967Y-91865000D01*
X24361033Y-91865000D01*
X24676912Y-91802168D01*
X24974463Y-91678918D01*
X25242252Y-91499987D01*
X25469987Y-91272252D01*
X25648918Y-91004463D01*
X25671477Y-90950000D01*
X28911928Y-90950000D01*
X28924188Y-91074482D01*
X28960498Y-91194180D01*
X29019463Y-91304494D01*
X29098815Y-91401185D01*
X29195506Y-91480537D01*
X29305820Y-91539502D01*
X29425518Y-91575812D01*
X29550000Y-91588072D01*
X30114250Y-91585000D01*
X30273000Y-91426250D01*
X30273000Y-90227000D01*
X30527000Y-90227000D01*
X30527000Y-91426250D01*
X30685750Y-91585000D01*
X31250000Y-91588072D01*
X31374482Y-91575812D01*
X31494180Y-91539502D01*
X31604494Y-91480537D01*
X31701185Y-91401185D01*
X31780537Y-91304494D01*
X31839502Y-91194180D01*
X31875812Y-91074482D01*
X31888072Y-90950000D01*
X31885000Y-90385750D01*
X31726250Y-90227000D01*
X30527000Y-90227000D01*
X30273000Y-90227000D01*
X29073750Y-90227000D01*
X28915000Y-90385750D01*
X28911928Y-90950000D01*
X25671477Y-90950000D01*
X25772168Y-90706912D01*
X25835000Y-90391033D01*
X25835000Y-90068967D01*
X25772168Y-89753088D01*
X25648918Y-89455537D01*
X25469987Y-89187748D01*
X25242252Y-88960013D01*
X25242233Y-88960000D01*
X25242252Y-88959987D01*
X25469987Y-88732252D01*
X25648918Y-88464463D01*
X25772168Y-88166912D01*
X25833545Y-87858347D01*
X26046201Y-88071003D01*
X26069999Y-88100001D01*
X26185724Y-88194974D01*
X26317753Y-88265546D01*
X26461014Y-88309003D01*
X26572667Y-88320000D01*
X26572675Y-88320000D01*
X26610000Y-88323676D01*
X26647325Y-88320000D01*
X29121822Y-88320000D01*
X29246525Y-88506632D01*
X29378380Y-88638487D01*
X29305820Y-88660498D01*
X29195506Y-88719463D01*
X29098815Y-88798815D01*
X29019463Y-88895506D01*
X28960498Y-89005820D01*
X28924188Y-89125518D01*
X28911928Y-89250000D01*
X28915000Y-89814250D01*
X29073750Y-89973000D01*
X30273000Y-89973000D01*
X30273000Y-89953000D01*
X30527000Y-89953000D01*
X30527000Y-89973000D01*
X31726250Y-89973000D01*
X31885000Y-89814250D01*
X31888072Y-89250000D01*
X31875812Y-89125518D01*
X31839502Y-89005820D01*
X31780537Y-88895506D01*
X31701185Y-88798815D01*
X31604494Y-88719463D01*
X31494180Y-88660498D01*
X31421620Y-88638487D01*
X31553475Y-88506632D01*
X31715990Y-88263411D01*
X31827932Y-87993158D01*
X31885000Y-87706260D01*
X31885000Y-87413740D01*
X31827932Y-87126842D01*
X31715990Y-86856589D01*
X31553475Y-86613368D01*
X31346632Y-86406525D01*
X31172240Y-86290000D01*
X31346632Y-86173475D01*
X31553475Y-85966632D01*
X31715990Y-85723411D01*
X31827932Y-85453158D01*
X31885000Y-85166260D01*
X31885000Y-84873740D01*
X31841210Y-84653592D01*
X32086005Y-84408797D01*
X32115002Y-84385000D01*
X32209975Y-84269275D01*
X32280547Y-84137246D01*
X32324004Y-83993985D01*
X32335001Y-83882332D01*
X32335001Y-83882323D01*
X32338677Y-83845000D01*
X32335001Y-83807677D01*
X32335001Y-76873321D01*
X32338677Y-76835998D01*
X32335001Y-76798675D01*
X32335001Y-76798666D01*
X32324004Y-76687013D01*
X32280547Y-76543752D01*
X32209975Y-76411723D01*
X32115002Y-76295998D01*
X32086004Y-76272200D01*
X24505153Y-68691350D01*
X24481350Y-68662346D01*
X24365625Y-68567373D01*
X24233596Y-68496801D01*
X24090335Y-68453344D01*
X23978682Y-68442347D01*
X23978671Y-68442347D01*
X23941349Y-68438671D01*
X23904027Y-68442347D01*
X17706058Y-68442347D01*
X17662121Y-68398410D01*
X17492603Y-68285142D01*
X17304245Y-68207121D01*
X17302942Y-68206862D01*
X18126513Y-67383291D01*
X18155511Y-67359493D01*
X18190647Y-67316680D01*
X18250484Y-67243769D01*
X18321056Y-67111739D01*
X18326255Y-67094600D01*
X18435901Y-67146825D01*
X18583110Y-67191476D01*
X18813000Y-67070155D01*
X18813000Y-65877000D01*
X18793000Y-65877000D01*
X18793000Y-65623000D01*
X18813000Y-65623000D01*
X18813000Y-64429845D01*
X19067000Y-64429845D01*
X19067000Y-65623000D01*
X19087000Y-65623000D01*
X19087000Y-65877000D01*
X19067000Y-65877000D01*
X19067000Y-67070155D01*
X19296890Y-67191476D01*
X19444099Y-67146825D01*
X19706920Y-67021641D01*
X19940269Y-66847588D01*
X20135178Y-66631355D01*
X20204805Y-66514466D01*
X20326525Y-66696632D01*
X20533368Y-66903475D01*
X20776589Y-67065990D01*
X21046842Y-67177932D01*
X21333740Y-67235000D01*
X21626260Y-67235000D01*
X21913158Y-67177932D01*
X22183411Y-67065990D01*
X22426632Y-66903475D01*
X22633475Y-66696632D01*
X22750000Y-66522240D01*
X22866525Y-66696632D01*
X23073368Y-66903475D01*
X23316589Y-67065990D01*
X23586842Y-67177932D01*
X23873740Y-67235000D01*
X24166260Y-67235000D01*
X24453158Y-67177932D01*
X24723411Y-67065990D01*
X24966632Y-66903475D01*
X25173475Y-66696632D01*
X25335990Y-66453411D01*
X25447932Y-66183158D01*
X25505000Y-65896260D01*
X25505000Y-65603740D01*
X25447932Y-65316842D01*
X25335990Y-65046589D01*
X25173475Y-64803368D01*
X24966632Y-64596525D01*
X24723411Y-64434010D01*
X24453158Y-64322068D01*
X24166260Y-64265000D01*
X23873740Y-64265000D01*
X23586842Y-64322068D01*
X23316589Y-64434010D01*
X23073368Y-64596525D01*
X22866525Y-64803368D01*
X22750000Y-64977760D01*
X22633475Y-64803368D01*
X22426632Y-64596525D01*
X22183411Y-64434010D01*
X21913158Y-64322068D01*
X21626260Y-64265000D01*
X21333740Y-64265000D01*
X21046842Y-64322068D01*
X20776589Y-64434010D01*
X20533368Y-64596525D01*
X20326525Y-64803368D01*
X20204805Y-64985534D01*
X20135178Y-64868645D01*
X19940269Y-64652412D01*
X19706920Y-64478359D01*
X19444099Y-64353175D01*
X19296890Y-64308524D01*
X19067000Y-64429845D01*
X18813000Y-64429845D01*
X18583110Y-64308524D01*
X18435901Y-64353175D01*
X18375510Y-64381940D01*
X18375510Y-64118293D01*
X21711003Y-60782801D01*
X21740001Y-60759003D01*
X21834974Y-60643278D01*
X21905546Y-60511249D01*
X21949003Y-60367988D01*
X21960000Y-60256335D01*
X21960000Y-60256326D01*
X21963676Y-60219003D01*
X21960000Y-60181680D01*
X21960000Y-57968043D01*
X22114759Y-57864637D01*
X22314637Y-57664759D01*
X22471680Y-57429727D01*
X22579853Y-57168574D01*
X22635000Y-56891335D01*
X22635000Y-56608665D01*
X22630028Y-56583665D01*
X24215000Y-56583665D01*
X24215000Y-56866335D01*
X24270147Y-57143574D01*
X24378320Y-57404727D01*
X24535363Y-57639759D01*
X24735241Y-57839637D01*
X24970273Y-57996680D01*
X25231426Y-58104853D01*
X25508665Y-58160000D01*
X25791335Y-58160000D01*
X26068574Y-58104853D01*
X26329727Y-57996680D01*
X26564759Y-57839637D01*
X26764637Y-57639759D01*
X26921680Y-57404727D01*
X27029853Y-57143574D01*
X27085000Y-56866335D01*
X27085000Y-56583665D01*
X28340000Y-56583665D01*
X28340000Y-56866335D01*
X28395147Y-57143574D01*
X28503320Y-57404727D01*
X28660363Y-57639759D01*
X28860241Y-57839637D01*
X29095273Y-57996680D01*
X29356426Y-58104853D01*
X29633665Y-58160000D01*
X29916335Y-58160000D01*
X30193574Y-58104853D01*
X30454727Y-57996680D01*
X30689759Y-57839637D01*
X30889637Y-57639759D01*
X31046680Y-57404727D01*
X31154853Y-57143574D01*
X31210000Y-56866335D01*
X31210000Y-56583665D01*
X31154853Y-56306426D01*
X31046680Y-56045273D01*
X30889637Y-55810241D01*
X30689759Y-55610363D01*
X30454727Y-55453320D01*
X30193574Y-55345147D01*
X29916335Y-55290000D01*
X29633665Y-55290000D01*
X29356426Y-55345147D01*
X29095273Y-55453320D01*
X28860241Y-55610363D01*
X28660363Y-55810241D01*
X28503320Y-56045273D01*
X28395147Y-56306426D01*
X28340000Y-56583665D01*
X27085000Y-56583665D01*
X27029853Y-56306426D01*
X26921680Y-56045273D01*
X26764637Y-55810241D01*
X26564759Y-55610363D01*
X26329727Y-55453320D01*
X26068574Y-55345147D01*
X25791335Y-55290000D01*
X25508665Y-55290000D01*
X25231426Y-55345147D01*
X24970273Y-55453320D01*
X24735241Y-55610363D01*
X24535363Y-55810241D01*
X24378320Y-56045273D01*
X24270147Y-56306426D01*
X24215000Y-56583665D01*
X22630028Y-56583665D01*
X22579853Y-56331426D01*
X22471680Y-56070273D01*
X22314637Y-55835241D01*
X22114759Y-55635363D01*
X21879727Y-55478320D01*
X21618574Y-55370147D01*
X21341335Y-55315000D01*
X21058665Y-55315000D01*
X20781426Y-55370147D01*
X20520273Y-55478320D01*
X20285241Y-55635363D01*
X20085363Y-55835241D01*
X19928320Y-56070273D01*
X19820147Y-56331426D01*
X19765000Y-56608665D01*
X19765000Y-56891335D01*
X19820147Y-57168574D01*
X19928320Y-57429727D01*
X20085363Y-57664759D01*
X20285241Y-57864637D01*
X20440000Y-57968044D01*
X20440001Y-59904199D01*
X20044347Y-60299853D01*
X19949764Y-60279841D01*
X19279605Y-60950000D01*
X19293748Y-60964143D01*
X19114143Y-61143748D01*
X19100000Y-61129605D01*
X19085858Y-61143748D01*
X18906253Y-60964143D01*
X18920395Y-60950000D01*
X18906253Y-60935858D01*
X19085858Y-60756253D01*
X19100000Y-60770395D01*
X19770159Y-60100236D01*
X19722852Y-59876652D01*
X19501484Y-59775763D01*
X19264687Y-59720000D01*
X19021562Y-59711505D01*
X18781451Y-59750605D01*
X18553582Y-59835798D01*
X18477148Y-59876652D01*
X18429842Y-60100234D01*
X18312736Y-59983128D01*
X18254858Y-60041006D01*
X18230537Y-59995506D01*
X18151185Y-59898815D01*
X18054494Y-59819463D01*
X17944180Y-59760498D01*
X17925500Y-59754831D01*
X17925500Y-53571932D01*
X20953377Y-50544057D01*
X21058665Y-50565000D01*
X21341335Y-50565000D01*
X21618574Y-50509853D01*
X21879727Y-50401680D01*
X22114759Y-50244637D01*
X22314637Y-50044759D01*
X22374278Y-49955500D01*
X24492427Y-49955500D01*
X24535363Y-50019759D01*
X24735241Y-50219637D01*
X24970273Y-50376680D01*
X25231426Y-50484853D01*
X25508665Y-50540000D01*
X25791335Y-50540000D01*
X26068574Y-50484853D01*
X26329727Y-50376680D01*
X26564759Y-50219637D01*
X26764637Y-50019759D01*
X26824278Y-49930500D01*
X28600722Y-49930500D01*
X28660363Y-50019759D01*
X28860241Y-50219637D01*
X29095273Y-50376680D01*
X29356426Y-50484853D01*
X29633665Y-50540000D01*
X29916335Y-50540000D01*
X30193574Y-50484853D01*
X30454727Y-50376680D01*
X30689759Y-50219637D01*
X30889637Y-50019759D01*
X31046680Y-49784727D01*
X31154853Y-49523574D01*
X31210000Y-49246335D01*
X31210000Y-48963665D01*
X31154853Y-48686426D01*
X31046680Y-48425273D01*
X30889637Y-48190241D01*
X30689759Y-47990363D01*
X30454727Y-47833320D01*
X30193574Y-47725147D01*
X29916335Y-47670000D01*
X29633665Y-47670000D01*
X29356426Y-47725147D01*
X29095273Y-47833320D01*
X28860241Y-47990363D01*
X28660363Y-48190241D01*
X28600722Y-48279500D01*
X26824278Y-48279500D01*
X26764637Y-48190241D01*
X26564759Y-47990363D01*
X26329727Y-47833320D01*
X26068574Y-47725147D01*
X25791335Y-47670000D01*
X25508665Y-47670000D01*
X25231426Y-47725147D01*
X24970273Y-47833320D01*
X24735241Y-47990363D01*
X24535363Y-48190241D01*
X24459018Y-48304500D01*
X22374278Y-48304500D01*
X22314637Y-48215241D01*
X22114759Y-48015363D01*
X21879727Y-47858320D01*
X21618574Y-47750147D01*
X21341335Y-47695000D01*
X21058665Y-47695000D01*
X20953376Y-47715944D01*
X20359999Y-47122567D01*
X20359999Y-45985680D01*
X20448088Y-46022168D01*
X20763967Y-46085000D01*
X21086033Y-46085000D01*
X21401912Y-46022168D01*
X21699463Y-45898918D01*
X21967252Y-45719987D01*
X22194987Y-45492252D01*
X22373918Y-45224463D01*
X22379909Y-45210000D01*
X25970091Y-45210000D01*
X25976082Y-45224463D01*
X26155013Y-45492252D01*
X26382748Y-45719987D01*
X26650537Y-45898918D01*
X26948088Y-46022168D01*
X27263967Y-46085000D01*
X27586033Y-46085000D01*
X27901912Y-46022168D01*
X28199463Y-45898918D01*
X28467252Y-45719987D01*
X28694987Y-45492252D01*
X28873918Y-45224463D01*
X28997168Y-44926912D01*
X29060000Y-44611033D01*
X29060000Y-44288967D01*
X28997168Y-43973088D01*
X28991177Y-43958624D01*
X30301216Y-42648586D01*
X30344463Y-42729494D01*
X30423815Y-42826185D01*
X30520506Y-42905537D01*
X30630820Y-42964502D01*
X30750518Y-43000812D01*
X30875000Y-43013072D01*
X31395371Y-43013072D01*
X31475000Y-43020915D01*
X31554630Y-43013072D01*
X32075000Y-43013072D01*
X32199482Y-43000812D01*
X32319180Y-42964502D01*
X32429494Y-42905537D01*
X32526185Y-42826185D01*
X32605537Y-42729494D01*
X32664502Y-42619180D01*
X32700812Y-42499482D01*
X32713072Y-42375000D01*
X32713072Y-41175000D01*
X32700812Y-41050518D01*
X32664502Y-40930820D01*
X32605537Y-40820506D01*
X32526185Y-40723815D01*
X32429494Y-40644463D01*
X32383994Y-40620142D01*
X32441872Y-40562264D01*
X32324766Y-40445158D01*
X32548348Y-40397852D01*
X32649237Y-40176484D01*
X32705000Y-39939687D01*
X32713495Y-39696562D01*
X32674395Y-39456451D01*
X32589202Y-39228582D01*
X32548348Y-39152148D01*
X32324764Y-39104841D01*
X31654605Y-39775000D01*
X31668748Y-39789143D01*
X31489143Y-39968748D01*
X31475000Y-39954605D01*
X31460858Y-39968748D01*
X31281253Y-39789143D01*
X31295395Y-39775000D01*
X30625236Y-39104841D01*
X30401652Y-39152148D01*
X30300763Y-39373516D01*
X30245000Y-39610313D01*
X30236505Y-39853438D01*
X30275605Y-40093549D01*
X30360798Y-40321418D01*
X30401652Y-40397852D01*
X30625234Y-40445158D01*
X30508128Y-40562264D01*
X30566006Y-40620142D01*
X30520506Y-40644463D01*
X30423815Y-40723815D01*
X30344463Y-40820506D01*
X30285498Y-40930820D01*
X30259962Y-41015000D01*
X30137322Y-41015000D01*
X30099999Y-41011324D01*
X30062676Y-41015000D01*
X30062667Y-41015000D01*
X29951014Y-41025997D01*
X29807753Y-41069454D01*
X29675724Y-41140026D01*
X29559999Y-41234999D01*
X29536201Y-41263997D01*
X27916376Y-42883823D01*
X27901912Y-42877832D01*
X27586033Y-42815000D01*
X27263967Y-42815000D01*
X26948088Y-42877832D01*
X26650537Y-43001082D01*
X26382748Y-43180013D01*
X26155013Y-43407748D01*
X25976082Y-43675537D01*
X25970091Y-43690000D01*
X22379909Y-43690000D01*
X22373918Y-43675537D01*
X22194987Y-43407748D01*
X21967252Y-43180013D01*
X21699463Y-43001082D01*
X21401912Y-42877832D01*
X21086033Y-42815000D01*
X20763967Y-42815000D01*
X20448088Y-42877832D01*
X20359999Y-42914320D01*
X20359999Y-41492127D01*
X20666108Y-41572384D01*
X20987595Y-41591718D01*
X21306675Y-41547961D01*
X21611088Y-41442795D01*
X21785044Y-41349814D01*
X21880808Y-41085413D01*
X26469192Y-41085413D01*
X26564956Y-41349814D01*
X26854571Y-41490704D01*
X27166108Y-41572384D01*
X27487595Y-41591718D01*
X27806675Y-41547961D01*
X28111088Y-41442795D01*
X28285044Y-41349814D01*
X28380808Y-41085413D01*
X27425000Y-40129605D01*
X26469192Y-41085413D01*
X21880808Y-41085413D01*
X20925000Y-40129605D01*
X20910858Y-40143748D01*
X20731253Y-39964143D01*
X20745395Y-39950000D01*
X21104605Y-39950000D01*
X22060413Y-40905808D01*
X22324814Y-40810044D01*
X22465704Y-40520429D01*
X22547384Y-40208892D01*
X22559189Y-40012595D01*
X25783282Y-40012595D01*
X25827039Y-40331675D01*
X25932205Y-40636088D01*
X26025186Y-40810044D01*
X26289587Y-40905808D01*
X27245395Y-39950000D01*
X27604605Y-39950000D01*
X28560413Y-40905808D01*
X28824814Y-40810044D01*
X28965704Y-40520429D01*
X29047384Y-40208892D01*
X29066718Y-39887405D01*
X29022961Y-39568325D01*
X28917795Y-39263912D01*
X28824814Y-39089956D01*
X28560413Y-38994192D01*
X27604605Y-39950000D01*
X27245395Y-39950000D01*
X26289587Y-38994192D01*
X26025186Y-39089956D01*
X25884296Y-39379571D01*
X25802616Y-39691108D01*
X25783282Y-40012595D01*
X22559189Y-40012595D01*
X22566718Y-39887405D01*
X22522961Y-39568325D01*
X22417795Y-39263912D01*
X22324814Y-39089956D01*
X22060413Y-38994192D01*
X21104605Y-39950000D01*
X20745395Y-39950000D01*
X20731253Y-39935858D01*
X20910858Y-39756253D01*
X20925000Y-39770395D01*
X21880808Y-38814587D01*
X26469192Y-38814587D01*
X27425000Y-39770395D01*
X28270159Y-38925236D01*
X30804841Y-38925236D01*
X31475000Y-39595395D01*
X32145159Y-38925236D01*
X32097852Y-38701652D01*
X31876484Y-38600763D01*
X31639687Y-38545000D01*
X31396562Y-38536505D01*
X31156451Y-38575605D01*
X30928582Y-38660798D01*
X30852148Y-38701652D01*
X30804841Y-38925236D01*
X28270159Y-38925236D01*
X28380808Y-38814587D01*
X28285044Y-38550186D01*
X27995429Y-38409296D01*
X27683892Y-38327616D01*
X27362405Y-38308282D01*
X27043325Y-38352039D01*
X26738912Y-38457205D01*
X26564956Y-38550186D01*
X26469192Y-38814587D01*
X21880808Y-38814587D01*
X21785044Y-38550186D01*
X21549090Y-38435401D01*
X22583992Y-37400500D01*
X25811928Y-37400500D01*
X25811928Y-37425000D01*
X25824188Y-37549482D01*
X25860498Y-37669180D01*
X25919463Y-37779494D01*
X25998815Y-37876185D01*
X26095506Y-37955537D01*
X26205820Y-38014502D01*
X26325518Y-38050812D01*
X26450000Y-38063072D01*
X28150000Y-38063072D01*
X28274482Y-38050812D01*
X28394180Y-38014502D01*
X28504494Y-37955537D01*
X28601185Y-37876185D01*
X28680537Y-37779494D01*
X28739502Y-37669180D01*
X28775812Y-37549482D01*
X28788072Y-37425000D01*
X28788072Y-35725000D01*
X28775812Y-35600518D01*
X28739502Y-35480820D01*
X28680537Y-35370506D01*
X28601185Y-35273815D01*
X28504494Y-35194463D01*
X28394180Y-35135498D01*
X28321620Y-35113487D01*
X28453475Y-34981632D01*
X28615990Y-34738411D01*
X28727932Y-34468158D01*
X28785000Y-34181260D01*
X28785000Y-33888740D01*
X28756578Y-33745855D01*
X29095540Y-33406893D01*
X29127042Y-33381040D01*
X29230200Y-33255341D01*
X29306854Y-33111933D01*
X29354057Y-32956325D01*
X29366001Y-32835052D01*
X29366001Y-32835043D01*
X29369994Y-32794500D01*
X29366001Y-32753957D01*
X29366001Y-29781051D01*
X29369995Y-29740500D01*
X29366001Y-29699948D01*
X29354057Y-29578675D01*
X29306854Y-29423067D01*
X29256900Y-29329612D01*
X29230200Y-29279658D01*
X29152892Y-29185459D01*
X29127042Y-29153960D01*
X29095541Y-29128108D01*
X28512398Y-28544966D01*
X28486541Y-28513459D01*
X28360842Y-28410301D01*
X28217434Y-28333647D01*
X28061826Y-28286444D01*
X27940553Y-28274500D01*
X27940550Y-28274500D01*
X27900000Y-28270506D01*
X27859450Y-28274500D01*
X16865550Y-28274500D01*
X16825000Y-28270506D01*
X16784449Y-28274500D01*
X16784447Y-28274500D01*
X16663174Y-28286444D01*
X16507566Y-28333647D01*
X16364157Y-28410301D01*
X16270787Y-28486928D01*
X15100000Y-28486928D01*
X14975518Y-28499188D01*
X14855820Y-28535498D01*
X14745506Y-28594463D01*
X14648815Y-28673815D01*
X14569463Y-28770506D01*
X14510498Y-28880820D01*
X14474188Y-29000518D01*
X14461928Y-29125000D01*
X14461928Y-29149500D01*
X14365542Y-29149500D01*
X14324999Y-29145507D01*
X14284456Y-29149500D01*
X14284447Y-29149500D01*
X14163174Y-29161444D01*
X14007566Y-29208647D01*
X13864158Y-29285301D01*
X13738459Y-29388459D01*
X13712608Y-29419959D01*
X2904966Y-40227602D01*
X2873459Y-40253459D01*
X2809270Y-40331675D01*
X2770301Y-40379158D01*
X2760309Y-40397852D01*
X2693647Y-40522567D01*
X2646444Y-40678175D01*
X2638968Y-40754085D01*
X2630506Y-40840000D01*
X2634500Y-40880551D01*
X2634501Y-48486937D01*
X2596238Y-48512503D01*
X2407503Y-48701238D01*
X2259215Y-48923167D01*
X2157072Y-49169761D01*
X2105000Y-49431544D01*
X2105000Y-49698456D01*
X2157072Y-49960239D01*
X2259215Y-50206833D01*
X2407503Y-50428762D01*
X2596238Y-50617497D01*
X2634500Y-50643063D01*
X2634501Y-56583065D01*
X2139145Y-57078422D01*
X1996260Y-57050000D01*
X1703740Y-57050000D01*
X1416842Y-57107068D01*
X1146589Y-57219010D01*
X903368Y-57381525D01*
X696525Y-57588368D01*
X534010Y-57831589D01*
X422068Y-58101842D01*
X365000Y-58388740D01*
X365000Y-58681260D01*
X422068Y-58968158D01*
X534010Y-59238411D01*
X696525Y-59481632D01*
X828380Y-59613487D01*
X755820Y-59635498D01*
X645506Y-59694463D01*
X548815Y-59773815D01*
X469463Y-59870506D01*
X410498Y-59980820D01*
X374188Y-60100518D01*
X361928Y-60225000D01*
X-340000Y-60225000D01*
X-340000Y-25660000D01*
X34340001Y-25660000D01*
X34340000Y-100340000D01*
G37*
X34340000Y-100340000D02*
X-340000Y-100340000D01*
X-340000Y-60225000D01*
X361928Y-60225000D01*
X361928Y-61925000D01*
X374188Y-62049482D01*
X410498Y-62169180D01*
X469463Y-62279494D01*
X548815Y-62376185D01*
X645506Y-62455537D01*
X755820Y-62514502D01*
X875518Y-62550812D01*
X1000000Y-62563072D01*
X1095490Y-62563072D01*
X1100997Y-62618985D01*
X1139223Y-62745000D01*
X1144454Y-62762246D01*
X1215026Y-62894276D01*
X1253537Y-62941201D01*
X1309999Y-63010001D01*
X1339003Y-63033804D01*
X4026312Y-65721115D01*
X3990000Y-65903665D01*
X3990000Y-66186335D01*
X4045147Y-66463574D01*
X4153320Y-66724727D01*
X4310363Y-66959759D01*
X4510241Y-67159637D01*
X4745273Y-67316680D01*
X5006426Y-67424853D01*
X5283665Y-67480000D01*
X5566335Y-67480000D01*
X5843574Y-67424853D01*
X6104727Y-67316680D01*
X6339759Y-67159637D01*
X6539637Y-66959759D01*
X6696680Y-66724727D01*
X6804853Y-66463574D01*
X6860000Y-66186335D01*
X6860000Y-66014802D01*
X7425000Y-66579803D01*
X7425001Y-68972657D01*
X7421323Y-69010000D01*
X7425000Y-69047333D01*
X7425001Y-75000197D01*
X3913271Y-78511928D01*
X2600000Y-78511928D01*
X2475518Y-78524188D01*
X2355820Y-78560498D01*
X2245506Y-78619463D01*
X2148815Y-78698815D01*
X2069463Y-78795506D01*
X2010498Y-78905820D01*
X1974188Y-79025518D01*
X1961928Y-79150000D01*
X1961928Y-80150000D01*
X1974188Y-80274482D01*
X2010498Y-80394180D01*
X2069463Y-80504494D01*
X2148815Y-80601185D01*
X2208296Y-80650000D01*
X2148815Y-80698815D01*
X2069463Y-80795506D01*
X2010498Y-80905820D01*
X1974188Y-81025518D01*
X1961928Y-81150000D01*
X1961928Y-82150000D01*
X1974188Y-82274482D01*
X2010498Y-82394180D01*
X2069463Y-82504494D01*
X2148815Y-82601185D01*
X2208296Y-82650000D01*
X2148815Y-82698815D01*
X2069463Y-82795506D01*
X2010498Y-82905820D01*
X1974188Y-83025518D01*
X1961928Y-83150000D01*
X1961928Y-84150000D01*
X1974188Y-84274482D01*
X2010498Y-84394180D01*
X2069463Y-84504494D01*
X2148815Y-84601185D01*
X2208296Y-84650000D01*
X2148815Y-84698815D01*
X2069463Y-84795506D01*
X2010498Y-84905820D01*
X1974188Y-85025518D01*
X1961928Y-85150000D01*
X1961928Y-86150000D01*
X1974188Y-86274482D01*
X2010498Y-86394180D01*
X2069463Y-86504494D01*
X2148815Y-86601185D01*
X2208296Y-86650000D01*
X2148815Y-86698815D01*
X2069463Y-86795506D01*
X2010498Y-86905820D01*
X1974188Y-87025518D01*
X1961928Y-87150000D01*
X1961928Y-88150000D01*
X1974188Y-88274482D01*
X2010498Y-88394180D01*
X2069463Y-88504494D01*
X2148815Y-88601185D01*
X2208296Y-88650000D01*
X2148815Y-88698815D01*
X2069463Y-88795506D01*
X2010498Y-88905820D01*
X1974188Y-89025518D01*
X1961928Y-89150000D01*
X1961928Y-90150000D01*
X1974188Y-90274482D01*
X2010498Y-90394180D01*
X2069463Y-90504494D01*
X2148815Y-90601185D01*
X2208296Y-90650000D01*
X2148815Y-90698815D01*
X2069463Y-90795506D01*
X2010498Y-90905820D01*
X1974188Y-91025518D01*
X1961928Y-91150000D01*
X1961928Y-92150000D01*
X1974188Y-92274482D01*
X2010498Y-92394180D01*
X2069463Y-92504494D01*
X2148815Y-92601185D01*
X2208296Y-92650000D01*
X2148815Y-92698815D01*
X2069463Y-92795506D01*
X2010498Y-92905820D01*
X1974188Y-93025518D01*
X1961928Y-93150000D01*
X1961928Y-94150000D01*
X1974188Y-94274482D01*
X2010498Y-94394180D01*
X2069463Y-94504494D01*
X2148815Y-94601185D01*
X2245506Y-94680537D01*
X2355820Y-94739502D01*
X2475518Y-94775812D01*
X2600000Y-94788072D01*
X3033819Y-94788072D01*
X3036444Y-94814727D01*
X3053331Y-94870395D01*
X3083647Y-94970335D01*
X3160301Y-95113744D01*
X3194214Y-95155067D01*
X3263459Y-95239443D01*
X3294966Y-95265300D01*
X5634704Y-97605039D01*
X5660557Y-97636541D01*
X5692057Y-97662392D01*
X5786255Y-97739699D01*
X5929664Y-97816353D01*
X6085272Y-97863556D01*
X6206545Y-97875500D01*
X6206548Y-97875500D01*
X6247098Y-97879494D01*
X6287648Y-97875500D01*
X26279831Y-97875500D01*
X26285498Y-97894180D01*
X26344463Y-98004494D01*
X26423815Y-98101185D01*
X26520506Y-98180537D01*
X26630820Y-98239502D01*
X26750518Y-98275812D01*
X26875000Y-98288072D01*
X28075000Y-98288072D01*
X28199482Y-98275812D01*
X28319180Y-98239502D01*
X28429494Y-98180537D01*
X28526185Y-98101185D01*
X28605537Y-98004494D01*
X28664502Y-97894180D01*
X28700812Y-97774482D01*
X28713072Y-97650000D01*
X28713072Y-96450000D01*
X28700812Y-96325518D01*
X28664502Y-96205820D01*
X28605537Y-96095506D01*
X28526185Y-95998815D01*
X28429494Y-95919463D01*
X28383994Y-95895142D01*
X28441872Y-95837264D01*
X28324766Y-95720158D01*
X28548348Y-95672852D01*
X28649237Y-95451484D01*
X28705000Y-95214687D01*
X28713495Y-94971562D01*
X28674395Y-94731451D01*
X28589202Y-94503582D01*
X28548348Y-94427148D01*
X28324764Y-94379841D01*
X27654605Y-95050000D01*
X27668748Y-95064143D01*
X27489143Y-95243748D01*
X27475000Y-95229605D01*
X27460858Y-95243748D01*
X27281253Y-95064143D01*
X27295395Y-95050000D01*
X26625236Y-94379841D01*
X26401652Y-94427148D01*
X26300763Y-94648516D01*
X26245000Y-94885313D01*
X26236505Y-95128438D01*
X26275605Y-95368549D01*
X26360798Y-95596418D01*
X26401652Y-95672852D01*
X26625234Y-95720158D01*
X26508128Y-95837264D01*
X26566006Y-95895142D01*
X26520506Y-95919463D01*
X26423815Y-95998815D01*
X26344463Y-96095506D01*
X26285498Y-96205820D01*
X26279831Y-96224500D01*
X17560639Y-96224500D01*
X17575812Y-96174482D01*
X17588072Y-96050000D01*
X17588072Y-94749286D01*
X17675518Y-94775812D01*
X17800000Y-94788072D01*
X18764250Y-94785000D01*
X18923000Y-94626250D01*
X18923000Y-93777000D01*
X19177000Y-93777000D01*
X19177000Y-94626250D01*
X19335750Y-94785000D01*
X20300000Y-94788072D01*
X20424482Y-94775812D01*
X20544180Y-94739502D01*
X20654494Y-94680537D01*
X20751185Y-94601185D01*
X20830537Y-94504494D01*
X20889502Y-94394180D01*
X20925812Y-94274482D01*
X20933124Y-94200236D01*
X26804841Y-94200236D01*
X27475000Y-94870395D01*
X28145159Y-94200236D01*
X28097852Y-93976652D01*
X27876484Y-93875763D01*
X27639687Y-93820000D01*
X27396562Y-93811505D01*
X27156451Y-93850605D01*
X26928582Y-93935798D01*
X26852148Y-93976652D01*
X26804841Y-94200236D01*
X20933124Y-94200236D01*
X20938072Y-94150000D01*
X20935000Y-93935750D01*
X20776250Y-93777000D01*
X19177000Y-93777000D01*
X18923000Y-93777000D01*
X17374603Y-93777000D01*
X17304494Y-93719463D01*
X17194180Y-93660498D01*
X17074482Y-93624188D01*
X16950000Y-93611928D01*
X15950000Y-93611928D01*
X15825518Y-93624188D01*
X15705820Y-93660498D01*
X15595506Y-93719463D01*
X15498815Y-93798815D01*
X15450000Y-93858296D01*
X15401185Y-93798815D01*
X15304494Y-93719463D01*
X15194180Y-93660498D01*
X15074482Y-93624188D01*
X14950000Y-93611928D01*
X13950000Y-93611928D01*
X13825518Y-93624188D01*
X13705820Y-93660498D01*
X13595506Y-93719463D01*
X13498815Y-93798815D01*
X13450000Y-93858296D01*
X13401185Y-93798815D01*
X13304494Y-93719463D01*
X13194180Y-93660498D01*
X13074482Y-93624188D01*
X12950000Y-93611928D01*
X11950000Y-93611928D01*
X11825518Y-93624188D01*
X11705820Y-93660498D01*
X11595506Y-93719463D01*
X11498815Y-93798815D01*
X11450000Y-93858296D01*
X11401185Y-93798815D01*
X11304494Y-93719463D01*
X11194180Y-93660498D01*
X11074482Y-93624188D01*
X10950000Y-93611928D01*
X9950000Y-93611928D01*
X9825518Y-93624188D01*
X9705820Y-93660498D01*
X9595506Y-93719463D01*
X9498815Y-93798815D01*
X9450000Y-93858296D01*
X9401185Y-93798815D01*
X9304494Y-93719463D01*
X9194180Y-93660498D01*
X9074482Y-93624188D01*
X8950000Y-93611928D01*
X7950000Y-93611928D01*
X7825518Y-93624188D01*
X7705820Y-93660498D01*
X7595506Y-93719463D01*
X7498815Y-93798815D01*
X7450000Y-93858296D01*
X7401185Y-93798815D01*
X7304494Y-93719463D01*
X7194180Y-93660498D01*
X7074482Y-93624188D01*
X6950000Y-93611928D01*
X5950000Y-93611928D01*
X5825518Y-93624188D01*
X5738072Y-93650714D01*
X5738072Y-93150000D01*
X5725812Y-93025518D01*
X5689502Y-92905820D01*
X5630537Y-92795506D01*
X5551185Y-92698815D01*
X5491704Y-92650000D01*
X5551185Y-92601185D01*
X5630537Y-92504494D01*
X5689502Y-92394180D01*
X5725812Y-92274482D01*
X5738072Y-92150000D01*
X17161928Y-92150000D01*
X17174188Y-92274482D01*
X17210498Y-92394180D01*
X17269463Y-92504494D01*
X17348815Y-92601185D01*
X17408296Y-92650000D01*
X17348815Y-92698815D01*
X17269463Y-92795506D01*
X17210498Y-92905820D01*
X17174188Y-93025518D01*
X17161928Y-93150000D01*
X17165000Y-93364250D01*
X17323750Y-93523000D01*
X18923000Y-93523000D01*
X18923000Y-92673750D01*
X18899250Y-92650000D01*
X18923000Y-92626250D01*
X18923000Y-91777000D01*
X19177000Y-91777000D01*
X19177000Y-92626250D01*
X19200750Y-92650000D01*
X19177000Y-92673750D01*
X19177000Y-93523000D01*
X20776250Y-93523000D01*
X20935000Y-93364250D01*
X20938072Y-93150000D01*
X20925812Y-93025518D01*
X20889502Y-92905820D01*
X20830537Y-92795506D01*
X20751185Y-92698815D01*
X20691704Y-92650000D01*
X20751185Y-92601185D01*
X20830537Y-92504494D01*
X20889502Y-92394180D01*
X20925812Y-92274482D01*
X20938072Y-92150000D01*
X20935000Y-91935750D01*
X20776250Y-91777000D01*
X19177000Y-91777000D01*
X18923000Y-91777000D01*
X17323750Y-91777000D01*
X17165000Y-91935750D01*
X17161928Y-92150000D01*
X5738072Y-92150000D01*
X5738072Y-91150000D01*
X5725812Y-91025518D01*
X5689502Y-90905820D01*
X5630537Y-90795506D01*
X5551185Y-90698815D01*
X5491704Y-90650000D01*
X5551185Y-90601185D01*
X5630537Y-90504494D01*
X5689502Y-90394180D01*
X5725812Y-90274482D01*
X5738072Y-90150000D01*
X5738072Y-89150000D01*
X5725812Y-89025518D01*
X5689502Y-88905820D01*
X5630537Y-88795506D01*
X5551185Y-88698815D01*
X5491704Y-88650000D01*
X5551185Y-88601185D01*
X5630537Y-88504494D01*
X5689502Y-88394180D01*
X5725812Y-88274482D01*
X5738072Y-88150000D01*
X5738072Y-87150000D01*
X5725812Y-87025518D01*
X5689502Y-86905820D01*
X5630537Y-86795506D01*
X5551185Y-86698815D01*
X5491704Y-86650000D01*
X5551185Y-86601185D01*
X5630537Y-86504494D01*
X5689502Y-86394180D01*
X5725812Y-86274482D01*
X5738072Y-86150000D01*
X5738072Y-85150000D01*
X5725812Y-85025518D01*
X5689502Y-84905820D01*
X5630537Y-84795506D01*
X5551185Y-84698815D01*
X5491704Y-84650000D01*
X5551185Y-84601185D01*
X5630537Y-84504494D01*
X5689502Y-84394180D01*
X5692287Y-84385000D01*
X6821289Y-84385000D01*
X6865226Y-84428937D01*
X7034744Y-84542205D01*
X7223102Y-84620226D01*
X7423061Y-84660000D01*
X7626939Y-84660000D01*
X7826898Y-84620226D01*
X8015256Y-84542205D01*
X8184774Y-84428937D01*
X8328937Y-84284774D01*
X8442205Y-84115256D01*
X8520226Y-83926898D01*
X8560000Y-83726939D01*
X8560000Y-83523061D01*
X8520226Y-83323102D01*
X8442205Y-83134744D01*
X8328937Y-82965226D01*
X8184774Y-82821063D01*
X8015256Y-82707795D01*
X7826898Y-82629774D01*
X7626939Y-82590000D01*
X7423061Y-82590000D01*
X7223102Y-82629774D01*
X7034744Y-82707795D01*
X6865226Y-82821063D01*
X6821289Y-82865000D01*
X5667683Y-82865000D01*
X5630537Y-82795506D01*
X5551185Y-82698815D01*
X5491704Y-82650000D01*
X5551185Y-82601185D01*
X5630537Y-82504494D01*
X5689502Y-82394180D01*
X5725812Y-82274482D01*
X5738072Y-82150000D01*
X5738072Y-81150000D01*
X5725812Y-81025518D01*
X5689502Y-80905820D01*
X5630537Y-80795506D01*
X5551185Y-80698815D01*
X5491704Y-80650000D01*
X5551185Y-80601185D01*
X5630537Y-80504494D01*
X5689502Y-80394180D01*
X5725812Y-80274482D01*
X5738072Y-80150000D01*
X5738072Y-79150000D01*
X5725812Y-79025518D01*
X5689502Y-78905820D01*
X5682354Y-78892447D01*
X8185000Y-76389801D01*
X14685198Y-82890000D01*
X14239802Y-82890000D01*
X10235000Y-78885199D01*
X10235000Y-78823061D01*
X10195226Y-78623102D01*
X10117205Y-78434744D01*
X10003937Y-78265226D01*
X9859774Y-78121063D01*
X9690256Y-78007795D01*
X9501898Y-77929774D01*
X9301939Y-77890000D01*
X9098061Y-77890000D01*
X8898102Y-77929774D01*
X8709744Y-78007795D01*
X8540226Y-78121063D01*
X8396063Y-78265226D01*
X8282795Y-78434744D01*
X8204774Y-78623102D01*
X8165000Y-78823061D01*
X8165000Y-79026939D01*
X8204774Y-79226898D01*
X8282795Y-79415256D01*
X8396063Y-79584774D01*
X8540226Y-79728937D01*
X8709744Y-79842205D01*
X8898102Y-79920226D01*
X9098061Y-79960000D01*
X9160199Y-79960000D01*
X13361201Y-84161003D01*
X13384999Y-84190001D01*
X13413997Y-84213799D01*
X13500723Y-84284974D01*
X13577507Y-84326016D01*
X13632753Y-84355546D01*
X13776014Y-84399003D01*
X13887667Y-84410000D01*
X13887676Y-84410000D01*
X13924999Y-84413676D01*
X13962322Y-84410000D01*
X17218954Y-84410000D01*
X17269463Y-84504494D01*
X17348815Y-84601185D01*
X17408296Y-84650000D01*
X17348815Y-84698815D01*
X17269463Y-84795506D01*
X17218954Y-84890000D01*
X13214802Y-84890000D01*
X9560000Y-81235199D01*
X9560000Y-81173061D01*
X9520226Y-80973102D01*
X9442205Y-80784744D01*
X9328937Y-80615226D01*
X9184774Y-80471063D01*
X9015256Y-80357795D01*
X8826898Y-80279774D01*
X8626939Y-80240000D01*
X8423061Y-80240000D01*
X8223102Y-80279774D01*
X8034744Y-80357795D01*
X7865226Y-80471063D01*
X7721063Y-80615226D01*
X7607795Y-80784744D01*
X7529774Y-80973102D01*
X7490000Y-81173061D01*
X7490000Y-81376939D01*
X7529774Y-81576898D01*
X7607795Y-81765256D01*
X7721063Y-81934774D01*
X7865226Y-82078937D01*
X8034744Y-82192205D01*
X8223102Y-82270226D01*
X8423061Y-82310000D01*
X8485199Y-82310000D01*
X12336201Y-86161003D01*
X12359999Y-86190001D01*
X12475724Y-86284974D01*
X12607753Y-86355546D01*
X12751014Y-86399003D01*
X12862667Y-86410000D01*
X12862676Y-86410000D01*
X12899999Y-86413676D01*
X12937322Y-86410000D01*
X17218954Y-86410000D01*
X17269463Y-86504494D01*
X17348815Y-86601185D01*
X17408296Y-86650000D01*
X17348815Y-86698815D01*
X17269463Y-86795506D01*
X17210498Y-86905820D01*
X17174188Y-87025518D01*
X17161928Y-87150000D01*
X17161928Y-88150000D01*
X17174188Y-88274482D01*
X17210498Y-88394180D01*
X17269463Y-88504494D01*
X17348815Y-88601185D01*
X17408296Y-88650000D01*
X17348815Y-88698815D01*
X17269463Y-88795506D01*
X17210498Y-88905820D01*
X17174188Y-89025518D01*
X17161928Y-89150000D01*
X17161928Y-90150000D01*
X17174188Y-90274482D01*
X17210498Y-90394180D01*
X17269463Y-90504494D01*
X17348815Y-90601185D01*
X17408296Y-90650000D01*
X17348815Y-90698815D01*
X17269463Y-90795506D01*
X17210498Y-90905820D01*
X17174188Y-91025518D01*
X17161928Y-91150000D01*
X17165000Y-91364250D01*
X17323750Y-91523000D01*
X18923000Y-91523000D01*
X18923000Y-91503000D01*
X19177000Y-91503000D01*
X19177000Y-91523000D01*
X20776250Y-91523000D01*
X20935000Y-91364250D01*
X20938072Y-91150000D01*
X20925812Y-91025518D01*
X20889502Y-90905820D01*
X20830537Y-90795506D01*
X20751185Y-90698815D01*
X20691704Y-90650000D01*
X20751185Y-90601185D01*
X20767542Y-90581253D01*
X20790226Y-90603937D01*
X20959744Y-90717205D01*
X21148102Y-90795226D01*
X21348061Y-90835000D01*
X21551939Y-90835000D01*
X21751898Y-90795226D01*
X21940256Y-90717205D01*
X22109774Y-90603937D01*
X22253937Y-90459774D01*
X22367205Y-90290256D01*
X22445226Y-90101898D01*
X22485000Y-89901939D01*
X22485000Y-89698061D01*
X22445226Y-89498102D01*
X22367205Y-89309744D01*
X22253937Y-89140226D01*
X22109774Y-88996063D01*
X21940256Y-88882795D01*
X21751898Y-88804774D01*
X21551939Y-88765000D01*
X21348061Y-88765000D01*
X21148102Y-88804774D01*
X20959744Y-88882795D01*
X20895532Y-88925700D01*
X20889502Y-88905820D01*
X20830537Y-88795506D01*
X20751185Y-88698815D01*
X20691704Y-88650000D01*
X20751185Y-88601185D01*
X20830537Y-88504494D01*
X20859665Y-88450000D01*
X22745091Y-88450000D01*
X22751082Y-88464463D01*
X22930013Y-88732252D01*
X23157748Y-88959987D01*
X23157767Y-88960000D01*
X23157748Y-88960013D01*
X22930013Y-89187748D01*
X22751082Y-89455537D01*
X22627832Y-89753088D01*
X22565000Y-90068967D01*
X22565000Y-90391033D01*
X22627832Y-90706912D01*
X22751082Y-91004463D01*
X22930013Y-91272252D01*
X23157748Y-91499987D01*
X23425537Y-91678918D01*
X23723088Y-91802168D01*
X24038967Y-91865000D01*
X24361033Y-91865000D01*
X24676912Y-91802168D01*
X24974463Y-91678918D01*
X25242252Y-91499987D01*
X25469987Y-91272252D01*
X25648918Y-91004463D01*
X25671477Y-90950000D01*
X28911928Y-90950000D01*
X28924188Y-91074482D01*
X28960498Y-91194180D01*
X29019463Y-91304494D01*
X29098815Y-91401185D01*
X29195506Y-91480537D01*
X29305820Y-91539502D01*
X29425518Y-91575812D01*
X29550000Y-91588072D01*
X30114250Y-91585000D01*
X30273000Y-91426250D01*
X30273000Y-90227000D01*
X30527000Y-90227000D01*
X30527000Y-91426250D01*
X30685750Y-91585000D01*
X31250000Y-91588072D01*
X31374482Y-91575812D01*
X31494180Y-91539502D01*
X31604494Y-91480537D01*
X31701185Y-91401185D01*
X31780537Y-91304494D01*
X31839502Y-91194180D01*
X31875812Y-91074482D01*
X31888072Y-90950000D01*
X31885000Y-90385750D01*
X31726250Y-90227000D01*
X30527000Y-90227000D01*
X30273000Y-90227000D01*
X29073750Y-90227000D01*
X28915000Y-90385750D01*
X28911928Y-90950000D01*
X25671477Y-90950000D01*
X25772168Y-90706912D01*
X25835000Y-90391033D01*
X25835000Y-90068967D01*
X25772168Y-89753088D01*
X25648918Y-89455537D01*
X25469987Y-89187748D01*
X25242252Y-88960013D01*
X25242233Y-88960000D01*
X25242252Y-88959987D01*
X25469987Y-88732252D01*
X25648918Y-88464463D01*
X25772168Y-88166912D01*
X25833545Y-87858347D01*
X26046201Y-88071003D01*
X26069999Y-88100001D01*
X26185724Y-88194974D01*
X26317753Y-88265546D01*
X26461014Y-88309003D01*
X26572667Y-88320000D01*
X26572675Y-88320000D01*
X26610000Y-88323676D01*
X26647325Y-88320000D01*
X29121822Y-88320000D01*
X29246525Y-88506632D01*
X29378380Y-88638487D01*
X29305820Y-88660498D01*
X29195506Y-88719463D01*
X29098815Y-88798815D01*
X29019463Y-88895506D01*
X28960498Y-89005820D01*
X28924188Y-89125518D01*
X28911928Y-89250000D01*
X28915000Y-89814250D01*
X29073750Y-89973000D01*
X30273000Y-89973000D01*
X30273000Y-89953000D01*
X30527000Y-89953000D01*
X30527000Y-89973000D01*
X31726250Y-89973000D01*
X31885000Y-89814250D01*
X31888072Y-89250000D01*
X31875812Y-89125518D01*
X31839502Y-89005820D01*
X31780537Y-88895506D01*
X31701185Y-88798815D01*
X31604494Y-88719463D01*
X31494180Y-88660498D01*
X31421620Y-88638487D01*
X31553475Y-88506632D01*
X31715990Y-88263411D01*
X31827932Y-87993158D01*
X31885000Y-87706260D01*
X31885000Y-87413740D01*
X31827932Y-87126842D01*
X31715990Y-86856589D01*
X31553475Y-86613368D01*
X31346632Y-86406525D01*
X31172240Y-86290000D01*
X31346632Y-86173475D01*
X31553475Y-85966632D01*
X31715990Y-85723411D01*
X31827932Y-85453158D01*
X31885000Y-85166260D01*
X31885000Y-84873740D01*
X31841210Y-84653592D01*
X32086005Y-84408797D01*
X32115002Y-84385000D01*
X32209975Y-84269275D01*
X32280547Y-84137246D01*
X32324004Y-83993985D01*
X32335001Y-83882332D01*
X32335001Y-83882323D01*
X32338677Y-83845000D01*
X32335001Y-83807677D01*
X32335001Y-76873321D01*
X32338677Y-76835998D01*
X32335001Y-76798675D01*
X32335001Y-76798666D01*
X32324004Y-76687013D01*
X32280547Y-76543752D01*
X32209975Y-76411723D01*
X32115002Y-76295998D01*
X32086004Y-76272200D01*
X24505153Y-68691350D01*
X24481350Y-68662346D01*
X24365625Y-68567373D01*
X24233596Y-68496801D01*
X24090335Y-68453344D01*
X23978682Y-68442347D01*
X23978671Y-68442347D01*
X23941349Y-68438671D01*
X23904027Y-68442347D01*
X17706058Y-68442347D01*
X17662121Y-68398410D01*
X17492603Y-68285142D01*
X17304245Y-68207121D01*
X17302942Y-68206862D01*
X18126513Y-67383291D01*
X18155511Y-67359493D01*
X18190647Y-67316680D01*
X18250484Y-67243769D01*
X18321056Y-67111739D01*
X18326255Y-67094600D01*
X18435901Y-67146825D01*
X18583110Y-67191476D01*
X18813000Y-67070155D01*
X18813000Y-65877000D01*
X18793000Y-65877000D01*
X18793000Y-65623000D01*
X18813000Y-65623000D01*
X18813000Y-64429845D01*
X19067000Y-64429845D01*
X19067000Y-65623000D01*
X19087000Y-65623000D01*
X19087000Y-65877000D01*
X19067000Y-65877000D01*
X19067000Y-67070155D01*
X19296890Y-67191476D01*
X19444099Y-67146825D01*
X19706920Y-67021641D01*
X19940269Y-66847588D01*
X20135178Y-66631355D01*
X20204805Y-66514466D01*
X20326525Y-66696632D01*
X20533368Y-66903475D01*
X20776589Y-67065990D01*
X21046842Y-67177932D01*
X21333740Y-67235000D01*
X21626260Y-67235000D01*
X21913158Y-67177932D01*
X22183411Y-67065990D01*
X22426632Y-66903475D01*
X22633475Y-66696632D01*
X22750000Y-66522240D01*
X22866525Y-66696632D01*
X23073368Y-66903475D01*
X23316589Y-67065990D01*
X23586842Y-67177932D01*
X23873740Y-67235000D01*
X24166260Y-67235000D01*
X24453158Y-67177932D01*
X24723411Y-67065990D01*
X24966632Y-66903475D01*
X25173475Y-66696632D01*
X25335990Y-66453411D01*
X25447932Y-66183158D01*
X25505000Y-65896260D01*
X25505000Y-65603740D01*
X25447932Y-65316842D01*
X25335990Y-65046589D01*
X25173475Y-64803368D01*
X24966632Y-64596525D01*
X24723411Y-64434010D01*
X24453158Y-64322068D01*
X24166260Y-64265000D01*
X23873740Y-64265000D01*
X23586842Y-64322068D01*
X23316589Y-64434010D01*
X23073368Y-64596525D01*
X22866525Y-64803368D01*
X22750000Y-64977760D01*
X22633475Y-64803368D01*
X22426632Y-64596525D01*
X22183411Y-64434010D01*
X21913158Y-64322068D01*
X21626260Y-64265000D01*
X21333740Y-64265000D01*
X21046842Y-64322068D01*
X20776589Y-64434010D01*
X20533368Y-64596525D01*
X20326525Y-64803368D01*
X20204805Y-64985534D01*
X20135178Y-64868645D01*
X19940269Y-64652412D01*
X19706920Y-64478359D01*
X19444099Y-64353175D01*
X19296890Y-64308524D01*
X19067000Y-64429845D01*
X18813000Y-64429845D01*
X18583110Y-64308524D01*
X18435901Y-64353175D01*
X18375510Y-64381940D01*
X18375510Y-64118293D01*
X21711003Y-60782801D01*
X21740001Y-60759003D01*
X21834974Y-60643278D01*
X21905546Y-60511249D01*
X21949003Y-60367988D01*
X21960000Y-60256335D01*
X21960000Y-60256326D01*
X21963676Y-60219003D01*
X21960000Y-60181680D01*
X21960000Y-57968043D01*
X22114759Y-57864637D01*
X22314637Y-57664759D01*
X22471680Y-57429727D01*
X22579853Y-57168574D01*
X22635000Y-56891335D01*
X22635000Y-56608665D01*
X22630028Y-56583665D01*
X24215000Y-56583665D01*
X24215000Y-56866335D01*
X24270147Y-57143574D01*
X24378320Y-57404727D01*
X24535363Y-57639759D01*
X24735241Y-57839637D01*
X24970273Y-57996680D01*
X25231426Y-58104853D01*
X25508665Y-58160000D01*
X25791335Y-58160000D01*
X26068574Y-58104853D01*
X26329727Y-57996680D01*
X26564759Y-57839637D01*
X26764637Y-57639759D01*
X26921680Y-57404727D01*
X27029853Y-57143574D01*
X27085000Y-56866335D01*
X27085000Y-56583665D01*
X28340000Y-56583665D01*
X28340000Y-56866335D01*
X28395147Y-57143574D01*
X28503320Y-57404727D01*
X28660363Y-57639759D01*
X28860241Y-57839637D01*
X29095273Y-57996680D01*
X29356426Y-58104853D01*
X29633665Y-58160000D01*
X29916335Y-58160000D01*
X30193574Y-58104853D01*
X30454727Y-57996680D01*
X30689759Y-57839637D01*
X30889637Y-57639759D01*
X31046680Y-57404727D01*
X31154853Y-57143574D01*
X31210000Y-56866335D01*
X31210000Y-56583665D01*
X31154853Y-56306426D01*
X31046680Y-56045273D01*
X30889637Y-55810241D01*
X30689759Y-55610363D01*
X30454727Y-55453320D01*
X30193574Y-55345147D01*
X29916335Y-55290000D01*
X29633665Y-55290000D01*
X29356426Y-55345147D01*
X29095273Y-55453320D01*
X28860241Y-55610363D01*
X28660363Y-55810241D01*
X28503320Y-56045273D01*
X28395147Y-56306426D01*
X28340000Y-56583665D01*
X27085000Y-56583665D01*
X27029853Y-56306426D01*
X26921680Y-56045273D01*
X26764637Y-55810241D01*
X26564759Y-55610363D01*
X26329727Y-55453320D01*
X26068574Y-55345147D01*
X25791335Y-55290000D01*
X25508665Y-55290000D01*
X25231426Y-55345147D01*
X24970273Y-55453320D01*
X24735241Y-55610363D01*
X24535363Y-55810241D01*
X24378320Y-56045273D01*
X24270147Y-56306426D01*
X24215000Y-56583665D01*
X22630028Y-56583665D01*
X22579853Y-56331426D01*
X22471680Y-56070273D01*
X22314637Y-55835241D01*
X22114759Y-55635363D01*
X21879727Y-55478320D01*
X21618574Y-55370147D01*
X21341335Y-55315000D01*
X21058665Y-55315000D01*
X20781426Y-55370147D01*
X20520273Y-55478320D01*
X20285241Y-55635363D01*
X20085363Y-55835241D01*
X19928320Y-56070273D01*
X19820147Y-56331426D01*
X19765000Y-56608665D01*
X19765000Y-56891335D01*
X19820147Y-57168574D01*
X19928320Y-57429727D01*
X20085363Y-57664759D01*
X20285241Y-57864637D01*
X20440000Y-57968044D01*
X20440001Y-59904199D01*
X20044347Y-60299853D01*
X19949764Y-60279841D01*
X19279605Y-60950000D01*
X19293748Y-60964143D01*
X19114143Y-61143748D01*
X19100000Y-61129605D01*
X19085858Y-61143748D01*
X18906253Y-60964143D01*
X18920395Y-60950000D01*
X18906253Y-60935858D01*
X19085858Y-60756253D01*
X19100000Y-60770395D01*
X19770159Y-60100236D01*
X19722852Y-59876652D01*
X19501484Y-59775763D01*
X19264687Y-59720000D01*
X19021562Y-59711505D01*
X18781451Y-59750605D01*
X18553582Y-59835798D01*
X18477148Y-59876652D01*
X18429842Y-60100234D01*
X18312736Y-59983128D01*
X18254858Y-60041006D01*
X18230537Y-59995506D01*
X18151185Y-59898815D01*
X18054494Y-59819463D01*
X17944180Y-59760498D01*
X17925500Y-59754831D01*
X17925500Y-53571932D01*
X20953377Y-50544057D01*
X21058665Y-50565000D01*
X21341335Y-50565000D01*
X21618574Y-50509853D01*
X21879727Y-50401680D01*
X22114759Y-50244637D01*
X22314637Y-50044759D01*
X22374278Y-49955500D01*
X24492427Y-49955500D01*
X24535363Y-50019759D01*
X24735241Y-50219637D01*
X24970273Y-50376680D01*
X25231426Y-50484853D01*
X25508665Y-50540000D01*
X25791335Y-50540000D01*
X26068574Y-50484853D01*
X26329727Y-50376680D01*
X26564759Y-50219637D01*
X26764637Y-50019759D01*
X26824278Y-49930500D01*
X28600722Y-49930500D01*
X28660363Y-50019759D01*
X28860241Y-50219637D01*
X29095273Y-50376680D01*
X29356426Y-50484853D01*
X29633665Y-50540000D01*
X29916335Y-50540000D01*
X30193574Y-50484853D01*
X30454727Y-50376680D01*
X30689759Y-50219637D01*
X30889637Y-50019759D01*
X31046680Y-49784727D01*
X31154853Y-49523574D01*
X31210000Y-49246335D01*
X31210000Y-48963665D01*
X31154853Y-48686426D01*
X31046680Y-48425273D01*
X30889637Y-48190241D01*
X30689759Y-47990363D01*
X30454727Y-47833320D01*
X30193574Y-47725147D01*
X29916335Y-47670000D01*
X29633665Y-47670000D01*
X29356426Y-47725147D01*
X29095273Y-47833320D01*
X28860241Y-47990363D01*
X28660363Y-48190241D01*
X28600722Y-48279500D01*
X26824278Y-48279500D01*
X26764637Y-48190241D01*
X26564759Y-47990363D01*
X26329727Y-47833320D01*
X26068574Y-47725147D01*
X25791335Y-47670000D01*
X25508665Y-47670000D01*
X25231426Y-47725147D01*
X24970273Y-47833320D01*
X24735241Y-47990363D01*
X24535363Y-48190241D01*
X24459018Y-48304500D01*
X22374278Y-48304500D01*
X22314637Y-48215241D01*
X22114759Y-48015363D01*
X21879727Y-47858320D01*
X21618574Y-47750147D01*
X21341335Y-47695000D01*
X21058665Y-47695000D01*
X20953376Y-47715944D01*
X20359999Y-47122567D01*
X20359999Y-45985680D01*
X20448088Y-46022168D01*
X20763967Y-46085000D01*
X21086033Y-46085000D01*
X21401912Y-46022168D01*
X21699463Y-45898918D01*
X21967252Y-45719987D01*
X22194987Y-45492252D01*
X22373918Y-45224463D01*
X22379909Y-45210000D01*
X25970091Y-45210000D01*
X25976082Y-45224463D01*
X26155013Y-45492252D01*
X26382748Y-45719987D01*
X26650537Y-45898918D01*
X26948088Y-46022168D01*
X27263967Y-46085000D01*
X27586033Y-46085000D01*
X27901912Y-46022168D01*
X28199463Y-45898918D01*
X28467252Y-45719987D01*
X28694987Y-45492252D01*
X28873918Y-45224463D01*
X28997168Y-44926912D01*
X29060000Y-44611033D01*
X29060000Y-44288967D01*
X28997168Y-43973088D01*
X28991177Y-43958624D01*
X30301216Y-42648586D01*
X30344463Y-42729494D01*
X30423815Y-42826185D01*
X30520506Y-42905537D01*
X30630820Y-42964502D01*
X30750518Y-43000812D01*
X30875000Y-43013072D01*
X31395371Y-43013072D01*
X31475000Y-43020915D01*
X31554630Y-43013072D01*
X32075000Y-43013072D01*
X32199482Y-43000812D01*
X32319180Y-42964502D01*
X32429494Y-42905537D01*
X32526185Y-42826185D01*
X32605537Y-42729494D01*
X32664502Y-42619180D01*
X32700812Y-42499482D01*
X32713072Y-42375000D01*
X32713072Y-41175000D01*
X32700812Y-41050518D01*
X32664502Y-40930820D01*
X32605537Y-40820506D01*
X32526185Y-40723815D01*
X32429494Y-40644463D01*
X32383994Y-40620142D01*
X32441872Y-40562264D01*
X32324766Y-40445158D01*
X32548348Y-40397852D01*
X32649237Y-40176484D01*
X32705000Y-39939687D01*
X32713495Y-39696562D01*
X32674395Y-39456451D01*
X32589202Y-39228582D01*
X32548348Y-39152148D01*
X32324764Y-39104841D01*
X31654605Y-39775000D01*
X31668748Y-39789143D01*
X31489143Y-39968748D01*
X31475000Y-39954605D01*
X31460858Y-39968748D01*
X31281253Y-39789143D01*
X31295395Y-39775000D01*
X30625236Y-39104841D01*
X30401652Y-39152148D01*
X30300763Y-39373516D01*
X30245000Y-39610313D01*
X30236505Y-39853438D01*
X30275605Y-40093549D01*
X30360798Y-40321418D01*
X30401652Y-40397852D01*
X30625234Y-40445158D01*
X30508128Y-40562264D01*
X30566006Y-40620142D01*
X30520506Y-40644463D01*
X30423815Y-40723815D01*
X30344463Y-40820506D01*
X30285498Y-40930820D01*
X30259962Y-41015000D01*
X30137322Y-41015000D01*
X30099999Y-41011324D01*
X30062676Y-41015000D01*
X30062667Y-41015000D01*
X29951014Y-41025997D01*
X29807753Y-41069454D01*
X29675724Y-41140026D01*
X29559999Y-41234999D01*
X29536201Y-41263997D01*
X27916376Y-42883823D01*
X27901912Y-42877832D01*
X27586033Y-42815000D01*
X27263967Y-42815000D01*
X26948088Y-42877832D01*
X26650537Y-43001082D01*
X26382748Y-43180013D01*
X26155013Y-43407748D01*
X25976082Y-43675537D01*
X25970091Y-43690000D01*
X22379909Y-43690000D01*
X22373918Y-43675537D01*
X22194987Y-43407748D01*
X21967252Y-43180013D01*
X21699463Y-43001082D01*
X21401912Y-42877832D01*
X21086033Y-42815000D01*
X20763967Y-42815000D01*
X20448088Y-42877832D01*
X20359999Y-42914320D01*
X20359999Y-41492127D01*
X20666108Y-41572384D01*
X20987595Y-41591718D01*
X21306675Y-41547961D01*
X21611088Y-41442795D01*
X21785044Y-41349814D01*
X21880808Y-41085413D01*
X26469192Y-41085413D01*
X26564956Y-41349814D01*
X26854571Y-41490704D01*
X27166108Y-41572384D01*
X27487595Y-41591718D01*
X27806675Y-41547961D01*
X28111088Y-41442795D01*
X28285044Y-41349814D01*
X28380808Y-41085413D01*
X27425000Y-40129605D01*
X26469192Y-41085413D01*
X21880808Y-41085413D01*
X20925000Y-40129605D01*
X20910858Y-40143748D01*
X20731253Y-39964143D01*
X20745395Y-39950000D01*
X21104605Y-39950000D01*
X22060413Y-40905808D01*
X22324814Y-40810044D01*
X22465704Y-40520429D01*
X22547384Y-40208892D01*
X22559189Y-40012595D01*
X25783282Y-40012595D01*
X25827039Y-40331675D01*
X25932205Y-40636088D01*
X26025186Y-40810044D01*
X26289587Y-40905808D01*
X27245395Y-39950000D01*
X27604605Y-39950000D01*
X28560413Y-40905808D01*
X28824814Y-40810044D01*
X28965704Y-40520429D01*
X29047384Y-40208892D01*
X29066718Y-39887405D01*
X29022961Y-39568325D01*
X28917795Y-39263912D01*
X28824814Y-39089956D01*
X28560413Y-38994192D01*
X27604605Y-39950000D01*
X27245395Y-39950000D01*
X26289587Y-38994192D01*
X26025186Y-39089956D01*
X25884296Y-39379571D01*
X25802616Y-39691108D01*
X25783282Y-40012595D01*
X22559189Y-40012595D01*
X22566718Y-39887405D01*
X22522961Y-39568325D01*
X22417795Y-39263912D01*
X22324814Y-39089956D01*
X22060413Y-38994192D01*
X21104605Y-39950000D01*
X20745395Y-39950000D01*
X20731253Y-39935858D01*
X20910858Y-39756253D01*
X20925000Y-39770395D01*
X21880808Y-38814587D01*
X26469192Y-38814587D01*
X27425000Y-39770395D01*
X28270159Y-38925236D01*
X30804841Y-38925236D01*
X31475000Y-39595395D01*
X32145159Y-38925236D01*
X32097852Y-38701652D01*
X31876484Y-38600763D01*
X31639687Y-38545000D01*
X31396562Y-38536505D01*
X31156451Y-38575605D01*
X30928582Y-38660798D01*
X30852148Y-38701652D01*
X30804841Y-38925236D01*
X28270159Y-38925236D01*
X28380808Y-38814587D01*
X28285044Y-38550186D01*
X27995429Y-38409296D01*
X27683892Y-38327616D01*
X27362405Y-38308282D01*
X27043325Y-38352039D01*
X26738912Y-38457205D01*
X26564956Y-38550186D01*
X26469192Y-38814587D01*
X21880808Y-38814587D01*
X21785044Y-38550186D01*
X21549090Y-38435401D01*
X22583992Y-37400500D01*
X25811928Y-37400500D01*
X25811928Y-37425000D01*
X25824188Y-37549482D01*
X25860498Y-37669180D01*
X25919463Y-37779494D01*
X25998815Y-37876185D01*
X26095506Y-37955537D01*
X26205820Y-38014502D01*
X26325518Y-38050812D01*
X26450000Y-38063072D01*
X28150000Y-38063072D01*
X28274482Y-38050812D01*
X28394180Y-38014502D01*
X28504494Y-37955537D01*
X28601185Y-37876185D01*
X28680537Y-37779494D01*
X28739502Y-37669180D01*
X28775812Y-37549482D01*
X28788072Y-37425000D01*
X28788072Y-35725000D01*
X28775812Y-35600518D01*
X28739502Y-35480820D01*
X28680537Y-35370506D01*
X28601185Y-35273815D01*
X28504494Y-35194463D01*
X28394180Y-35135498D01*
X28321620Y-35113487D01*
X28453475Y-34981632D01*
X28615990Y-34738411D01*
X28727932Y-34468158D01*
X28785000Y-34181260D01*
X28785000Y-33888740D01*
X28756578Y-33745855D01*
X29095540Y-33406893D01*
X29127042Y-33381040D01*
X29230200Y-33255341D01*
X29306854Y-33111933D01*
X29354057Y-32956325D01*
X29366001Y-32835052D01*
X29366001Y-32835043D01*
X29369994Y-32794500D01*
X29366001Y-32753957D01*
X29366001Y-29781051D01*
X29369995Y-29740500D01*
X29366001Y-29699948D01*
X29354057Y-29578675D01*
X29306854Y-29423067D01*
X29256900Y-29329612D01*
X29230200Y-29279658D01*
X29152892Y-29185459D01*
X29127042Y-29153960D01*
X29095541Y-29128108D01*
X28512398Y-28544966D01*
X28486541Y-28513459D01*
X28360842Y-28410301D01*
X28217434Y-28333647D01*
X28061826Y-28286444D01*
X27940553Y-28274500D01*
X27940550Y-28274500D01*
X27900000Y-28270506D01*
X27859450Y-28274500D01*
X16865550Y-28274500D01*
X16825000Y-28270506D01*
X16784449Y-28274500D01*
X16784447Y-28274500D01*
X16663174Y-28286444D01*
X16507566Y-28333647D01*
X16364157Y-28410301D01*
X16270787Y-28486928D01*
X15100000Y-28486928D01*
X14975518Y-28499188D01*
X14855820Y-28535498D01*
X14745506Y-28594463D01*
X14648815Y-28673815D01*
X14569463Y-28770506D01*
X14510498Y-28880820D01*
X14474188Y-29000518D01*
X14461928Y-29125000D01*
X14461928Y-29149500D01*
X14365542Y-29149500D01*
X14324999Y-29145507D01*
X14284456Y-29149500D01*
X14284447Y-29149500D01*
X14163174Y-29161444D01*
X14007566Y-29208647D01*
X13864158Y-29285301D01*
X13738459Y-29388459D01*
X13712608Y-29419959D01*
X2904966Y-40227602D01*
X2873459Y-40253459D01*
X2809270Y-40331675D01*
X2770301Y-40379158D01*
X2760309Y-40397852D01*
X2693647Y-40522567D01*
X2646444Y-40678175D01*
X2638968Y-40754085D01*
X2630506Y-40840000D01*
X2634500Y-40880551D01*
X2634501Y-48486937D01*
X2596238Y-48512503D01*
X2407503Y-48701238D01*
X2259215Y-48923167D01*
X2157072Y-49169761D01*
X2105000Y-49431544D01*
X2105000Y-49698456D01*
X2157072Y-49960239D01*
X2259215Y-50206833D01*
X2407503Y-50428762D01*
X2596238Y-50617497D01*
X2634500Y-50643063D01*
X2634501Y-56583065D01*
X2139145Y-57078422D01*
X1996260Y-57050000D01*
X1703740Y-57050000D01*
X1416842Y-57107068D01*
X1146589Y-57219010D01*
X903368Y-57381525D01*
X696525Y-57588368D01*
X534010Y-57831589D01*
X422068Y-58101842D01*
X365000Y-58388740D01*
X365000Y-58681260D01*
X422068Y-58968158D01*
X534010Y-59238411D01*
X696525Y-59481632D01*
X828380Y-59613487D01*
X755820Y-59635498D01*
X645506Y-59694463D01*
X548815Y-59773815D01*
X469463Y-59870506D01*
X410498Y-59980820D01*
X374188Y-60100518D01*
X361928Y-60225000D01*
X-340000Y-60225000D01*
X-340000Y-25660000D01*
X34340001Y-25660000D01*
X34340000Y-100340000D01*
G36*
X19749188Y-29950518D02*
G01*
X19736928Y-30075000D01*
X19740000Y-30189250D01*
X19898750Y-30348000D01*
X20698000Y-30348000D01*
X20698000Y-30328000D01*
X20952000Y-30328000D01*
X20952000Y-30348000D01*
X21751250Y-30348000D01*
X21910000Y-30189250D01*
X21913072Y-30075000D01*
X21900812Y-29950518D01*
X21893223Y-29925500D01*
X27558068Y-29925500D01*
X27691312Y-30058744D01*
X27446260Y-30010000D01*
X27153740Y-30010000D01*
X26866842Y-30067068D01*
X26596589Y-30179010D01*
X26353368Y-30341525D01*
X26146525Y-30548368D01*
X26112360Y-30599500D01*
X23747264Y-30599500D01*
X23726185Y-30573815D01*
X23629494Y-30494463D01*
X23519180Y-30435498D01*
X23399482Y-30399188D01*
X23275000Y-30386928D01*
X22375000Y-30386928D01*
X22250518Y-30399188D01*
X22130820Y-30435498D01*
X22020506Y-30494463D01*
X21923815Y-30573815D01*
X21844463Y-30670506D01*
X21835857Y-30686607D01*
X21751250Y-30602000D01*
X20952000Y-30602000D01*
X20952000Y-30622000D01*
X20698000Y-30622000D01*
X20698000Y-30602000D01*
X19898750Y-30602000D01*
X19740000Y-30760750D01*
X19736928Y-30875000D01*
X19749188Y-30999482D01*
X19785498Y-31119180D01*
X19844463Y-31229494D01*
X19923815Y-31326185D01*
X20020506Y-31405537D01*
X20056918Y-31425000D01*
X20020506Y-31444463D01*
X19923815Y-31523815D01*
X19844463Y-31620506D01*
X19785498Y-31730820D01*
X19749188Y-31850518D01*
X19736928Y-31975000D01*
X19736928Y-32775000D01*
X19749188Y-32899482D01*
X19785498Y-33019180D01*
X19844463Y-33129494D01*
X19923815Y-33226185D01*
X20020506Y-33305537D01*
X20130820Y-33364502D01*
X20250518Y-33400812D01*
X20375000Y-33413072D01*
X21275000Y-33413072D01*
X21399482Y-33400812D01*
X21519180Y-33364502D01*
X21629494Y-33305537D01*
X21726185Y-33226185D01*
X21747264Y-33200500D01*
X22758068Y-33200500D01*
X25307067Y-35749500D01*
X22282608Y-35749500D01*
X22242058Y-35745506D01*
X22201507Y-35749500D01*
X22201505Y-35749500D01*
X22080232Y-35761444D01*
X21924624Y-35808647D01*
X21781215Y-35885301D01*
X21687016Y-35962608D01*
X21687013Y-35962611D01*
X21655517Y-35988459D01*
X21629669Y-36019955D01*
X18979465Y-38670161D01*
X18947958Y-38696018D01*
X18878713Y-38780394D01*
X18844800Y-38821717D01*
X18829359Y-38850605D01*
X18768146Y-38965126D01*
X18720943Y-39120734D01*
X18713113Y-39200236D01*
X18705005Y-39282559D01*
X18708999Y-39323110D01*
X18709000Y-47423939D01*
X18705005Y-47464499D01*
X18720944Y-47626325D01*
X18768146Y-47781932D01*
X18844800Y-47925341D01*
X18898163Y-47990363D01*
X18947959Y-48051040D01*
X18979460Y-48076892D01*
X19785944Y-48883376D01*
X19765000Y-48988665D01*
X19765000Y-49271335D01*
X19785943Y-49376623D01*
X16544966Y-52617602D01*
X16513459Y-52643459D01*
X16444214Y-52727835D01*
X16410301Y-52769158D01*
X16394203Y-52799276D01*
X16333647Y-52912567D01*
X16286444Y-53068175D01*
X16277647Y-53157497D01*
X16270506Y-53230000D01*
X16274500Y-53270551D01*
X16274501Y-59754831D01*
X16255820Y-59760498D01*
X16145506Y-59819463D01*
X16048815Y-59898815D01*
X15969463Y-59995506D01*
X15910498Y-60105820D01*
X15874188Y-60225518D01*
X15861928Y-60350000D01*
X15861928Y-61550000D01*
X15874188Y-61674482D01*
X15910498Y-61794180D01*
X15969463Y-61904494D01*
X16048815Y-62001185D01*
X16145506Y-62080537D01*
X16255820Y-62139502D01*
X16274500Y-62145169D01*
X16274501Y-64261928D01*
X15550000Y-64261928D01*
X15425518Y-64274188D01*
X15305820Y-64310498D01*
X15195506Y-64369463D01*
X15098815Y-64448815D01*
X15019463Y-64545506D01*
X14960498Y-64655820D01*
X14924188Y-64775518D01*
X14911928Y-64900000D01*
X14911928Y-65507229D01*
X14898702Y-65550829D01*
X14879085Y-65750000D01*
X14898702Y-65949171D01*
X14911928Y-65992771D01*
X14911928Y-66600000D01*
X14924188Y-66724482D01*
X14960498Y-66844180D01*
X15019463Y-66954494D01*
X15098815Y-67051185D01*
X15195506Y-67130537D01*
X15305820Y-67189502D01*
X15425518Y-67225812D01*
X15550000Y-67238072D01*
X16122128Y-67238072D01*
X15110201Y-68250000D01*
X8945000Y-68250000D01*
X8945000Y-66302322D01*
X8948676Y-66264999D01*
X8945000Y-66227676D01*
X8945000Y-66227667D01*
X8934003Y-66116014D01*
X8890546Y-65972753D01*
X8819974Y-65840724D01*
X8799973Y-65816353D01*
X8748799Y-65753996D01*
X8748795Y-65753992D01*
X8725001Y-65724999D01*
X8696009Y-65701206D01*
X6823688Y-63828886D01*
X6860000Y-63646335D01*
X6860000Y-63474803D01*
X7401205Y-64016008D01*
X7424999Y-64045001D01*
X7453992Y-64068795D01*
X7453996Y-64068799D01*
X7486822Y-64095738D01*
X7540724Y-64139974D01*
X7672753Y-64210546D01*
X7816014Y-64254003D01*
X7927667Y-64265000D01*
X7927676Y-64265000D01*
X7964999Y-64268676D01*
X8002322Y-64265000D01*
X11826957Y-64265000D01*
X11930363Y-64419759D01*
X12130241Y-64619637D01*
X12362759Y-64775000D01*
X12130241Y-64930363D01*
X11930363Y-65130241D01*
X11773320Y-65365273D01*
X11665147Y-65626426D01*
X11610000Y-65903665D01*
X11610000Y-66186335D01*
X11665147Y-66463574D01*
X11773320Y-66724727D01*
X11930363Y-66959759D01*
X12130241Y-67159637D01*
X12365273Y-67316680D01*
X12626426Y-67424853D01*
X12903665Y-67480000D01*
X13186335Y-67480000D01*
X13463574Y-67424853D01*
X13724727Y-67316680D01*
X13959759Y-67159637D01*
X14159637Y-66959759D01*
X14316680Y-66724727D01*
X14424853Y-66463574D01*
X14480000Y-66186335D01*
X14480000Y-65903665D01*
X14424853Y-65626426D01*
X14316680Y-65365273D01*
X14159637Y-65130241D01*
X13959759Y-64930363D01*
X13727241Y-64775000D01*
X13959759Y-64619637D01*
X14159637Y-64419759D01*
X14316680Y-64184727D01*
X14424853Y-63923574D01*
X14480000Y-63646335D01*
X14480000Y-63363665D01*
X14424853Y-63086426D01*
X14316680Y-62825273D01*
X14159637Y-62590241D01*
X13959759Y-62390363D01*
X13727241Y-62235000D01*
X13959759Y-62079637D01*
X14159637Y-61879759D01*
X14316680Y-61644727D01*
X14424853Y-61383574D01*
X14480000Y-61106335D01*
X14480000Y-60823665D01*
X14424853Y-60546426D01*
X14316680Y-60285273D01*
X14159637Y-60050241D01*
X13959759Y-59850363D01*
X13727241Y-59695000D01*
X13959759Y-59539637D01*
X14159637Y-59339759D01*
X14316680Y-59104727D01*
X14424853Y-58843574D01*
X14480000Y-58566335D01*
X14480000Y-58283665D01*
X14424853Y-58006426D01*
X14316680Y-57745273D01*
X14159637Y-57510241D01*
X13959759Y-57310363D01*
X13724727Y-57153320D01*
X13463574Y-57045147D01*
X13186335Y-56990000D01*
X12903665Y-56990000D01*
X12626426Y-57045147D01*
X12365273Y-57153320D01*
X12130241Y-57310363D01*
X11930363Y-57510241D01*
X11826957Y-57665000D01*
X11712323Y-57665000D01*
X11675000Y-57661324D01*
X11637677Y-57665000D01*
X11637667Y-57665000D01*
X11526014Y-57675997D01*
X11382753Y-57719454D01*
X11250723Y-57790026D01*
X11200079Y-57831589D01*
X11134999Y-57884999D01*
X11111201Y-57913997D01*
X8985199Y-60040000D01*
X8923061Y-60040000D01*
X8723102Y-60079774D01*
X8534744Y-60157795D01*
X8365226Y-60271063D01*
X8221063Y-60415226D01*
X8107795Y-60584744D01*
X8029774Y-60773102D01*
X7990000Y-60973061D01*
X7990000Y-61176939D01*
X8029774Y-61376898D01*
X8107795Y-61565256D01*
X8221063Y-61734774D01*
X8365226Y-61878937D01*
X8534744Y-61992205D01*
X8723102Y-62070226D01*
X8923061Y-62110000D01*
X9126939Y-62110000D01*
X9326898Y-62070226D01*
X9515256Y-61992205D01*
X9684774Y-61878937D01*
X9828937Y-61734774D01*
X9942205Y-61565256D01*
X10020226Y-61376898D01*
X10060000Y-61176939D01*
X10060000Y-61114801D01*
X11892183Y-59282619D01*
X11930363Y-59339759D01*
X12130241Y-59539637D01*
X12362759Y-59695000D01*
X12130241Y-59850363D01*
X11930363Y-60050241D01*
X11773320Y-60285273D01*
X11665147Y-60546426D01*
X11610000Y-60823665D01*
X11610000Y-61106335D01*
X11665147Y-61383574D01*
X11773320Y-61644727D01*
X11930363Y-61879759D01*
X12130241Y-62079637D01*
X12362759Y-62235000D01*
X12130241Y-62390363D01*
X11930363Y-62590241D01*
X11826957Y-62745000D01*
X8279803Y-62745000D01*
X6823688Y-61288886D01*
X6860000Y-61106335D01*
X6860000Y-60823665D01*
X6804853Y-60546426D01*
X6696680Y-60285273D01*
X6539637Y-60050241D01*
X6341039Y-59851643D01*
X6349482Y-59850812D01*
X6469180Y-59814502D01*
X6579494Y-59755537D01*
X6676185Y-59676185D01*
X6755537Y-59579494D01*
X6814502Y-59469180D01*
X6850812Y-59349482D01*
X6863072Y-59225000D01*
X6860000Y-58710750D01*
X6701250Y-58552000D01*
X5552000Y-58552000D01*
X5552000Y-58572000D01*
X5298000Y-58572000D01*
X5298000Y-58552000D01*
X5278000Y-58552000D01*
X5278000Y-58298000D01*
X5298000Y-58298000D01*
X5298000Y-57148750D01*
X5552000Y-57148750D01*
X5552000Y-58298000D01*
X6701250Y-58298000D01*
X6860000Y-58139250D01*
X6863072Y-57625000D01*
X6850812Y-57500518D01*
X6814502Y-57380820D01*
X6755537Y-57270506D01*
X6676185Y-57173815D01*
X6579494Y-57094463D01*
X6469180Y-57035498D01*
X6349482Y-56999188D01*
X6225000Y-56986928D01*
X5710750Y-56990000D01*
X5552000Y-57148750D01*
X5298000Y-57148750D01*
X5139250Y-56990000D01*
X5059999Y-56989527D01*
X5059999Y-53081258D01*
X5136238Y-53157497D01*
X5358167Y-53305785D01*
X5604761Y-53407928D01*
X5866544Y-53460000D01*
X6133456Y-53460000D01*
X6395239Y-53407928D01*
X6641833Y-53305785D01*
X6863762Y-53157497D01*
X6886259Y-53135000D01*
X10306957Y-53135000D01*
X10410363Y-53289759D01*
X10610241Y-53489637D01*
X10845273Y-53646680D01*
X11106426Y-53754853D01*
X11383665Y-53810000D01*
X11666335Y-53810000D01*
X11943574Y-53754853D01*
X12204727Y-53646680D01*
X12439759Y-53489637D01*
X12639637Y-53289759D01*
X12796680Y-53054727D01*
X12904853Y-52793574D01*
X12960000Y-52516335D01*
X12960000Y-52233665D01*
X12904853Y-51956426D01*
X12796680Y-51695273D01*
X12639637Y-51460241D01*
X12439759Y-51260363D01*
X12204727Y-51103320D01*
X11943574Y-50995147D01*
X11666335Y-50940000D01*
X11383665Y-50940000D01*
X11106426Y-50995147D01*
X10845273Y-51103320D01*
X10610241Y-51260363D01*
X10410363Y-51460241D01*
X10306957Y-51615000D01*
X7263677Y-51615000D01*
X7200785Y-51463167D01*
X7052497Y-51241238D01*
X6863762Y-51052503D01*
X6641833Y-50904215D01*
X6506601Y-50848200D01*
X11201115Y-46153688D01*
X11383665Y-46190000D01*
X11666335Y-46190000D01*
X11943574Y-46134853D01*
X12204727Y-46026680D01*
X12439759Y-45869637D01*
X12639637Y-45669759D01*
X12743043Y-45515000D01*
X13207678Y-45515000D01*
X13245000Y-45518676D01*
X13282322Y-45515000D01*
X13282333Y-45515000D01*
X13393986Y-45504003D01*
X13537247Y-45460546D01*
X13669276Y-45389974D01*
X13785001Y-45295001D01*
X13808804Y-45265997D01*
X15786730Y-43288072D01*
X16550000Y-43288072D01*
X16674482Y-43275812D01*
X16794180Y-43239502D01*
X16904494Y-43180537D01*
X17001185Y-43101185D01*
X17080537Y-43004494D01*
X17139502Y-42894180D01*
X17175812Y-42774482D01*
X17188072Y-42650000D01*
X17188072Y-41450000D01*
X17175812Y-41325518D01*
X17139502Y-41205820D01*
X17080537Y-41095506D01*
X17001185Y-40998815D01*
X16904494Y-40919463D01*
X16858994Y-40895142D01*
X16916872Y-40837264D01*
X16799766Y-40720158D01*
X17023348Y-40672852D01*
X17124237Y-40451484D01*
X17180000Y-40214687D01*
X17188495Y-39971562D01*
X17149395Y-39731451D01*
X17064202Y-39503582D01*
X17023348Y-39427148D01*
X16799764Y-39379841D01*
X16129605Y-40050000D01*
X16143748Y-40064143D01*
X15964143Y-40243748D01*
X15950000Y-40229605D01*
X15935858Y-40243748D01*
X15756253Y-40064143D01*
X15770395Y-40050000D01*
X15100236Y-39379841D01*
X14876652Y-39427148D01*
X14775763Y-39648516D01*
X14720000Y-39885313D01*
X14711505Y-40128438D01*
X14750605Y-40368549D01*
X14835798Y-40596418D01*
X14876652Y-40672852D01*
X15100234Y-40720158D01*
X14983128Y-40837264D01*
X15041006Y-40895142D01*
X14995506Y-40919463D01*
X14898815Y-40998815D01*
X14819463Y-41095506D01*
X14760498Y-41205820D01*
X14724188Y-41325518D01*
X14711928Y-41450000D01*
X14711928Y-42213270D01*
X12930199Y-43995000D01*
X12743043Y-43995000D01*
X12639637Y-43840241D01*
X12439759Y-43640363D01*
X12204727Y-43483320D01*
X11943574Y-43375147D01*
X11666335Y-43320000D01*
X11383665Y-43320000D01*
X11106426Y-43375147D01*
X10845273Y-43483320D01*
X10610241Y-43640363D01*
X10410363Y-43840241D01*
X10253320Y-44075273D01*
X10145147Y-44336426D01*
X10090000Y-44613665D01*
X10090000Y-44896335D01*
X10126312Y-45078885D01*
X4285500Y-50919699D01*
X4285500Y-50643063D01*
X4323762Y-50617497D01*
X4512497Y-50428762D01*
X4660785Y-50206833D01*
X4762928Y-49960239D01*
X4815000Y-49698456D01*
X4815000Y-49431544D01*
X4762928Y-49169761D01*
X4660785Y-48923167D01*
X4512497Y-48701238D01*
X4323762Y-48512503D01*
X4285500Y-48486937D01*
X4285500Y-46891544D01*
X4645000Y-46891544D01*
X4645000Y-47158456D01*
X4697072Y-47420239D01*
X4799215Y-47666833D01*
X4947503Y-47888762D01*
X5136238Y-48077497D01*
X5358167Y-48225785D01*
X5604761Y-48327928D01*
X5866544Y-48380000D01*
X6133456Y-48380000D01*
X6395239Y-48327928D01*
X6641833Y-48225785D01*
X6863762Y-48077497D01*
X7052497Y-47888762D01*
X7200785Y-47666833D01*
X7302928Y-47420239D01*
X7355000Y-47158456D01*
X7355000Y-46891544D01*
X7302928Y-46629761D01*
X7200785Y-46383167D01*
X7052497Y-46161238D01*
X6863762Y-45972503D01*
X6641833Y-45824215D01*
X6395239Y-45722072D01*
X6133456Y-45670000D01*
X5866544Y-45670000D01*
X5604761Y-45722072D01*
X5358167Y-45824215D01*
X5136238Y-45972503D01*
X4947503Y-46161238D01*
X4799215Y-46383167D01*
X4697072Y-46629761D01*
X4645000Y-46891544D01*
X4285500Y-46891544D01*
X4285500Y-41181932D01*
X6267196Y-39200236D01*
X15279841Y-39200236D01*
X15950000Y-39870395D01*
X16620159Y-39200236D01*
X16572852Y-38976652D01*
X16351484Y-38875763D01*
X16114687Y-38820000D01*
X15871562Y-38811505D01*
X15631451Y-38850605D01*
X15403582Y-38935798D01*
X15327148Y-38976652D01*
X15279841Y-39200236D01*
X6267196Y-39200236D01*
X12595542Y-32871890D01*
X14508524Y-32871890D01*
X14553175Y-33019099D01*
X14678359Y-33281920D01*
X14852412Y-33515269D01*
X15068645Y-33710178D01*
X15318748Y-33859157D01*
X15593109Y-33956481D01*
X15823000Y-33835814D01*
X15823000Y-32642000D01*
X16077000Y-32642000D01*
X16077000Y-33835814D01*
X16306891Y-33956481D01*
X16581252Y-33859157D01*
X16831355Y-33710178D01*
X17047588Y-33515269D01*
X17221641Y-33281920D01*
X17346825Y-33019099D01*
X17391476Y-32871890D01*
X17270155Y-32642000D01*
X16077000Y-32642000D01*
X15823000Y-32642000D01*
X14629845Y-32642000D01*
X14508524Y-32871890D01*
X12595542Y-32871890D01*
X14484374Y-30983059D01*
X14510498Y-31069180D01*
X14569463Y-31179494D01*
X14648815Y-31276185D01*
X14745506Y-31355537D01*
X14855820Y-31414502D01*
X14936466Y-31438966D01*
X14852412Y-31514731D01*
X14678359Y-31748080D01*
X14553175Y-32010901D01*
X14508524Y-32158110D01*
X14629845Y-32388000D01*
X15823000Y-32388000D01*
X15823000Y-32368000D01*
X16077000Y-32368000D01*
X16077000Y-32388000D01*
X17270155Y-32388000D01*
X17391476Y-32158110D01*
X17346825Y-32010901D01*
X17221641Y-31748080D01*
X17047588Y-31514731D01*
X16963534Y-31438966D01*
X17044180Y-31414502D01*
X17154494Y-31355537D01*
X17251185Y-31276185D01*
X17330537Y-31179494D01*
X17389502Y-31069180D01*
X17425812Y-30949482D01*
X17438072Y-30825000D01*
X17438072Y-29925500D01*
X19756777Y-29925500D01*
X19749188Y-29950518D01*
G37*
X19749188Y-29950518D02*
X19736928Y-30075000D01*
X19740000Y-30189250D01*
X19898750Y-30348000D01*
X20698000Y-30348000D01*
X20698000Y-30328000D01*
X20952000Y-30328000D01*
X20952000Y-30348000D01*
X21751250Y-30348000D01*
X21910000Y-30189250D01*
X21913072Y-30075000D01*
X21900812Y-29950518D01*
X21893223Y-29925500D01*
X27558068Y-29925500D01*
X27691312Y-30058744D01*
X27446260Y-30010000D01*
X27153740Y-30010000D01*
X26866842Y-30067068D01*
X26596589Y-30179010D01*
X26353368Y-30341525D01*
X26146525Y-30548368D01*
X26112360Y-30599500D01*
X23747264Y-30599500D01*
X23726185Y-30573815D01*
X23629494Y-30494463D01*
X23519180Y-30435498D01*
X23399482Y-30399188D01*
X23275000Y-30386928D01*
X22375000Y-30386928D01*
X22250518Y-30399188D01*
X22130820Y-30435498D01*
X22020506Y-30494463D01*
X21923815Y-30573815D01*
X21844463Y-30670506D01*
X21835857Y-30686607D01*
X21751250Y-30602000D01*
X20952000Y-30602000D01*
X20952000Y-30622000D01*
X20698000Y-30622000D01*
X20698000Y-30602000D01*
X19898750Y-30602000D01*
X19740000Y-30760750D01*
X19736928Y-30875000D01*
X19749188Y-30999482D01*
X19785498Y-31119180D01*
X19844463Y-31229494D01*
X19923815Y-31326185D01*
X20020506Y-31405537D01*
X20056918Y-31425000D01*
X20020506Y-31444463D01*
X19923815Y-31523815D01*
X19844463Y-31620506D01*
X19785498Y-31730820D01*
X19749188Y-31850518D01*
X19736928Y-31975000D01*
X19736928Y-32775000D01*
X19749188Y-32899482D01*
X19785498Y-33019180D01*
X19844463Y-33129494D01*
X19923815Y-33226185D01*
X20020506Y-33305537D01*
X20130820Y-33364502D01*
X20250518Y-33400812D01*
X20375000Y-33413072D01*
X21275000Y-33413072D01*
X21399482Y-33400812D01*
X21519180Y-33364502D01*
X21629494Y-33305537D01*
X21726185Y-33226185D01*
X21747264Y-33200500D01*
X22758068Y-33200500D01*
X25307067Y-35749500D01*
X22282608Y-35749500D01*
X22242058Y-35745506D01*
X22201507Y-35749500D01*
X22201505Y-35749500D01*
X22080232Y-35761444D01*
X21924624Y-35808647D01*
X21781215Y-35885301D01*
X21687016Y-35962608D01*
X21687013Y-35962611D01*
X21655517Y-35988459D01*
X21629669Y-36019955D01*
X18979465Y-38670161D01*
X18947958Y-38696018D01*
X18878713Y-38780394D01*
X18844800Y-38821717D01*
X18829359Y-38850605D01*
X18768146Y-38965126D01*
X18720943Y-39120734D01*
X18713113Y-39200236D01*
X18705005Y-39282559D01*
X18708999Y-39323110D01*
X18709000Y-47423939D01*
X18705005Y-47464499D01*
X18720944Y-47626325D01*
X18768146Y-47781932D01*
X18844800Y-47925341D01*
X18898163Y-47990363D01*
X18947959Y-48051040D01*
X18979460Y-48076892D01*
X19785944Y-48883376D01*
X19765000Y-48988665D01*
X19765000Y-49271335D01*
X19785943Y-49376623D01*
X16544966Y-52617602D01*
X16513459Y-52643459D01*
X16444214Y-52727835D01*
X16410301Y-52769158D01*
X16394203Y-52799276D01*
X16333647Y-52912567D01*
X16286444Y-53068175D01*
X16277647Y-53157497D01*
X16270506Y-53230000D01*
X16274500Y-53270551D01*
X16274501Y-59754831D01*
X16255820Y-59760498D01*
X16145506Y-59819463D01*
X16048815Y-59898815D01*
X15969463Y-59995506D01*
X15910498Y-60105820D01*
X15874188Y-60225518D01*
X15861928Y-60350000D01*
X15861928Y-61550000D01*
X15874188Y-61674482D01*
X15910498Y-61794180D01*
X15969463Y-61904494D01*
X16048815Y-62001185D01*
X16145506Y-62080537D01*
X16255820Y-62139502D01*
X16274500Y-62145169D01*
X16274501Y-64261928D01*
X15550000Y-64261928D01*
X15425518Y-64274188D01*
X15305820Y-64310498D01*
X15195506Y-64369463D01*
X15098815Y-64448815D01*
X15019463Y-64545506D01*
X14960498Y-64655820D01*
X14924188Y-64775518D01*
X14911928Y-64900000D01*
X14911928Y-65507229D01*
X14898702Y-65550829D01*
X14879085Y-65750000D01*
X14898702Y-65949171D01*
X14911928Y-65992771D01*
X14911928Y-66600000D01*
X14924188Y-66724482D01*
X14960498Y-66844180D01*
X15019463Y-66954494D01*
X15098815Y-67051185D01*
X15195506Y-67130537D01*
X15305820Y-67189502D01*
X15425518Y-67225812D01*
X15550000Y-67238072D01*
X16122128Y-67238072D01*
X15110201Y-68250000D01*
X8945000Y-68250000D01*
X8945000Y-66302322D01*
X8948676Y-66264999D01*
X8945000Y-66227676D01*
X8945000Y-66227667D01*
X8934003Y-66116014D01*
X8890546Y-65972753D01*
X8819974Y-65840724D01*
X8799973Y-65816353D01*
X8748799Y-65753996D01*
X8748795Y-65753992D01*
X8725001Y-65724999D01*
X8696009Y-65701206D01*
X6823688Y-63828886D01*
X6860000Y-63646335D01*
X6860000Y-63474803D01*
X7401205Y-64016008D01*
X7424999Y-64045001D01*
X7453992Y-64068795D01*
X7453996Y-64068799D01*
X7486822Y-64095738D01*
X7540724Y-64139974D01*
X7672753Y-64210546D01*
X7816014Y-64254003D01*
X7927667Y-64265000D01*
X7927676Y-64265000D01*
X7964999Y-64268676D01*
X8002322Y-64265000D01*
X11826957Y-64265000D01*
X11930363Y-64419759D01*
X12130241Y-64619637D01*
X12362759Y-64775000D01*
X12130241Y-64930363D01*
X11930363Y-65130241D01*
X11773320Y-65365273D01*
X11665147Y-65626426D01*
X11610000Y-65903665D01*
X11610000Y-66186335D01*
X11665147Y-66463574D01*
X11773320Y-66724727D01*
X11930363Y-66959759D01*
X12130241Y-67159637D01*
X12365273Y-67316680D01*
X12626426Y-67424853D01*
X12903665Y-67480000D01*
X13186335Y-67480000D01*
X13463574Y-67424853D01*
X13724727Y-67316680D01*
X13959759Y-67159637D01*
X14159637Y-66959759D01*
X14316680Y-66724727D01*
X14424853Y-66463574D01*
X14480000Y-66186335D01*
X14480000Y-65903665D01*
X14424853Y-65626426D01*
X14316680Y-65365273D01*
X14159637Y-65130241D01*
X13959759Y-64930363D01*
X13727241Y-64775000D01*
X13959759Y-64619637D01*
X14159637Y-64419759D01*
X14316680Y-64184727D01*
X14424853Y-63923574D01*
X14480000Y-63646335D01*
X14480000Y-63363665D01*
X14424853Y-63086426D01*
X14316680Y-62825273D01*
X14159637Y-62590241D01*
X13959759Y-62390363D01*
X13727241Y-62235000D01*
X13959759Y-62079637D01*
X14159637Y-61879759D01*
X14316680Y-61644727D01*
X14424853Y-61383574D01*
X14480000Y-61106335D01*
X14480000Y-60823665D01*
X14424853Y-60546426D01*
X14316680Y-60285273D01*
X14159637Y-60050241D01*
X13959759Y-59850363D01*
X13727241Y-59695000D01*
X13959759Y-59539637D01*
X14159637Y-59339759D01*
X14316680Y-59104727D01*
X14424853Y-58843574D01*
X14480000Y-58566335D01*
X14480000Y-58283665D01*
X14424853Y-58006426D01*
X14316680Y-57745273D01*
X14159637Y-57510241D01*
X13959759Y-57310363D01*
X13724727Y-57153320D01*
X13463574Y-57045147D01*
X13186335Y-56990000D01*
X12903665Y-56990000D01*
X12626426Y-57045147D01*
X12365273Y-57153320D01*
X12130241Y-57310363D01*
X11930363Y-57510241D01*
X11826957Y-57665000D01*
X11712323Y-57665000D01*
X11675000Y-57661324D01*
X11637677Y-57665000D01*
X11637667Y-57665000D01*
X11526014Y-57675997D01*
X11382753Y-57719454D01*
X11250723Y-57790026D01*
X11200079Y-57831589D01*
X11134999Y-57884999D01*
X11111201Y-57913997D01*
X8985199Y-60040000D01*
X8923061Y-60040000D01*
X8723102Y-60079774D01*
X8534744Y-60157795D01*
X8365226Y-60271063D01*
X8221063Y-60415226D01*
X8107795Y-60584744D01*
X8029774Y-60773102D01*
X7990000Y-60973061D01*
X7990000Y-61176939D01*
X8029774Y-61376898D01*
X8107795Y-61565256D01*
X8221063Y-61734774D01*
X8365226Y-61878937D01*
X8534744Y-61992205D01*
X8723102Y-62070226D01*
X8923061Y-62110000D01*
X9126939Y-62110000D01*
X9326898Y-62070226D01*
X9515256Y-61992205D01*
X9684774Y-61878937D01*
X9828937Y-61734774D01*
X9942205Y-61565256D01*
X10020226Y-61376898D01*
X10060000Y-61176939D01*
X10060000Y-61114801D01*
X11892183Y-59282619D01*
X11930363Y-59339759D01*
X12130241Y-59539637D01*
X12362759Y-59695000D01*
X12130241Y-59850363D01*
X11930363Y-60050241D01*
X11773320Y-60285273D01*
X11665147Y-60546426D01*
X11610000Y-60823665D01*
X11610000Y-61106335D01*
X11665147Y-61383574D01*
X11773320Y-61644727D01*
X11930363Y-61879759D01*
X12130241Y-62079637D01*
X12362759Y-62235000D01*
X12130241Y-62390363D01*
X11930363Y-62590241D01*
X11826957Y-62745000D01*
X8279803Y-62745000D01*
X6823688Y-61288886D01*
X6860000Y-61106335D01*
X6860000Y-60823665D01*
X6804853Y-60546426D01*
X6696680Y-60285273D01*
X6539637Y-60050241D01*
X6341039Y-59851643D01*
X6349482Y-59850812D01*
X6469180Y-59814502D01*
X6579494Y-59755537D01*
X6676185Y-59676185D01*
X6755537Y-59579494D01*
X6814502Y-59469180D01*
X6850812Y-59349482D01*
X6863072Y-59225000D01*
X6860000Y-58710750D01*
X6701250Y-58552000D01*
X5552000Y-58552000D01*
X5552000Y-58572000D01*
X5298000Y-58572000D01*
X5298000Y-58552000D01*
X5278000Y-58552000D01*
X5278000Y-58298000D01*
X5298000Y-58298000D01*
X5298000Y-57148750D01*
X5552000Y-57148750D01*
X5552000Y-58298000D01*
X6701250Y-58298000D01*
X6860000Y-58139250D01*
X6863072Y-57625000D01*
X6850812Y-57500518D01*
X6814502Y-57380820D01*
X6755537Y-57270506D01*
X6676185Y-57173815D01*
X6579494Y-57094463D01*
X6469180Y-57035498D01*
X6349482Y-56999188D01*
X6225000Y-56986928D01*
X5710750Y-56990000D01*
X5552000Y-57148750D01*
X5298000Y-57148750D01*
X5139250Y-56990000D01*
X5059999Y-56989527D01*
X5059999Y-53081258D01*
X5136238Y-53157497D01*
X5358167Y-53305785D01*
X5604761Y-53407928D01*
X5866544Y-53460000D01*
X6133456Y-53460000D01*
X6395239Y-53407928D01*
X6641833Y-53305785D01*
X6863762Y-53157497D01*
X6886259Y-53135000D01*
X10306957Y-53135000D01*
X10410363Y-53289759D01*
X10610241Y-53489637D01*
X10845273Y-53646680D01*
X11106426Y-53754853D01*
X11383665Y-53810000D01*
X11666335Y-53810000D01*
X11943574Y-53754853D01*
X12204727Y-53646680D01*
X12439759Y-53489637D01*
X12639637Y-53289759D01*
X12796680Y-53054727D01*
X12904853Y-52793574D01*
X12960000Y-52516335D01*
X12960000Y-52233665D01*
X12904853Y-51956426D01*
X12796680Y-51695273D01*
X12639637Y-51460241D01*
X12439759Y-51260363D01*
X12204727Y-51103320D01*
X11943574Y-50995147D01*
X11666335Y-50940000D01*
X11383665Y-50940000D01*
X11106426Y-50995147D01*
X10845273Y-51103320D01*
X10610241Y-51260363D01*
X10410363Y-51460241D01*
X10306957Y-51615000D01*
X7263677Y-51615000D01*
X7200785Y-51463167D01*
X7052497Y-51241238D01*
X6863762Y-51052503D01*
X6641833Y-50904215D01*
X6506601Y-50848200D01*
X11201115Y-46153688D01*
X11383665Y-46190000D01*
X11666335Y-46190000D01*
X11943574Y-46134853D01*
X12204727Y-46026680D01*
X12439759Y-45869637D01*
X12639637Y-45669759D01*
X12743043Y-45515000D01*
X13207678Y-45515000D01*
X13245000Y-45518676D01*
X13282322Y-45515000D01*
X13282333Y-45515000D01*
X13393986Y-45504003D01*
X13537247Y-45460546D01*
X13669276Y-45389974D01*
X13785001Y-45295001D01*
X13808804Y-45265997D01*
X15786730Y-43288072D01*
X16550000Y-43288072D01*
X16674482Y-43275812D01*
X16794180Y-43239502D01*
X16904494Y-43180537D01*
X17001185Y-43101185D01*
X17080537Y-43004494D01*
X17139502Y-42894180D01*
X17175812Y-42774482D01*
X17188072Y-42650000D01*
X17188072Y-41450000D01*
X17175812Y-41325518D01*
X17139502Y-41205820D01*
X17080537Y-41095506D01*
X17001185Y-40998815D01*
X16904494Y-40919463D01*
X16858994Y-40895142D01*
X16916872Y-40837264D01*
X16799766Y-40720158D01*
X17023348Y-40672852D01*
X17124237Y-40451484D01*
X17180000Y-40214687D01*
X17188495Y-39971562D01*
X17149395Y-39731451D01*
X17064202Y-39503582D01*
X17023348Y-39427148D01*
X16799764Y-39379841D01*
X16129605Y-40050000D01*
X16143748Y-40064143D01*
X15964143Y-40243748D01*
X15950000Y-40229605D01*
X15935858Y-40243748D01*
X15756253Y-40064143D01*
X15770395Y-40050000D01*
X15100236Y-39379841D01*
X14876652Y-39427148D01*
X14775763Y-39648516D01*
X14720000Y-39885313D01*
X14711505Y-40128438D01*
X14750605Y-40368549D01*
X14835798Y-40596418D01*
X14876652Y-40672852D01*
X15100234Y-40720158D01*
X14983128Y-40837264D01*
X15041006Y-40895142D01*
X14995506Y-40919463D01*
X14898815Y-40998815D01*
X14819463Y-41095506D01*
X14760498Y-41205820D01*
X14724188Y-41325518D01*
X14711928Y-41450000D01*
X14711928Y-42213270D01*
X12930199Y-43995000D01*
X12743043Y-43995000D01*
X12639637Y-43840241D01*
X12439759Y-43640363D01*
X12204727Y-43483320D01*
X11943574Y-43375147D01*
X11666335Y-43320000D01*
X11383665Y-43320000D01*
X11106426Y-43375147D01*
X10845273Y-43483320D01*
X10610241Y-43640363D01*
X10410363Y-43840241D01*
X10253320Y-44075273D01*
X10145147Y-44336426D01*
X10090000Y-44613665D01*
X10090000Y-44896335D01*
X10126312Y-45078885D01*
X4285500Y-50919699D01*
X4285500Y-50643063D01*
X4323762Y-50617497D01*
X4512497Y-50428762D01*
X4660785Y-50206833D01*
X4762928Y-49960239D01*
X4815000Y-49698456D01*
X4815000Y-49431544D01*
X4762928Y-49169761D01*
X4660785Y-48923167D01*
X4512497Y-48701238D01*
X4323762Y-48512503D01*
X4285500Y-48486937D01*
X4285500Y-46891544D01*
X4645000Y-46891544D01*
X4645000Y-47158456D01*
X4697072Y-47420239D01*
X4799215Y-47666833D01*
X4947503Y-47888762D01*
X5136238Y-48077497D01*
X5358167Y-48225785D01*
X5604761Y-48327928D01*
X5866544Y-48380000D01*
X6133456Y-48380000D01*
X6395239Y-48327928D01*
X6641833Y-48225785D01*
X6863762Y-48077497D01*
X7052497Y-47888762D01*
X7200785Y-47666833D01*
X7302928Y-47420239D01*
X7355000Y-47158456D01*
X7355000Y-46891544D01*
X7302928Y-46629761D01*
X7200785Y-46383167D01*
X7052497Y-46161238D01*
X6863762Y-45972503D01*
X6641833Y-45824215D01*
X6395239Y-45722072D01*
X6133456Y-45670000D01*
X5866544Y-45670000D01*
X5604761Y-45722072D01*
X5358167Y-45824215D01*
X5136238Y-45972503D01*
X4947503Y-46161238D01*
X4799215Y-46383167D01*
X4697072Y-46629761D01*
X4645000Y-46891544D01*
X4285500Y-46891544D01*
X4285500Y-41181932D01*
X6267196Y-39200236D01*
X15279841Y-39200236D01*
X15950000Y-39870395D01*
X16620159Y-39200236D01*
X16572852Y-38976652D01*
X16351484Y-38875763D01*
X16114687Y-38820000D01*
X15871562Y-38811505D01*
X15631451Y-38850605D01*
X15403582Y-38935798D01*
X15327148Y-38976652D01*
X15279841Y-39200236D01*
X6267196Y-39200236D01*
X12595542Y-32871890D01*
X14508524Y-32871890D01*
X14553175Y-33019099D01*
X14678359Y-33281920D01*
X14852412Y-33515269D01*
X15068645Y-33710178D01*
X15318748Y-33859157D01*
X15593109Y-33956481D01*
X15823000Y-33835814D01*
X15823000Y-32642000D01*
X16077000Y-32642000D01*
X16077000Y-33835814D01*
X16306891Y-33956481D01*
X16581252Y-33859157D01*
X16831355Y-33710178D01*
X17047588Y-33515269D01*
X17221641Y-33281920D01*
X17346825Y-33019099D01*
X17391476Y-32871890D01*
X17270155Y-32642000D01*
X16077000Y-32642000D01*
X15823000Y-32642000D01*
X14629845Y-32642000D01*
X14508524Y-32871890D01*
X12595542Y-32871890D01*
X14484374Y-30983059D01*
X14510498Y-31069180D01*
X14569463Y-31179494D01*
X14648815Y-31276185D01*
X14745506Y-31355537D01*
X14855820Y-31414502D01*
X14936466Y-31438966D01*
X14852412Y-31514731D01*
X14678359Y-31748080D01*
X14553175Y-32010901D01*
X14508524Y-32158110D01*
X14629845Y-32388000D01*
X15823000Y-32388000D01*
X15823000Y-32368000D01*
X16077000Y-32368000D01*
X16077000Y-32388000D01*
X17270155Y-32388000D01*
X17391476Y-32158110D01*
X17346825Y-32010901D01*
X17221641Y-31748080D01*
X17047588Y-31514731D01*
X16963534Y-31438966D01*
X17044180Y-31414502D01*
X17154494Y-31355537D01*
X17251185Y-31276185D01*
X17330537Y-31179494D01*
X17389502Y-31069180D01*
X17425812Y-30949482D01*
X17438072Y-30825000D01*
X17438072Y-29925500D01*
X19756777Y-29925500D01*
X19749188Y-29950518D01*
%TD*%
M02*
