%TF.GenerationSoftware,KiCad,Pcbnew,(5.1.6-0-10_14)*%
%TF.CreationDate,2020-10-28T22:54:16-04:00*%
%TF.ProjectId,weather_external,77656174-6865-4725-9f65-787465726e61,rev?*%
%TF.SameCoordinates,Original*%
%TF.FileFunction,Copper,L1,Top*%
%TF.FilePolarity,Positive*%
%FSLAX46Y46*%
G04 Gerber Fmt 4.6, Leading zero omitted, Abs format (unit mm)*
G04 Created by KiCad (PCBNEW (5.1.6-0-10_14)) date 2020-10-28 22:54:16*
%MOMM*%
%LPD*%
G01*
G04 APERTURE LIST*
%TA.AperFunction,ComponentPad*%
%ADD10O,1.700000X1.700000*%
%TD*%
%TA.AperFunction,ComponentPad*%
%ADD11R,1.700000X1.700000*%
%TD*%
%TA.AperFunction,ComponentPad*%
%ADD12C,1.600000*%
%TD*%
%TA.AperFunction,SMDPad,CuDef*%
%ADD13R,2.500000X1.000000*%
%TD*%
%TA.AperFunction,SMDPad,CuDef*%
%ADD14R,1.000000X1.800000*%
%TD*%
%TA.AperFunction,ComponentPad*%
%ADD15C,1.200000*%
%TD*%
%TA.AperFunction,ComponentPad*%
%ADD16R,1.200000X1.200000*%
%TD*%
%TA.AperFunction,ComponentPad*%
%ADD17O,1.200000X1.750000*%
%TD*%
%TA.AperFunction,ViaPad*%
%ADD18C,0.800000*%
%TD*%
%TA.AperFunction,Conductor*%
%ADD19C,0.250000*%
%TD*%
%TA.AperFunction,Conductor*%
%ADD20C,0.254000*%
%TD*%
G04 APERTURE END LIST*
D10*
%TO.P,FTDI1,4*%
%TO.N,RST*%
X-1425000Y-86630000D03*
%TO.P,FTDI1,3*%
%TO.N,RX*%
X-1425000Y-89170000D03*
%TO.P,FTDI1,2*%
%TO.N,TX*%
X-1425000Y-91710000D03*
D11*
%TO.P,FTDI1,1*%
%TO.N,GPIO0*%
X-1425000Y-94250000D03*
%TD*%
D12*
%TO.P,C3,2*%
%TO.N,RST*%
X1150000Y-78875000D03*
%TO.P,C3,1*%
%TO.N,GPIO15*%
X3650000Y-78875000D03*
%TD*%
D10*
%TO.P,I2C1,4*%
%TO.N,SDA*%
X3150000Y-94270000D03*
%TO.P,I2C1,3*%
%TO.N,SCL*%
X3150000Y-91730000D03*
%TO.P,I2C1,2*%
%TO.N,GPIO15*%
X3150000Y-89190000D03*
D11*
%TO.P,I2C1,1*%
%TO.N,+3V3*%
X3150000Y-86650000D03*
%TD*%
D10*
%TO.P,J1,2*%
%TO.N,GPIO15*%
X-1440000Y-82925000D03*
D11*
%TO.P,J1,1*%
%TO.N,+3V3*%
X1100000Y-82925000D03*
%TD*%
D13*
%TO.P,ESP8266-12E1,22*%
%TO.N,TX*%
X6650000Y-87925000D03*
%TO.P,ESP8266-12E1,21*%
%TO.N,RX*%
X6650000Y-85925000D03*
%TO.P,ESP8266-12E1,20*%
%TO.N,SCL*%
X6650000Y-83925000D03*
%TO.P,ESP8266-12E1,19*%
%TO.N,SDA*%
X6650000Y-81925000D03*
%TO.P,ESP8266-12E1,18*%
%TO.N,GPIO0*%
X6650000Y-79925000D03*
%TO.P,ESP8266-12E1,17*%
%TO.N,GPIO2*%
X6650000Y-77925000D03*
%TO.P,ESP8266-12E1,16*%
%TO.N,GPIO15*%
X6650000Y-75925000D03*
%TO.P,ESP8266-12E1,15*%
X6650000Y-73925000D03*
D14*
%TO.P,ESP8266-12E1,14*%
%TO.N,N/C*%
X9250000Y-72425000D03*
%TO.P,ESP8266-12E1,13*%
X11250000Y-72425000D03*
%TO.P,ESP8266-12E1,12*%
X13250000Y-72425000D03*
%TO.P,ESP8266-12E1,11*%
X15250000Y-72425000D03*
%TO.P,ESP8266-12E1,10*%
X17250000Y-72425000D03*
%TO.P,ESP8266-12E1,9*%
X19250000Y-72425000D03*
D13*
%TO.P,ESP8266-12E1,8*%
%TO.N,+3V3*%
X21850000Y-73925000D03*
%TO.P,ESP8266-12E1,7*%
%TO.N,N/C*%
X21850000Y-75925000D03*
%TO.P,ESP8266-12E1,6*%
X21850000Y-77925000D03*
%TO.P,ESP8266-12E1,5*%
X21850000Y-79925000D03*
%TO.P,ESP8266-12E1,4*%
%TO.N,GPIO16*%
X21850000Y-81925000D03*
%TO.P,ESP8266-12E1,3*%
%TO.N,EN*%
X21850000Y-83925000D03*
%TO.P,ESP8266-12E1,2*%
%TO.N,N/C*%
X21850000Y-85925000D03*
%TO.P,ESP8266-12E1,1*%
%TO.N,RST*%
X21850000Y-87925000D03*
%TD*%
D15*
%TO.P,C2,2*%
%TO.N,GPIO15*%
X7000000Y-69525000D03*
D16*
%TO.P,C2,1*%
%TO.N,+3V3*%
X7000000Y-68025000D03*
%TD*%
D17*
%TO.P,J2,2*%
%TO.N,GPIO15*%
X19525000Y-67475000D03*
%TO.P,J2,1*%
%TO.N,+3V3*%
%TA.AperFunction,ComponentPad*%
G36*
G01*
X16925000Y-68100001D02*
X16925000Y-66849999D01*
G75*
G02*
X17174999Y-66600000I249999J0D01*
G01*
X17875001Y-66600000D01*
G75*
G02*
X18125000Y-66849999I0J-249999D01*
G01*
X18125000Y-68100001D01*
G75*
G02*
X17875001Y-68350000I-249999J0D01*
G01*
X17174999Y-68350000D01*
G75*
G02*
X16925000Y-68100001I0J249999D01*
G01*
G37*
%TD.AperFunction*%
%TD*%
D15*
%TO.P,C1,2*%
%TO.N,GPIO15*%
X12100000Y-69475000D03*
D16*
%TO.P,C1,1*%
%TO.N,+3V3*%
X12100000Y-67975000D03*
%TD*%
D18*
%TO.N,+3V3*%
X18000000Y-75675000D03*
%TO.N,RST*%
X15625000Y-88300000D03*
%TO.N,GPIO0*%
X10050000Y-79725000D03*
%TO.N,GPIO2*%
X10025000Y-76400000D03*
%TO.N,GPIO16*%
X15200000Y-83850000D03*
%TO.N,EN*%
X18250000Y-84450000D03*
%TD*%
D19*
%TO.N,+3V3*%
X19750000Y-73925000D02*
X21850000Y-73925000D01*
X18000000Y-75675000D02*
X19750000Y-73925000D01*
%TO.N,RST*%
X21475000Y-88300000D02*
X21850000Y-87925000D01*
X15625000Y-88300000D02*
X21475000Y-88300000D01*
%TO.N,TX*%
X-80001Y-90365001D02*
X4209999Y-90365001D01*
X4209999Y-90365001D02*
X6650000Y-87925000D01*
X-1425000Y-91710000D02*
X-80001Y-90365001D01*
%TO.N,RX*%
X6314998Y-85925000D02*
X6650000Y-85925000D01*
X4414997Y-87825001D02*
X6314998Y-85925000D01*
X-80001Y-87825001D02*
X4414997Y-87825001D01*
X-1425000Y-89170000D02*
X-80001Y-87825001D01*
%TO.N,SCL*%
X8225001Y-84000001D02*
X8150000Y-83925000D01*
X8225001Y-88685001D02*
X8225001Y-84000001D01*
X8150000Y-83925000D02*
X6650000Y-83925000D01*
X5180002Y-91730000D02*
X8225001Y-88685001D01*
X3150000Y-91730000D02*
X5180002Y-91730000D01*
%TO.N,SDA*%
X8150000Y-81925000D02*
X6650000Y-81925000D01*
X8675011Y-82450011D02*
X8150000Y-81925000D01*
X4352081Y-94270000D02*
X8675011Y-89947070D01*
X8675011Y-89947070D02*
X8675011Y-82450011D01*
X3150000Y-94270000D02*
X4352081Y-94270000D01*
%TO.N,GPIO0*%
X8150000Y-79925000D02*
X6650000Y-79925000D01*
X9125021Y-90133470D02*
X9125021Y-80900021D01*
X9125021Y-80900021D02*
X8150000Y-79925000D01*
X3813490Y-95445001D02*
X9125021Y-90133470D01*
X-229999Y-95445001D02*
X3813490Y-95445001D01*
X-1425000Y-94250000D02*
X-229999Y-95445001D01*
X6850000Y-79725000D02*
X6650000Y-79925000D01*
X10050000Y-79725000D02*
X6850000Y-79725000D01*
%TO.N,GPIO2*%
X8500000Y-77925000D02*
X6650000Y-77925000D01*
X10025000Y-76400000D02*
X8500000Y-77925000D01*
%TO.N,GPIO16*%
X17125000Y-81925000D02*
X21850000Y-81925000D01*
X15200000Y-83850000D02*
X17125000Y-81925000D01*
%TO.N,EN*%
X18775000Y-83925000D02*
X21850000Y-83925000D01*
X18250000Y-84450000D02*
X18775000Y-83925000D01*
%TD*%
D20*
%TO.N,GPIO15*%
G36*
X23303000Y-72726867D02*
G01*
X23242517Y-72708520D01*
X23100000Y-72694483D01*
X20600000Y-72694483D01*
X20480517Y-72706251D01*
X20480517Y-71525000D01*
X20466480Y-71382483D01*
X20424910Y-71245443D01*
X20357403Y-71119147D01*
X20266554Y-71008446D01*
X20155853Y-70917597D01*
X20029557Y-70850090D01*
X19892517Y-70808520D01*
X19750000Y-70794483D01*
X18750000Y-70794483D01*
X18607483Y-70808520D01*
X18470443Y-70850090D01*
X18344147Y-70917597D01*
X18250000Y-70994861D01*
X18155853Y-70917597D01*
X18029557Y-70850090D01*
X17892517Y-70808520D01*
X17750000Y-70794483D01*
X16750000Y-70794483D01*
X16607483Y-70808520D01*
X16470443Y-70850090D01*
X16344147Y-70917597D01*
X16250000Y-70994861D01*
X16155853Y-70917597D01*
X16029557Y-70850090D01*
X15892517Y-70808520D01*
X15750000Y-70794483D01*
X14750000Y-70794483D01*
X14607483Y-70808520D01*
X14470443Y-70850090D01*
X14344147Y-70917597D01*
X14250000Y-70994861D01*
X14155853Y-70917597D01*
X14029557Y-70850090D01*
X13892517Y-70808520D01*
X13750000Y-70794483D01*
X12750000Y-70794483D01*
X12607483Y-70808520D01*
X12470443Y-70850090D01*
X12344147Y-70917597D01*
X12250000Y-70994861D01*
X12155853Y-70917597D01*
X12029557Y-70850090D01*
X11892517Y-70808520D01*
X11750000Y-70794483D01*
X10750000Y-70794483D01*
X10607483Y-70808520D01*
X10470443Y-70850090D01*
X10344147Y-70917597D01*
X10250000Y-70994861D01*
X10155853Y-70917597D01*
X10029557Y-70850090D01*
X9892517Y-70808520D01*
X9750000Y-70794483D01*
X8750000Y-70794483D01*
X8607483Y-70808520D01*
X8470443Y-70850090D01*
X8344147Y-70917597D01*
X8233446Y-71008446D01*
X8142597Y-71119147D01*
X8075090Y-71245443D01*
X8033520Y-71382483D01*
X8019483Y-71525000D01*
X8019483Y-72798696D01*
X7900000Y-72786928D01*
X6935750Y-72790000D01*
X6777000Y-72948750D01*
X6777000Y-73798000D01*
X6797000Y-73798000D01*
X6797000Y-74052000D01*
X6777000Y-74052000D01*
X6777000Y-74901250D01*
X6800750Y-74925000D01*
X6777000Y-74948750D01*
X6777000Y-75798000D01*
X8376250Y-75798000D01*
X8535000Y-75639250D01*
X8538072Y-75425000D01*
X8525812Y-75300518D01*
X8489502Y-75180820D01*
X8430537Y-75070506D01*
X8351185Y-74973815D01*
X8291704Y-74925000D01*
X8351185Y-74876185D01*
X8430537Y-74779494D01*
X8489502Y-74669180D01*
X8525812Y-74549482D01*
X8538072Y-74425000D01*
X8535000Y-74210750D01*
X8376252Y-74052002D01*
X8535000Y-74052002D01*
X8535000Y-74019493D01*
X8607483Y-74041480D01*
X8750000Y-74055517D01*
X9750000Y-74055517D01*
X9892517Y-74041480D01*
X10029557Y-73999910D01*
X10155853Y-73932403D01*
X10250000Y-73855139D01*
X10344147Y-73932403D01*
X10470443Y-73999910D01*
X10607483Y-74041480D01*
X10750000Y-74055517D01*
X11750000Y-74055517D01*
X11892517Y-74041480D01*
X12029557Y-73999910D01*
X12155853Y-73932403D01*
X12250000Y-73855139D01*
X12344147Y-73932403D01*
X12470443Y-73999910D01*
X12607483Y-74041480D01*
X12750000Y-74055517D01*
X13750000Y-74055517D01*
X13892517Y-74041480D01*
X14029557Y-73999910D01*
X14155853Y-73932403D01*
X14250000Y-73855139D01*
X14344147Y-73932403D01*
X14470443Y-73999910D01*
X14607483Y-74041480D01*
X14750000Y-74055517D01*
X15750000Y-74055517D01*
X15892517Y-74041480D01*
X16029557Y-73999910D01*
X16155853Y-73932403D01*
X16250000Y-73855139D01*
X16344147Y-73932403D01*
X16470443Y-73999910D01*
X16607483Y-74041480D01*
X16750000Y-74055517D01*
X17750000Y-74055517D01*
X17892517Y-74041480D01*
X18029557Y-73999910D01*
X18155853Y-73932403D01*
X18250000Y-73855139D01*
X18344147Y-73932403D01*
X18470272Y-73999819D01*
X17922091Y-74548000D01*
X17889000Y-74548000D01*
X17671266Y-74591310D01*
X17466165Y-74676266D01*
X17281579Y-74799602D01*
X17124602Y-74956579D01*
X17001266Y-75141165D01*
X16916310Y-75346266D01*
X16873000Y-75564000D01*
X16873000Y-75786000D01*
X16916310Y-76003734D01*
X17001266Y-76208835D01*
X17124602Y-76393421D01*
X17281579Y-76550398D01*
X17466165Y-76673734D01*
X17671266Y-76758690D01*
X17889000Y-76802000D01*
X18111000Y-76802000D01*
X18328734Y-76758690D01*
X18533835Y-76673734D01*
X18718421Y-76550398D01*
X18875398Y-76393421D01*
X18998734Y-76208835D01*
X19083690Y-76003734D01*
X19127000Y-75786000D01*
X19127000Y-75752909D01*
X20018046Y-74861863D01*
X20069861Y-74925000D01*
X19992597Y-75019147D01*
X19925090Y-75145443D01*
X19883520Y-75282483D01*
X19869483Y-75425000D01*
X19869483Y-76425000D01*
X19883520Y-76567517D01*
X19925090Y-76704557D01*
X19992597Y-76830853D01*
X20069861Y-76925000D01*
X19992597Y-77019147D01*
X19925090Y-77145443D01*
X19883520Y-77282483D01*
X19869483Y-77425000D01*
X19869483Y-78425000D01*
X19883520Y-78567517D01*
X19925090Y-78704557D01*
X19992597Y-78830853D01*
X20069861Y-78925000D01*
X19992597Y-79019147D01*
X19925090Y-79145443D01*
X19883520Y-79282483D01*
X19869483Y-79425000D01*
X19869483Y-80425000D01*
X19883520Y-80567517D01*
X19925090Y-80704557D01*
X19992597Y-80830853D01*
X20069861Y-80925000D01*
X19992597Y-81019147D01*
X19963812Y-81073000D01*
X17166848Y-81073000D01*
X17124999Y-81068878D01*
X17083150Y-81073000D01*
X17083148Y-81073000D01*
X16957979Y-81085328D01*
X16797376Y-81134046D01*
X16649363Y-81213161D01*
X16631716Y-81227644D01*
X16519630Y-81319630D01*
X16492950Y-81352140D01*
X15122091Y-82723000D01*
X15089000Y-82723000D01*
X14871266Y-82766310D01*
X14666165Y-82851266D01*
X14481579Y-82974602D01*
X14324602Y-83131579D01*
X14201266Y-83316165D01*
X14116310Y-83521266D01*
X14073000Y-83739000D01*
X14073000Y-83961000D01*
X14116310Y-84178734D01*
X14201266Y-84383835D01*
X14324602Y-84568421D01*
X14481579Y-84725398D01*
X14666165Y-84848734D01*
X14871266Y-84933690D01*
X15089000Y-84977000D01*
X15311000Y-84977000D01*
X15528734Y-84933690D01*
X15733835Y-84848734D01*
X15918421Y-84725398D01*
X16075398Y-84568421D01*
X16198734Y-84383835D01*
X16283690Y-84178734D01*
X16327000Y-83961000D01*
X16327000Y-83927909D01*
X17477910Y-82777000D01*
X19963812Y-82777000D01*
X19992597Y-82830853D01*
X20069861Y-82925000D01*
X19992597Y-83019147D01*
X19963812Y-83073000D01*
X18816848Y-83073000D01*
X18774999Y-83068878D01*
X18733150Y-83073000D01*
X18733148Y-83073000D01*
X18607979Y-83085328D01*
X18455509Y-83131579D01*
X18447376Y-83134046D01*
X18299363Y-83213161D01*
X18265484Y-83240965D01*
X18169630Y-83319630D01*
X18166864Y-83323000D01*
X18139000Y-83323000D01*
X17921266Y-83366310D01*
X17716165Y-83451266D01*
X17531579Y-83574602D01*
X17374602Y-83731579D01*
X17251266Y-83916165D01*
X17166310Y-84121266D01*
X17123000Y-84339000D01*
X17123000Y-84561000D01*
X17166310Y-84778734D01*
X17251266Y-84983835D01*
X17374602Y-85168421D01*
X17531579Y-85325398D01*
X17716165Y-85448734D01*
X17921266Y-85533690D01*
X18139000Y-85577000D01*
X18361000Y-85577000D01*
X18578734Y-85533690D01*
X18783835Y-85448734D01*
X18968421Y-85325398D01*
X19125398Y-85168421D01*
X19248734Y-84983835D01*
X19333690Y-84778734D01*
X19334035Y-84777000D01*
X19963812Y-84777000D01*
X19992597Y-84830853D01*
X20069861Y-84925000D01*
X19992597Y-85019147D01*
X19925090Y-85145443D01*
X19883520Y-85282483D01*
X19869483Y-85425000D01*
X19869483Y-86425000D01*
X19883520Y-86567517D01*
X19925090Y-86704557D01*
X19992597Y-86830853D01*
X20069861Y-86925000D01*
X19992597Y-87019147D01*
X19925090Y-87145443D01*
X19883520Y-87282483D01*
X19869483Y-87425000D01*
X19869483Y-87448000D01*
X16366819Y-87448000D01*
X16343421Y-87424602D01*
X16158835Y-87301266D01*
X15953734Y-87216310D01*
X15736000Y-87173000D01*
X15514000Y-87173000D01*
X15296266Y-87216310D01*
X15091165Y-87301266D01*
X14906579Y-87424602D01*
X14749602Y-87581579D01*
X14626266Y-87766165D01*
X14541310Y-87971266D01*
X14498000Y-88189000D01*
X14498000Y-88411000D01*
X14541310Y-88628734D01*
X14626266Y-88833835D01*
X14749602Y-89018421D01*
X14906579Y-89175398D01*
X15091165Y-89298734D01*
X15296266Y-89383690D01*
X15514000Y-89427000D01*
X15736000Y-89427000D01*
X15953734Y-89383690D01*
X16158835Y-89298734D01*
X16343421Y-89175398D01*
X16366819Y-89152000D01*
X20564292Y-89152000D01*
X20600000Y-89155517D01*
X21468858Y-89155517D01*
X21475000Y-89156122D01*
X21481142Y-89155517D01*
X23100000Y-89155517D01*
X23242517Y-89141480D01*
X23303001Y-89123133D01*
X23303001Y-96709000D01*
X-3237000Y-96709000D01*
X-3237000Y-93400000D01*
X-3005517Y-93400000D01*
X-3005517Y-95100000D01*
X-2991480Y-95242517D01*
X-2949910Y-95379557D01*
X-2882403Y-95505853D01*
X-2791554Y-95616554D01*
X-2680853Y-95707403D01*
X-2554557Y-95774910D01*
X-2417517Y-95816480D01*
X-2275000Y-95830517D01*
X-1049393Y-95830517D01*
X-862049Y-96017861D01*
X-835369Y-96050371D01*
X-705635Y-96156840D01*
X-557623Y-96235955D01*
X-397020Y-96284673D01*
X-271851Y-96297001D01*
X-271848Y-96297001D01*
X-229999Y-96301123D01*
X-188150Y-96297001D01*
X3771641Y-96297001D01*
X3813490Y-96301123D01*
X3855339Y-96297001D01*
X3855342Y-96297001D01*
X3980511Y-96284673D01*
X4141114Y-96235955D01*
X4289126Y-96156840D01*
X4418860Y-96050371D01*
X4445545Y-96017855D01*
X9697882Y-90765519D01*
X9730391Y-90738840D01*
X9795988Y-90658909D01*
X9836860Y-90609107D01*
X9867149Y-90552440D01*
X9915975Y-90461094D01*
X9964693Y-90300491D01*
X9977021Y-90175322D01*
X9977021Y-90175320D01*
X9981143Y-90133471D01*
X9977021Y-90091622D01*
X9977021Y-80941870D01*
X9981143Y-80900021D01*
X9976413Y-80852000D01*
X10161000Y-80852000D01*
X10378734Y-80808690D01*
X10583835Y-80723734D01*
X10768421Y-80600398D01*
X10925398Y-80443421D01*
X11048734Y-80258835D01*
X11133690Y-80053734D01*
X11177000Y-79836000D01*
X11177000Y-79614000D01*
X11133690Y-79396266D01*
X11048734Y-79191165D01*
X10925398Y-79006579D01*
X10768421Y-78849602D01*
X10583835Y-78726266D01*
X10378734Y-78641310D01*
X10161000Y-78598000D01*
X9939000Y-78598000D01*
X9721266Y-78641310D01*
X9516165Y-78726266D01*
X9331579Y-78849602D01*
X9308181Y-78873000D01*
X8472814Y-78873000D01*
X8507403Y-78830853D01*
X8535874Y-78777589D01*
X8541849Y-78777000D01*
X8541852Y-78777000D01*
X8667021Y-78764672D01*
X8827624Y-78715954D01*
X8975636Y-78636839D01*
X9105370Y-78530370D01*
X9132055Y-78497854D01*
X10102910Y-77527000D01*
X10136000Y-77527000D01*
X10353734Y-77483690D01*
X10558835Y-77398734D01*
X10743421Y-77275398D01*
X10900398Y-77118421D01*
X11023734Y-76933835D01*
X11108690Y-76728734D01*
X11152000Y-76511000D01*
X11152000Y-76289000D01*
X11108690Y-76071266D01*
X11023734Y-75866165D01*
X10900398Y-75681579D01*
X10743421Y-75524602D01*
X10558835Y-75401266D01*
X10353734Y-75316310D01*
X10136000Y-75273000D01*
X9914000Y-75273000D01*
X9696266Y-75316310D01*
X9491165Y-75401266D01*
X9306579Y-75524602D01*
X9149602Y-75681579D01*
X9026266Y-75866165D01*
X8941310Y-76071266D01*
X8898000Y-76289000D01*
X8898000Y-76322090D01*
X8384499Y-76835592D01*
X8430537Y-76779494D01*
X8489502Y-76669180D01*
X8525812Y-76549482D01*
X8538072Y-76425000D01*
X8535000Y-76210750D01*
X8376250Y-76052000D01*
X6777000Y-76052000D01*
X6777000Y-76072000D01*
X6523000Y-76072000D01*
X6523000Y-76052000D01*
X4923750Y-76052000D01*
X4765000Y-76210750D01*
X4761928Y-76425000D01*
X4774188Y-76549482D01*
X4810498Y-76669180D01*
X4869463Y-76779494D01*
X4938328Y-76863406D01*
X4883446Y-76908446D01*
X4792597Y-77019147D01*
X4725090Y-77145443D01*
X4683520Y-77282483D01*
X4669483Y-77425000D01*
X4669483Y-78069761D01*
X4642702Y-78061903D01*
X3829605Y-78875000D01*
X4642702Y-79688097D01*
X4669483Y-79680239D01*
X4669483Y-80425000D01*
X4683520Y-80567517D01*
X4725090Y-80704557D01*
X4792597Y-80830853D01*
X4869861Y-80925000D01*
X4792597Y-81019147D01*
X4725090Y-81145443D01*
X4683520Y-81282483D01*
X4669483Y-81425000D01*
X4669483Y-82425000D01*
X4683520Y-82567517D01*
X4725090Y-82704557D01*
X4792597Y-82830853D01*
X4869861Y-82925000D01*
X4792597Y-83019147D01*
X4725090Y-83145443D01*
X4683520Y-83282483D01*
X4669483Y-83425000D01*
X4669483Y-84425000D01*
X4683520Y-84567517D01*
X4725090Y-84704557D01*
X4792597Y-84830853D01*
X4869861Y-84925000D01*
X4792597Y-85019147D01*
X4725090Y-85145443D01*
X4683520Y-85282483D01*
X4669483Y-85425000D01*
X4669483Y-85510290D01*
X4607403Y-85394147D01*
X4516554Y-85283446D01*
X4405853Y-85192597D01*
X4279557Y-85125090D01*
X4142517Y-85083520D01*
X4000000Y-85069483D01*
X2300000Y-85069483D01*
X2157483Y-85083520D01*
X2020443Y-85125090D01*
X1894147Y-85192597D01*
X1783446Y-85283446D01*
X1692597Y-85394147D01*
X1625090Y-85520443D01*
X1583520Y-85657483D01*
X1569483Y-85800000D01*
X1569483Y-86973001D01*
X114668Y-86973001D01*
X152000Y-86785321D01*
X152000Y-86474679D01*
X91396Y-86170006D01*
X-27481Y-85883011D01*
X-200064Y-85624721D01*
X-419721Y-85405064D01*
X-678011Y-85232481D01*
X-965006Y-85113604D01*
X-1269679Y-85053000D01*
X-1580321Y-85053000D01*
X-1884994Y-85113604D01*
X-2171989Y-85232481D01*
X-2430279Y-85405064D01*
X-2649936Y-85624721D01*
X-2822519Y-85883011D01*
X-2941396Y-86170006D01*
X-3002000Y-86474679D01*
X-3002000Y-86785321D01*
X-2941396Y-87089994D01*
X-2822519Y-87376989D01*
X-2649936Y-87635279D01*
X-2430279Y-87854936D01*
X-2362836Y-87900000D01*
X-2430279Y-87945064D01*
X-2649936Y-88164721D01*
X-2822519Y-88423011D01*
X-2941396Y-88710006D01*
X-3002000Y-89014679D01*
X-3002000Y-89325321D01*
X-2941396Y-89629994D01*
X-2822519Y-89916989D01*
X-2649936Y-90175279D01*
X-2430279Y-90394936D01*
X-2362836Y-90440000D01*
X-2430279Y-90485064D01*
X-2649936Y-90704721D01*
X-2822519Y-90963011D01*
X-2941396Y-91250006D01*
X-3002000Y-91554679D01*
X-3002000Y-91865321D01*
X-2941396Y-92169994D01*
X-2822519Y-92456989D01*
X-2649936Y-92715279D01*
X-2610319Y-92754896D01*
X-2680853Y-92792597D01*
X-2791554Y-92883446D01*
X-2882403Y-92994147D01*
X-2949910Y-93120443D01*
X-2991480Y-93257483D01*
X-3005517Y-93400000D01*
X-3237000Y-93400000D01*
X-3237000Y-83281891D01*
X-2881481Y-83281891D01*
X-2784157Y-83556252D01*
X-2635178Y-83806355D01*
X-2440269Y-84022588D01*
X-2206920Y-84196641D01*
X-1944099Y-84321825D01*
X-1796890Y-84366476D01*
X-1567000Y-84245155D01*
X-1567000Y-83052000D01*
X-2760814Y-83052000D01*
X-2881481Y-83281891D01*
X-3237000Y-83281891D01*
X-3237000Y-82568109D01*
X-2881481Y-82568109D01*
X-2760814Y-82798000D01*
X-1567000Y-82798000D01*
X-1567000Y-81604845D01*
X-1313000Y-81604845D01*
X-1313000Y-82798000D01*
X-1293000Y-82798000D01*
X-1293000Y-83052000D01*
X-1313000Y-83052000D01*
X-1313000Y-84245155D01*
X-1083110Y-84366476D01*
X-935901Y-84321825D01*
X-673080Y-84196641D01*
X-439731Y-84022588D01*
X-435898Y-84018335D01*
X-424910Y-84054557D01*
X-357403Y-84180853D01*
X-266554Y-84291554D01*
X-155853Y-84382403D01*
X-29557Y-84449910D01*
X107483Y-84491480D01*
X250000Y-84505517D01*
X1950000Y-84505517D01*
X2092517Y-84491480D01*
X2229557Y-84449910D01*
X2355853Y-84382403D01*
X2466554Y-84291554D01*
X2557403Y-84180853D01*
X2624910Y-84054557D01*
X2666480Y-83917517D01*
X2680517Y-83775000D01*
X2680517Y-82075000D01*
X2666480Y-81932483D01*
X2624910Y-81795443D01*
X2557403Y-81669147D01*
X2466554Y-81558446D01*
X2355853Y-81467597D01*
X2229557Y-81400090D01*
X2092517Y-81358520D01*
X1950000Y-81344483D01*
X250000Y-81344483D01*
X107483Y-81358520D01*
X-29557Y-81400090D01*
X-155853Y-81467597D01*
X-266554Y-81558446D01*
X-357403Y-81669147D01*
X-424910Y-81795443D01*
X-435898Y-81831665D01*
X-439731Y-81827412D01*
X-673080Y-81653359D01*
X-935901Y-81528175D01*
X-1083110Y-81483524D01*
X-1313000Y-81604845D01*
X-1567000Y-81604845D01*
X-1796890Y-81483524D01*
X-1944099Y-81528175D01*
X-2206920Y-81653359D01*
X-2440269Y-81827412D01*
X-2635178Y-82043645D01*
X-2784157Y-82293748D01*
X-2881481Y-82568109D01*
X-3237000Y-82568109D01*
X-3237000Y-78724604D01*
X-377000Y-78724604D01*
X-377000Y-79025396D01*
X-318319Y-79320410D01*
X-203210Y-79598306D01*
X-36099Y-79848406D01*
X176594Y-80061099D01*
X426694Y-80228210D01*
X704590Y-80343319D01*
X999604Y-80402000D01*
X1300396Y-80402000D01*
X1595410Y-80343319D01*
X1873306Y-80228210D01*
X2123406Y-80061099D01*
X2316803Y-79867702D01*
X2836903Y-79867702D01*
X2908486Y-80111671D01*
X3163996Y-80232571D01*
X3438184Y-80301300D01*
X3720512Y-80315217D01*
X4000130Y-80273787D01*
X4266292Y-80178603D01*
X4391514Y-80111671D01*
X4463097Y-79867702D01*
X3650000Y-79054605D01*
X2836903Y-79867702D01*
X2316803Y-79867702D01*
X2336099Y-79848406D01*
X2478305Y-79635579D01*
X2657298Y-79688097D01*
X3470395Y-78875000D01*
X2657298Y-78061903D01*
X2478305Y-78114421D01*
X2336099Y-77901594D01*
X2316803Y-77882298D01*
X2836903Y-77882298D01*
X3650000Y-78695395D01*
X4463097Y-77882298D01*
X4391514Y-77638329D01*
X4136004Y-77517429D01*
X3861816Y-77448700D01*
X3579488Y-77434783D01*
X3299870Y-77476213D01*
X3033708Y-77571397D01*
X2908486Y-77638329D01*
X2836903Y-77882298D01*
X2316803Y-77882298D01*
X2123406Y-77688901D01*
X1873306Y-77521790D01*
X1595410Y-77406681D01*
X1300396Y-77348000D01*
X999604Y-77348000D01*
X704590Y-77406681D01*
X426694Y-77521790D01*
X176594Y-77688901D01*
X-36099Y-77901594D01*
X-203210Y-78151694D01*
X-318319Y-78429590D01*
X-377000Y-78724604D01*
X-3237000Y-78724604D01*
X-3237000Y-74425000D01*
X4761928Y-74425000D01*
X4774188Y-74549482D01*
X4810498Y-74669180D01*
X4869463Y-74779494D01*
X4948815Y-74876185D01*
X5008296Y-74925000D01*
X4948815Y-74973815D01*
X4869463Y-75070506D01*
X4810498Y-75180820D01*
X4774188Y-75300518D01*
X4761928Y-75425000D01*
X4765000Y-75639250D01*
X4923750Y-75798000D01*
X6523000Y-75798000D01*
X6523000Y-74948750D01*
X6499250Y-74925000D01*
X6523000Y-74901250D01*
X6523000Y-74052000D01*
X4923750Y-74052000D01*
X4765000Y-74210750D01*
X4761928Y-74425000D01*
X-3237000Y-74425000D01*
X-3237000Y-73425000D01*
X4761928Y-73425000D01*
X4765000Y-73639250D01*
X4923750Y-73798000D01*
X6523000Y-73798000D01*
X6523000Y-72948750D01*
X6364250Y-72790000D01*
X5400000Y-72786928D01*
X5275518Y-72799188D01*
X5155820Y-72835498D01*
X5045506Y-72894463D01*
X4948815Y-72973815D01*
X4869463Y-73070506D01*
X4810498Y-73180820D01*
X4774188Y-73300518D01*
X4761928Y-73425000D01*
X-3237000Y-73425000D01*
X-3237000Y-70374764D01*
X6329841Y-70374764D01*
X6377148Y-70598348D01*
X6598516Y-70699237D01*
X6835313Y-70755000D01*
X7078438Y-70763495D01*
X7318549Y-70724395D01*
X7546418Y-70639202D01*
X7622852Y-70598348D01*
X7670159Y-70374764D01*
X7620159Y-70324764D01*
X11429841Y-70324764D01*
X11477148Y-70548348D01*
X11698516Y-70649237D01*
X11935313Y-70705000D01*
X12178438Y-70713495D01*
X12418549Y-70674395D01*
X12646418Y-70589202D01*
X12722852Y-70548348D01*
X12770159Y-70324764D01*
X12100000Y-69654605D01*
X11429841Y-70324764D01*
X7620159Y-70324764D01*
X7000000Y-69704605D01*
X6329841Y-70374764D01*
X-3237000Y-70374764D01*
X-3237000Y-67425000D01*
X5669483Y-67425000D01*
X5669483Y-68625000D01*
X5683520Y-68767517D01*
X5725090Y-68904557D01*
X5792597Y-69030853D01*
X5841073Y-69089922D01*
X5825763Y-69123516D01*
X5770000Y-69360313D01*
X5761505Y-69603438D01*
X5800605Y-69843549D01*
X5885798Y-70071418D01*
X5926652Y-70147852D01*
X6150236Y-70195159D01*
X6820395Y-69525000D01*
X6806253Y-69510858D01*
X6961593Y-69355517D01*
X7038407Y-69355517D01*
X7193748Y-69510858D01*
X7179605Y-69525000D01*
X7849764Y-70195159D01*
X8073348Y-70147852D01*
X8174237Y-69926484D01*
X8230000Y-69689687D01*
X8238495Y-69446562D01*
X8199395Y-69206451D01*
X8156798Y-69092516D01*
X8207403Y-69030853D01*
X8274910Y-68904557D01*
X8316480Y-68767517D01*
X8330517Y-68625000D01*
X8330517Y-67425000D01*
X8325593Y-67375000D01*
X10769483Y-67375000D01*
X10769483Y-68575000D01*
X10783520Y-68717517D01*
X10825090Y-68854557D01*
X10892597Y-68980853D01*
X10941073Y-69039922D01*
X10925763Y-69073516D01*
X10870000Y-69310313D01*
X10861505Y-69553438D01*
X10900605Y-69793549D01*
X10985798Y-70021418D01*
X11026652Y-70097852D01*
X11250236Y-70145159D01*
X11920395Y-69475000D01*
X11906253Y-69460858D01*
X12061593Y-69305517D01*
X12138407Y-69305517D01*
X12293748Y-69460858D01*
X12279605Y-69475000D01*
X12949764Y-70145159D01*
X13173348Y-70097852D01*
X13274237Y-69876484D01*
X13330000Y-69639687D01*
X13338495Y-69396562D01*
X13299395Y-69156451D01*
X13256798Y-69042516D01*
X13307403Y-68980853D01*
X13374910Y-68854557D01*
X13416480Y-68717517D01*
X13430517Y-68575000D01*
X13430517Y-67375000D01*
X13416480Y-67232483D01*
X13374910Y-67095443D01*
X13307403Y-66969147D01*
X13216554Y-66858446D01*
X13206262Y-66849999D01*
X16194483Y-66849999D01*
X16194483Y-68100001D01*
X16213323Y-68291290D01*
X16269120Y-68475228D01*
X16359730Y-68644747D01*
X16481669Y-68793331D01*
X16630253Y-68915270D01*
X16799772Y-69005880D01*
X16983710Y-69061677D01*
X17174999Y-69080517D01*
X17875001Y-69080517D01*
X18066290Y-69061677D01*
X18250228Y-69005880D01*
X18419747Y-68915270D01*
X18568331Y-68793331D01*
X18682345Y-68654404D01*
X18741526Y-68713078D01*
X18944467Y-68847421D01*
X19169718Y-68939591D01*
X19207391Y-68943462D01*
X19398000Y-68818731D01*
X19398000Y-67602000D01*
X19652000Y-67602000D01*
X19652000Y-68818731D01*
X19842609Y-68943462D01*
X19880282Y-68939591D01*
X20105533Y-68847421D01*
X20308474Y-68713078D01*
X20481307Y-68541725D01*
X20617390Y-68339946D01*
X20711493Y-68115496D01*
X20760000Y-67877000D01*
X20760000Y-67602000D01*
X19652000Y-67602000D01*
X19398000Y-67602000D01*
X19378000Y-67602000D01*
X19378000Y-67348000D01*
X19398000Y-67348000D01*
X19398000Y-66131269D01*
X19652000Y-66131269D01*
X19652000Y-67348000D01*
X20760000Y-67348000D01*
X20760000Y-67073000D01*
X20711493Y-66834504D01*
X20617390Y-66610054D01*
X20481307Y-66408275D01*
X20308474Y-66236922D01*
X20105533Y-66102579D01*
X19880282Y-66010409D01*
X19842609Y-66006538D01*
X19652000Y-66131269D01*
X19398000Y-66131269D01*
X19207391Y-66006538D01*
X19169718Y-66010409D01*
X18944467Y-66102579D01*
X18741526Y-66236922D01*
X18682345Y-66295596D01*
X18568331Y-66156669D01*
X18419747Y-66034730D01*
X18250228Y-65944120D01*
X18066290Y-65888323D01*
X17875001Y-65869483D01*
X17174999Y-65869483D01*
X16983710Y-65888323D01*
X16799772Y-65944120D01*
X16630253Y-66034730D01*
X16481669Y-66156669D01*
X16359730Y-66305253D01*
X16269120Y-66474772D01*
X16213323Y-66658710D01*
X16194483Y-66849999D01*
X13206262Y-66849999D01*
X13105853Y-66767597D01*
X12979557Y-66700090D01*
X12842517Y-66658520D01*
X12700000Y-66644483D01*
X11500000Y-66644483D01*
X11357483Y-66658520D01*
X11220443Y-66700090D01*
X11094147Y-66767597D01*
X10983446Y-66858446D01*
X10892597Y-66969147D01*
X10825090Y-67095443D01*
X10783520Y-67232483D01*
X10769483Y-67375000D01*
X8325593Y-67375000D01*
X8316480Y-67282483D01*
X8274910Y-67145443D01*
X8207403Y-67019147D01*
X8116554Y-66908446D01*
X8005853Y-66817597D01*
X7879557Y-66750090D01*
X7742517Y-66708520D01*
X7600000Y-66694483D01*
X6400000Y-66694483D01*
X6257483Y-66708520D01*
X6120443Y-66750090D01*
X5994147Y-66817597D01*
X5883446Y-66908446D01*
X5792597Y-67019147D01*
X5725090Y-67145443D01*
X5683520Y-67282483D01*
X5669483Y-67425000D01*
X-3237000Y-67425000D01*
X-3237000Y-65597000D01*
X23303000Y-65597000D01*
X23303000Y-72726867D01*
G37*
X23303000Y-72726867D02*
X23242517Y-72708520D01*
X23100000Y-72694483D01*
X20600000Y-72694483D01*
X20480517Y-72706251D01*
X20480517Y-71525000D01*
X20466480Y-71382483D01*
X20424910Y-71245443D01*
X20357403Y-71119147D01*
X20266554Y-71008446D01*
X20155853Y-70917597D01*
X20029557Y-70850090D01*
X19892517Y-70808520D01*
X19750000Y-70794483D01*
X18750000Y-70794483D01*
X18607483Y-70808520D01*
X18470443Y-70850090D01*
X18344147Y-70917597D01*
X18250000Y-70994861D01*
X18155853Y-70917597D01*
X18029557Y-70850090D01*
X17892517Y-70808520D01*
X17750000Y-70794483D01*
X16750000Y-70794483D01*
X16607483Y-70808520D01*
X16470443Y-70850090D01*
X16344147Y-70917597D01*
X16250000Y-70994861D01*
X16155853Y-70917597D01*
X16029557Y-70850090D01*
X15892517Y-70808520D01*
X15750000Y-70794483D01*
X14750000Y-70794483D01*
X14607483Y-70808520D01*
X14470443Y-70850090D01*
X14344147Y-70917597D01*
X14250000Y-70994861D01*
X14155853Y-70917597D01*
X14029557Y-70850090D01*
X13892517Y-70808520D01*
X13750000Y-70794483D01*
X12750000Y-70794483D01*
X12607483Y-70808520D01*
X12470443Y-70850090D01*
X12344147Y-70917597D01*
X12250000Y-70994861D01*
X12155853Y-70917597D01*
X12029557Y-70850090D01*
X11892517Y-70808520D01*
X11750000Y-70794483D01*
X10750000Y-70794483D01*
X10607483Y-70808520D01*
X10470443Y-70850090D01*
X10344147Y-70917597D01*
X10250000Y-70994861D01*
X10155853Y-70917597D01*
X10029557Y-70850090D01*
X9892517Y-70808520D01*
X9750000Y-70794483D01*
X8750000Y-70794483D01*
X8607483Y-70808520D01*
X8470443Y-70850090D01*
X8344147Y-70917597D01*
X8233446Y-71008446D01*
X8142597Y-71119147D01*
X8075090Y-71245443D01*
X8033520Y-71382483D01*
X8019483Y-71525000D01*
X8019483Y-72798696D01*
X7900000Y-72786928D01*
X6935750Y-72790000D01*
X6777000Y-72948750D01*
X6777000Y-73798000D01*
X6797000Y-73798000D01*
X6797000Y-74052000D01*
X6777000Y-74052000D01*
X6777000Y-74901250D01*
X6800750Y-74925000D01*
X6777000Y-74948750D01*
X6777000Y-75798000D01*
X8376250Y-75798000D01*
X8535000Y-75639250D01*
X8538072Y-75425000D01*
X8525812Y-75300518D01*
X8489502Y-75180820D01*
X8430537Y-75070506D01*
X8351185Y-74973815D01*
X8291704Y-74925000D01*
X8351185Y-74876185D01*
X8430537Y-74779494D01*
X8489502Y-74669180D01*
X8525812Y-74549482D01*
X8538072Y-74425000D01*
X8535000Y-74210750D01*
X8376252Y-74052002D01*
X8535000Y-74052002D01*
X8535000Y-74019493D01*
X8607483Y-74041480D01*
X8750000Y-74055517D01*
X9750000Y-74055517D01*
X9892517Y-74041480D01*
X10029557Y-73999910D01*
X10155853Y-73932403D01*
X10250000Y-73855139D01*
X10344147Y-73932403D01*
X10470443Y-73999910D01*
X10607483Y-74041480D01*
X10750000Y-74055517D01*
X11750000Y-74055517D01*
X11892517Y-74041480D01*
X12029557Y-73999910D01*
X12155853Y-73932403D01*
X12250000Y-73855139D01*
X12344147Y-73932403D01*
X12470443Y-73999910D01*
X12607483Y-74041480D01*
X12750000Y-74055517D01*
X13750000Y-74055517D01*
X13892517Y-74041480D01*
X14029557Y-73999910D01*
X14155853Y-73932403D01*
X14250000Y-73855139D01*
X14344147Y-73932403D01*
X14470443Y-73999910D01*
X14607483Y-74041480D01*
X14750000Y-74055517D01*
X15750000Y-74055517D01*
X15892517Y-74041480D01*
X16029557Y-73999910D01*
X16155853Y-73932403D01*
X16250000Y-73855139D01*
X16344147Y-73932403D01*
X16470443Y-73999910D01*
X16607483Y-74041480D01*
X16750000Y-74055517D01*
X17750000Y-74055517D01*
X17892517Y-74041480D01*
X18029557Y-73999910D01*
X18155853Y-73932403D01*
X18250000Y-73855139D01*
X18344147Y-73932403D01*
X18470272Y-73999819D01*
X17922091Y-74548000D01*
X17889000Y-74548000D01*
X17671266Y-74591310D01*
X17466165Y-74676266D01*
X17281579Y-74799602D01*
X17124602Y-74956579D01*
X17001266Y-75141165D01*
X16916310Y-75346266D01*
X16873000Y-75564000D01*
X16873000Y-75786000D01*
X16916310Y-76003734D01*
X17001266Y-76208835D01*
X17124602Y-76393421D01*
X17281579Y-76550398D01*
X17466165Y-76673734D01*
X17671266Y-76758690D01*
X17889000Y-76802000D01*
X18111000Y-76802000D01*
X18328734Y-76758690D01*
X18533835Y-76673734D01*
X18718421Y-76550398D01*
X18875398Y-76393421D01*
X18998734Y-76208835D01*
X19083690Y-76003734D01*
X19127000Y-75786000D01*
X19127000Y-75752909D01*
X20018046Y-74861863D01*
X20069861Y-74925000D01*
X19992597Y-75019147D01*
X19925090Y-75145443D01*
X19883520Y-75282483D01*
X19869483Y-75425000D01*
X19869483Y-76425000D01*
X19883520Y-76567517D01*
X19925090Y-76704557D01*
X19992597Y-76830853D01*
X20069861Y-76925000D01*
X19992597Y-77019147D01*
X19925090Y-77145443D01*
X19883520Y-77282483D01*
X19869483Y-77425000D01*
X19869483Y-78425000D01*
X19883520Y-78567517D01*
X19925090Y-78704557D01*
X19992597Y-78830853D01*
X20069861Y-78925000D01*
X19992597Y-79019147D01*
X19925090Y-79145443D01*
X19883520Y-79282483D01*
X19869483Y-79425000D01*
X19869483Y-80425000D01*
X19883520Y-80567517D01*
X19925090Y-80704557D01*
X19992597Y-80830853D01*
X20069861Y-80925000D01*
X19992597Y-81019147D01*
X19963812Y-81073000D01*
X17166848Y-81073000D01*
X17124999Y-81068878D01*
X17083150Y-81073000D01*
X17083148Y-81073000D01*
X16957979Y-81085328D01*
X16797376Y-81134046D01*
X16649363Y-81213161D01*
X16631716Y-81227644D01*
X16519630Y-81319630D01*
X16492950Y-81352140D01*
X15122091Y-82723000D01*
X15089000Y-82723000D01*
X14871266Y-82766310D01*
X14666165Y-82851266D01*
X14481579Y-82974602D01*
X14324602Y-83131579D01*
X14201266Y-83316165D01*
X14116310Y-83521266D01*
X14073000Y-83739000D01*
X14073000Y-83961000D01*
X14116310Y-84178734D01*
X14201266Y-84383835D01*
X14324602Y-84568421D01*
X14481579Y-84725398D01*
X14666165Y-84848734D01*
X14871266Y-84933690D01*
X15089000Y-84977000D01*
X15311000Y-84977000D01*
X15528734Y-84933690D01*
X15733835Y-84848734D01*
X15918421Y-84725398D01*
X16075398Y-84568421D01*
X16198734Y-84383835D01*
X16283690Y-84178734D01*
X16327000Y-83961000D01*
X16327000Y-83927909D01*
X17477910Y-82777000D01*
X19963812Y-82777000D01*
X19992597Y-82830853D01*
X20069861Y-82925000D01*
X19992597Y-83019147D01*
X19963812Y-83073000D01*
X18816848Y-83073000D01*
X18774999Y-83068878D01*
X18733150Y-83073000D01*
X18733148Y-83073000D01*
X18607979Y-83085328D01*
X18455509Y-83131579D01*
X18447376Y-83134046D01*
X18299363Y-83213161D01*
X18265484Y-83240965D01*
X18169630Y-83319630D01*
X18166864Y-83323000D01*
X18139000Y-83323000D01*
X17921266Y-83366310D01*
X17716165Y-83451266D01*
X17531579Y-83574602D01*
X17374602Y-83731579D01*
X17251266Y-83916165D01*
X17166310Y-84121266D01*
X17123000Y-84339000D01*
X17123000Y-84561000D01*
X17166310Y-84778734D01*
X17251266Y-84983835D01*
X17374602Y-85168421D01*
X17531579Y-85325398D01*
X17716165Y-85448734D01*
X17921266Y-85533690D01*
X18139000Y-85577000D01*
X18361000Y-85577000D01*
X18578734Y-85533690D01*
X18783835Y-85448734D01*
X18968421Y-85325398D01*
X19125398Y-85168421D01*
X19248734Y-84983835D01*
X19333690Y-84778734D01*
X19334035Y-84777000D01*
X19963812Y-84777000D01*
X19992597Y-84830853D01*
X20069861Y-84925000D01*
X19992597Y-85019147D01*
X19925090Y-85145443D01*
X19883520Y-85282483D01*
X19869483Y-85425000D01*
X19869483Y-86425000D01*
X19883520Y-86567517D01*
X19925090Y-86704557D01*
X19992597Y-86830853D01*
X20069861Y-86925000D01*
X19992597Y-87019147D01*
X19925090Y-87145443D01*
X19883520Y-87282483D01*
X19869483Y-87425000D01*
X19869483Y-87448000D01*
X16366819Y-87448000D01*
X16343421Y-87424602D01*
X16158835Y-87301266D01*
X15953734Y-87216310D01*
X15736000Y-87173000D01*
X15514000Y-87173000D01*
X15296266Y-87216310D01*
X15091165Y-87301266D01*
X14906579Y-87424602D01*
X14749602Y-87581579D01*
X14626266Y-87766165D01*
X14541310Y-87971266D01*
X14498000Y-88189000D01*
X14498000Y-88411000D01*
X14541310Y-88628734D01*
X14626266Y-88833835D01*
X14749602Y-89018421D01*
X14906579Y-89175398D01*
X15091165Y-89298734D01*
X15296266Y-89383690D01*
X15514000Y-89427000D01*
X15736000Y-89427000D01*
X15953734Y-89383690D01*
X16158835Y-89298734D01*
X16343421Y-89175398D01*
X16366819Y-89152000D01*
X20564292Y-89152000D01*
X20600000Y-89155517D01*
X21468858Y-89155517D01*
X21475000Y-89156122D01*
X21481142Y-89155517D01*
X23100000Y-89155517D01*
X23242517Y-89141480D01*
X23303001Y-89123133D01*
X23303001Y-96709000D01*
X-3237000Y-96709000D01*
X-3237000Y-93400000D01*
X-3005517Y-93400000D01*
X-3005517Y-95100000D01*
X-2991480Y-95242517D01*
X-2949910Y-95379557D01*
X-2882403Y-95505853D01*
X-2791554Y-95616554D01*
X-2680853Y-95707403D01*
X-2554557Y-95774910D01*
X-2417517Y-95816480D01*
X-2275000Y-95830517D01*
X-1049393Y-95830517D01*
X-862049Y-96017861D01*
X-835369Y-96050371D01*
X-705635Y-96156840D01*
X-557623Y-96235955D01*
X-397020Y-96284673D01*
X-271851Y-96297001D01*
X-271848Y-96297001D01*
X-229999Y-96301123D01*
X-188150Y-96297001D01*
X3771641Y-96297001D01*
X3813490Y-96301123D01*
X3855339Y-96297001D01*
X3855342Y-96297001D01*
X3980511Y-96284673D01*
X4141114Y-96235955D01*
X4289126Y-96156840D01*
X4418860Y-96050371D01*
X4445545Y-96017855D01*
X9697882Y-90765519D01*
X9730391Y-90738840D01*
X9795988Y-90658909D01*
X9836860Y-90609107D01*
X9867149Y-90552440D01*
X9915975Y-90461094D01*
X9964693Y-90300491D01*
X9977021Y-90175322D01*
X9977021Y-90175320D01*
X9981143Y-90133471D01*
X9977021Y-90091622D01*
X9977021Y-80941870D01*
X9981143Y-80900021D01*
X9976413Y-80852000D01*
X10161000Y-80852000D01*
X10378734Y-80808690D01*
X10583835Y-80723734D01*
X10768421Y-80600398D01*
X10925398Y-80443421D01*
X11048734Y-80258835D01*
X11133690Y-80053734D01*
X11177000Y-79836000D01*
X11177000Y-79614000D01*
X11133690Y-79396266D01*
X11048734Y-79191165D01*
X10925398Y-79006579D01*
X10768421Y-78849602D01*
X10583835Y-78726266D01*
X10378734Y-78641310D01*
X10161000Y-78598000D01*
X9939000Y-78598000D01*
X9721266Y-78641310D01*
X9516165Y-78726266D01*
X9331579Y-78849602D01*
X9308181Y-78873000D01*
X8472814Y-78873000D01*
X8507403Y-78830853D01*
X8535874Y-78777589D01*
X8541849Y-78777000D01*
X8541852Y-78777000D01*
X8667021Y-78764672D01*
X8827624Y-78715954D01*
X8975636Y-78636839D01*
X9105370Y-78530370D01*
X9132055Y-78497854D01*
X10102910Y-77527000D01*
X10136000Y-77527000D01*
X10353734Y-77483690D01*
X10558835Y-77398734D01*
X10743421Y-77275398D01*
X10900398Y-77118421D01*
X11023734Y-76933835D01*
X11108690Y-76728734D01*
X11152000Y-76511000D01*
X11152000Y-76289000D01*
X11108690Y-76071266D01*
X11023734Y-75866165D01*
X10900398Y-75681579D01*
X10743421Y-75524602D01*
X10558835Y-75401266D01*
X10353734Y-75316310D01*
X10136000Y-75273000D01*
X9914000Y-75273000D01*
X9696266Y-75316310D01*
X9491165Y-75401266D01*
X9306579Y-75524602D01*
X9149602Y-75681579D01*
X9026266Y-75866165D01*
X8941310Y-76071266D01*
X8898000Y-76289000D01*
X8898000Y-76322090D01*
X8384499Y-76835592D01*
X8430537Y-76779494D01*
X8489502Y-76669180D01*
X8525812Y-76549482D01*
X8538072Y-76425000D01*
X8535000Y-76210750D01*
X8376250Y-76052000D01*
X6777000Y-76052000D01*
X6777000Y-76072000D01*
X6523000Y-76072000D01*
X6523000Y-76052000D01*
X4923750Y-76052000D01*
X4765000Y-76210750D01*
X4761928Y-76425000D01*
X4774188Y-76549482D01*
X4810498Y-76669180D01*
X4869463Y-76779494D01*
X4938328Y-76863406D01*
X4883446Y-76908446D01*
X4792597Y-77019147D01*
X4725090Y-77145443D01*
X4683520Y-77282483D01*
X4669483Y-77425000D01*
X4669483Y-78069761D01*
X4642702Y-78061903D01*
X3829605Y-78875000D01*
X4642702Y-79688097D01*
X4669483Y-79680239D01*
X4669483Y-80425000D01*
X4683520Y-80567517D01*
X4725090Y-80704557D01*
X4792597Y-80830853D01*
X4869861Y-80925000D01*
X4792597Y-81019147D01*
X4725090Y-81145443D01*
X4683520Y-81282483D01*
X4669483Y-81425000D01*
X4669483Y-82425000D01*
X4683520Y-82567517D01*
X4725090Y-82704557D01*
X4792597Y-82830853D01*
X4869861Y-82925000D01*
X4792597Y-83019147D01*
X4725090Y-83145443D01*
X4683520Y-83282483D01*
X4669483Y-83425000D01*
X4669483Y-84425000D01*
X4683520Y-84567517D01*
X4725090Y-84704557D01*
X4792597Y-84830853D01*
X4869861Y-84925000D01*
X4792597Y-85019147D01*
X4725090Y-85145443D01*
X4683520Y-85282483D01*
X4669483Y-85425000D01*
X4669483Y-85510290D01*
X4607403Y-85394147D01*
X4516554Y-85283446D01*
X4405853Y-85192597D01*
X4279557Y-85125090D01*
X4142517Y-85083520D01*
X4000000Y-85069483D01*
X2300000Y-85069483D01*
X2157483Y-85083520D01*
X2020443Y-85125090D01*
X1894147Y-85192597D01*
X1783446Y-85283446D01*
X1692597Y-85394147D01*
X1625090Y-85520443D01*
X1583520Y-85657483D01*
X1569483Y-85800000D01*
X1569483Y-86973001D01*
X114668Y-86973001D01*
X152000Y-86785321D01*
X152000Y-86474679D01*
X91396Y-86170006D01*
X-27481Y-85883011D01*
X-200064Y-85624721D01*
X-419721Y-85405064D01*
X-678011Y-85232481D01*
X-965006Y-85113604D01*
X-1269679Y-85053000D01*
X-1580321Y-85053000D01*
X-1884994Y-85113604D01*
X-2171989Y-85232481D01*
X-2430279Y-85405064D01*
X-2649936Y-85624721D01*
X-2822519Y-85883011D01*
X-2941396Y-86170006D01*
X-3002000Y-86474679D01*
X-3002000Y-86785321D01*
X-2941396Y-87089994D01*
X-2822519Y-87376989D01*
X-2649936Y-87635279D01*
X-2430279Y-87854936D01*
X-2362836Y-87900000D01*
X-2430279Y-87945064D01*
X-2649936Y-88164721D01*
X-2822519Y-88423011D01*
X-2941396Y-88710006D01*
X-3002000Y-89014679D01*
X-3002000Y-89325321D01*
X-2941396Y-89629994D01*
X-2822519Y-89916989D01*
X-2649936Y-90175279D01*
X-2430279Y-90394936D01*
X-2362836Y-90440000D01*
X-2430279Y-90485064D01*
X-2649936Y-90704721D01*
X-2822519Y-90963011D01*
X-2941396Y-91250006D01*
X-3002000Y-91554679D01*
X-3002000Y-91865321D01*
X-2941396Y-92169994D01*
X-2822519Y-92456989D01*
X-2649936Y-92715279D01*
X-2610319Y-92754896D01*
X-2680853Y-92792597D01*
X-2791554Y-92883446D01*
X-2882403Y-92994147D01*
X-2949910Y-93120443D01*
X-2991480Y-93257483D01*
X-3005517Y-93400000D01*
X-3237000Y-93400000D01*
X-3237000Y-83281891D01*
X-2881481Y-83281891D01*
X-2784157Y-83556252D01*
X-2635178Y-83806355D01*
X-2440269Y-84022588D01*
X-2206920Y-84196641D01*
X-1944099Y-84321825D01*
X-1796890Y-84366476D01*
X-1567000Y-84245155D01*
X-1567000Y-83052000D01*
X-2760814Y-83052000D01*
X-2881481Y-83281891D01*
X-3237000Y-83281891D01*
X-3237000Y-82568109D01*
X-2881481Y-82568109D01*
X-2760814Y-82798000D01*
X-1567000Y-82798000D01*
X-1567000Y-81604845D01*
X-1313000Y-81604845D01*
X-1313000Y-82798000D01*
X-1293000Y-82798000D01*
X-1293000Y-83052000D01*
X-1313000Y-83052000D01*
X-1313000Y-84245155D01*
X-1083110Y-84366476D01*
X-935901Y-84321825D01*
X-673080Y-84196641D01*
X-439731Y-84022588D01*
X-435898Y-84018335D01*
X-424910Y-84054557D01*
X-357403Y-84180853D01*
X-266554Y-84291554D01*
X-155853Y-84382403D01*
X-29557Y-84449910D01*
X107483Y-84491480D01*
X250000Y-84505517D01*
X1950000Y-84505517D01*
X2092517Y-84491480D01*
X2229557Y-84449910D01*
X2355853Y-84382403D01*
X2466554Y-84291554D01*
X2557403Y-84180853D01*
X2624910Y-84054557D01*
X2666480Y-83917517D01*
X2680517Y-83775000D01*
X2680517Y-82075000D01*
X2666480Y-81932483D01*
X2624910Y-81795443D01*
X2557403Y-81669147D01*
X2466554Y-81558446D01*
X2355853Y-81467597D01*
X2229557Y-81400090D01*
X2092517Y-81358520D01*
X1950000Y-81344483D01*
X250000Y-81344483D01*
X107483Y-81358520D01*
X-29557Y-81400090D01*
X-155853Y-81467597D01*
X-266554Y-81558446D01*
X-357403Y-81669147D01*
X-424910Y-81795443D01*
X-435898Y-81831665D01*
X-439731Y-81827412D01*
X-673080Y-81653359D01*
X-935901Y-81528175D01*
X-1083110Y-81483524D01*
X-1313000Y-81604845D01*
X-1567000Y-81604845D01*
X-1796890Y-81483524D01*
X-1944099Y-81528175D01*
X-2206920Y-81653359D01*
X-2440269Y-81827412D01*
X-2635178Y-82043645D01*
X-2784157Y-82293748D01*
X-2881481Y-82568109D01*
X-3237000Y-82568109D01*
X-3237000Y-78724604D01*
X-377000Y-78724604D01*
X-377000Y-79025396D01*
X-318319Y-79320410D01*
X-203210Y-79598306D01*
X-36099Y-79848406D01*
X176594Y-80061099D01*
X426694Y-80228210D01*
X704590Y-80343319D01*
X999604Y-80402000D01*
X1300396Y-80402000D01*
X1595410Y-80343319D01*
X1873306Y-80228210D01*
X2123406Y-80061099D01*
X2316803Y-79867702D01*
X2836903Y-79867702D01*
X2908486Y-80111671D01*
X3163996Y-80232571D01*
X3438184Y-80301300D01*
X3720512Y-80315217D01*
X4000130Y-80273787D01*
X4266292Y-80178603D01*
X4391514Y-80111671D01*
X4463097Y-79867702D01*
X3650000Y-79054605D01*
X2836903Y-79867702D01*
X2316803Y-79867702D01*
X2336099Y-79848406D01*
X2478305Y-79635579D01*
X2657298Y-79688097D01*
X3470395Y-78875000D01*
X2657298Y-78061903D01*
X2478305Y-78114421D01*
X2336099Y-77901594D01*
X2316803Y-77882298D01*
X2836903Y-77882298D01*
X3650000Y-78695395D01*
X4463097Y-77882298D01*
X4391514Y-77638329D01*
X4136004Y-77517429D01*
X3861816Y-77448700D01*
X3579488Y-77434783D01*
X3299870Y-77476213D01*
X3033708Y-77571397D01*
X2908486Y-77638329D01*
X2836903Y-77882298D01*
X2316803Y-77882298D01*
X2123406Y-77688901D01*
X1873306Y-77521790D01*
X1595410Y-77406681D01*
X1300396Y-77348000D01*
X999604Y-77348000D01*
X704590Y-77406681D01*
X426694Y-77521790D01*
X176594Y-77688901D01*
X-36099Y-77901594D01*
X-203210Y-78151694D01*
X-318319Y-78429590D01*
X-377000Y-78724604D01*
X-3237000Y-78724604D01*
X-3237000Y-74425000D01*
X4761928Y-74425000D01*
X4774188Y-74549482D01*
X4810498Y-74669180D01*
X4869463Y-74779494D01*
X4948815Y-74876185D01*
X5008296Y-74925000D01*
X4948815Y-74973815D01*
X4869463Y-75070506D01*
X4810498Y-75180820D01*
X4774188Y-75300518D01*
X4761928Y-75425000D01*
X4765000Y-75639250D01*
X4923750Y-75798000D01*
X6523000Y-75798000D01*
X6523000Y-74948750D01*
X6499250Y-74925000D01*
X6523000Y-74901250D01*
X6523000Y-74052000D01*
X4923750Y-74052000D01*
X4765000Y-74210750D01*
X4761928Y-74425000D01*
X-3237000Y-74425000D01*
X-3237000Y-73425000D01*
X4761928Y-73425000D01*
X4765000Y-73639250D01*
X4923750Y-73798000D01*
X6523000Y-73798000D01*
X6523000Y-72948750D01*
X6364250Y-72790000D01*
X5400000Y-72786928D01*
X5275518Y-72799188D01*
X5155820Y-72835498D01*
X5045506Y-72894463D01*
X4948815Y-72973815D01*
X4869463Y-73070506D01*
X4810498Y-73180820D01*
X4774188Y-73300518D01*
X4761928Y-73425000D01*
X-3237000Y-73425000D01*
X-3237000Y-70374764D01*
X6329841Y-70374764D01*
X6377148Y-70598348D01*
X6598516Y-70699237D01*
X6835313Y-70755000D01*
X7078438Y-70763495D01*
X7318549Y-70724395D01*
X7546418Y-70639202D01*
X7622852Y-70598348D01*
X7670159Y-70374764D01*
X7620159Y-70324764D01*
X11429841Y-70324764D01*
X11477148Y-70548348D01*
X11698516Y-70649237D01*
X11935313Y-70705000D01*
X12178438Y-70713495D01*
X12418549Y-70674395D01*
X12646418Y-70589202D01*
X12722852Y-70548348D01*
X12770159Y-70324764D01*
X12100000Y-69654605D01*
X11429841Y-70324764D01*
X7620159Y-70324764D01*
X7000000Y-69704605D01*
X6329841Y-70374764D01*
X-3237000Y-70374764D01*
X-3237000Y-67425000D01*
X5669483Y-67425000D01*
X5669483Y-68625000D01*
X5683520Y-68767517D01*
X5725090Y-68904557D01*
X5792597Y-69030853D01*
X5841073Y-69089922D01*
X5825763Y-69123516D01*
X5770000Y-69360313D01*
X5761505Y-69603438D01*
X5800605Y-69843549D01*
X5885798Y-70071418D01*
X5926652Y-70147852D01*
X6150236Y-70195159D01*
X6820395Y-69525000D01*
X6806253Y-69510858D01*
X6961593Y-69355517D01*
X7038407Y-69355517D01*
X7193748Y-69510858D01*
X7179605Y-69525000D01*
X7849764Y-70195159D01*
X8073348Y-70147852D01*
X8174237Y-69926484D01*
X8230000Y-69689687D01*
X8238495Y-69446562D01*
X8199395Y-69206451D01*
X8156798Y-69092516D01*
X8207403Y-69030853D01*
X8274910Y-68904557D01*
X8316480Y-68767517D01*
X8330517Y-68625000D01*
X8330517Y-67425000D01*
X8325593Y-67375000D01*
X10769483Y-67375000D01*
X10769483Y-68575000D01*
X10783520Y-68717517D01*
X10825090Y-68854557D01*
X10892597Y-68980853D01*
X10941073Y-69039922D01*
X10925763Y-69073516D01*
X10870000Y-69310313D01*
X10861505Y-69553438D01*
X10900605Y-69793549D01*
X10985798Y-70021418D01*
X11026652Y-70097852D01*
X11250236Y-70145159D01*
X11920395Y-69475000D01*
X11906253Y-69460858D01*
X12061593Y-69305517D01*
X12138407Y-69305517D01*
X12293748Y-69460858D01*
X12279605Y-69475000D01*
X12949764Y-70145159D01*
X13173348Y-70097852D01*
X13274237Y-69876484D01*
X13330000Y-69639687D01*
X13338495Y-69396562D01*
X13299395Y-69156451D01*
X13256798Y-69042516D01*
X13307403Y-68980853D01*
X13374910Y-68854557D01*
X13416480Y-68717517D01*
X13430517Y-68575000D01*
X13430517Y-67375000D01*
X13416480Y-67232483D01*
X13374910Y-67095443D01*
X13307403Y-66969147D01*
X13216554Y-66858446D01*
X13206262Y-66849999D01*
X16194483Y-66849999D01*
X16194483Y-68100001D01*
X16213323Y-68291290D01*
X16269120Y-68475228D01*
X16359730Y-68644747D01*
X16481669Y-68793331D01*
X16630253Y-68915270D01*
X16799772Y-69005880D01*
X16983710Y-69061677D01*
X17174999Y-69080517D01*
X17875001Y-69080517D01*
X18066290Y-69061677D01*
X18250228Y-69005880D01*
X18419747Y-68915270D01*
X18568331Y-68793331D01*
X18682345Y-68654404D01*
X18741526Y-68713078D01*
X18944467Y-68847421D01*
X19169718Y-68939591D01*
X19207391Y-68943462D01*
X19398000Y-68818731D01*
X19398000Y-67602000D01*
X19652000Y-67602000D01*
X19652000Y-68818731D01*
X19842609Y-68943462D01*
X19880282Y-68939591D01*
X20105533Y-68847421D01*
X20308474Y-68713078D01*
X20481307Y-68541725D01*
X20617390Y-68339946D01*
X20711493Y-68115496D01*
X20760000Y-67877000D01*
X20760000Y-67602000D01*
X19652000Y-67602000D01*
X19398000Y-67602000D01*
X19378000Y-67602000D01*
X19378000Y-67348000D01*
X19398000Y-67348000D01*
X19398000Y-66131269D01*
X19652000Y-66131269D01*
X19652000Y-67348000D01*
X20760000Y-67348000D01*
X20760000Y-67073000D01*
X20711493Y-66834504D01*
X20617390Y-66610054D01*
X20481307Y-66408275D01*
X20308474Y-66236922D01*
X20105533Y-66102579D01*
X19880282Y-66010409D01*
X19842609Y-66006538D01*
X19652000Y-66131269D01*
X19398000Y-66131269D01*
X19207391Y-66006538D01*
X19169718Y-66010409D01*
X18944467Y-66102579D01*
X18741526Y-66236922D01*
X18682345Y-66295596D01*
X18568331Y-66156669D01*
X18419747Y-66034730D01*
X18250228Y-65944120D01*
X18066290Y-65888323D01*
X17875001Y-65869483D01*
X17174999Y-65869483D01*
X16983710Y-65888323D01*
X16799772Y-65944120D01*
X16630253Y-66034730D01*
X16481669Y-66156669D01*
X16359730Y-66305253D01*
X16269120Y-66474772D01*
X16213323Y-66658710D01*
X16194483Y-66849999D01*
X13206262Y-66849999D01*
X13105853Y-66767597D01*
X12979557Y-66700090D01*
X12842517Y-66658520D01*
X12700000Y-66644483D01*
X11500000Y-66644483D01*
X11357483Y-66658520D01*
X11220443Y-66700090D01*
X11094147Y-66767597D01*
X10983446Y-66858446D01*
X10892597Y-66969147D01*
X10825090Y-67095443D01*
X10783520Y-67232483D01*
X10769483Y-67375000D01*
X8325593Y-67375000D01*
X8316480Y-67282483D01*
X8274910Y-67145443D01*
X8207403Y-67019147D01*
X8116554Y-66908446D01*
X8005853Y-66817597D01*
X7879557Y-66750090D01*
X7742517Y-66708520D01*
X7600000Y-66694483D01*
X6400000Y-66694483D01*
X6257483Y-66708520D01*
X6120443Y-66750090D01*
X5994147Y-66817597D01*
X5883446Y-66908446D01*
X5792597Y-67019147D01*
X5725090Y-67145443D01*
X5683520Y-67282483D01*
X5669483Y-67425000D01*
X-3237000Y-67425000D01*
X-3237000Y-65597000D01*
X23303000Y-65597000D01*
X23303000Y-72726867D01*
G36*
X1753175Y-88685901D02*
G01*
X1708524Y-88833110D01*
X1829845Y-89063000D01*
X3023000Y-89063000D01*
X3023000Y-89043000D01*
X3277000Y-89043000D01*
X3277000Y-89063000D01*
X3297000Y-89063000D01*
X3297000Y-89317000D01*
X3277000Y-89317000D01*
X3277000Y-89337000D01*
X3023000Y-89337000D01*
X3023000Y-89317000D01*
X1829845Y-89317000D01*
X1726408Y-89513001D01*
X114668Y-89513001D01*
X152000Y-89325321D01*
X152000Y-89014679D01*
X116035Y-88833874D01*
X272909Y-88677001D01*
X1757414Y-88677001D01*
X1753175Y-88685901D01*
G37*
X1753175Y-88685901D02*
X1708524Y-88833110D01*
X1829845Y-89063000D01*
X3023000Y-89063000D01*
X3023000Y-89043000D01*
X3277000Y-89043000D01*
X3277000Y-89063000D01*
X3297000Y-89063000D01*
X3297000Y-89317000D01*
X3277000Y-89317000D01*
X3277000Y-89337000D01*
X3023000Y-89337000D01*
X3023000Y-89317000D01*
X1829845Y-89317000D01*
X1726408Y-89513001D01*
X114668Y-89513001D01*
X152000Y-89325321D01*
X152000Y-89014679D01*
X116035Y-88833874D01*
X272909Y-88677001D01*
X1757414Y-88677001D01*
X1753175Y-88685901D01*
%TD*%
M02*
